G04 #@! TF.FileFunction,Soldermask,Top*
%FSLAX46Y46*%
G04 Gerber Fmt 4.6, Leading zero omitted, Abs format (unit mm)*
G04 Created by KiCad (PCBNEW 4.0.2-stable) date 1/4/2018 3:46:39 PM*
%MOMM*%
G01*
G04 APERTURE LIST*
%ADD10C,0.050000*%
G04 APERTURE END LIST*
D10*
G36*
X71696600Y-74064020D02*
X70721200Y-74064020D01*
X70721200Y-72938620D01*
X71696600Y-72938620D01*
X71696600Y-74064020D01*
X71696600Y-74064020D01*
G37*
G36*
X80586600Y-74064020D02*
X79611200Y-74064020D01*
X79611200Y-72938620D01*
X80586600Y-72938620D01*
X80586600Y-74064020D01*
X80586600Y-74064020D01*
G37*
G36*
X67886600Y-74064020D02*
X66911200Y-74064020D01*
X66911200Y-72938620D01*
X67886600Y-72938620D01*
X67886600Y-74064020D01*
X67886600Y-74064020D01*
G37*
G36*
X69156600Y-74064020D02*
X68181200Y-74064020D01*
X68181200Y-72938620D01*
X69156600Y-72938620D01*
X69156600Y-74064020D01*
X69156600Y-74064020D01*
G37*
G36*
X70426600Y-74064020D02*
X69451200Y-74064020D01*
X69451200Y-72938620D01*
X70426600Y-72938620D01*
X70426600Y-74064020D01*
X70426600Y-74064020D01*
G37*
G36*
X72966600Y-74064020D02*
X71991200Y-74064020D01*
X71991200Y-72938620D01*
X72966600Y-72938620D01*
X72966600Y-74064020D01*
X72966600Y-74064020D01*
G37*
G36*
X74236600Y-74064020D02*
X73261200Y-74064020D01*
X73261200Y-72938620D01*
X74236600Y-72938620D01*
X74236600Y-74064020D01*
X74236600Y-74064020D01*
G37*
G36*
X75506600Y-74064020D02*
X74531200Y-74064020D01*
X74531200Y-72938620D01*
X75506600Y-72938620D01*
X75506600Y-74064020D01*
X75506600Y-74064020D01*
G37*
G36*
X76776600Y-74064020D02*
X75801200Y-74064020D01*
X75801200Y-72938620D01*
X76776600Y-72938620D01*
X76776600Y-74064020D01*
X76776600Y-74064020D01*
G37*
G36*
X78046600Y-74064020D02*
X77071200Y-74064020D01*
X77071200Y-72938620D01*
X78046600Y-72938620D01*
X78046600Y-74064020D01*
X78046600Y-74064020D01*
G37*
G36*
X79316600Y-74064020D02*
X78341200Y-74064020D01*
X78341200Y-72938620D01*
X79316600Y-72938620D01*
X79316600Y-74064020D01*
X79316600Y-74064020D01*
G37*
G36*
X81856600Y-74064020D02*
X80881200Y-74064020D01*
X80881200Y-72938620D01*
X81856600Y-72938620D01*
X81856600Y-74064020D01*
X81856600Y-74064020D01*
G37*
G36*
X84642600Y-73914020D02*
X83167200Y-73914020D01*
X83167200Y-72938620D01*
X84642600Y-72938620D01*
X84642600Y-73914020D01*
X84642600Y-73914020D01*
G37*
G36*
X65600600Y-73914020D02*
X64125200Y-73914020D01*
X64125200Y-72938620D01*
X65600600Y-72938620D01*
X65600600Y-73914020D01*
X65600600Y-73914020D01*
G37*
G36*
X65600600Y-72644020D02*
X64125200Y-72644020D01*
X64125200Y-71668620D01*
X65600600Y-71668620D01*
X65600600Y-72644020D01*
X65600600Y-72644020D01*
G37*
G36*
X84642600Y-72644020D02*
X83167200Y-72644020D01*
X83167200Y-71668620D01*
X84642600Y-71668620D01*
X84642600Y-72644020D01*
X84642600Y-72644020D01*
G37*
G36*
X65600600Y-71374020D02*
X64125200Y-71374020D01*
X64125200Y-70398620D01*
X65600600Y-70398620D01*
X65600600Y-71374020D01*
X65600600Y-71374020D01*
G37*
G36*
X84642600Y-71374020D02*
X83167200Y-71374020D01*
X83167200Y-70398620D01*
X84642600Y-70398620D01*
X84642600Y-71374020D01*
X84642600Y-71374020D01*
G37*
G36*
X65600600Y-70104020D02*
X64125200Y-70104020D01*
X64125200Y-69128620D01*
X65600600Y-69128620D01*
X65600600Y-70104020D01*
X65600600Y-70104020D01*
G37*
G36*
X84642600Y-70104020D02*
X83167200Y-70104020D01*
X83167200Y-69128620D01*
X84642600Y-69128620D01*
X84642600Y-70104020D01*
X84642600Y-70104020D01*
G37*
G36*
X74236600Y-68834020D02*
X73261200Y-68834020D01*
X73261200Y-67708620D01*
X74236600Y-67708620D01*
X74236600Y-68834020D01*
X74236600Y-68834020D01*
G37*
G36*
X72966600Y-68834020D02*
X71991200Y-68834020D01*
X71991200Y-67708620D01*
X72966600Y-67708620D01*
X72966600Y-68834020D01*
X72966600Y-68834020D01*
G37*
G36*
X71696600Y-68834020D02*
X70721200Y-68834020D01*
X70721200Y-67708620D01*
X71696600Y-67708620D01*
X71696600Y-68834020D01*
X71696600Y-68834020D01*
G37*
G36*
X69156600Y-68834020D02*
X68181200Y-68834020D01*
X68181200Y-67708620D01*
X69156600Y-67708620D01*
X69156600Y-68834020D01*
X69156600Y-68834020D01*
G37*
G36*
X70426600Y-68834020D02*
X69451200Y-68834020D01*
X69451200Y-67708620D01*
X70426600Y-67708620D01*
X70426600Y-68834020D01*
X70426600Y-68834020D01*
G37*
G36*
X76776600Y-68834020D02*
X75801200Y-68834020D01*
X75801200Y-67708620D01*
X76776600Y-67708620D01*
X76776600Y-68834020D01*
X76776600Y-68834020D01*
G37*
G36*
X78046600Y-68834020D02*
X77071200Y-68834020D01*
X77071200Y-67708620D01*
X78046600Y-67708620D01*
X78046600Y-68834020D01*
X78046600Y-68834020D01*
G37*
G36*
X79316600Y-68834020D02*
X78341200Y-68834020D01*
X78341200Y-67708620D01*
X79316600Y-67708620D01*
X79316600Y-68834020D01*
X79316600Y-68834020D01*
G37*
G36*
X80586600Y-68834020D02*
X79611200Y-68834020D01*
X79611200Y-67708620D01*
X80586600Y-67708620D01*
X80586600Y-68834020D01*
X80586600Y-68834020D01*
G37*
G36*
X81856600Y-68834020D02*
X80881200Y-68834020D01*
X80881200Y-67708620D01*
X81856600Y-67708620D01*
X81856600Y-68834020D01*
X81856600Y-68834020D01*
G37*
G36*
X67886600Y-68834020D02*
X66911200Y-68834020D01*
X66911200Y-67708620D01*
X67886600Y-67708620D01*
X67886600Y-68834020D01*
X67886600Y-68834020D01*
G37*
G36*
X65600600Y-68834020D02*
X64125200Y-68834020D01*
X64125200Y-67858620D01*
X65600600Y-67858620D01*
X65600600Y-68834020D01*
X65600600Y-68834020D01*
G37*
G36*
X75506600Y-68834020D02*
X74531200Y-68834020D01*
X74531200Y-67708620D01*
X75506600Y-67708620D01*
X75506600Y-68834020D01*
X75506600Y-68834020D01*
G37*
G36*
X84642600Y-68834020D02*
X83167200Y-68834020D01*
X83167200Y-67858620D01*
X84642600Y-67858620D01*
X84642600Y-68834020D01*
X84642600Y-68834020D01*
G37*
M02*
