M48
INCH,TZ
T1C0.016
T2C0.024
%
G90
G05
T1
X29090Y-27470
X29110Y-28170
X29840Y-28146
X30330Y-28146
X30800Y-27540
X30820Y-28146
X31330Y-28146
X31340Y-27540
X31690Y-27540
X31790Y-28146
X32340Y-28150
X32350Y-27540
T2
X25635Y-26908
X25635Y-27408
X25635Y-27908
X25635Y-28408
X25635Y-28908
X26535Y-26908
X26535Y-28908
X27035Y-26908
X27035Y-28908
X27535Y-26908
X27535Y-28908
X28035Y-26908
X28035Y-28908
X28535Y-26908
X28535Y-28908
X29035Y-26908
X29035Y-28908
X29535Y-26908
X29535Y-28908
X30035Y-26908
X30035Y-28908
X30535Y-26908
X30535Y-28908
X31035Y-26908
X31035Y-28908
X31535Y-26908
X31535Y-28908
X32035Y-26908
X32035Y-28908
X32935Y-26908
X32935Y-27408
X32935Y-27908
X32935Y-28408
X32935Y-28908
T0
M30
