G04 #@! TF.FileFunction,Copper,L1,Top,Signal*
%FSLAX46Y46*%
G04 Gerber Fmt 4.6, Leading zero omitted, Abs format (unit mm)*
G04 Created by KiCad (PCBNEW 4.0.2-stable) date 1/4/2018 3:46:38 PM*
%MOMM*%
G01*
G04 APERTURE LIST*
%ADD10C,0.050000*%
%ADD11R,0.950000X1.100000*%
%ADD12R,1.450000X0.950000*%
%ADD13C,0.600000*%
%ADD14C,0.152400*%
%ADD15C,0.381000*%
%ADD16C,0.508000*%
%ADD17C,0.203200*%
%ADD18C,1.016000*%
%ADD19C,0.254000*%
G04 APERTURE END LIST*
D10*
X68480221Y-70626276D02*
X68480221Y-70426276D01*
X68480221Y-70521514D02*
X68594507Y-70521514D01*
X68594507Y-70626276D02*
X68594507Y-70426276D01*
X68775459Y-70492943D02*
X68775459Y-70626276D01*
X68689745Y-70492943D02*
X68689745Y-70597705D01*
X68699269Y-70616752D01*
X68718316Y-70626276D01*
X68746888Y-70626276D01*
X68765936Y-70616752D01*
X68775459Y-70607229D01*
X68870697Y-70626276D02*
X68870697Y-70426276D01*
X68870697Y-70502467D02*
X68889745Y-70492943D01*
X68927840Y-70492943D01*
X68946888Y-70502467D01*
X68956411Y-70511990D01*
X68965935Y-70531038D01*
X68965935Y-70588181D01*
X68956411Y-70607229D01*
X68946888Y-70616752D01*
X68927840Y-70626276D01*
X68889745Y-70626276D01*
X68870697Y-70616752D01*
X69042125Y-70616752D02*
X69061173Y-70626276D01*
X69099268Y-70626276D01*
X69118316Y-70616752D01*
X69127840Y-70597705D01*
X69127840Y-70588181D01*
X69118316Y-70569133D01*
X69099268Y-70559610D01*
X69070697Y-70559610D01*
X69051649Y-70550086D01*
X69042125Y-70531038D01*
X69042125Y-70521514D01*
X69051649Y-70502467D01*
X69070697Y-70492943D01*
X69099268Y-70492943D01*
X69118316Y-70502467D01*
X69194506Y-70492943D02*
X69242125Y-70626276D01*
X69289745Y-70492943D02*
X69242125Y-70626276D01*
X69223078Y-70673895D01*
X69213554Y-70683419D01*
X69194506Y-70692943D01*
X69518316Y-70626276D02*
X69518316Y-70426276D01*
X69594507Y-70426276D01*
X69613554Y-70435800D01*
X69623078Y-70445324D01*
X69632602Y-70464371D01*
X69632602Y-70492943D01*
X69623078Y-70511990D01*
X69613554Y-70521514D01*
X69594507Y-70531038D01*
X69518316Y-70531038D01*
X69804030Y-70492943D02*
X69804030Y-70626276D01*
X69718316Y-70492943D02*
X69718316Y-70597705D01*
X69727840Y-70616752D01*
X69746887Y-70626276D01*
X69775459Y-70626276D01*
X69794507Y-70616752D01*
X69804030Y-70607229D01*
X69889744Y-70616752D02*
X69908792Y-70626276D01*
X69946887Y-70626276D01*
X69965935Y-70616752D01*
X69975459Y-70597705D01*
X69975459Y-70588181D01*
X69965935Y-70569133D01*
X69946887Y-70559610D01*
X69918316Y-70559610D01*
X69899268Y-70550086D01*
X69889744Y-70531038D01*
X69889744Y-70521514D01*
X69899268Y-70502467D01*
X69918316Y-70492943D01*
X69946887Y-70492943D01*
X69965935Y-70502467D01*
X70061173Y-70626276D02*
X70061173Y-70426276D01*
X70146887Y-70626276D02*
X70146887Y-70521514D01*
X70137364Y-70502467D01*
X70118316Y-70492943D01*
X70089744Y-70492943D01*
X70070697Y-70502467D01*
X70061173Y-70511990D01*
X70327839Y-70492943D02*
X70327839Y-70626276D01*
X70242125Y-70492943D02*
X70242125Y-70597705D01*
X70251649Y-70616752D01*
X70270696Y-70626276D01*
X70299268Y-70626276D01*
X70318316Y-70616752D01*
X70327839Y-70607229D01*
X70423077Y-70492943D02*
X70423077Y-70692943D01*
X70423077Y-70502467D02*
X70442125Y-70492943D01*
X70480220Y-70492943D01*
X70499268Y-70502467D01*
X70508791Y-70511990D01*
X70518315Y-70531038D01*
X70518315Y-70588181D01*
X70508791Y-70607229D01*
X70499268Y-70616752D01*
X70480220Y-70626276D01*
X70442125Y-70626276D01*
X70423077Y-70616752D01*
X70613553Y-70616752D02*
X70613553Y-70626276D01*
X70604029Y-70645324D01*
X70594505Y-70654848D01*
X70604029Y-70502467D02*
X70613553Y-70511990D01*
X70604029Y-70521514D01*
X70594505Y-70511990D01*
X70604029Y-70502467D01*
X70604029Y-70521514D01*
X70908791Y-70426276D02*
X70908791Y-70569133D01*
X70899267Y-70597705D01*
X70880219Y-70616752D01*
X70851648Y-70626276D01*
X70832600Y-70626276D01*
X71089743Y-70626276D02*
X71089743Y-70521514D01*
X71080220Y-70502467D01*
X71061172Y-70492943D01*
X71023077Y-70492943D01*
X71004029Y-70502467D01*
X71089743Y-70616752D02*
X71070696Y-70626276D01*
X71023077Y-70626276D01*
X71004029Y-70616752D01*
X70994505Y-70597705D01*
X70994505Y-70578657D01*
X71004029Y-70559610D01*
X71023077Y-70550086D01*
X71070696Y-70550086D01*
X71089743Y-70540562D01*
X71184981Y-70492943D02*
X71184981Y-70626276D01*
X71184981Y-70511990D02*
X71194505Y-70502467D01*
X71213552Y-70492943D01*
X71242124Y-70492943D01*
X71261172Y-70502467D01*
X71270695Y-70521514D01*
X71270695Y-70626276D01*
X71508790Y-70445324D02*
X71518314Y-70435800D01*
X71537362Y-70426276D01*
X71584981Y-70426276D01*
X71604028Y-70435800D01*
X71613552Y-70445324D01*
X71623076Y-70464371D01*
X71623076Y-70483419D01*
X71613552Y-70511990D01*
X71499266Y-70626276D01*
X71623076Y-70626276D01*
X71746885Y-70426276D02*
X71765933Y-70426276D01*
X71784981Y-70435800D01*
X71794504Y-70445324D01*
X71804028Y-70464371D01*
X71813552Y-70502467D01*
X71813552Y-70550086D01*
X71804028Y-70588181D01*
X71794504Y-70607229D01*
X71784981Y-70616752D01*
X71765933Y-70626276D01*
X71746885Y-70626276D01*
X71727838Y-70616752D01*
X71718314Y-70607229D01*
X71708790Y-70588181D01*
X71699266Y-70550086D01*
X71699266Y-70502467D01*
X71708790Y-70464371D01*
X71718314Y-70445324D01*
X71727838Y-70435800D01*
X71746885Y-70426276D01*
X72004028Y-70626276D02*
X71889742Y-70626276D01*
X71946885Y-70626276D02*
X71946885Y-70426276D01*
X71927837Y-70454848D01*
X71908790Y-70473895D01*
X71889742Y-70483419D01*
X72118313Y-70511990D02*
X72099266Y-70502467D01*
X72089742Y-70492943D01*
X72080218Y-70473895D01*
X72080218Y-70464371D01*
X72089742Y-70445324D01*
X72099266Y-70435800D01*
X72118313Y-70426276D01*
X72156409Y-70426276D01*
X72175456Y-70435800D01*
X72184980Y-70445324D01*
X72194504Y-70464371D01*
X72194504Y-70473895D01*
X72184980Y-70492943D01*
X72175456Y-70502467D01*
X72156409Y-70511990D01*
X72118313Y-70511990D01*
X72099266Y-70521514D01*
X72089742Y-70531038D01*
X72080218Y-70550086D01*
X72080218Y-70588181D01*
X72089742Y-70607229D01*
X72099266Y-70616752D01*
X72118313Y-70626276D01*
X72156409Y-70626276D01*
X72175456Y-70616752D01*
X72184980Y-70607229D01*
X72194504Y-70588181D01*
X72194504Y-70550086D01*
X72184980Y-70531038D01*
X72175456Y-70521514D01*
X72156409Y-70511990D01*
X69900857Y-69507914D02*
X70000857Y-69807914D01*
X70100857Y-69507914D01*
X70186572Y-69536486D02*
X70200858Y-69522200D01*
X70229429Y-69507914D01*
X70300858Y-69507914D01*
X70329429Y-69522200D01*
X70343715Y-69536486D01*
X70358000Y-69565057D01*
X70358000Y-69593629D01*
X70343715Y-69636486D01*
X70172286Y-69807914D01*
X70358000Y-69807914D01*
X70486572Y-69779343D02*
X70500857Y-69793629D01*
X70486572Y-69807914D01*
X70472286Y-69793629D01*
X70486572Y-69779343D01*
X70486572Y-69807914D01*
X70786571Y-69807914D02*
X70615143Y-69807914D01*
X70700857Y-69807914D02*
X70700857Y-69507914D01*
X70672286Y-69550771D01*
X70643714Y-69579343D01*
X70615143Y-69593629D01*
D11*
X67398900Y-73501320D03*
X68668900Y-68271320D03*
X69938900Y-68271320D03*
X71208900Y-68271320D03*
X72478900Y-68271320D03*
X73748900Y-68271320D03*
X75018900Y-68271320D03*
X76288900Y-68271320D03*
X77558900Y-68271320D03*
X78828900Y-68271320D03*
X80098900Y-68271320D03*
X81368900Y-68271320D03*
X68668900Y-73501320D03*
X69938900Y-73501320D03*
X71208900Y-73501320D03*
X72478900Y-73501320D03*
X73748900Y-73501320D03*
X75018900Y-73501320D03*
X76288900Y-73501320D03*
X77558900Y-73501320D03*
X80098900Y-73501320D03*
X78828900Y-73501320D03*
X81368900Y-73501320D03*
X67398900Y-68271320D03*
D12*
X64862900Y-68346320D03*
X64862900Y-69616320D03*
X64862900Y-70886320D03*
X64862900Y-72156320D03*
X64862900Y-73426320D03*
X83904900Y-68346320D03*
X83904900Y-69616320D03*
X83904900Y-70886320D03*
X83904900Y-73426320D03*
X83904900Y-72156320D03*
D13*
X73888600Y-69773800D03*
X73939400Y-71551800D03*
X82169000Y-69951300D03*
X78232000Y-69951300D03*
X79603600Y-69951300D03*
X80492600Y-69951300D03*
X82143600Y-71501000D03*
X80746600Y-71491130D03*
X79578200Y-71491130D03*
X78282800Y-71491130D03*
X77038200Y-71491130D03*
X75793600Y-71491130D03*
D14*
X73748900Y-68346320D02*
X73748900Y-68973720D01*
X73748900Y-68973720D02*
X73837780Y-69062600D01*
X73837780Y-69062600D02*
X74930000Y-69062600D01*
X74930000Y-69062600D02*
X75018900Y-69151500D01*
X75018900Y-69151500D02*
X75018900Y-73426320D01*
D15*
X71208900Y-73426320D02*
X71208900Y-73723542D01*
X71208900Y-73723542D02*
X70688221Y-74244221D01*
X70688221Y-74244221D02*
X65930801Y-74244221D01*
X65930801Y-74244221D02*
X65112900Y-73426320D01*
D16*
X65247520Y-73426320D02*
X65112900Y-73426320D01*
D14*
X65112900Y-70886320D02*
X73273920Y-70886320D01*
X73273920Y-70886320D02*
X73939400Y-71551800D01*
X79603600Y-69951300D02*
X78232000Y-69951300D01*
D17*
X81368900Y-70053200D02*
X81368900Y-69392800D01*
X81368900Y-73426320D02*
X81368900Y-70053200D01*
D14*
X81368900Y-70053200D02*
X80594500Y-70053200D01*
X80594500Y-70053200D02*
X80492600Y-69951300D01*
D17*
X81368900Y-71348600D02*
X80746600Y-71491130D01*
X80746600Y-71491130D02*
X79578200Y-71491130D01*
X79578200Y-71491130D02*
X78282800Y-71491130D01*
X78282800Y-71491130D02*
X77038200Y-71491130D01*
X77038200Y-71491130D02*
X75936130Y-71348600D01*
D18*
X81368900Y-71348600D02*
X81368900Y-69392800D01*
X81368900Y-72207120D02*
X81368900Y-71348600D01*
D17*
X75936130Y-71348600D02*
X75793600Y-71491130D01*
D16*
X81368900Y-73426320D02*
X81368900Y-72207120D01*
X81368900Y-68346320D02*
X81368900Y-69009260D01*
D17*
X81368900Y-69392800D02*
X81368900Y-69009260D01*
D16*
X67398900Y-69369940D02*
X67398900Y-68346320D01*
X67398900Y-70916800D02*
X67398900Y-69369940D01*
X67398900Y-72443320D02*
X67398900Y-72169020D01*
X67398900Y-72169020D02*
X67398900Y-70916800D01*
D18*
X67398900Y-69369940D02*
X67398900Y-72169020D01*
D16*
X65112900Y-70886320D02*
X66095900Y-70886320D01*
X66095900Y-70886320D02*
X66126380Y-70916800D01*
X66126380Y-70916800D02*
X67398900Y-70916800D01*
X67398900Y-73426320D02*
X67398900Y-72443320D01*
X83654900Y-72156320D02*
X82671900Y-72156320D01*
X82671900Y-72156320D02*
X82621100Y-72207120D01*
X82621100Y-72207120D02*
X82113100Y-72207120D01*
D18*
X82113100Y-72207120D02*
X81368900Y-72207120D01*
D19*
G36*
X82843231Y-68821320D02*
X82866256Y-68943685D01*
X82890041Y-68980649D01*
X82869756Y-69010337D01*
X82843231Y-69141320D01*
X82843231Y-70091320D01*
X82866256Y-70213685D01*
X82890041Y-70250649D01*
X82869756Y-70280337D01*
X82843231Y-70411320D01*
X82843231Y-71299569D01*
X82749239Y-71393561D01*
X82671900Y-71580272D01*
X82671900Y-71965820D01*
X82798900Y-72092820D01*
X83841400Y-72092820D01*
X83841400Y-72072820D01*
X83968400Y-72072820D01*
X83968400Y-72092820D01*
X83988400Y-72092820D01*
X83988400Y-72219820D01*
X83968400Y-72219820D01*
X83968400Y-72239820D01*
X83841400Y-72239820D01*
X83841400Y-72219820D01*
X82798900Y-72219820D01*
X82671900Y-72346820D01*
X82671900Y-72732368D01*
X82749239Y-72919079D01*
X82843231Y-73013071D01*
X82843231Y-73901320D01*
X82866256Y-74023685D01*
X82872889Y-74033994D01*
X82836044Y-74089137D01*
X82805200Y-74244200D01*
X82805200Y-74296200D01*
X82292322Y-74296200D01*
X82351900Y-74152368D01*
X82351900Y-73691820D01*
X82224900Y-73564820D01*
X81432400Y-73564820D01*
X81432400Y-73584820D01*
X81305400Y-73584820D01*
X81305400Y-73564820D01*
X81285400Y-73564820D01*
X81285400Y-73437820D01*
X81305400Y-73437820D01*
X81305400Y-72570320D01*
X81432400Y-72570320D01*
X81432400Y-73437820D01*
X82224900Y-73437820D01*
X82351900Y-73310820D01*
X82351900Y-72850272D01*
X82274561Y-72663561D01*
X82131658Y-72520658D01*
X81944947Y-72443320D01*
X81559400Y-72443320D01*
X81432400Y-72570320D01*
X81305400Y-72570320D01*
X81178400Y-72443320D01*
X80792853Y-72443320D01*
X80606142Y-72520658D01*
X80512149Y-72614651D01*
X79623900Y-72614651D01*
X79501535Y-72637676D01*
X79464571Y-72661461D01*
X79434883Y-72641176D01*
X79303900Y-72614651D01*
X78353900Y-72614651D01*
X78231535Y-72637676D01*
X78194571Y-72661461D01*
X78164883Y-72641176D01*
X78033900Y-72614651D01*
X77083900Y-72614651D01*
X76961535Y-72637676D01*
X76924571Y-72661461D01*
X76894883Y-72641176D01*
X76763900Y-72614651D01*
X75813900Y-72614651D01*
X75691535Y-72637676D01*
X75654571Y-72661461D01*
X75624883Y-72641176D01*
X75493900Y-72614651D01*
X75425300Y-72614651D01*
X75425300Y-69157989D01*
X75493900Y-69157989D01*
X75616265Y-69134964D01*
X75653229Y-69111179D01*
X75682917Y-69131464D01*
X75813900Y-69157989D01*
X76763900Y-69157989D01*
X76886265Y-69134964D01*
X76923229Y-69111179D01*
X76952917Y-69131464D01*
X77083900Y-69157989D01*
X78033900Y-69157989D01*
X78156265Y-69134964D01*
X78193229Y-69111179D01*
X78222917Y-69131464D01*
X78353900Y-69157989D01*
X79303900Y-69157989D01*
X79426265Y-69134964D01*
X79463229Y-69111179D01*
X79492917Y-69131464D01*
X79623900Y-69157989D01*
X80512149Y-69157989D01*
X80606142Y-69251982D01*
X80792853Y-69329320D01*
X81178400Y-69329320D01*
X81305400Y-69202320D01*
X81305400Y-68334820D01*
X81432400Y-68334820D01*
X81432400Y-69202320D01*
X81559400Y-69329320D01*
X81944947Y-69329320D01*
X82131658Y-69251982D01*
X82274561Y-69109079D01*
X82351900Y-68922368D01*
X82351900Y-68461820D01*
X82224900Y-68334820D01*
X81432400Y-68334820D01*
X81305400Y-68334820D01*
X81285400Y-68334820D01*
X81285400Y-68207820D01*
X81305400Y-68207820D01*
X81305400Y-68187820D01*
X81432400Y-68187820D01*
X81432400Y-68207820D01*
X82224900Y-68207820D01*
X82302300Y-68130420D01*
X82843231Y-68130420D01*
X82843231Y-68821320D01*
X82843231Y-68821320D01*
G37*
X82843231Y-68821320D02*
X82866256Y-68943685D01*
X82890041Y-68980649D01*
X82869756Y-69010337D01*
X82843231Y-69141320D01*
X82843231Y-70091320D01*
X82866256Y-70213685D01*
X82890041Y-70250649D01*
X82869756Y-70280337D01*
X82843231Y-70411320D01*
X82843231Y-71299569D01*
X82749239Y-71393561D01*
X82671900Y-71580272D01*
X82671900Y-71965820D01*
X82798900Y-72092820D01*
X83841400Y-72092820D01*
X83841400Y-72072820D01*
X83968400Y-72072820D01*
X83968400Y-72092820D01*
X83988400Y-72092820D01*
X83988400Y-72219820D01*
X83968400Y-72219820D01*
X83968400Y-72239820D01*
X83841400Y-72239820D01*
X83841400Y-72219820D01*
X82798900Y-72219820D01*
X82671900Y-72346820D01*
X82671900Y-72732368D01*
X82749239Y-72919079D01*
X82843231Y-73013071D01*
X82843231Y-73901320D01*
X82866256Y-74023685D01*
X82872889Y-74033994D01*
X82836044Y-74089137D01*
X82805200Y-74244200D01*
X82805200Y-74296200D01*
X82292322Y-74296200D01*
X82351900Y-74152368D01*
X82351900Y-73691820D01*
X82224900Y-73564820D01*
X81432400Y-73564820D01*
X81432400Y-73584820D01*
X81305400Y-73584820D01*
X81305400Y-73564820D01*
X81285400Y-73564820D01*
X81285400Y-73437820D01*
X81305400Y-73437820D01*
X81305400Y-72570320D01*
X81432400Y-72570320D01*
X81432400Y-73437820D01*
X82224900Y-73437820D01*
X82351900Y-73310820D01*
X82351900Y-72850272D01*
X82274561Y-72663561D01*
X82131658Y-72520658D01*
X81944947Y-72443320D01*
X81559400Y-72443320D01*
X81432400Y-72570320D01*
X81305400Y-72570320D01*
X81178400Y-72443320D01*
X80792853Y-72443320D01*
X80606142Y-72520658D01*
X80512149Y-72614651D01*
X79623900Y-72614651D01*
X79501535Y-72637676D01*
X79464571Y-72661461D01*
X79434883Y-72641176D01*
X79303900Y-72614651D01*
X78353900Y-72614651D01*
X78231535Y-72637676D01*
X78194571Y-72661461D01*
X78164883Y-72641176D01*
X78033900Y-72614651D01*
X77083900Y-72614651D01*
X76961535Y-72637676D01*
X76924571Y-72661461D01*
X76894883Y-72641176D01*
X76763900Y-72614651D01*
X75813900Y-72614651D01*
X75691535Y-72637676D01*
X75654571Y-72661461D01*
X75624883Y-72641176D01*
X75493900Y-72614651D01*
X75425300Y-72614651D01*
X75425300Y-69157989D01*
X75493900Y-69157989D01*
X75616265Y-69134964D01*
X75653229Y-69111179D01*
X75682917Y-69131464D01*
X75813900Y-69157989D01*
X76763900Y-69157989D01*
X76886265Y-69134964D01*
X76923229Y-69111179D01*
X76952917Y-69131464D01*
X77083900Y-69157989D01*
X78033900Y-69157989D01*
X78156265Y-69134964D01*
X78193229Y-69111179D01*
X78222917Y-69131464D01*
X78353900Y-69157989D01*
X79303900Y-69157989D01*
X79426265Y-69134964D01*
X79463229Y-69111179D01*
X79492917Y-69131464D01*
X79623900Y-69157989D01*
X80512149Y-69157989D01*
X80606142Y-69251982D01*
X80792853Y-69329320D01*
X81178400Y-69329320D01*
X81305400Y-69202320D01*
X81305400Y-68334820D01*
X81432400Y-68334820D01*
X81432400Y-69202320D01*
X81559400Y-69329320D01*
X81944947Y-69329320D01*
X82131658Y-69251982D01*
X82274561Y-69109079D01*
X82351900Y-68922368D01*
X82351900Y-68461820D01*
X82224900Y-68334820D01*
X81432400Y-68334820D01*
X81305400Y-68334820D01*
X81285400Y-68334820D01*
X81285400Y-68207820D01*
X81305400Y-68207820D01*
X81305400Y-68187820D01*
X81432400Y-68187820D01*
X81432400Y-68207820D01*
X82224900Y-68207820D01*
X82302300Y-68130420D01*
X82843231Y-68130420D01*
X82843231Y-68821320D01*
G36*
X66542900Y-68207820D02*
X67335400Y-68207820D01*
X67335400Y-68187820D01*
X67462400Y-68187820D01*
X67462400Y-68207820D01*
X67482400Y-68207820D01*
X67482400Y-68334820D01*
X67462400Y-68334820D01*
X67462400Y-69202320D01*
X67589400Y-69329320D01*
X67974947Y-69329320D01*
X68161658Y-69251982D01*
X68255651Y-69157989D01*
X69143900Y-69157989D01*
X69266265Y-69134964D01*
X69303229Y-69111179D01*
X69332917Y-69131464D01*
X69463900Y-69157989D01*
X69517086Y-69157989D01*
X69517086Y-69990600D01*
X68077402Y-69990600D01*
X68077402Y-71031000D01*
X72587799Y-71031000D01*
X72587799Y-69990600D01*
X71198914Y-69990600D01*
X71198914Y-69157989D01*
X71683900Y-69157989D01*
X71806265Y-69134964D01*
X71843229Y-69111179D01*
X71872917Y-69131464D01*
X72003900Y-69157989D01*
X72953900Y-69157989D01*
X73076265Y-69134964D01*
X73113229Y-69111179D01*
X73142917Y-69131464D01*
X73273900Y-69157989D01*
X73392643Y-69157989D01*
X73461532Y-69261088D01*
X73550412Y-69349968D01*
X73682257Y-69438065D01*
X73837780Y-69469000D01*
X74612500Y-69469000D01*
X74612500Y-72614651D01*
X74543900Y-72614651D01*
X74421535Y-72637676D01*
X74384571Y-72661461D01*
X74354883Y-72641176D01*
X74223900Y-72614651D01*
X73273900Y-72614651D01*
X73151535Y-72637676D01*
X73114571Y-72661461D01*
X73084883Y-72641176D01*
X72953900Y-72614651D01*
X72003900Y-72614651D01*
X71881535Y-72637676D01*
X71844571Y-72661461D01*
X71814883Y-72641176D01*
X71683900Y-72614651D01*
X70733900Y-72614651D01*
X70611535Y-72637676D01*
X70574571Y-72661461D01*
X70544883Y-72641176D01*
X70413900Y-72614651D01*
X69463900Y-72614651D01*
X69341535Y-72637676D01*
X69304571Y-72661461D01*
X69274883Y-72641176D01*
X69143900Y-72614651D01*
X68255651Y-72614651D01*
X68161658Y-72520658D01*
X67974947Y-72443320D01*
X67589400Y-72443320D01*
X67462400Y-72570320D01*
X67462400Y-73437820D01*
X67482400Y-73437820D01*
X67482400Y-73564820D01*
X67462400Y-73564820D01*
X67462400Y-73584820D01*
X67335400Y-73584820D01*
X67335400Y-73564820D01*
X66542900Y-73564820D01*
X66415900Y-73691820D01*
X66415900Y-73723521D01*
X66146482Y-73723521D01*
X65924569Y-73501608D01*
X65924569Y-72951320D01*
X65905556Y-72850272D01*
X66415900Y-72850272D01*
X66415900Y-73310820D01*
X66542900Y-73437820D01*
X67335400Y-73437820D01*
X67335400Y-72570320D01*
X67208400Y-72443320D01*
X66822853Y-72443320D01*
X66636142Y-72520658D01*
X66493239Y-72663561D01*
X66415900Y-72850272D01*
X65905556Y-72850272D01*
X65901544Y-72828955D01*
X65877759Y-72791991D01*
X65898044Y-72762303D01*
X65924569Y-72631320D01*
X65924569Y-71743071D01*
X66018561Y-71649079D01*
X66095900Y-71462368D01*
X66095900Y-71076820D01*
X65968900Y-70949820D01*
X64926400Y-70949820D01*
X64926400Y-70969820D01*
X64799400Y-70969820D01*
X64799400Y-70949820D01*
X64779400Y-70949820D01*
X64779400Y-70822820D01*
X64799400Y-70822820D01*
X64799400Y-70802820D01*
X64926400Y-70802820D01*
X64926400Y-70822820D01*
X65968900Y-70822820D01*
X66095900Y-70695820D01*
X66095900Y-70310272D01*
X66018561Y-70123561D01*
X65924569Y-70029569D01*
X65924569Y-69203071D01*
X66018561Y-69109079D01*
X66095900Y-68922368D01*
X66095900Y-68536820D01*
X66020900Y-68461820D01*
X66415900Y-68461820D01*
X66415900Y-68922368D01*
X66493239Y-69109079D01*
X66636142Y-69251982D01*
X66822853Y-69329320D01*
X67208400Y-69329320D01*
X67335400Y-69202320D01*
X67335400Y-68334820D01*
X66542900Y-68334820D01*
X66415900Y-68461820D01*
X66020900Y-68461820D01*
X65968900Y-68409820D01*
X64926400Y-68409820D01*
X64926400Y-68429820D01*
X64799400Y-68429820D01*
X64799400Y-68409820D01*
X64779400Y-68409820D01*
X64779400Y-68282820D01*
X64799400Y-68282820D01*
X64799400Y-68262820D01*
X64926400Y-68262820D01*
X64926400Y-68282820D01*
X65968900Y-68282820D01*
X66095900Y-68155820D01*
X66095900Y-68130420D01*
X66465500Y-68130420D01*
X66542900Y-68207820D01*
X66542900Y-68207820D01*
G37*
X66542900Y-68207820D02*
X67335400Y-68207820D01*
X67335400Y-68187820D01*
X67462400Y-68187820D01*
X67462400Y-68207820D01*
X67482400Y-68207820D01*
X67482400Y-68334820D01*
X67462400Y-68334820D01*
X67462400Y-69202320D01*
X67589400Y-69329320D01*
X67974947Y-69329320D01*
X68161658Y-69251982D01*
X68255651Y-69157989D01*
X69143900Y-69157989D01*
X69266265Y-69134964D01*
X69303229Y-69111179D01*
X69332917Y-69131464D01*
X69463900Y-69157989D01*
X69517086Y-69157989D01*
X69517086Y-69990600D01*
X68077402Y-69990600D01*
X68077402Y-71031000D01*
X72587799Y-71031000D01*
X72587799Y-69990600D01*
X71198914Y-69990600D01*
X71198914Y-69157989D01*
X71683900Y-69157989D01*
X71806265Y-69134964D01*
X71843229Y-69111179D01*
X71872917Y-69131464D01*
X72003900Y-69157989D01*
X72953900Y-69157989D01*
X73076265Y-69134964D01*
X73113229Y-69111179D01*
X73142917Y-69131464D01*
X73273900Y-69157989D01*
X73392643Y-69157989D01*
X73461532Y-69261088D01*
X73550412Y-69349968D01*
X73682257Y-69438065D01*
X73837780Y-69469000D01*
X74612500Y-69469000D01*
X74612500Y-72614651D01*
X74543900Y-72614651D01*
X74421535Y-72637676D01*
X74384571Y-72661461D01*
X74354883Y-72641176D01*
X74223900Y-72614651D01*
X73273900Y-72614651D01*
X73151535Y-72637676D01*
X73114571Y-72661461D01*
X73084883Y-72641176D01*
X72953900Y-72614651D01*
X72003900Y-72614651D01*
X71881535Y-72637676D01*
X71844571Y-72661461D01*
X71814883Y-72641176D01*
X71683900Y-72614651D01*
X70733900Y-72614651D01*
X70611535Y-72637676D01*
X70574571Y-72661461D01*
X70544883Y-72641176D01*
X70413900Y-72614651D01*
X69463900Y-72614651D01*
X69341535Y-72637676D01*
X69304571Y-72661461D01*
X69274883Y-72641176D01*
X69143900Y-72614651D01*
X68255651Y-72614651D01*
X68161658Y-72520658D01*
X67974947Y-72443320D01*
X67589400Y-72443320D01*
X67462400Y-72570320D01*
X67462400Y-73437820D01*
X67482400Y-73437820D01*
X67482400Y-73564820D01*
X67462400Y-73564820D01*
X67462400Y-73584820D01*
X67335400Y-73584820D01*
X67335400Y-73564820D01*
X66542900Y-73564820D01*
X66415900Y-73691820D01*
X66415900Y-73723521D01*
X66146482Y-73723521D01*
X65924569Y-73501608D01*
X65924569Y-72951320D01*
X65905556Y-72850272D01*
X66415900Y-72850272D01*
X66415900Y-73310820D01*
X66542900Y-73437820D01*
X67335400Y-73437820D01*
X67335400Y-72570320D01*
X67208400Y-72443320D01*
X66822853Y-72443320D01*
X66636142Y-72520658D01*
X66493239Y-72663561D01*
X66415900Y-72850272D01*
X65905556Y-72850272D01*
X65901544Y-72828955D01*
X65877759Y-72791991D01*
X65898044Y-72762303D01*
X65924569Y-72631320D01*
X65924569Y-71743071D01*
X66018561Y-71649079D01*
X66095900Y-71462368D01*
X66095900Y-71076820D01*
X65968900Y-70949820D01*
X64926400Y-70949820D01*
X64926400Y-70969820D01*
X64799400Y-70969820D01*
X64799400Y-70949820D01*
X64779400Y-70949820D01*
X64779400Y-70822820D01*
X64799400Y-70822820D01*
X64799400Y-70802820D01*
X64926400Y-70802820D01*
X64926400Y-70822820D01*
X65968900Y-70822820D01*
X66095900Y-70695820D01*
X66095900Y-70310272D01*
X66018561Y-70123561D01*
X65924569Y-70029569D01*
X65924569Y-69203071D01*
X66018561Y-69109079D01*
X66095900Y-68922368D01*
X66095900Y-68536820D01*
X66020900Y-68461820D01*
X66415900Y-68461820D01*
X66415900Y-68922368D01*
X66493239Y-69109079D01*
X66636142Y-69251982D01*
X66822853Y-69329320D01*
X67208400Y-69329320D01*
X67335400Y-69202320D01*
X67335400Y-68334820D01*
X66542900Y-68334820D01*
X66415900Y-68461820D01*
X66020900Y-68461820D01*
X65968900Y-68409820D01*
X64926400Y-68409820D01*
X64926400Y-68429820D01*
X64799400Y-68429820D01*
X64799400Y-68409820D01*
X64779400Y-68409820D01*
X64779400Y-68282820D01*
X64799400Y-68282820D01*
X64799400Y-68262820D01*
X64926400Y-68262820D01*
X64926400Y-68282820D01*
X65968900Y-68282820D01*
X66095900Y-68155820D01*
X66095900Y-68130420D01*
X66465500Y-68130420D01*
X66542900Y-68207820D01*
M02*
