G04 #@! TF.FileFunction,Copper,L2,Bot,Signal*
%FSLAX46Y46*%
G04 Gerber Fmt 4.6, Leading zero omitted, Abs format (unit mm)*
G04 Created by KiCad (PCBNEW 4.0.2-stable) date 1/4/2018 3:46:38 PM*
%MOMM*%
G01*
G04 APERTURE LIST*
%ADD10C,0.050000*%
%ADD11R,0.950000X1.100000*%
%ADD12R,1.450000X0.950000*%
%ADD13C,0.600000*%
%ADD14C,0.203200*%
%ADD15C,0.152400*%
%ADD16C,0.381000*%
%ADD17C,0.762000*%
%ADD18C,1.016000*%
%ADD19C,0.508000*%
%ADD20C,0.635000*%
%ADD21C,0.254000*%
G04 APERTURE END LIST*
D10*
D11*
X67398900Y-73501320D03*
X68668900Y-68271320D03*
X69938900Y-68271320D03*
X71208900Y-68271320D03*
X72478900Y-68271320D03*
X73748900Y-68271320D03*
X75018900Y-68271320D03*
X76288900Y-68271320D03*
X77558900Y-68271320D03*
X78828900Y-68271320D03*
X80098900Y-68271320D03*
X81368900Y-68271320D03*
X68668900Y-73501320D03*
X69938900Y-73501320D03*
X71208900Y-73501320D03*
X72478900Y-73501320D03*
X73748900Y-73501320D03*
X75018900Y-73501320D03*
X76288900Y-73501320D03*
X77558900Y-73501320D03*
X80098900Y-73501320D03*
X78828900Y-73501320D03*
X81368900Y-73501320D03*
X67398900Y-68271320D03*
D12*
X64862900Y-68346320D03*
X64862900Y-69616320D03*
X64862900Y-70886320D03*
X64862900Y-72156320D03*
X64862900Y-73426320D03*
X83904900Y-68346320D03*
X83904900Y-69616320D03*
X83904900Y-70886320D03*
X83904900Y-73426320D03*
X83904900Y-72156320D03*
D13*
X73888600Y-69773800D03*
X73939400Y-71551800D03*
X82169000Y-69951300D03*
X78232000Y-69951300D03*
X79603600Y-69951300D03*
X80492600Y-69951300D03*
X82143600Y-71501000D03*
X80746600Y-71491130D03*
X79578200Y-71491130D03*
X78282800Y-71491130D03*
X77038200Y-71491130D03*
X75793600Y-71491130D03*
D14*
X67005200Y-71069200D02*
X65918080Y-72156320D01*
X65918080Y-72156320D02*
X65112900Y-72156320D01*
X70595668Y-71069200D02*
X67005200Y-71069200D01*
X72478900Y-68346320D02*
X72478900Y-69185968D01*
X72478900Y-69185968D02*
X70595668Y-71069200D01*
D15*
X75018900Y-73426320D02*
X75018900Y-71056500D01*
X75018900Y-71056500D02*
X75189080Y-70886320D01*
X75189080Y-70886320D02*
X75793600Y-70886320D01*
X75793600Y-70886320D02*
X83654900Y-70886320D01*
X74714090Y-72567800D02*
X74714091Y-70930243D01*
X74714091Y-70930243D02*
X75164424Y-70479910D01*
X75164424Y-70479910D02*
X75336400Y-70479910D01*
X73980020Y-72567800D02*
X74714090Y-72567800D01*
X73748900Y-73426320D02*
X73748900Y-72798920D01*
X73748900Y-72798920D02*
X73980020Y-72567800D01*
X75018900Y-68346320D02*
X75018900Y-70162410D01*
X75018900Y-70162410D02*
X75336400Y-70479910D01*
X82702400Y-69941420D02*
X83027500Y-69616320D01*
X75336400Y-70479910D02*
X82702400Y-70479910D01*
X82702400Y-70479910D02*
X82702400Y-69941420D01*
X83027500Y-69616320D02*
X83654900Y-69616320D01*
D16*
X77558900Y-68346320D02*
X77558900Y-69202320D01*
X77558900Y-69202320D02*
X77571601Y-69215021D01*
X77571601Y-69215021D02*
X82397537Y-69215021D01*
X82397537Y-69215021D02*
X83266238Y-68346320D01*
X83266238Y-68346320D02*
X83654900Y-68346320D01*
D15*
X76288900Y-73426320D02*
X76288900Y-72798920D01*
X76288900Y-72798920D02*
X76365101Y-72722719D01*
X76365101Y-72722719D02*
X82323899Y-72722719D01*
X82323899Y-72722719D02*
X83027500Y-73426320D01*
X83027500Y-73426320D02*
X83654900Y-73426320D01*
D16*
X71208900Y-73426320D02*
X71208900Y-73723542D01*
X71208900Y-73723542D02*
X70688221Y-74244221D01*
X70688221Y-74244221D02*
X65930801Y-74244221D01*
X65930801Y-74244221D02*
X65112900Y-73426320D01*
X77558900Y-73426320D02*
X77558900Y-73723542D01*
X77558900Y-73723542D02*
X77038221Y-74244221D01*
X77038221Y-74244221D02*
X71729579Y-74244221D01*
X71729579Y-74244221D02*
X71208900Y-73723542D01*
D17*
X66906119Y-72290919D02*
X66906119Y-72367119D01*
D18*
X70612000Y-71907400D02*
X67365838Y-71907400D01*
X67365838Y-71907400D02*
X66982319Y-72290919D01*
X66982319Y-72290919D02*
X66906119Y-72290919D01*
X71208900Y-72402700D02*
X71107300Y-72402700D01*
X71107300Y-72402700D02*
X70612000Y-71907400D01*
D19*
X77558900Y-73426320D02*
X77558900Y-73837842D01*
D20*
X66906119Y-72367119D02*
X66707999Y-72367119D01*
X66707999Y-72367119D02*
X65648798Y-73426320D01*
X65648798Y-73426320D02*
X65112900Y-73426320D01*
D19*
X71208900Y-73426320D02*
X71208900Y-72402700D01*
X67398900Y-68346320D02*
X65112900Y-68346320D01*
D15*
X73939400Y-71551800D02*
X73939400Y-69824600D01*
X73939400Y-69824600D02*
X73888600Y-69773800D01*
X80492600Y-69951300D02*
X82169000Y-69951300D01*
X80492600Y-69951300D02*
X79603600Y-69951300D01*
D14*
X80746600Y-71491130D02*
X82133730Y-71491130D01*
X82133730Y-71491130D02*
X82143600Y-71501000D01*
X79578200Y-71491130D02*
X80746600Y-71491130D01*
X78282800Y-71491130D02*
X79578200Y-71491130D01*
X77038200Y-71491130D02*
X78282800Y-71491130D01*
X75793600Y-71491130D02*
X77038200Y-71491130D01*
D15*
X70899062Y-69616320D02*
X71208900Y-69306482D01*
D19*
X71208900Y-68346320D02*
X71208900Y-69451220D01*
D18*
X70899062Y-69616320D02*
X67175380Y-69659521D01*
X67175380Y-69659521D02*
X66222880Y-69616320D01*
D19*
X65758060Y-69616320D02*
X66222880Y-69616320D01*
X65112900Y-69616320D02*
X65758060Y-69616320D01*
D21*
G36*
X82740132Y-73713688D02*
X82843231Y-73782577D01*
X82843231Y-73901320D01*
X82866256Y-74023685D01*
X82872889Y-74033994D01*
X82836044Y-74089137D01*
X82805200Y-74244200D01*
X82805200Y-74296200D01*
X82292322Y-74296200D01*
X82351900Y-74152368D01*
X82351900Y-73691820D01*
X82224900Y-73564820D01*
X81432400Y-73564820D01*
X81432400Y-73584820D01*
X81305400Y-73584820D01*
X81305400Y-73564820D01*
X81285400Y-73564820D01*
X81285400Y-73437820D01*
X81305400Y-73437820D01*
X81305400Y-73417820D01*
X81432400Y-73417820D01*
X81432400Y-73437820D01*
X82224900Y-73437820D01*
X82344582Y-73318138D01*
X82740132Y-73713688D01*
X82740132Y-73713688D01*
G37*
X82740132Y-73713688D02*
X82843231Y-73782577D01*
X82843231Y-73901320D01*
X82866256Y-74023685D01*
X82872889Y-74033994D01*
X82836044Y-74089137D01*
X82805200Y-74244200D01*
X82805200Y-74296200D01*
X82292322Y-74296200D01*
X82351900Y-74152368D01*
X82351900Y-73691820D01*
X82224900Y-73564820D01*
X81432400Y-73564820D01*
X81432400Y-73584820D01*
X81305400Y-73584820D01*
X81305400Y-73564820D01*
X81285400Y-73564820D01*
X81285400Y-73437820D01*
X81305400Y-73437820D01*
X81305400Y-73417820D01*
X81432400Y-73417820D01*
X81432400Y-73437820D01*
X82224900Y-73437820D01*
X82344582Y-73318138D01*
X82740132Y-73713688D01*
G36*
X67462400Y-73437820D02*
X67482400Y-73437820D01*
X67482400Y-73564820D01*
X67462400Y-73564820D01*
X67462400Y-73584820D01*
X67335400Y-73584820D01*
X67335400Y-73564820D01*
X67315400Y-73564820D01*
X67315400Y-73437820D01*
X67335400Y-73437820D01*
X67335400Y-73417820D01*
X67462400Y-73417820D01*
X67462400Y-73437820D01*
X67462400Y-73437820D01*
G37*
X67462400Y-73437820D02*
X67482400Y-73437820D01*
X67482400Y-73564820D01*
X67462400Y-73564820D01*
X67462400Y-73584820D01*
X67335400Y-73584820D01*
X67335400Y-73564820D01*
X67315400Y-73564820D01*
X67315400Y-73437820D01*
X67335400Y-73437820D01*
X67335400Y-73417820D01*
X67462400Y-73417820D01*
X67462400Y-73437820D01*
G36*
X74412917Y-69131464D02*
X74543900Y-69157989D01*
X74612500Y-69157989D01*
X74612500Y-70162410D01*
X74643435Y-70317933D01*
X74686786Y-70382812D01*
X74426723Y-70642875D01*
X74338626Y-70774720D01*
X74307691Y-70930243D01*
X74307690Y-72161400D01*
X73980020Y-72161400D01*
X73824497Y-72192335D01*
X73692652Y-72280432D01*
X73461532Y-72511552D01*
X73392643Y-72614651D01*
X73273900Y-72614651D01*
X73151535Y-72637676D01*
X73114571Y-72661461D01*
X73084883Y-72641176D01*
X72953900Y-72614651D01*
X72004940Y-72614651D01*
X72047100Y-72402700D01*
X71983296Y-72081935D01*
X71801597Y-71810003D01*
X71529665Y-71628304D01*
X71515476Y-71625482D01*
X71204697Y-71314703D01*
X71058505Y-71217021D01*
X72784229Y-69491297D01*
X72877831Y-69351211D01*
X72910700Y-69185968D01*
X72910700Y-69157989D01*
X72953900Y-69157989D01*
X73076265Y-69134964D01*
X73113229Y-69111179D01*
X73142917Y-69131464D01*
X73273900Y-69157989D01*
X74223900Y-69157989D01*
X74346265Y-69134964D01*
X74383229Y-69111179D01*
X74412917Y-69131464D01*
X74412917Y-69131464D01*
G37*
X74412917Y-69131464D02*
X74543900Y-69157989D01*
X74612500Y-69157989D01*
X74612500Y-70162410D01*
X74643435Y-70317933D01*
X74686786Y-70382812D01*
X74426723Y-70642875D01*
X74338626Y-70774720D01*
X74307691Y-70930243D01*
X74307690Y-72161400D01*
X73980020Y-72161400D01*
X73824497Y-72192335D01*
X73692652Y-72280432D01*
X73461532Y-72511552D01*
X73392643Y-72614651D01*
X73273900Y-72614651D01*
X73151535Y-72637676D01*
X73114571Y-72661461D01*
X73084883Y-72641176D01*
X72953900Y-72614651D01*
X72004940Y-72614651D01*
X72047100Y-72402700D01*
X71983296Y-72081935D01*
X71801597Y-71810003D01*
X71529665Y-71628304D01*
X71515476Y-71625482D01*
X71204697Y-71314703D01*
X71058505Y-71217021D01*
X72784229Y-69491297D01*
X72877831Y-69351211D01*
X72910700Y-69185968D01*
X72910700Y-69157989D01*
X72953900Y-69157989D01*
X73076265Y-69134964D01*
X73113229Y-69111179D01*
X73142917Y-69131464D01*
X73273900Y-69157989D01*
X74223900Y-69157989D01*
X74346265Y-69134964D01*
X74383229Y-69111179D01*
X74412917Y-69131464D01*
G36*
X82843231Y-71299569D02*
X82749239Y-71393561D01*
X82671900Y-71580272D01*
X82671900Y-71965820D01*
X82798900Y-72092820D01*
X83841400Y-72092820D01*
X83841400Y-72072820D01*
X83968400Y-72072820D01*
X83968400Y-72092820D01*
X83988400Y-72092820D01*
X83988400Y-72219820D01*
X83968400Y-72219820D01*
X83968400Y-72239820D01*
X83841400Y-72239820D01*
X83841400Y-72219820D01*
X82798900Y-72219820D01*
X82671900Y-72346820D01*
X82671900Y-72495984D01*
X82611267Y-72435351D01*
X82479422Y-72347254D01*
X82323899Y-72316319D01*
X76365101Y-72316319D01*
X76211760Y-72346820D01*
X76209578Y-72347254D01*
X76077732Y-72435351D01*
X76001532Y-72511552D01*
X75932643Y-72614651D01*
X75813900Y-72614651D01*
X75691535Y-72637676D01*
X75654571Y-72661461D01*
X75624883Y-72641176D01*
X75493900Y-72614651D01*
X75425300Y-72614651D01*
X75425300Y-71292720D01*
X82843231Y-71292720D01*
X82843231Y-71299569D01*
X82843231Y-71299569D01*
G37*
X82843231Y-71299569D02*
X82749239Y-71393561D01*
X82671900Y-71580272D01*
X82671900Y-71965820D01*
X82798900Y-72092820D01*
X83841400Y-72092820D01*
X83841400Y-72072820D01*
X83968400Y-72072820D01*
X83968400Y-72092820D01*
X83988400Y-72092820D01*
X83988400Y-72219820D01*
X83968400Y-72219820D01*
X83968400Y-72239820D01*
X83841400Y-72239820D01*
X83841400Y-72219820D01*
X82798900Y-72219820D01*
X82671900Y-72346820D01*
X82671900Y-72495984D01*
X82611267Y-72435351D01*
X82479422Y-72347254D01*
X82323899Y-72316319D01*
X76365101Y-72316319D01*
X76211760Y-72346820D01*
X76209578Y-72347254D01*
X76077732Y-72435351D01*
X76001532Y-72511552D01*
X75932643Y-72614651D01*
X75813900Y-72614651D01*
X75691535Y-72637676D01*
X75654571Y-72661461D01*
X75624883Y-72641176D01*
X75493900Y-72614651D01*
X75425300Y-72614651D01*
X75425300Y-71292720D01*
X82843231Y-71292720D01*
X82843231Y-71299569D01*
G36*
X66184902Y-70453659D02*
X67137402Y-70496860D01*
X67161319Y-70493220D01*
X67185104Y-70497665D01*
X70596119Y-70458091D01*
X70416810Y-70637400D01*
X67005205Y-70637400D01*
X67005200Y-70637399D01*
X66867373Y-70664815D01*
X66839957Y-70670269D01*
X66749370Y-70730797D01*
X66699871Y-70763871D01*
X66095900Y-71367842D01*
X66095900Y-71076820D01*
X65968900Y-70949820D01*
X64926400Y-70949820D01*
X64926400Y-70969820D01*
X64799400Y-70969820D01*
X64799400Y-70949820D01*
X64779400Y-70949820D01*
X64779400Y-70822820D01*
X64799400Y-70822820D01*
X64799400Y-70802820D01*
X64926400Y-70802820D01*
X64926400Y-70822820D01*
X65968900Y-70822820D01*
X66095900Y-70695820D01*
X66095900Y-70431721D01*
X66184902Y-70453659D01*
X66184902Y-70453659D01*
G37*
X66184902Y-70453659D02*
X67137402Y-70496860D01*
X67161319Y-70493220D01*
X67185104Y-70497665D01*
X70596119Y-70458091D01*
X70416810Y-70637400D01*
X67005205Y-70637400D01*
X67005200Y-70637399D01*
X66867373Y-70664815D01*
X66839957Y-70670269D01*
X66749370Y-70730797D01*
X66699871Y-70763871D01*
X66095900Y-71367842D01*
X66095900Y-71076820D01*
X65968900Y-70949820D01*
X64926400Y-70949820D01*
X64926400Y-70969820D01*
X64799400Y-70969820D01*
X64799400Y-70949820D01*
X64779400Y-70949820D01*
X64779400Y-70822820D01*
X64799400Y-70822820D01*
X64799400Y-70802820D01*
X64926400Y-70802820D01*
X64926400Y-70822820D01*
X65968900Y-70822820D01*
X66095900Y-70695820D01*
X66095900Y-70431721D01*
X66184902Y-70453659D01*
G36*
X76952917Y-69131464D02*
X77038200Y-69148734D01*
X77038200Y-69202315D01*
X77038199Y-69202320D01*
X77077836Y-69401583D01*
X77190709Y-69570511D01*
X77203408Y-69583209D01*
X77203410Y-69583212D01*
X77372338Y-69696085D01*
X77571601Y-69735722D01*
X77571606Y-69735721D01*
X82360462Y-69735721D01*
X82326935Y-69785897D01*
X82296000Y-69941420D01*
X82296000Y-70073510D01*
X75504736Y-70073510D01*
X75425300Y-69994074D01*
X75425300Y-69157989D01*
X75493900Y-69157989D01*
X75616265Y-69134964D01*
X75653229Y-69111179D01*
X75682917Y-69131464D01*
X75813900Y-69157989D01*
X76763900Y-69157989D01*
X76886265Y-69134964D01*
X76923229Y-69111179D01*
X76952917Y-69131464D01*
X76952917Y-69131464D01*
G37*
X76952917Y-69131464D02*
X77038200Y-69148734D01*
X77038200Y-69202315D01*
X77038199Y-69202320D01*
X77077836Y-69401583D01*
X77190709Y-69570511D01*
X77203408Y-69583209D01*
X77203410Y-69583212D01*
X77372338Y-69696085D01*
X77571601Y-69735722D01*
X77571606Y-69735721D01*
X82360462Y-69735721D01*
X82326935Y-69785897D01*
X82296000Y-69941420D01*
X82296000Y-70073510D01*
X75504736Y-70073510D01*
X75425300Y-69994074D01*
X75425300Y-69157989D01*
X75493900Y-69157989D01*
X75616265Y-69134964D01*
X75653229Y-69111179D01*
X75682917Y-69131464D01*
X75813900Y-69157989D01*
X76763900Y-69157989D01*
X76886265Y-69134964D01*
X76923229Y-69111179D01*
X76952917Y-69131464D01*
G36*
X66542900Y-68207820D02*
X67335400Y-68207820D01*
X67335400Y-68187820D01*
X67462400Y-68187820D01*
X67462400Y-68207820D01*
X67482400Y-68207820D01*
X67482400Y-68334820D01*
X67462400Y-68334820D01*
X67462400Y-68354820D01*
X67335400Y-68354820D01*
X67335400Y-68334820D01*
X66542900Y-68334820D01*
X66415900Y-68461820D01*
X66415900Y-68786013D01*
X66260858Y-68778981D01*
X66095900Y-68804085D01*
X66095900Y-68536820D01*
X65968900Y-68409820D01*
X64926400Y-68409820D01*
X64926400Y-68429820D01*
X64799400Y-68429820D01*
X64799400Y-68409820D01*
X64779400Y-68409820D01*
X64779400Y-68282820D01*
X64799400Y-68282820D01*
X64799400Y-68262820D01*
X64926400Y-68262820D01*
X64926400Y-68282820D01*
X65968900Y-68282820D01*
X66067960Y-68183760D01*
X66518840Y-68183760D01*
X66542900Y-68207820D01*
X66542900Y-68207820D01*
G37*
X66542900Y-68207820D02*
X67335400Y-68207820D01*
X67335400Y-68187820D01*
X67462400Y-68187820D01*
X67462400Y-68207820D01*
X67482400Y-68207820D01*
X67482400Y-68334820D01*
X67462400Y-68334820D01*
X67462400Y-68354820D01*
X67335400Y-68354820D01*
X67335400Y-68334820D01*
X66542900Y-68334820D01*
X66415900Y-68461820D01*
X66415900Y-68786013D01*
X66260858Y-68778981D01*
X66095900Y-68804085D01*
X66095900Y-68536820D01*
X65968900Y-68409820D01*
X64926400Y-68409820D01*
X64926400Y-68429820D01*
X64799400Y-68429820D01*
X64799400Y-68409820D01*
X64779400Y-68409820D01*
X64779400Y-68282820D01*
X64799400Y-68282820D01*
X64799400Y-68262820D01*
X64926400Y-68262820D01*
X64926400Y-68282820D01*
X65968900Y-68282820D01*
X66067960Y-68183760D01*
X66518840Y-68183760D01*
X66542900Y-68207820D01*
G36*
X82351900Y-68524276D02*
X82351900Y-68461820D01*
X82224900Y-68334820D01*
X81432400Y-68334820D01*
X81432400Y-68354820D01*
X81305400Y-68354820D01*
X81305400Y-68334820D01*
X81285400Y-68334820D01*
X81285400Y-68207820D01*
X81305400Y-68207820D01*
X81305400Y-68187820D01*
X81432400Y-68187820D01*
X81432400Y-68207820D01*
X82224900Y-68207820D01*
X82248960Y-68183760D01*
X82692417Y-68183760D01*
X82351900Y-68524276D01*
X82351900Y-68524276D01*
G37*
X82351900Y-68524276D02*
X82351900Y-68461820D01*
X82224900Y-68334820D01*
X81432400Y-68334820D01*
X81432400Y-68354820D01*
X81305400Y-68354820D01*
X81305400Y-68334820D01*
X81285400Y-68334820D01*
X81285400Y-68207820D01*
X81305400Y-68207820D01*
X81305400Y-68187820D01*
X81432400Y-68187820D01*
X81432400Y-68207820D01*
X82224900Y-68207820D01*
X82248960Y-68183760D01*
X82692417Y-68183760D01*
X82351900Y-68524276D01*
M02*
