G04 #@! TF.FileFunction,Soldermask,Top*
%FSLAX46Y46*%
G04 Gerber Fmt 4.6, Leading zero omitted, Abs format (unit mm)*
G04 Created by KiCad (PCBNEW 4.0.2-stable) date 1/2/2018 2:21:40 AM*
%MOMM*%
G01*
G04 APERTURE LIST*
%ADD10C,0.050000*%
G04 APERTURE END LIST*
D10*
G36*
X39973902Y-110162575D02*
X39183902Y-110162575D01*
X39183902Y-108942575D01*
X39973902Y-108942575D01*
X39973902Y-110162575D01*
X39973902Y-110162575D01*
G37*
G36*
X38703902Y-110162575D02*
X37913902Y-110162575D01*
X37913902Y-108942575D01*
X38703902Y-108942575D01*
X38703902Y-110162575D01*
X38703902Y-110162575D01*
G37*
G36*
X37433902Y-110162575D02*
X36643902Y-110162575D01*
X36643902Y-108942575D01*
X37433902Y-108942575D01*
X37433902Y-110162575D01*
X37433902Y-110162575D01*
G37*
G36*
X36163902Y-110162575D02*
X35373902Y-110162575D01*
X35373902Y-108942575D01*
X36163902Y-108942575D01*
X36163902Y-110162575D01*
X36163902Y-110162575D01*
G37*
G36*
X42017302Y-108149615D02*
X40747302Y-108149615D01*
X40747302Y-107229615D01*
X42017302Y-107229615D01*
X42017302Y-108149615D01*
X42017302Y-108149615D01*
G37*
G36*
X36153902Y-103900075D02*
X36156475Y-103918184D01*
X36163992Y-103934858D01*
X36175856Y-103948779D01*
X36191129Y-103958843D01*
X36208601Y-103964254D01*
X36218902Y-103965075D01*
X39128902Y-103965075D01*
X39147011Y-103962502D01*
X39163685Y-103954985D01*
X39177606Y-103943121D01*
X39187670Y-103927848D01*
X39193081Y-103910376D01*
X39193902Y-103900075D01*
X39193902Y-103416015D01*
X39963902Y-103416015D01*
X39963902Y-106582575D01*
X39966475Y-106600684D01*
X39973992Y-106617358D01*
X39985856Y-106631279D01*
X40001129Y-106641343D01*
X40018601Y-106646754D01*
X40028902Y-106647575D01*
X40458902Y-106647575D01*
X40458902Y-107572575D01*
X40028902Y-107572575D01*
X40010793Y-107575148D01*
X39994119Y-107582665D01*
X39980198Y-107594529D01*
X39970134Y-107609802D01*
X39964723Y-107627274D01*
X39963902Y-107637575D01*
X39963902Y-108020075D01*
X35383902Y-108020075D01*
X35383902Y-107637575D01*
X35381329Y-107619466D01*
X35373812Y-107602792D01*
X35361948Y-107588871D01*
X35346675Y-107578807D01*
X35329203Y-107573396D01*
X35318902Y-107572575D01*
X34888902Y-107572575D01*
X34888902Y-106647575D01*
X35318902Y-106647575D01*
X35337011Y-106645002D01*
X35353685Y-106637485D01*
X35367606Y-106625621D01*
X35377670Y-106610348D01*
X35383081Y-106592876D01*
X35383902Y-106582575D01*
X35383902Y-103416015D01*
X36153902Y-103416015D01*
X36153902Y-103900075D01*
X36153902Y-103900075D01*
G37*
G36*
X61338702Y-107963015D02*
X57418702Y-107963015D01*
X57418702Y-95143015D01*
X61338702Y-95143015D01*
X61338702Y-107963015D01*
X61338702Y-107963015D01*
G37*
G36*
X46838702Y-107963015D02*
X42918702Y-107963015D01*
X42918702Y-95143015D01*
X46838702Y-95143015D01*
X46838702Y-107963015D01*
X46838702Y-107963015D01*
G37*
G36*
X42017302Y-106049615D02*
X40747302Y-106049615D01*
X40747302Y-105129615D01*
X42017302Y-105129615D01*
X42017302Y-106049615D01*
X42017302Y-106049615D01*
G37*
G36*
X42338702Y-104738015D02*
X41318702Y-104738015D01*
X41318702Y-103918015D01*
X42338702Y-103918015D01*
X42338702Y-104738015D01*
X42338702Y-104738015D01*
G37*
G36*
X39303202Y-103238015D02*
X38408202Y-103238015D01*
X38408202Y-102418015D01*
X39303202Y-102418015D01*
X39303202Y-103238015D01*
X39303202Y-103238015D01*
G37*
G36*
X41003202Y-103238015D02*
X40108202Y-103238015D01*
X40108202Y-102418015D01*
X41003202Y-102418015D01*
X41003202Y-103238015D01*
X41003202Y-103238015D01*
G37*
G36*
X38234802Y-103176295D02*
X37339802Y-103176295D01*
X37339802Y-102356295D01*
X38234802Y-102356295D01*
X38234802Y-103176295D01*
X38234802Y-103176295D01*
G37*
G36*
X36534802Y-103176295D02*
X35639802Y-103176295D01*
X35639802Y-102356295D01*
X36534802Y-102356295D01*
X36534802Y-103176295D01*
X36534802Y-103176295D01*
G37*
G36*
X42338702Y-102738015D02*
X41318702Y-102738015D01*
X41318702Y-101918015D01*
X42338702Y-101918015D01*
X42338702Y-102738015D01*
X42338702Y-102738015D01*
G37*
G36*
X39097502Y-96850215D02*
X39100075Y-96868324D01*
X39107592Y-96884998D01*
X39119456Y-96898919D01*
X39134729Y-96908983D01*
X39152201Y-96914394D01*
X39162502Y-96915215D01*
X39545002Y-96915215D01*
X39545002Y-101495215D01*
X39162502Y-101495215D01*
X39144393Y-101497788D01*
X39127719Y-101505305D01*
X39113798Y-101517169D01*
X39103734Y-101532442D01*
X39098323Y-101549914D01*
X39097502Y-101560215D01*
X39097502Y-101990215D01*
X38172502Y-101990215D01*
X38172502Y-101560215D01*
X38169929Y-101542106D01*
X38162412Y-101525432D01*
X38150548Y-101511511D01*
X38135275Y-101501447D01*
X38117803Y-101496036D01*
X38107502Y-101495215D01*
X34940942Y-101495215D01*
X34940942Y-100725215D01*
X35425002Y-100725215D01*
X35443111Y-100722642D01*
X35459785Y-100715125D01*
X35473706Y-100703261D01*
X35483770Y-100687988D01*
X35489181Y-100670516D01*
X35490002Y-100660215D01*
X35490002Y-97750215D01*
X35487429Y-97732106D01*
X35479912Y-97715432D01*
X35468048Y-97701511D01*
X35452775Y-97691447D01*
X35435303Y-97686036D01*
X35425002Y-97685215D01*
X34940942Y-97685215D01*
X34940942Y-96915215D01*
X38107502Y-96915215D01*
X38125611Y-96912642D01*
X38142285Y-96905125D01*
X38156206Y-96893261D01*
X38166270Y-96877988D01*
X38171681Y-96860516D01*
X38172502Y-96850215D01*
X38172502Y-96420215D01*
X39097502Y-96420215D01*
X39097502Y-96850215D01*
X39097502Y-96850215D01*
G37*
G36*
X41687502Y-101505215D02*
X40467502Y-101505215D01*
X40467502Y-100715215D01*
X41687502Y-100715215D01*
X41687502Y-101505215D01*
X41687502Y-101505215D01*
G37*
G36*
X41687502Y-100235215D02*
X40467502Y-100235215D01*
X40467502Y-99445215D01*
X41687502Y-99445215D01*
X41687502Y-100235215D01*
X41687502Y-100235215D01*
G37*
G36*
X41687502Y-98965215D02*
X40467502Y-98965215D01*
X40467502Y-98175215D01*
X41687502Y-98175215D01*
X41687502Y-98965215D01*
X41687502Y-98965215D01*
G37*
G36*
X41687502Y-97695215D02*
X40467502Y-97695215D01*
X40467502Y-96905215D01*
X41687502Y-96905215D01*
X41687502Y-97695215D01*
X41687502Y-97695215D01*
G37*
G36*
X37972502Y-96360415D02*
X37052502Y-96360415D01*
X37052502Y-95090415D01*
X37972502Y-95090415D01*
X37972502Y-96360415D01*
X37972502Y-96360415D01*
G37*
G36*
X35872502Y-96360415D02*
X34952502Y-96360415D01*
X34952502Y-95090415D01*
X35872502Y-95090415D01*
X35872502Y-96360415D01*
X35872502Y-96360415D01*
G37*
G36*
X42568482Y-96068455D02*
X41548482Y-96068455D01*
X41548482Y-94498455D01*
X42568482Y-94498455D01*
X42568482Y-96068455D01*
X42568482Y-96068455D01*
G37*
G36*
X39368482Y-96068455D02*
X38348482Y-96068455D01*
X38348482Y-94498455D01*
X39368482Y-94498455D01*
X39368482Y-96068455D01*
X39368482Y-96068455D01*
G37*
G36*
X42828372Y-94167502D02*
X42158372Y-94167502D01*
X42158372Y-93597502D01*
X42828372Y-93597502D01*
X42828372Y-94167502D01*
X42828372Y-94167502D01*
G37*
G36*
X40691102Y-94116415D02*
X35571102Y-94116415D01*
X35571102Y-91746415D01*
X40691102Y-91746415D01*
X40691102Y-94116415D01*
X40691102Y-94116415D01*
G37*
G36*
X42828372Y-93127502D02*
X42158372Y-93127502D01*
X42158372Y-92557502D01*
X42828372Y-92557502D01*
X42828372Y-93127502D01*
X42828372Y-93127502D01*
G37*
G36*
X61007642Y-92423815D02*
X60217642Y-92423815D01*
X60217642Y-91203815D01*
X61007642Y-91203815D01*
X61007642Y-92423815D01*
X61007642Y-92423815D01*
G37*
G36*
X59737642Y-92423815D02*
X58947642Y-92423815D01*
X58947642Y-91203815D01*
X59737642Y-91203815D01*
X59737642Y-92423815D01*
X59737642Y-92423815D01*
G37*
G36*
X58467642Y-92423815D02*
X57677642Y-92423815D01*
X57677642Y-91203815D01*
X58467642Y-91203815D01*
X58467642Y-92423815D01*
X58467642Y-92423815D01*
G37*
G36*
X57197642Y-92423815D02*
X56407642Y-92423815D01*
X56407642Y-91203815D01*
X57197642Y-91203815D01*
X57197642Y-92423815D01*
X57197642Y-92423815D01*
G37*
G36*
X44130302Y-92375415D02*
X43460302Y-92375415D01*
X43460302Y-91055415D01*
X44130302Y-91055415D01*
X44130302Y-92375415D01*
X44130302Y-92375415D01*
G37*
G36*
X42860302Y-92375415D02*
X42190302Y-92375415D01*
X42190302Y-91055415D01*
X42860302Y-91055415D01*
X42860302Y-92375415D01*
X42860302Y-92375415D01*
G37*
G36*
X45400302Y-92375415D02*
X44730302Y-92375415D01*
X44730302Y-91055415D01*
X45400302Y-91055415D01*
X45400302Y-92375415D01*
X45400302Y-92375415D01*
G37*
G36*
X46670302Y-92375415D02*
X46000302Y-92375415D01*
X46000302Y-91055415D01*
X46670302Y-91055415D01*
X46670302Y-92375415D01*
X46670302Y-92375415D01*
G37*
G36*
X52186842Y-92324075D02*
X51616842Y-92324075D01*
X51616842Y-91654075D01*
X52186842Y-91654075D01*
X52186842Y-92324075D01*
X52186842Y-92324075D01*
G37*
G36*
X53226842Y-92324075D02*
X52656842Y-92324075D01*
X52656842Y-91654075D01*
X53226842Y-91654075D01*
X53226842Y-92324075D01*
X53226842Y-92324075D01*
G37*
G36*
X50364962Y-92306295D02*
X49794962Y-92306295D01*
X49794962Y-91636295D01*
X50364962Y-91636295D01*
X50364962Y-92306295D01*
X50364962Y-92306295D01*
G37*
G36*
X51404962Y-92306295D02*
X50834962Y-92306295D01*
X50834962Y-91636295D01*
X51404962Y-91636295D01*
X51404962Y-92306295D01*
X51404962Y-92306295D01*
G37*
G36*
X54277542Y-92150155D02*
X53382542Y-92150155D01*
X53382542Y-91330155D01*
X54277542Y-91330155D01*
X54277542Y-92150155D01*
X54277542Y-92150155D01*
G37*
G36*
X55977542Y-92150155D02*
X55082542Y-92150155D01*
X55082542Y-91330155D01*
X55977542Y-91330155D01*
X55977542Y-92150155D01*
X55977542Y-92150155D01*
G37*
G36*
X50863702Y-91452015D02*
X50433702Y-91452015D01*
X50433702Y-90632015D01*
X50863702Y-90632015D01*
X50863702Y-91452015D01*
X50863702Y-91452015D01*
G37*
G36*
X52163702Y-91452015D02*
X51733702Y-91452015D01*
X51733702Y-90632015D01*
X52163702Y-90632015D01*
X52163702Y-91452015D01*
X52163702Y-91452015D01*
G37*
G36*
X51513702Y-91452015D02*
X51083702Y-91452015D01*
X51083702Y-90632015D01*
X51513702Y-90632015D01*
X51513702Y-91452015D01*
X51513702Y-91452015D01*
G37*
G36*
X53098519Y-90669231D02*
X53138862Y-90677512D01*
X53176826Y-90693471D01*
X53210969Y-90716501D01*
X53239993Y-90745729D01*
X53262780Y-90780024D01*
X53278475Y-90818106D01*
X53286385Y-90858051D01*
X53286385Y-90858068D01*
X53286471Y-90858503D01*
X53285814Y-90905542D01*
X53285715Y-90905977D01*
X53285715Y-90905991D01*
X53276693Y-90945704D01*
X53259943Y-90983324D01*
X53236202Y-91016979D01*
X53206377Y-91045381D01*
X53171605Y-91067448D01*
X53133206Y-91082342D01*
X53092656Y-91089493D01*
X53051477Y-91088630D01*
X53011255Y-91079786D01*
X52973511Y-91063296D01*
X52939696Y-91039795D01*
X52911088Y-91010169D01*
X52888777Y-90975549D01*
X52873618Y-90937261D01*
X52866183Y-90896755D01*
X52866758Y-90855574D01*
X52875322Y-90815287D01*
X52891545Y-90777434D01*
X52914810Y-90743456D01*
X52944239Y-90714638D01*
X52978697Y-90692089D01*
X53016880Y-90676662D01*
X53057340Y-90668944D01*
X53098519Y-90669231D01*
X53098519Y-90669231D01*
G37*
G36*
X45400302Y-86990415D02*
X45402875Y-87008524D01*
X45410392Y-87025198D01*
X45422256Y-87039119D01*
X45437529Y-87049183D01*
X45455001Y-87054594D01*
X45465302Y-87055415D01*
X45930302Y-87055415D01*
X45948411Y-87052842D01*
X45965085Y-87045325D01*
X45979006Y-87033461D01*
X45989070Y-87018188D01*
X45994481Y-87000716D01*
X45995302Y-86990415D01*
X45995302Y-85805415D01*
X46665302Y-85805415D01*
X46665302Y-87125415D01*
X46555302Y-87125415D01*
X46537193Y-87127988D01*
X46520519Y-87135505D01*
X46506598Y-87147369D01*
X46496534Y-87162642D01*
X46491123Y-87180114D01*
X46490302Y-87190415D01*
X46490302Y-90575415D01*
X44770302Y-90575415D01*
X44770302Y-87190415D01*
X44767729Y-87172306D01*
X44760212Y-87155632D01*
X44748348Y-87141711D01*
X44733075Y-87131647D01*
X44730302Y-87130788D01*
X44730302Y-85805415D01*
X45400302Y-85805415D01*
X45400302Y-86990415D01*
X45400302Y-86990415D01*
G37*
G36*
X42860302Y-86990415D02*
X42862875Y-87008524D01*
X42870392Y-87025198D01*
X42882256Y-87039119D01*
X42897529Y-87049183D01*
X42915001Y-87054594D01*
X42925302Y-87055415D01*
X43395302Y-87055415D01*
X43413411Y-87052842D01*
X43430085Y-87045325D01*
X43444006Y-87033461D01*
X43454070Y-87018188D01*
X43459481Y-87000716D01*
X43460302Y-86990415D01*
X43460302Y-85805415D01*
X44130302Y-85805415D01*
X44130302Y-87131095D01*
X44120519Y-87135505D01*
X44106598Y-87147369D01*
X44096534Y-87162642D01*
X44091123Y-87180114D01*
X44090302Y-87190415D01*
X44090302Y-90575415D01*
X42370302Y-90575415D01*
X42370302Y-87190415D01*
X42367729Y-87172306D01*
X42360212Y-87155632D01*
X42348348Y-87141711D01*
X42333075Y-87131647D01*
X42315603Y-87126236D01*
X42305302Y-87125415D01*
X42190302Y-87125415D01*
X42190302Y-85805415D01*
X42860302Y-85805415D01*
X42860302Y-86990415D01*
X42860302Y-86990415D01*
G37*
G36*
X55370102Y-90477255D02*
X54420102Y-90477255D01*
X54420102Y-89837255D01*
X55370102Y-89837255D01*
X55370102Y-90477255D01*
X55370102Y-90477255D01*
G37*
G36*
X57187642Y-86161315D02*
X57190215Y-86179424D01*
X57197732Y-86196098D01*
X57209596Y-86210019D01*
X57224869Y-86220083D01*
X57242341Y-86225494D01*
X57252642Y-86226315D01*
X60162642Y-86226315D01*
X60180751Y-86223742D01*
X60197425Y-86216225D01*
X60211346Y-86204361D01*
X60221410Y-86189088D01*
X60226821Y-86171616D01*
X60227642Y-86161315D01*
X60227642Y-85677255D01*
X60997642Y-85677255D01*
X60997642Y-88843815D01*
X61000215Y-88861924D01*
X61007732Y-88878598D01*
X61019596Y-88892519D01*
X61034869Y-88902583D01*
X61052341Y-88907994D01*
X61062642Y-88908815D01*
X61492642Y-88908815D01*
X61492642Y-89833815D01*
X61062642Y-89833815D01*
X61044533Y-89836388D01*
X61027859Y-89843905D01*
X61013938Y-89855769D01*
X61003874Y-89871042D01*
X60998463Y-89888514D01*
X60997642Y-89898815D01*
X60997642Y-90281315D01*
X56417642Y-90281315D01*
X56417642Y-89898815D01*
X56415069Y-89880706D01*
X56407552Y-89864032D01*
X56395688Y-89850111D01*
X56380415Y-89840047D01*
X56362943Y-89834636D01*
X56352642Y-89833815D01*
X55922642Y-89833815D01*
X55922642Y-88908815D01*
X56352642Y-88908815D01*
X56370751Y-88906242D01*
X56387425Y-88898725D01*
X56401346Y-88886861D01*
X56411410Y-88871588D01*
X56416821Y-88854116D01*
X56417642Y-88843815D01*
X56417642Y-85677255D01*
X57187642Y-85677255D01*
X57187642Y-86161315D01*
X57187642Y-86161315D01*
G37*
G36*
X53900102Y-89827255D02*
X52950102Y-89827255D01*
X52950102Y-89187255D01*
X53900102Y-89187255D01*
X53900102Y-89827255D01*
X53900102Y-89827255D01*
G37*
G36*
X52163702Y-89252015D02*
X51733702Y-89252015D01*
X51733702Y-88432015D01*
X52163702Y-88432015D01*
X52163702Y-89252015D01*
X52163702Y-89252015D01*
G37*
G36*
X51513702Y-89252015D02*
X51083702Y-89252015D01*
X51083702Y-88432015D01*
X51513702Y-88432015D01*
X51513702Y-89252015D01*
X51513702Y-89252015D01*
G37*
G36*
X50863702Y-89252015D02*
X50433702Y-89252015D01*
X50433702Y-88432015D01*
X50863702Y-88432015D01*
X50863702Y-89252015D01*
X50863702Y-89252015D01*
G37*
G36*
X55370102Y-89177255D02*
X54420102Y-89177255D01*
X54420102Y-88537255D01*
X55370102Y-88537255D01*
X55370102Y-89177255D01*
X55370102Y-89177255D01*
G37*
G36*
X40691102Y-88916415D02*
X35571102Y-88916415D01*
X35571102Y-86546415D01*
X40691102Y-86546415D01*
X40691102Y-88916415D01*
X40691102Y-88916415D01*
G37*
G36*
X49910302Y-88262615D02*
X49340302Y-88262615D01*
X49340302Y-87592615D01*
X49910302Y-87592615D01*
X49910302Y-88262615D01*
X49910302Y-88262615D01*
G37*
G36*
X50950302Y-88262615D02*
X50380302Y-88262615D01*
X50380302Y-87592615D01*
X50950302Y-87592615D01*
X50950302Y-88262615D01*
X50950302Y-88262615D01*
G37*
G36*
X52045742Y-88237215D02*
X51475742Y-88237215D01*
X51475742Y-87567215D01*
X52045742Y-87567215D01*
X52045742Y-88237215D01*
X52045742Y-88237215D01*
G37*
G36*
X53085742Y-88237215D02*
X52515742Y-88237215D01*
X52515742Y-87567215D01*
X53085742Y-87567215D01*
X53085742Y-88237215D01*
X53085742Y-88237215D01*
G37*
G36*
X55733302Y-87735815D02*
X54463302Y-87735815D01*
X54463302Y-86815815D01*
X55733302Y-86815815D01*
X55733302Y-87735815D01*
X55733302Y-87735815D01*
G37*
G36*
X54133102Y-87418315D02*
X52863102Y-87418315D01*
X52863102Y-86498315D01*
X54133102Y-86498315D01*
X54133102Y-87418315D01*
X54133102Y-87418315D01*
G37*
G36*
X52235302Y-87249415D02*
X51895302Y-87249415D01*
X51895302Y-86859415D01*
X52235302Y-86859415D01*
X52235302Y-87249415D01*
X52235302Y-87249415D01*
G37*
G36*
X50935302Y-85294415D02*
X50937875Y-85312524D01*
X50945392Y-85329198D01*
X50957256Y-85343119D01*
X50972529Y-85353183D01*
X50990001Y-85358594D01*
X51000302Y-85359415D01*
X51180302Y-85359415D01*
X51198411Y-85356842D01*
X51215085Y-85349325D01*
X51229006Y-85337461D01*
X51239070Y-85322188D01*
X51244481Y-85304716D01*
X51245302Y-85294415D01*
X51245302Y-84989415D01*
X51585302Y-84989415D01*
X51585302Y-85420620D01*
X51581123Y-85434114D01*
X51580302Y-85444415D01*
X51580302Y-86794415D01*
X51582875Y-86812524D01*
X51585302Y-86817908D01*
X51585302Y-87249415D01*
X51245302Y-87249415D01*
X51245302Y-86944415D01*
X51242729Y-86926306D01*
X51235212Y-86909632D01*
X51223348Y-86895711D01*
X51208075Y-86885647D01*
X51190603Y-86880236D01*
X51180302Y-86879415D01*
X51000302Y-86879415D01*
X50982193Y-86881988D01*
X50965519Y-86889505D01*
X50951598Y-86901369D01*
X50941534Y-86916642D01*
X50936123Y-86934114D01*
X50935302Y-86944415D01*
X50935302Y-87249415D01*
X50595302Y-87249415D01*
X50595302Y-86835494D01*
X50604070Y-86822188D01*
X50609481Y-86804716D01*
X50610302Y-86794415D01*
X50610302Y-85444415D01*
X50607729Y-85426306D01*
X50600212Y-85409632D01*
X50595302Y-85403871D01*
X50595302Y-84989415D01*
X50935302Y-84989415D01*
X50935302Y-85294415D01*
X50935302Y-85294415D01*
G37*
G36*
X50101842Y-87208615D02*
X49431842Y-87208615D01*
X49431842Y-86638615D01*
X50101842Y-86638615D01*
X50101842Y-87208615D01*
X50101842Y-87208615D01*
G37*
G36*
X52225302Y-86544415D02*
X51955302Y-86544415D01*
X51955302Y-85634415D01*
X52225302Y-85634415D01*
X52225302Y-86544415D01*
X52225302Y-86544415D01*
G37*
G36*
X50101842Y-86168615D02*
X49431842Y-86168615D01*
X49431842Y-85598615D01*
X50101842Y-85598615D01*
X50101842Y-86168615D01*
X50101842Y-86168615D01*
G37*
G36*
X36256582Y-86137975D02*
X34986582Y-86137975D01*
X34986582Y-85217975D01*
X36256582Y-85217975D01*
X36256582Y-86137975D01*
X36256582Y-86137975D01*
G37*
G36*
X37456302Y-85748015D02*
X36886302Y-85748015D01*
X36886302Y-85078015D01*
X37456302Y-85078015D01*
X37456302Y-85748015D01*
X37456302Y-85748015D01*
G37*
G36*
X38496302Y-85748015D02*
X37926302Y-85748015D01*
X37926302Y-85078015D01*
X38496302Y-85078015D01*
X38496302Y-85748015D01*
X38496302Y-85748015D01*
G37*
G36*
X55733302Y-85635815D02*
X54463302Y-85635815D01*
X54463302Y-84715815D01*
X55733302Y-84715815D01*
X55733302Y-85635815D01*
X55733302Y-85635815D01*
G37*
G36*
X43604522Y-85491575D02*
X42934522Y-85491575D01*
X42934522Y-84921575D01*
X43604522Y-84921575D01*
X43604522Y-85491575D01*
X43604522Y-85491575D01*
G37*
G36*
X52235302Y-85379415D02*
X51895302Y-85379415D01*
X51895302Y-84989415D01*
X52235302Y-84989415D01*
X52235302Y-85379415D01*
X52235302Y-85379415D01*
G37*
G36*
X61360642Y-85323315D02*
X58340642Y-85323315D01*
X58340642Y-82303315D01*
X61360642Y-82303315D01*
X61360642Y-85323315D01*
X61360642Y-85323315D01*
G37*
G36*
X54133102Y-85318315D02*
X52863102Y-85318315D01*
X52863102Y-84398315D01*
X54133102Y-84398315D01*
X54133102Y-85318315D01*
X54133102Y-85318315D01*
G37*
G36*
X39659902Y-85140215D02*
X38989902Y-85140215D01*
X38989902Y-84570215D01*
X39659902Y-84570215D01*
X39659902Y-85140215D01*
X39659902Y-85140215D01*
G37*
G36*
X47079242Y-84846415D02*
X46409242Y-84846415D01*
X46409242Y-84276415D01*
X47079242Y-84276415D01*
X47079242Y-84846415D01*
X47079242Y-84846415D01*
G37*
G36*
X38633742Y-84834415D02*
X37963742Y-84834415D01*
X37963742Y-84264415D01*
X38633742Y-84264415D01*
X38633742Y-84834415D01*
X38633742Y-84834415D01*
G37*
G36*
X46114042Y-84821715D02*
X45444042Y-84821715D01*
X45444042Y-84251715D01*
X46114042Y-84251715D01*
X46114042Y-84821715D01*
X46114042Y-84821715D01*
G37*
G36*
X37605042Y-84758215D02*
X36935042Y-84758215D01*
X36935042Y-84188215D01*
X37605042Y-84188215D01*
X37605042Y-84758215D01*
X37605042Y-84758215D01*
G37*
G36*
X43604522Y-84451575D02*
X42934522Y-84451575D01*
X42934522Y-83881575D01*
X43604522Y-83881575D01*
X43604522Y-84451575D01*
X43604522Y-84451575D01*
G37*
G36*
X40874022Y-84437095D02*
X40204022Y-84437095D01*
X40204022Y-83867095D01*
X40874022Y-83867095D01*
X40874022Y-84437095D01*
X40874022Y-84437095D01*
G37*
G36*
X41872242Y-84427315D02*
X41202242Y-84427315D01*
X41202242Y-83857315D01*
X41872242Y-83857315D01*
X41872242Y-84427315D01*
X41872242Y-84427315D01*
G37*
G36*
X39659902Y-84100215D02*
X38989902Y-84100215D01*
X38989902Y-83530215D01*
X39659902Y-83530215D01*
X39659902Y-84100215D01*
X39659902Y-84100215D01*
G37*
G36*
X36256582Y-84037975D02*
X34986582Y-84037975D01*
X34986582Y-83117975D01*
X36256582Y-83117975D01*
X36256582Y-84037975D01*
X36256582Y-84037975D01*
G37*
G36*
X47079242Y-83806415D02*
X46409242Y-83806415D01*
X46409242Y-83236415D01*
X47079242Y-83236415D01*
X47079242Y-83806415D01*
X47079242Y-83806415D01*
G37*
G36*
X38633742Y-83794415D02*
X37963742Y-83794415D01*
X37963742Y-83224415D01*
X38633742Y-83224415D01*
X38633742Y-83794415D01*
X38633742Y-83794415D01*
G37*
G36*
X46114042Y-83781715D02*
X45444042Y-83781715D01*
X45444042Y-83211715D01*
X46114042Y-83211715D01*
X46114042Y-83781715D01*
X46114042Y-83781715D01*
G37*
G36*
X54005922Y-83746495D02*
X53435922Y-83746495D01*
X53435922Y-83076495D01*
X54005922Y-83076495D01*
X54005922Y-83746495D01*
X54005922Y-83746495D01*
G37*
G36*
X52965922Y-83746495D02*
X52395922Y-83746495D01*
X52395922Y-83076495D01*
X52965922Y-83076495D01*
X52965922Y-83746495D01*
X52965922Y-83746495D01*
G37*
G36*
X37605042Y-83718215D02*
X36935042Y-83718215D01*
X36935042Y-83148215D01*
X37605042Y-83148215D01*
X37605042Y-83718215D01*
X37605042Y-83718215D01*
G37*
G36*
X40874022Y-83397095D02*
X40204022Y-83397095D01*
X40204022Y-82827095D01*
X40874022Y-82827095D01*
X40874022Y-83397095D01*
X40874022Y-83397095D01*
G37*
G36*
X41872242Y-83387315D02*
X41202242Y-83387315D01*
X41202242Y-82817315D01*
X41872242Y-82817315D01*
X41872242Y-83387315D01*
X41872242Y-83387315D01*
G37*
G36*
X39611642Y-82941415D02*
X38941642Y-82941415D01*
X38941642Y-82371415D01*
X39611642Y-82371415D01*
X39611642Y-82941415D01*
X39611642Y-82941415D01*
G37*
G36*
X36589142Y-82910835D02*
X36019142Y-82910835D01*
X36019142Y-82240835D01*
X36589142Y-82240835D01*
X36589142Y-82910835D01*
X36589142Y-82910835D01*
G37*
G36*
X35549142Y-82910835D02*
X34979142Y-82910835D01*
X34979142Y-82240835D01*
X35549142Y-82240835D01*
X35549142Y-82910835D01*
X35549142Y-82910835D01*
G37*
G36*
X38591042Y-82903215D02*
X38021042Y-82903215D01*
X38021042Y-82233215D01*
X38591042Y-82233215D01*
X38591042Y-82903215D01*
X38591042Y-82903215D01*
G37*
G36*
X37551042Y-82903215D02*
X36981042Y-82903215D01*
X36981042Y-82233215D01*
X37551042Y-82233215D01*
X37551042Y-82903215D01*
X37551042Y-82903215D01*
G37*
G36*
X46032502Y-82890515D02*
X45462502Y-82890515D01*
X45462502Y-82220515D01*
X46032502Y-82220515D01*
X46032502Y-82890515D01*
X46032502Y-82890515D01*
G37*
G36*
X47072502Y-82890515D02*
X46502502Y-82890515D01*
X46502502Y-82220515D01*
X47072502Y-82220515D01*
X47072502Y-82890515D01*
X47072502Y-82890515D01*
G37*
G36*
X50733862Y-82756175D02*
X49813862Y-82756175D01*
X49813862Y-81486175D01*
X50733862Y-81486175D01*
X50733862Y-82756175D01*
X50733862Y-82756175D01*
G37*
G36*
X52833862Y-82756175D02*
X51913862Y-82756175D01*
X51913862Y-81486175D01*
X52833862Y-81486175D01*
X52833862Y-82756175D01*
X52833862Y-82756175D01*
G37*
G36*
X54435444Y-82292592D02*
X54032393Y-82695643D01*
X53558632Y-82221882D01*
X53961683Y-81818831D01*
X54435444Y-82292592D01*
X54435444Y-82292592D01*
G37*
G36*
X41465942Y-82522215D02*
X40895942Y-82522215D01*
X40895942Y-81852215D01*
X41465942Y-81852215D01*
X41465942Y-82522215D01*
X41465942Y-82522215D01*
G37*
G36*
X40425942Y-82522215D02*
X39855942Y-82522215D01*
X39855942Y-81852215D01*
X40425942Y-81852215D01*
X40425942Y-82522215D01*
X40425942Y-82522215D01*
G37*
G36*
X45186942Y-82137415D02*
X44516942Y-82137415D01*
X44516942Y-81567415D01*
X45186942Y-81567415D01*
X45186942Y-82137415D01*
X45186942Y-82137415D01*
G37*
G36*
X43104142Y-82000915D02*
X42434142Y-82000915D01*
X42434142Y-81430915D01*
X43104142Y-81430915D01*
X43104142Y-82000915D01*
X43104142Y-82000915D01*
G37*
G36*
X47078642Y-81976115D02*
X46508642Y-81976115D01*
X46508642Y-81306115D01*
X47078642Y-81306115D01*
X47078642Y-81976115D01*
X47078642Y-81976115D01*
G37*
G36*
X46038642Y-81976115D02*
X45468642Y-81976115D01*
X45468642Y-81306115D01*
X46038642Y-81306115D01*
X46038642Y-81976115D01*
X46038642Y-81976115D01*
G37*
G36*
X55170836Y-81557200D02*
X54767785Y-81960251D01*
X54294024Y-81486490D01*
X54697075Y-81083439D01*
X55170836Y-81557200D01*
X55170836Y-81557200D01*
G37*
G36*
X38649082Y-81955795D02*
X38079082Y-81955795D01*
X38079082Y-81285795D01*
X38649082Y-81285795D01*
X38649082Y-81955795D01*
X38649082Y-81955795D01*
G37*
G36*
X37609082Y-81955795D02*
X37039082Y-81955795D01*
X37039082Y-81285795D01*
X37609082Y-81285795D01*
X37609082Y-81955795D01*
X37609082Y-81955795D01*
G37*
G36*
X39611642Y-81901415D02*
X38941642Y-81901415D01*
X38941642Y-81331415D01*
X39611642Y-81331415D01*
X39611642Y-81901415D01*
X39611642Y-81901415D01*
G37*
G36*
X36490262Y-80433666D02*
X36492835Y-80451775D01*
X36501122Y-80469637D01*
X36507371Y-80479043D01*
X36562299Y-80612310D01*
X36590207Y-80753252D01*
X36590207Y-80753269D01*
X36590293Y-80753705D01*
X36587994Y-80918341D01*
X36587895Y-80918776D01*
X36587895Y-80918788D01*
X36556063Y-81058900D01*
X36495881Y-81194072D01*
X36490262Y-81220510D01*
X36490262Y-81835775D01*
X35220262Y-81835775D01*
X35220262Y-81216461D01*
X35217689Y-81198352D01*
X35209899Y-81181250D01*
X35198376Y-81163370D01*
X35145313Y-81029347D01*
X35119293Y-80887578D01*
X35121306Y-80743448D01*
X35151275Y-80602456D01*
X35208057Y-80469972D01*
X35208893Y-80468751D01*
X35217001Y-80452356D01*
X35220262Y-80432026D01*
X35220262Y-79815775D01*
X36490262Y-79815775D01*
X36490262Y-80433666D01*
X36490262Y-80433666D01*
G37*
G36*
X53826822Y-81279155D02*
X53006822Y-81279155D01*
X53006822Y-80384155D01*
X53826822Y-80384155D01*
X53826822Y-81279155D01*
X53826822Y-81279155D01*
G37*
G36*
X52653342Y-81267295D02*
X51833342Y-81267295D01*
X51833342Y-80372295D01*
X52653342Y-80372295D01*
X52653342Y-81267295D01*
X52653342Y-81267295D01*
G37*
G36*
X51151142Y-81248655D02*
X49881142Y-81248655D01*
X49881142Y-80328655D01*
X51151142Y-80328655D01*
X51151142Y-81248655D01*
X51151142Y-81248655D01*
G37*
G36*
X45186942Y-81097415D02*
X44516942Y-81097415D01*
X44516942Y-80527415D01*
X45186942Y-80527415D01*
X45186942Y-81097415D01*
X45186942Y-81097415D01*
G37*
G36*
X43104142Y-80960915D02*
X42434142Y-80960915D01*
X42434142Y-80390915D01*
X43104142Y-80390915D01*
X43104142Y-80960915D01*
X43104142Y-80960915D01*
G37*
G36*
X46032502Y-80702415D02*
X45462502Y-80702415D01*
X45462502Y-80032415D01*
X46032502Y-80032415D01*
X46032502Y-80702415D01*
X46032502Y-80702415D01*
G37*
G36*
X47072502Y-80702415D02*
X46502502Y-80702415D01*
X46502502Y-80032415D01*
X47072502Y-80032415D01*
X47072502Y-80702415D01*
X47072502Y-80702415D01*
G37*
G36*
X55524742Y-80701135D02*
X54854742Y-80701135D01*
X54854742Y-80131135D01*
X55524742Y-80131135D01*
X55524742Y-80701135D01*
X55524742Y-80701135D01*
G37*
G36*
X37781422Y-80680715D02*
X37211422Y-80680715D01*
X37211422Y-80010715D01*
X37781422Y-80010715D01*
X37781422Y-80680715D01*
X37781422Y-80680715D01*
G37*
G36*
X38821422Y-80680715D02*
X38251422Y-80680715D01*
X38251422Y-80010715D01*
X38821422Y-80010715D01*
X38821422Y-80680715D01*
X38821422Y-80680715D01*
G37*
G36*
X61360642Y-80623315D02*
X58340642Y-80623315D01*
X58340642Y-77603315D01*
X61360642Y-77603315D01*
X61360642Y-80623315D01*
X61360642Y-80623315D01*
G37*
G36*
X47990817Y-78663655D02*
X48101275Y-78686328D01*
X48205232Y-78730028D01*
X48298716Y-78793084D01*
X48378171Y-78873096D01*
X48440576Y-78967022D01*
X48483547Y-79071278D01*
X48505361Y-79181442D01*
X48505361Y-79181462D01*
X48505446Y-79181893D01*
X48503648Y-79310690D01*
X48503549Y-79311125D01*
X48503549Y-79311137D01*
X48478668Y-79420654D01*
X48432803Y-79523670D01*
X48367803Y-79615812D01*
X48286143Y-79693575D01*
X48190933Y-79753997D01*
X48085797Y-79794777D01*
X47974753Y-79814358D01*
X47862009Y-79811995D01*
X47751878Y-79787782D01*
X47648545Y-79742637D01*
X47555946Y-79678279D01*
X47477616Y-79597165D01*
X47416529Y-79502376D01*
X47375019Y-79397536D01*
X47354663Y-79286625D01*
X47356238Y-79173870D01*
X47379683Y-79063569D01*
X47424104Y-78959927D01*
X47487815Y-78866880D01*
X47568378Y-78787986D01*
X47662739Y-78726238D01*
X47767287Y-78683998D01*
X47878059Y-78662868D01*
X47990817Y-78663655D01*
X47990817Y-78663655D01*
G37*
G36*
X42502162Y-79779115D02*
X41832162Y-79779115D01*
X41832162Y-79209115D01*
X42502162Y-79209115D01*
X42502162Y-79779115D01*
X42502162Y-79779115D01*
G37*
G36*
X55524742Y-79661135D02*
X54854742Y-79661135D01*
X54854742Y-79091135D01*
X55524742Y-79091135D01*
X55524742Y-79661135D01*
X55524742Y-79661135D01*
G37*
G36*
X53826822Y-79579155D02*
X53006822Y-79579155D01*
X53006822Y-78684155D01*
X53826822Y-78684155D01*
X53826822Y-79579155D01*
X53826822Y-79579155D01*
G37*
G36*
X52653342Y-79567295D02*
X51833342Y-79567295D01*
X51833342Y-78672295D01*
X52653342Y-78672295D01*
X52653342Y-79567295D01*
X52653342Y-79567295D01*
G37*
G36*
X42958839Y-79033491D02*
X42999182Y-79041772D01*
X43037146Y-79057731D01*
X43071289Y-79080761D01*
X43100313Y-79109989D01*
X43123100Y-79144284D01*
X43138795Y-79182366D01*
X43146705Y-79222311D01*
X43146705Y-79222328D01*
X43146791Y-79222763D01*
X43146134Y-79269802D01*
X43146035Y-79270237D01*
X43146035Y-79270251D01*
X43137013Y-79309964D01*
X43120263Y-79347584D01*
X43096522Y-79381239D01*
X43066697Y-79409641D01*
X43031925Y-79431708D01*
X42993526Y-79446602D01*
X42952976Y-79453753D01*
X42911797Y-79452890D01*
X42871575Y-79444046D01*
X42833831Y-79427556D01*
X42800016Y-79404055D01*
X42771408Y-79374429D01*
X42749097Y-79339809D01*
X42733938Y-79301521D01*
X42726503Y-79261015D01*
X42727078Y-79219834D01*
X42735642Y-79179547D01*
X42751865Y-79141694D01*
X42775130Y-79107716D01*
X42804559Y-79078898D01*
X42839017Y-79056349D01*
X42877200Y-79040922D01*
X42917660Y-79033204D01*
X42958839Y-79033491D01*
X42958839Y-79033491D01*
G37*
G36*
X36490262Y-77893666D02*
X36492835Y-77911775D01*
X36501122Y-77929637D01*
X36507371Y-77939043D01*
X36562299Y-78072310D01*
X36590207Y-78213252D01*
X36590207Y-78213269D01*
X36590293Y-78213705D01*
X36587994Y-78378341D01*
X36587895Y-78378776D01*
X36587895Y-78378788D01*
X36556063Y-78518900D01*
X36495881Y-78654072D01*
X36490262Y-78680510D01*
X36490262Y-79345775D01*
X35220262Y-79345775D01*
X35220262Y-78676461D01*
X35217689Y-78658352D01*
X35209899Y-78641250D01*
X35198376Y-78623370D01*
X35145313Y-78489347D01*
X35119293Y-78347578D01*
X35121306Y-78203448D01*
X35151275Y-78062456D01*
X35208057Y-77929972D01*
X35208893Y-77928751D01*
X35217001Y-77912356D01*
X35220262Y-77892026D01*
X35220262Y-77225775D01*
X36490262Y-77225775D01*
X36490262Y-77893666D01*
X36490262Y-77893666D01*
G37*
G36*
X39984122Y-79173295D02*
X39089122Y-79173295D01*
X39089122Y-78353295D01*
X39984122Y-78353295D01*
X39984122Y-79173295D01*
X39984122Y-79173295D01*
G37*
G36*
X41684122Y-79173295D02*
X40789122Y-79173295D01*
X40789122Y-78353295D01*
X41684122Y-78353295D01*
X41684122Y-79173295D01*
X41684122Y-79173295D01*
G37*
G36*
X51151142Y-79148655D02*
X49881142Y-79148655D01*
X49881142Y-78228655D01*
X51151142Y-78228655D01*
X51151142Y-79148655D01*
X51151142Y-79148655D01*
G37*
G36*
X38892222Y-78966215D02*
X38322222Y-78966215D01*
X38322222Y-78296215D01*
X38892222Y-78296215D01*
X38892222Y-78966215D01*
X38892222Y-78966215D01*
G37*
G36*
X37852222Y-78966215D02*
X37282222Y-78966215D01*
X37282222Y-78296215D01*
X37852222Y-78296215D01*
X37852222Y-78966215D01*
X37852222Y-78966215D01*
G37*
G36*
X44072522Y-78906455D02*
X43552522Y-78906455D01*
X43552522Y-78386455D01*
X44072522Y-78386455D01*
X44072522Y-78906455D01*
X44072522Y-78906455D01*
G37*
G36*
X45272522Y-78906455D02*
X44752522Y-78906455D01*
X44752522Y-78386455D01*
X45272522Y-78386455D01*
X45272522Y-78906455D01*
X45272522Y-78906455D01*
G37*
G36*
X42502162Y-78739115D02*
X41832162Y-78739115D01*
X41832162Y-78169115D01*
X42502162Y-78169115D01*
X42502162Y-78739115D01*
X42502162Y-78739115D01*
G37*
G36*
X61080142Y-77159815D02*
X59510142Y-77159815D01*
X59510142Y-76139815D01*
X61080142Y-76139815D01*
X61080142Y-77159815D01*
X61080142Y-77159815D01*
G37*
G36*
X58422642Y-76995315D02*
X56952642Y-76995315D01*
X56952642Y-76025315D01*
X58422642Y-76025315D01*
X58422642Y-76995315D01*
X58422642Y-76995315D01*
G37*
G36*
X39380642Y-76995315D02*
X37910642Y-76995315D01*
X37910642Y-76025315D01*
X39380642Y-76025315D01*
X39380642Y-76995315D01*
X39380642Y-76995315D01*
G37*
G36*
X36590262Y-76805775D02*
X35120262Y-76805775D01*
X35120262Y-74685775D01*
X36590262Y-74685775D01*
X36590262Y-76805775D01*
X36590262Y-76805775D01*
G37*
G36*
X58422642Y-75725315D02*
X56952642Y-75725315D01*
X56952642Y-74755315D01*
X58422642Y-74755315D01*
X58422642Y-75725315D01*
X58422642Y-75725315D01*
G37*
G36*
X39380642Y-75725315D02*
X37910642Y-75725315D01*
X37910642Y-74755315D01*
X39380642Y-74755315D01*
X39380642Y-75725315D01*
X39380642Y-75725315D01*
G37*
G36*
X39380642Y-74455315D02*
X37910642Y-74455315D01*
X37910642Y-73485315D01*
X39380642Y-73485315D01*
X39380642Y-74455315D01*
X39380642Y-74455315D01*
G37*
G36*
X58422642Y-74455315D02*
X56952642Y-74455315D01*
X56952642Y-73485315D01*
X58422642Y-73485315D01*
X58422642Y-74455315D01*
X58422642Y-74455315D01*
G37*
G36*
X61080142Y-73959815D02*
X59510142Y-73959815D01*
X59510142Y-72939815D01*
X61080142Y-72939815D01*
X61080142Y-73959815D01*
X61080142Y-73959815D01*
G37*
G36*
X39380642Y-73185315D02*
X37910642Y-73185315D01*
X37910642Y-72215315D01*
X39380642Y-72215315D01*
X39380642Y-73185315D01*
X39380642Y-73185315D01*
G37*
G36*
X58422642Y-73185315D02*
X56952642Y-73185315D01*
X56952642Y-72215315D01*
X58422642Y-72215315D01*
X58422642Y-73185315D01*
X58422642Y-73185315D01*
G37*
G36*
X61080142Y-72651315D02*
X59510142Y-72651315D01*
X59510142Y-71631315D01*
X61080142Y-71631315D01*
X61080142Y-72651315D01*
X61080142Y-72651315D01*
G37*
G36*
X39380642Y-71915315D02*
X37910642Y-71915315D01*
X37910642Y-70945315D01*
X39380642Y-70945315D01*
X39380642Y-71915315D01*
X39380642Y-71915315D01*
G37*
G36*
X58422642Y-71915315D02*
X56952642Y-71915315D01*
X56952642Y-70945315D01*
X58422642Y-70945315D01*
X58422642Y-71915315D01*
X58422642Y-71915315D01*
G37*
G36*
X61080142Y-69451315D02*
X59510142Y-69451315D01*
X59510142Y-68431315D01*
X61080142Y-68431315D01*
X61080142Y-69451315D01*
X61080142Y-69451315D01*
G37*
G36*
X58294441Y-57308551D02*
X58565308Y-57364152D01*
X58820217Y-57471306D01*
X59049461Y-57625933D01*
X59244303Y-57822139D01*
X59397325Y-58052457D01*
X59502697Y-58308106D01*
X59556316Y-58578905D01*
X59556316Y-58578922D01*
X59556402Y-58579357D01*
X59551992Y-58895190D01*
X59551893Y-58895625D01*
X59551893Y-58895637D01*
X59490733Y-59164833D01*
X59378262Y-59417449D01*
X59218872Y-59643398D01*
X59018628Y-59834088D01*
X58785157Y-59982252D01*
X58527356Y-60082247D01*
X58255038Y-60130265D01*
X57978585Y-60124473D01*
X57708519Y-60065096D01*
X57455128Y-59954392D01*
X57228070Y-59796582D01*
X57035986Y-59597673D01*
X56886193Y-59365240D01*
X56784402Y-59108147D01*
X56734486Y-58836174D01*
X56738347Y-58559683D01*
X56795838Y-58289208D01*
X56904769Y-58035053D01*
X57060989Y-57806899D01*
X57258554Y-57613428D01*
X57489931Y-57462020D01*
X57746313Y-57358435D01*
X58017935Y-57306621D01*
X58294441Y-57308551D01*
X58294441Y-57308551D01*
G37*
G36*
X38294441Y-57308551D02*
X38565308Y-57364152D01*
X38820217Y-57471306D01*
X39049461Y-57625933D01*
X39244303Y-57822139D01*
X39397325Y-58052457D01*
X39502697Y-58308106D01*
X39556316Y-58578905D01*
X39556316Y-58578922D01*
X39556402Y-58579357D01*
X39551992Y-58895190D01*
X39551893Y-58895625D01*
X39551893Y-58895637D01*
X39490733Y-59164833D01*
X39378262Y-59417449D01*
X39218872Y-59643398D01*
X39018628Y-59834088D01*
X38785157Y-59982252D01*
X38527356Y-60082247D01*
X38255038Y-60130265D01*
X37978585Y-60124473D01*
X37708519Y-60065096D01*
X37455128Y-59954392D01*
X37228070Y-59796582D01*
X37035986Y-59597673D01*
X36886193Y-59365240D01*
X36784402Y-59108147D01*
X36734486Y-58836174D01*
X36738347Y-58559683D01*
X36795838Y-58289208D01*
X36904769Y-58035053D01*
X37060989Y-57806899D01*
X37258554Y-57613428D01*
X37489931Y-57462020D01*
X37746313Y-57358435D01*
X38017935Y-57306621D01*
X38294441Y-57308551D01*
X38294441Y-57308551D01*
G37*
M02*
