M48
INCH,TZ
T1C0.008
T2C0.012
T3C0.024
T4C0.035
T5C0.067
T6C0.079
%
G90
G05
T1
X13812Y-40907
X13818Y-41777
X13825Y-41132
X13825Y-41457
X13852Y-38647
X13852Y-38847
X13852Y-39007
X13852Y-39207
X13852Y-39377
X13882Y-40137
X13971Y-33180
X13993Y-40307
X13993Y-42702
X14061Y-32325
X14260Y-33264
X14269Y-36015
X14291Y-33788
X14298Y-24811
X14388Y-28997
X14420Y-32975
X14423Y-32367
X14456Y-40446
X14478Y-37957
X14566Y-21335
X14572Y-26965
X14582Y-42737
X14718Y-24487
X14750Y-25233
X14764Y-25851
X14846Y-31323
X14851Y-31882
X14892Y-35113
X14902Y-35803
X14952Y-35335
X14972Y-26362
X14972Y-27179
X14983Y-35520
X14986Y-30567
X15044Y-35951
X15072Y-31897
X15178Y-35455
X15196Y-21721
X15207Y-35648
X15207Y-35859
X15211Y-40052
X15273Y-27017
X15435Y-25317
X15463Y-31601
X15472Y-31854
X15520Y-33364
X15624Y-37257
X15652Y-30445
X15774Y-38655
X15778Y-37173
X15811Y-31550
X15952Y-37160
X16012Y-38007
X16035Y-42167
X16078Y-24892
X16086Y-41080
X16110Y-33463
X16113Y-43237
X16126Y-37027
X16147Y-41819
X16149Y-31957
X16252Y-37577
X16268Y-24587
X16292Y-42707
X16308Y-21557
X16406Y-33463
X16413Y-24047
X16418Y-34454
X16442Y-31927
X16452Y-34711
X16452Y-36895
X16463Y-30597
X16552Y-41074
X16560Y-34871
X16672Y-41317
X16679Y-41482
X16682Y-41787
X16702Y-42627
X16710Y-38067
X16710Y-38492
X16726Y-30790
X16752Y-39237
X16761Y-40720
X16771Y-37717
X16771Y-37927
X16813Y-31767
X16860Y-34934
X16978Y-23359
X17004Y-35865
X17012Y-32547
X17177Y-31341
X17218Y-36539
X17228Y-24847
X17379Y-36813
X17388Y-23972
X17438Y-31155
X17464Y-35136
X17492Y-34747
X17492Y-34947
X17513Y-34341
X17520Y-34543
X17568Y-27707
X17612Y-33357
X17664Y-32496
X17664Y-32978
X17671Y-33179
X17758Y-30562
X17840Y-36309
X17979Y-33607
X17980Y-33853
X17980Y-34068
X18018Y-25347
X18041Y-31348
X18153Y-21342
X18223Y-27782
X18348Y-36881
X18561Y-34366
X18572Y-35131
X18583Y-32524
X18653Y-36167
X18675Y-36742
X18700Y-32091
X18738Y-40447
X18783Y-41242
X18872Y-38107
X18890Y-21435
X18902Y-40127
X19174Y-31466
X19302Y-37827
X19398Y-32247
X19403Y-30905
X19478Y-35527
X19494Y-36353
X19588Y-22967
X19592Y-36080
X19692Y-39017
X19694Y-35128
X19706Y-33832
X19923Y-33250
X19927Y-32982
X19933Y-39737
X19969Y-34687
X19988Y-33687
X19992Y-33847
X19992Y-34027
X20038Y-33117
X20118Y-40822
X20196Y-35147
X20196Y-35147
X20196Y-35147
X20196Y-35147
X20222Y-33857
X20222Y-34037
X20242Y-33687
X20244Y-31039
X20273Y-31592
X20280Y-23701
X20308Y-22005
X20402Y-36927
X20412Y-37427
X20428Y-31355
X20473Y-37602
X20488Y-32939
X20518Y-38142
X20565Y-31944
X20628Y-36629
X20772Y-34361
X20934Y-32119
X21054Y-33922
X21102Y-37727
X21122Y-32611
X21288Y-31869
X21360Y-36358
X21395Y-40576
X21404Y-41699
X21473Y-43097
X21528Y-21927
X21774Y-35781
X21779Y-31881
X21821Y-30303
X21928Y-23227
X21952Y-34698
X22106Y-34270
X22383Y-21552
X22508Y-27147
X23118Y-42997
X23748Y-36527
X23793Y-24777
X23808Y-24527
X23883Y-22497
X23984Y-21615
T2
X14372Y-38446
X14372Y-38761
X14372Y-39076
X14381Y-39371
X14381Y-39696
X14421Y-41133
X14421Y-41448
X14421Y-41763
X14431Y-42058
X14431Y-42383
X14863Y-41143
X14863Y-41458
X14863Y-41773
X14873Y-42068
X14873Y-42393
X15118Y-37707
X15249Y-39334
X15249Y-39734
X18368Y-25107
X18961Y-36507
X19148Y-30347
X20044Y-32817
X20563Y-30382
X20785Y-38912
X20979Y-38718
X21380Y-40316
X21392Y-41994
X22028Y-25087
X22097Y-32912
X22167Y-33298
X22276Y-40036
X22298Y-42946
X22300Y-39680
X22324Y-41683
X22382Y-35727
X22458Y-24492
X22698Y-35710
X22878Y-25827
X22986Y-34824
X22996Y-35237
X23038Y-26996
X23104Y-37507
X23104Y-37807
X23104Y-38107
X23310Y-34844
X23320Y-35257
X23378Y-27987
X23502Y-37507
X23502Y-37807
X23502Y-38107
X23588Y-29322
X23614Y-34844
X23624Y-35257
X23638Y-25647
X23638Y-34407
X23838Y-27487
T3
X15313Y-28122
X15313Y-28622
X15313Y-29122
X15313Y-29622
X15313Y-30122
X22613Y-28122
X22613Y-28622
X22613Y-29122
X22613Y-29622
X22613Y-30122
T4
X14116Y-29821
X14116Y-30821
X14116Y-31821
T5
X23563Y-31147
X23563Y-32997
T6
X15018Y-23117
X22892Y-23117
T0
M30
