G04 #@! TF.FileFunction,Copper,L1,Top,Signal*
%FSLAX46Y46*%
G04 Gerber Fmt 4.6, Leading zero omitted, Abs format (unit mm)*
G04 Created by KiCad (PCBNEW 4.0.2-stable) date 1/2/2018 2:21:40 AM*
%MOMM*%
G01*
G04 APERTURE LIST*
%ADD10C,0.050000*%
%ADD11R,0.550000X0.650000*%
%ADD12R,0.500000X0.500000*%
%ADD13R,3.000000X3.000000*%
%ADD14R,0.320000X0.370000*%
%ADD15R,0.950000X1.500000*%
%ADD16R,0.250000X0.890000*%
%ADD17R,0.650000X0.550000*%
%ADD18R,0.410000X0.800000*%
%ADD19R,1.250000X0.900000*%
%ADD20R,0.650000X1.300000*%
%ADD21R,0.850000X0.850000*%
%ADD22R,1.700000X3.500000*%
%ADD23R,1.200000X0.770000*%
%ADD24R,4.035000X4.560000*%
%ADD25R,0.905000X0.495000*%
%ADD26R,0.550000X0.750000*%
%ADD27R,0.770000X1.200000*%
%ADD28R,4.560000X4.035000*%
%ADD29R,0.495000X0.905000*%
%ADD30R,0.750000X0.550000*%
%ADD31R,1.000000X0.800000*%
%ADD32R,0.900000X1.250000*%
%ADD33C,0.750000*%
%ADD34R,1.550000X1.000000*%
%ADD35R,5.100000X2.350000*%
%ADD36C,0.400000*%
%ADD37R,1.000000X1.550000*%
%ADD38R,3.900000X12.800000*%
%ADD39R,1.450000X0.950000*%
%ADD40R,1.450000X1.450000*%
%ADD41C,1.450000*%
%ADD42R,1.250000X2.100000*%
%ADD43R,1.450000X2.100000*%
%ADD44R,1.250000X2.000000*%
%ADD45R,0.800000X0.875000*%
%ADD46R,0.875000X0.800000*%
%ADD47C,2.800000*%
%ADD48R,0.930000X0.620000*%
%ADD49C,0.330200*%
%ADD50C,0.635000*%
%ADD51C,0.381000*%
%ADD52C,0.114300*%
%ADD53C,0.177800*%
%ADD54C,0.508000*%
%ADD55C,0.203200*%
%ADD56C,0.254000*%
%ADD57C,0.635000*%
%ADD58C,0.381000*%
%ADD59C,0.889000*%
%ADD60C,0.127000*%
%ADD61C,1.143000*%
%ADD62C,1.930400*%
%ADD63C,2.032000*%
%ADD64C,1.905000*%
%ADD65C,1.955800*%
%ADD66C,0.152400*%
G04 APERTURE END LIST*
D10*
D11*
X51760742Y-87902215D03*
X52800742Y-87902215D03*
D12*
X43812522Y-78646455D03*
X45012522Y-78646455D03*
D13*
X59850642Y-79113315D03*
X59850642Y-83813315D03*
D14*
X50765302Y-87054415D03*
X52065302Y-87054415D03*
X51415302Y-87054415D03*
X52065302Y-85184415D03*
X51415302Y-85184415D03*
X50765302Y-85184415D03*
D15*
X51095302Y-86119415D03*
D16*
X52090302Y-86089415D03*
D11*
X51119962Y-91971295D03*
X50079962Y-91971295D03*
X52941842Y-91989075D03*
X51901842Y-91989075D03*
X36304142Y-82575835D03*
X35264142Y-82575835D03*
D17*
X39276642Y-81616415D03*
X39276642Y-82656415D03*
X40539022Y-83112095D03*
X40539022Y-84152095D03*
X41537242Y-84142315D03*
X41537242Y-83102315D03*
X42167162Y-79494115D03*
X42167162Y-78454115D03*
D11*
X38607222Y-78631215D03*
X37567222Y-78631215D03*
X37324082Y-81620795D03*
X38364082Y-81620795D03*
X38306042Y-82568215D03*
X37266042Y-82568215D03*
D18*
X50648702Y-91042015D03*
X51298702Y-91042015D03*
X51948702Y-91042015D03*
X51948702Y-88842015D03*
X51298702Y-88842015D03*
X50648702Y-88842015D03*
D17*
X55189742Y-79376135D03*
X55189742Y-80416135D03*
D19*
X53498102Y-86958315D03*
X53498102Y-84858315D03*
D17*
X49766842Y-85883615D03*
X49766842Y-86923615D03*
D11*
X50665302Y-87927615D03*
X49625302Y-87927615D03*
D19*
X55098302Y-87275815D03*
X55098302Y-85175815D03*
X41382302Y-105589615D03*
X41382302Y-107689615D03*
D17*
X42493372Y-92842502D03*
X42493372Y-93882502D03*
D10*
G36*
X54308166Y-81486490D02*
X54697075Y-81097581D01*
X55156694Y-81557200D01*
X54767785Y-81946109D01*
X54308166Y-81486490D01*
X54308166Y-81486490D01*
G37*
G36*
X53572774Y-82221882D02*
X53961683Y-81832973D01*
X54421302Y-82292592D01*
X54032393Y-82681501D01*
X53572774Y-82221882D01*
X53572774Y-82221882D01*
G37*
D11*
X52680922Y-83411495D03*
X53720922Y-83411495D03*
X37171302Y-85413015D03*
X38211302Y-85413015D03*
D17*
X38298742Y-84549415D03*
X38298742Y-83509415D03*
D11*
X37496422Y-80345715D03*
X38536422Y-80345715D03*
X40140942Y-82187215D03*
X41180942Y-82187215D03*
D17*
X45779042Y-83496715D03*
X45779042Y-84536715D03*
X44851942Y-80812415D03*
X44851942Y-81852415D03*
D11*
X46793642Y-81641115D03*
X45753642Y-81641115D03*
D17*
X46744242Y-83521415D03*
X46744242Y-84561415D03*
D11*
X46787502Y-80367415D03*
X45747502Y-80367415D03*
D20*
X42525302Y-91715415D03*
X43795302Y-91715415D03*
X45065302Y-91715415D03*
X46335302Y-91715415D03*
X46330302Y-86465415D03*
X45065302Y-86465415D03*
X43795302Y-86465415D03*
X42525302Y-86465415D03*
D21*
X45205302Y-90140415D03*
D22*
X43230302Y-88815415D03*
X45630302Y-88815415D03*
D21*
X46055302Y-90140415D03*
X46055302Y-89290415D03*
X45205302Y-89290415D03*
X45205302Y-88440415D03*
X46055302Y-88440415D03*
X45205302Y-87590415D03*
X46055302Y-87590415D03*
X42805302Y-90140415D03*
X43655302Y-90140415D03*
X43655302Y-89290415D03*
X42805302Y-89290415D03*
X43655302Y-88440415D03*
X42805302Y-88440415D03*
X43655302Y-87590415D03*
X42805302Y-87590415D03*
D23*
X41077502Y-101110215D03*
X41077502Y-99840215D03*
X41077502Y-98570215D03*
X41077502Y-97300215D03*
D24*
X37517502Y-99205215D03*
D25*
X38635002Y-101732715D03*
X38635002Y-96677715D03*
D26*
X35225942Y-97300215D03*
X35225942Y-101110215D03*
D27*
X56802642Y-91813815D03*
X58072642Y-91813815D03*
X59342642Y-91813815D03*
X60612642Y-91813815D03*
D28*
X58707642Y-88253815D03*
D29*
X56180142Y-89371315D03*
X61235142Y-89371315D03*
D30*
X60612642Y-85962255D03*
X56802642Y-85962255D03*
D27*
X35768902Y-109552575D03*
X37038902Y-109552575D03*
X38308902Y-109552575D03*
X39578902Y-109552575D03*
D28*
X37673902Y-105992575D03*
D29*
X35146402Y-107110075D03*
X40201402Y-107110075D03*
D30*
X39578902Y-103701015D03*
X35768902Y-103701015D03*
D31*
X41828702Y-102328015D03*
X41828702Y-104328015D03*
D32*
X50273862Y-82121175D03*
X52373862Y-82121175D03*
D19*
X50516142Y-80788655D03*
X50516142Y-78688655D03*
D33*
X47930422Y-79238275D03*
D34*
X60295142Y-68941315D03*
X60295142Y-72141315D03*
X60295142Y-73449815D03*
X60295142Y-76649815D03*
D19*
X35621582Y-83577975D03*
X35621582Y-85677975D03*
D17*
X43269522Y-84166575D03*
X43269522Y-85206575D03*
D35*
X38131102Y-87731415D03*
X38131102Y-92931415D03*
D32*
X37512502Y-95725415D03*
X35412502Y-95725415D03*
D11*
X45747502Y-82555515D03*
X46787502Y-82555515D03*
D36*
X42936782Y-79243355D03*
X53076462Y-90879095D03*
D17*
X37270042Y-83433215D03*
X37270042Y-84473215D03*
D37*
X42058482Y-95283455D03*
X38858482Y-95283455D03*
D38*
X59378702Y-101553015D03*
X44878702Y-101553015D03*
D17*
X39324902Y-83815215D03*
X39324902Y-84855215D03*
D39*
X38645642Y-71430315D03*
X38645642Y-72700315D03*
X38645642Y-73970315D03*
X38645642Y-75240315D03*
X38645642Y-76510315D03*
X57687642Y-71430315D03*
X57687642Y-72700315D03*
X57687642Y-73970315D03*
X57687642Y-76510315D03*
X57687642Y-75240315D03*
D40*
X35855262Y-75745775D03*
D41*
X35855262Y-78285775D03*
X35855262Y-80825775D03*
D42*
X35855262Y-78285775D03*
D43*
X35855262Y-75745775D03*
D44*
X35855262Y-80825775D03*
D45*
X53416822Y-79131655D03*
X53416822Y-80831655D03*
D46*
X40555702Y-102828015D03*
X38855702Y-102828015D03*
D45*
X52243342Y-79119795D03*
X52243342Y-80819795D03*
D46*
X53830042Y-91740155D03*
X55530042Y-91740155D03*
X36087302Y-102766295D03*
X37787302Y-102766295D03*
X39536622Y-78763295D03*
X41236622Y-78763295D03*
D47*
X38146342Y-58717615D03*
X58146342Y-58717615D03*
D48*
X53425102Y-89507255D03*
X54895102Y-90157255D03*
X54895102Y-88857255D03*
D17*
X42769142Y-81715915D03*
X42769142Y-80675915D03*
D49*
X37038902Y-108552415D03*
X40066899Y-98183818D03*
X51494042Y-80244115D03*
X49283065Y-78498379D03*
X39205651Y-64305615D03*
X38794042Y-68623615D03*
X37709462Y-79560855D03*
X55697742Y-58997015D03*
X54681742Y-55695015D03*
X36998262Y-54191335D03*
X47981222Y-54445335D03*
X51582942Y-55893135D03*
X46287042Y-70566715D03*
X44623342Y-70376215D03*
X47145562Y-87290075D03*
X42599300Y-95801213D03*
X42443104Y-96690605D03*
X40857481Y-104344432D03*
X42365602Y-105364715D03*
X41013992Y-106220813D03*
X42042722Y-104328015D03*
X35487058Y-84277901D03*
X52116342Y-96881115D03*
X51100342Y-103688315D03*
X54542042Y-109466815D03*
X58720342Y-109212815D03*
X50630442Y-100932415D03*
X47709442Y-104755115D03*
X47595142Y-102735815D03*
X35542102Y-108463515D03*
X35542102Y-102380215D03*
X35098342Y-106114015D03*
X35114500Y-104475715D03*
X35114500Y-105301215D03*
D50*
X57653542Y-90703117D03*
X56850902Y-90747015D03*
D49*
X45766342Y-64381815D03*
X42423702Y-108273015D03*
X56148240Y-87046405D03*
D50*
X60549142Y-69817415D03*
X60041142Y-65143815D03*
X58110742Y-65601015D03*
X59914142Y-74478315D03*
D49*
X41816642Y-77716815D03*
X36546142Y-73652815D03*
X44166142Y-60889315D03*
D50*
X54336302Y-106665195D03*
X54305822Y-102403075D03*
D49*
X54366782Y-105915895D03*
X54343922Y-103063475D03*
X45824762Y-79624355D03*
X41670302Y-84995815D03*
X41702342Y-87513595D03*
X42063022Y-88572775D03*
X41788702Y-88166375D03*
X39420302Y-84745815D03*
X40920302Y-84995815D03*
X49763329Y-91643213D03*
X50023382Y-89225935D03*
X47435122Y-93325115D03*
X47200942Y-82611395D03*
D50*
X55951742Y-63721415D03*
D49*
X54255022Y-92349755D03*
X37013502Y-68491535D03*
X36317542Y-63020375D03*
X51887742Y-79642135D03*
X47173511Y-89233175D03*
X42705642Y-80688615D03*
X35083102Y-103904215D03*
X36718862Y-102733275D03*
X42550702Y-99662415D03*
X35184702Y-100018015D03*
X35184702Y-99078215D03*
X35184702Y-99586215D03*
X35260902Y-101948415D03*
X35184702Y-98671815D03*
X35184702Y-98163815D03*
D51*
X42573900Y-103428015D03*
D49*
X42599300Y-96335015D03*
X50052502Y-85932415D03*
X42347502Y-104945615D03*
X36299220Y-85822497D03*
X48702582Y-79923657D03*
D50*
X38400830Y-95775498D03*
D49*
X42484662Y-78207035D03*
X39276642Y-80266975D03*
X37851702Y-90940055D03*
X55425931Y-76969081D03*
X49271542Y-81907815D03*
X44359704Y-89245621D03*
X44884962Y-84275095D03*
X35715713Y-82106255D03*
X44483357Y-87225165D03*
X44430302Y-88765815D03*
X42372902Y-106139415D03*
X50897142Y-84117615D03*
X37826302Y-89185817D03*
X37722162Y-80980715D03*
X39685116Y-94632311D03*
X50018302Y-99103615D03*
D50*
X58683702Y-96792215D03*
X59695702Y-96792215D03*
X58683702Y-96030215D03*
X59695702Y-96030215D03*
X59695702Y-95268215D03*
X58683702Y-95268215D03*
D49*
X40518702Y-94385817D03*
X49027702Y-96081015D03*
X36774742Y-96411215D03*
D50*
X38733082Y-100924795D03*
X38733082Y-99908795D03*
X36528702Y-100828015D03*
X36528702Y-100003015D03*
X36503702Y-99253015D03*
X36503702Y-98453015D03*
X36503702Y-97653015D03*
D49*
X38635002Y-101732715D03*
X38598462Y-55171775D03*
X44867182Y-82540275D03*
X44867182Y-83764555D03*
X41279080Y-95446015D03*
X45669704Y-86533155D03*
X45667282Y-85362215D03*
X41788702Y-93712455D03*
X46604542Y-93678175D03*
X43190900Y-91097535D03*
X39299502Y-80909595D03*
X44143282Y-93504655D03*
D50*
X53287282Y-98344155D03*
X52794522Y-98836915D03*
D49*
X40728304Y-107104615D03*
X40159457Y-80136331D03*
X41019082Y-81171215D03*
X42443104Y-97770115D03*
X38212382Y-91315975D03*
X48011702Y-101923015D03*
D50*
X37776702Y-107678015D03*
X36653702Y-107653015D03*
X37776702Y-106853015D03*
X36653702Y-106828015D03*
X37751702Y-106103015D03*
X36628702Y-106078015D03*
X37751702Y-105303015D03*
X36628702Y-105278015D03*
X37751702Y-104503015D03*
X36628702Y-104478015D03*
D49*
X36242301Y-91477013D03*
X47935502Y-96792215D03*
D50*
X60041142Y-87394215D03*
X59207702Y-88503015D03*
X56581662Y-101691875D03*
X56703582Y-105875255D03*
X56642622Y-100787635D03*
X56637542Y-109083275D03*
X58409302Y-89503015D03*
X59232702Y-89553015D03*
X60003702Y-89553015D03*
X58384302Y-88453015D03*
X59978702Y-88503015D03*
D49*
X51420544Y-78837883D03*
X41689642Y-61079815D03*
D50*
X57043942Y-62210115D03*
D49*
X52761507Y-87277151D03*
D50*
X46655342Y-63772215D03*
X56303702Y-84578015D03*
X56127002Y-83596915D03*
D49*
X53650502Y-82832375D03*
D50*
X58517142Y-68570073D03*
X59380742Y-71087415D03*
D49*
X38057442Y-90221234D03*
X38626402Y-90546355D03*
X38552742Y-90056135D03*
X38283502Y-81018815D03*
X60320542Y-92779015D03*
X53599702Y-95827015D03*
X47498622Y-81511575D03*
X44734736Y-84726849D03*
X36221022Y-84490995D03*
X45669704Y-85987055D03*
X41763302Y-81095015D03*
X36625984Y-83756935D03*
X51821702Y-93795015D03*
X40960504Y-94049015D03*
X40075496Y-94419743D03*
X51847102Y-95065015D03*
X36635042Y-82212615D03*
X43211102Y-82669815D03*
X37501182Y-65661975D03*
X37465622Y-64092255D03*
X38029841Y-66959915D03*
X38029841Y-69034714D03*
X51364502Y-86454415D03*
X50780302Y-86429015D03*
X51364502Y-85997215D03*
X50780302Y-85971815D03*
X51415302Y-85565415D03*
X50770411Y-85565415D03*
X50613824Y-83774715D03*
X45314394Y-92224777D03*
D50*
X48161464Y-92727834D03*
D49*
X49515382Y-92337055D03*
D50*
X50912382Y-83355615D03*
D49*
X54072142Y-80947695D03*
X40671102Y-96538215D03*
X40928204Y-109822415D03*
X42824704Y-88732296D03*
X41321342Y-62451415D03*
X51511822Y-60200975D03*
X57170942Y-68953815D03*
X43759742Y-63111815D03*
X52040142Y-83665495D03*
X49474742Y-90239015D03*
X51298702Y-89273815D03*
X51298702Y-89273815D03*
X51298702Y-89273815D03*
X51298702Y-89273815D03*
X50721502Y-88105415D03*
X44430302Y-88257815D03*
X41382302Y-108476215D03*
D50*
X48636542Y-77081815D03*
X52230694Y-77170767D03*
D49*
X52235722Y-81138195D03*
X50605042Y-84454166D03*
X37978702Y-89750987D03*
X38065062Y-77640615D03*
X43630202Y-79606575D03*
X44500900Y-87739655D03*
X44293142Y-79134758D03*
X39756702Y-77330735D03*
X45105942Y-77627915D03*
X52395742Y-93038095D03*
X55306582Y-90884175D03*
X53477223Y-86161734D03*
X55319282Y-80978175D03*
X43734342Y-92809495D03*
X53172982Y-81582695D03*
X52002042Y-95509515D03*
X47379242Y-91864615D03*
X38626402Y-91082295D03*
X46109242Y-54209115D03*
X43124742Y-59332295D03*
X60434842Y-62934015D03*
X60919982Y-54901853D03*
X56853442Y-54742515D03*
X41422942Y-54755215D03*
X60663442Y-57142815D03*
X60472942Y-62299015D03*
X49754142Y-58336615D03*
X55759274Y-88134123D03*
X40838742Y-63226115D03*
X37384342Y-62197415D03*
D52*
X39536622Y-78763295D02*
X39340142Y-78763295D01*
X37963860Y-79504975D02*
X37765342Y-79504975D01*
X39340142Y-78763295D02*
X38824522Y-79278915D01*
X38824522Y-79278915D02*
X38189920Y-79278915D01*
X38189920Y-79278915D02*
X37963860Y-79504975D01*
X37765342Y-79504975D02*
X37709462Y-79560855D01*
X37567222Y-78631215D02*
X37567222Y-79418615D01*
X37567222Y-79418615D02*
X37709462Y-79560855D01*
X46113051Y-85025664D02*
X47145562Y-86058175D01*
X47145562Y-86058175D02*
X47145562Y-87056589D01*
X47145562Y-87056589D02*
X47145562Y-87290075D01*
X43269522Y-85186575D02*
X45102632Y-85186575D01*
X45263543Y-85025664D02*
X46113051Y-85025664D01*
X45102632Y-85186575D02*
X45263543Y-85025664D01*
D53*
X42058482Y-95283455D02*
X42058482Y-96305983D01*
X42058482Y-96305983D02*
X42443104Y-96690605D01*
D54*
X40555702Y-102828015D02*
X40555702Y-104042653D01*
X40555702Y-104042653D02*
X40857481Y-104344432D01*
X41382302Y-105589615D02*
X41382302Y-104869253D01*
X41382302Y-104869253D02*
X40857481Y-104344432D01*
X42365602Y-105364715D02*
X42365602Y-104864915D01*
X42365602Y-104864915D02*
X41828702Y-104328015D01*
X41382302Y-105589615D02*
X42140702Y-105589615D01*
X42140702Y-105589615D02*
X42365602Y-105364715D01*
X41382302Y-105589615D02*
X41382302Y-105852503D01*
X41382302Y-105852503D02*
X41013992Y-106220813D01*
X41382302Y-105589615D02*
X41382302Y-104988435D01*
X41382302Y-104988435D02*
X42042722Y-104328015D01*
X41382302Y-105589615D02*
X41382302Y-104774415D01*
X41382302Y-104774415D02*
X41828702Y-104328015D01*
D52*
X35487058Y-84277901D02*
X35487058Y-83712499D01*
X35487058Y-83712499D02*
X35621582Y-83577975D01*
X50079962Y-91971295D02*
X50079962Y-91959846D01*
X50079962Y-91959846D02*
X49763329Y-91643213D01*
X50648702Y-91042015D02*
X50648702Y-91237015D01*
X50648702Y-91237015D02*
X50242504Y-91643213D01*
X50242504Y-91643213D02*
X49996815Y-91643213D01*
X49996815Y-91643213D02*
X49763329Y-91643213D01*
X35621582Y-83577975D02*
X36256282Y-83577975D01*
X36256282Y-83577975D02*
X37266042Y-82568215D01*
D55*
X37324082Y-81620795D02*
X36650282Y-81620795D01*
X36650282Y-81620795D02*
X35855262Y-80825775D01*
X36108782Y-80825775D02*
X35855262Y-80825775D01*
D52*
X39536622Y-78763295D02*
X39416091Y-78883826D01*
D54*
X60168142Y-68841315D02*
X60168142Y-69436415D01*
X60168142Y-69436415D02*
X60549142Y-69817415D01*
D56*
X59914142Y-73349815D02*
X59914142Y-74478315D01*
D52*
X38105702Y-84459815D02*
X38105702Y-84610003D01*
X38105702Y-84610003D02*
X37764851Y-84950854D01*
X37799141Y-85909466D02*
X39064951Y-85909466D01*
X37764851Y-84950854D02*
X37764851Y-85875176D01*
X39324902Y-85649515D02*
X39324902Y-85135215D01*
X37764851Y-85875176D02*
X37799141Y-85909466D01*
X39064951Y-85909466D02*
X39324902Y-85649515D01*
X51887742Y-79642135D02*
X52314462Y-80068855D01*
X54732430Y-81521845D02*
X54732430Y-80963651D01*
X54732430Y-80963651D02*
X53837634Y-80068855D01*
X53837634Y-80068855D02*
X52314462Y-80068855D01*
X40539022Y-84132095D02*
X40589022Y-84132095D01*
X40589022Y-84132095D02*
X41452742Y-84995815D01*
X41452742Y-84995815D02*
X41670302Y-84995815D01*
X49763329Y-91643213D02*
X49763329Y-91916602D01*
X39324902Y-85235215D02*
X39324902Y-84841215D01*
X39324902Y-84841215D02*
X39420302Y-84745815D01*
X40504502Y-85092215D02*
X40823902Y-85092215D01*
X40823902Y-85092215D02*
X40920302Y-84995815D01*
X40539022Y-84132095D02*
X40539022Y-85057695D01*
X40539022Y-85057695D02*
X40504502Y-85092215D01*
X46767502Y-82677415D02*
X47134922Y-82677415D01*
X47134922Y-82677415D02*
X47200942Y-82611395D01*
X46777502Y-81757415D02*
X46777502Y-82667415D01*
X46777502Y-82667415D02*
X46767502Y-82677415D01*
X36718862Y-102733275D02*
X36192242Y-102733275D01*
X36192242Y-102733275D02*
X36164302Y-102761215D01*
D57*
X59842662Y-83441975D02*
X59853702Y-83453015D01*
D56*
X53754642Y-92248155D02*
X54153422Y-92248155D01*
X54153422Y-92248155D02*
X54255022Y-92349755D01*
D52*
X53366022Y-79093497D02*
X51969864Y-79093497D01*
X51969864Y-79093497D02*
X51953782Y-79077415D01*
X51887742Y-79642135D02*
X51887742Y-79143455D01*
X51887742Y-79143455D02*
X51953782Y-79077415D01*
X38105702Y-84439815D02*
X38055702Y-84439815D01*
X37344082Y-81620795D02*
X36929782Y-81620795D01*
X36929782Y-81620795D02*
X36850001Y-81541014D01*
X36850001Y-81541014D02*
X36468901Y-81541014D01*
X36468901Y-81541014D02*
X35768902Y-80841015D01*
X37344082Y-81620795D02*
X37344082Y-82540655D01*
X37344082Y-82540655D02*
X37293662Y-82591075D01*
X35859542Y-80841015D02*
X35768902Y-80841015D01*
X41113053Y-85613666D02*
X40591602Y-85092215D01*
X40591602Y-85092215D02*
X40504502Y-85092215D01*
X40504502Y-85142215D02*
X40504502Y-85092215D01*
X35603802Y-83317515D02*
X35603802Y-83901715D01*
D56*
X42599300Y-96335015D02*
X42599300Y-95801213D01*
X42599300Y-95801213D02*
X42091702Y-95293615D01*
X36164302Y-102761215D02*
X36302404Y-102761215D01*
X36164302Y-102761215D02*
X36251502Y-102761215D01*
X41828702Y-104328015D02*
X41828702Y-104426815D01*
X41828702Y-104426815D02*
X42347502Y-104945615D01*
D53*
X41280702Y-105471215D02*
X41948902Y-105471215D01*
D58*
X40478702Y-102828015D02*
X40478702Y-102978015D01*
X40478702Y-102978015D02*
X41828702Y-104328015D01*
X39769403Y-80505736D02*
X39530642Y-80266975D01*
X39530642Y-80266975D02*
X39276642Y-80266975D01*
X39276642Y-81616415D02*
X39276642Y-81476015D01*
X39276642Y-81476015D02*
X39373161Y-81379496D01*
X39373161Y-81379496D02*
X39525055Y-81379496D01*
X39525055Y-81379496D02*
X39769403Y-81135148D01*
X39769403Y-81135148D02*
X39769403Y-80505736D01*
D52*
X35621582Y-85677975D02*
X36154698Y-85677975D01*
X36154698Y-85677975D02*
X36299220Y-85822497D01*
D53*
X43843562Y-78964515D02*
X43604802Y-78964515D01*
X43604802Y-78964515D02*
X43242142Y-78964515D01*
D55*
X43812522Y-78646455D02*
X43812522Y-78756795D01*
X43812522Y-78756795D02*
X43604802Y-78964515D01*
X46624862Y-78207035D02*
X45690142Y-78207035D01*
X45690142Y-78207035D02*
X45572223Y-78089116D01*
X45572223Y-78089116D02*
X43317782Y-78089116D01*
X43199863Y-78207035D02*
X42484662Y-78207035D01*
X43317782Y-78089116D02*
X43199863Y-78207035D01*
X46624862Y-78207035D02*
X48196552Y-78207035D01*
X48196552Y-78207035D02*
X48807023Y-78817506D01*
X48807023Y-79819216D02*
X48702582Y-79923657D01*
X48807023Y-78817506D02*
X48807023Y-79819216D01*
D53*
X43242142Y-78964515D02*
X42484662Y-78207035D01*
D57*
X38131102Y-92931415D02*
X37615481Y-92415794D01*
X37615481Y-91029462D02*
X37778295Y-90866648D01*
X37615481Y-92415794D02*
X37615481Y-91029462D01*
D55*
X39172502Y-81628415D02*
X39172502Y-81468395D01*
D56*
X38131102Y-92931415D02*
X38131102Y-92184183D01*
X38131102Y-92184183D02*
X37568206Y-91621287D01*
X37568206Y-91621287D02*
X37568206Y-91231141D01*
X37568206Y-91231141D02*
X37854549Y-90944798D01*
D52*
X36353102Y-85768615D02*
X35854902Y-85768615D01*
X35854902Y-85768615D02*
X35603802Y-85517515D01*
D53*
X38348007Y-95637310D02*
X38691702Y-95293615D01*
D54*
X38691702Y-95293615D02*
X37994302Y-95293615D01*
X37994302Y-95293615D02*
X37562502Y-95725415D01*
X37562502Y-95725415D02*
X37562502Y-94236615D01*
X37562502Y-94236615D02*
X38207302Y-93591815D01*
D55*
X40140942Y-82187215D02*
X40140942Y-81417823D01*
X40140942Y-81417823D02*
X41271751Y-80287014D01*
X41271751Y-80287014D02*
X41844582Y-80287014D01*
D56*
X44245138Y-82644415D02*
X44958877Y-83358154D01*
D55*
X43400094Y-81496681D02*
X44049323Y-82145910D01*
X44049323Y-82145910D02*
X44049323Y-82448600D01*
X44049323Y-82448600D02*
X44245138Y-82644415D01*
D52*
X41844582Y-80287014D02*
X42002343Y-80287014D01*
X42002343Y-80287014D02*
X42072193Y-80217164D01*
X42072193Y-80217164D02*
X43192803Y-80217164D01*
X43192803Y-80217164D02*
X43400094Y-80424455D01*
X43400094Y-80424455D02*
X43400094Y-80729255D01*
D56*
X43400094Y-80729255D02*
X43400094Y-81496681D01*
X44958877Y-83358154D02*
X45062255Y-83358154D01*
X45062255Y-83358154D02*
X45196201Y-83492100D01*
D52*
X45192558Y-83591835D02*
X45196201Y-83492100D01*
D56*
X44884962Y-84275095D02*
X44958116Y-84275095D01*
X44958116Y-84275095D02*
X45203733Y-84029478D01*
X45203733Y-84029478D02*
X45203733Y-84002238D01*
D58*
X43269522Y-84186575D02*
X44000522Y-84186575D01*
X44000522Y-84186575D02*
X44070895Y-84256948D01*
X44070895Y-84256948D02*
X44866815Y-84256948D01*
X44866815Y-84256948D02*
X44884962Y-84275095D01*
D52*
X43487962Y-84305575D02*
X45133882Y-84305575D01*
X45133882Y-84305575D02*
X45174522Y-84264935D01*
X45174522Y-84264935D02*
X45174522Y-84031449D01*
X45174522Y-84031449D02*
X45203733Y-84002238D01*
X45203733Y-84002238D02*
X45203733Y-83591835D01*
X45203733Y-83591835D02*
X45192558Y-83591835D01*
D53*
X35264142Y-82575835D02*
X35264142Y-82557826D01*
X35264142Y-82557826D02*
X35715713Y-82106255D01*
D52*
X35264142Y-82829835D02*
X35264142Y-82390535D01*
X35264142Y-82390535D02*
X35222693Y-82349086D01*
X38211302Y-85413015D02*
X38600602Y-85413015D01*
X38600602Y-85413015D02*
X38828451Y-85185166D01*
X38828451Y-85185166D02*
X38828451Y-84261666D01*
X38828451Y-84261666D02*
X39274902Y-83815215D01*
X39274902Y-83815215D02*
X39324902Y-83815215D01*
X39324902Y-83815215D02*
X39324902Y-83425915D01*
X39324902Y-83425915D02*
X39318802Y-83419815D01*
X39318802Y-83419815D02*
X38545002Y-83419815D01*
X38545002Y-83419815D02*
X38105702Y-83419815D01*
X38105702Y-83439815D02*
X37814591Y-83148704D01*
X37814591Y-83148704D02*
X37814591Y-82108898D01*
X37814591Y-82108898D02*
X37822211Y-82101278D01*
X37822211Y-82101278D02*
X37822211Y-81080764D01*
X37822211Y-81080764D02*
X37722162Y-80980715D01*
X38191302Y-85413015D02*
X38191302Y-85363015D01*
X38155702Y-83439815D02*
X38105702Y-83439815D01*
X39248702Y-83406415D02*
X38308902Y-83406415D01*
X38308902Y-83406415D02*
X38232702Y-83482615D01*
X38232702Y-83482615D02*
X37234102Y-83482615D01*
X37234102Y-83482615D02*
X37191302Y-83439815D01*
D57*
X58072642Y-92194815D02*
X59342642Y-92194815D01*
X56802642Y-92194815D02*
X58072642Y-92194815D01*
X59342642Y-92194815D02*
X59342642Y-93429815D01*
X59342642Y-93429815D02*
X59187702Y-93584755D01*
X59187702Y-93584755D02*
X59187702Y-94125215D01*
X58072642Y-92194815D02*
X58072642Y-94000755D01*
X58072642Y-94000755D02*
X58197102Y-94125215D01*
X56802642Y-92194815D02*
X56802642Y-93429815D01*
X56802642Y-93429815D02*
X56977902Y-93605075D01*
X56977902Y-93605075D02*
X56977902Y-94785615D01*
D59*
X59187702Y-94125215D02*
X59187702Y-101362015D01*
X59187702Y-94125215D02*
X58197102Y-94125215D01*
X58197102Y-94125215D02*
X57917702Y-93845815D01*
X56647702Y-94785615D02*
X56647702Y-98822015D01*
X57917702Y-93845815D02*
X57917702Y-100092015D01*
X56647702Y-94785615D02*
X56977902Y-94785615D01*
X56977902Y-94785615D02*
X57917702Y-93845815D01*
X59187702Y-101362015D02*
X59378702Y-101553015D01*
X57917702Y-100092015D02*
X59378702Y-101553015D01*
X56647702Y-98822015D02*
X59378702Y-101553015D01*
D52*
X36088942Y-95725415D02*
X35412502Y-95725415D01*
X36774742Y-96411215D02*
X36088942Y-95725415D01*
X36528702Y-100828015D02*
X35508142Y-100828015D01*
X35508142Y-100828015D02*
X35225942Y-101110215D01*
X38635002Y-96677715D02*
X38635002Y-98087715D01*
X38635002Y-98087715D02*
X37517502Y-99205215D01*
D53*
X35365704Y-95728617D02*
X35362502Y-95725415D01*
X37964302Y-102761215D02*
X37964302Y-102403415D01*
X37964302Y-102403415D02*
X38635002Y-101732715D01*
D52*
X38015102Y-102837415D02*
X38669302Y-102837415D01*
X38669302Y-102837415D02*
X38678702Y-102828015D01*
D58*
X38678702Y-102828015D02*
X38678702Y-101776415D01*
X38678702Y-101776415D02*
X38635002Y-101732715D01*
D54*
X35362502Y-95725415D02*
X35362502Y-97163655D01*
X35362502Y-97163655D02*
X35225942Y-97300215D01*
X37517502Y-99205215D02*
X37517502Y-97880415D01*
X37517502Y-97880415D02*
X35362502Y-95725415D01*
D60*
X38678702Y-102828015D02*
X38678702Y-100366415D01*
X38678702Y-100366415D02*
X37517502Y-99205215D01*
X38628702Y-98423015D02*
X39063702Y-98858015D01*
D52*
X35980991Y-57340935D02*
X35980991Y-73811565D01*
X35980991Y-56956126D02*
X36937302Y-55999815D01*
X36937302Y-55999815D02*
X37770422Y-55999815D01*
X35980991Y-57340935D02*
X35980991Y-56956126D01*
X37770422Y-55999815D02*
X38598462Y-55171775D01*
X41038370Y-79583715D02*
X40902242Y-79583715D01*
X40902242Y-79583715D02*
X40737142Y-79583715D01*
X40809760Y-79507525D02*
X40826052Y-79507525D01*
X40826052Y-79507525D02*
X40902242Y-79583715D01*
X41038370Y-79583715D02*
X41443209Y-79988554D01*
X40885970Y-79431315D02*
X41038370Y-79583715D01*
X37496422Y-80295715D02*
X38284612Y-79507525D01*
X38284612Y-79507525D02*
X40809760Y-79507525D01*
X40809760Y-79507525D02*
X40885970Y-79431315D01*
D55*
X36203242Y-74033816D02*
X36306925Y-74033816D01*
D52*
X37104942Y-79904235D02*
X37104942Y-74831833D01*
X37496422Y-80295715D02*
X37104942Y-79904235D01*
D55*
X36306925Y-74033816D02*
X37104942Y-74831833D01*
D52*
X35980991Y-73811565D02*
X36203242Y-74033816D01*
X37496422Y-80345715D02*
X37496422Y-80295715D01*
X44563084Y-82540275D02*
X44867182Y-82540275D01*
X44322383Y-82299574D02*
X44563084Y-82540275D01*
X44076457Y-81786880D02*
X44322383Y-82032805D01*
X44076457Y-80777515D02*
X44076457Y-81786880D01*
X44322383Y-82032805D02*
X44322383Y-82299574D01*
X43287496Y-79988554D02*
X44076457Y-80777515D01*
X41443209Y-79988554D02*
X43287496Y-79988554D01*
D53*
X37496422Y-80345715D02*
X37578842Y-80345715D01*
D52*
X37262422Y-80345715D02*
X37262422Y-80295715D01*
X43776263Y-83798834D02*
X43810542Y-83764555D01*
X43810542Y-83764555D02*
X44867182Y-83764555D01*
X42705642Y-81688615D02*
X43169942Y-81688615D01*
X43169942Y-81688615D02*
X43776263Y-82294936D01*
X43776263Y-82294936D02*
X43776263Y-83798834D01*
X44322343Y-92962602D02*
X44758516Y-93398775D01*
X44758516Y-93398775D02*
X46325142Y-93398775D01*
X46325142Y-93398775D02*
X46604542Y-93678175D01*
X43190900Y-91097535D02*
X43394471Y-90893964D01*
X43394471Y-90893964D02*
X44257463Y-90893964D01*
X44257463Y-90893964D02*
X44322343Y-90958844D01*
X44322343Y-90958844D02*
X44322343Y-92962602D01*
D54*
X41382302Y-107689615D02*
X41207302Y-107689615D01*
X40312643Y-108584274D02*
X38899261Y-108584274D01*
X41207302Y-107689615D02*
X40312643Y-108584274D01*
X38899261Y-108584274D02*
X38308902Y-109174633D01*
X38308902Y-109174633D02*
X38308902Y-109552575D01*
D61*
X52794522Y-103871637D02*
X47453344Y-109212815D01*
X47453344Y-109212815D02*
X47427343Y-109238816D01*
X47427343Y-109238816D02*
X42130169Y-109238816D01*
D53*
X41382302Y-107739615D02*
X41057302Y-107739615D01*
X40047543Y-108749374D02*
X38897103Y-108749374D01*
X38308902Y-109337575D02*
X38308902Y-109552575D01*
D56*
X40706662Y-108415255D02*
X40356142Y-108415255D01*
X41382302Y-107739615D02*
X41363304Y-107739615D01*
X41363304Y-107739615D02*
X40728304Y-107104615D01*
X41158782Y-107739615D02*
X41382302Y-107739615D01*
D61*
X52794522Y-98836915D02*
X52794522Y-103871637D01*
X52794522Y-98836915D02*
X53287282Y-98344155D01*
D53*
X41280702Y-107671215D02*
X40955702Y-107671215D01*
X38186202Y-109570515D02*
X38186202Y-109355515D01*
D55*
X38536422Y-80295715D02*
X39014622Y-79817515D01*
X39840641Y-79817515D02*
X40159457Y-80136331D01*
X39014622Y-79817515D02*
X39840641Y-79817515D01*
D52*
X38536422Y-80345715D02*
X38686014Y-80345715D01*
X39994358Y-79971232D02*
X40159457Y-80136331D01*
X38686014Y-80345715D02*
X39126714Y-79905015D01*
X39126714Y-79905015D02*
X39928141Y-79905015D01*
X39928141Y-79905015D02*
X39994358Y-79971232D01*
D55*
X38536422Y-80345715D02*
X38536422Y-80295715D01*
D52*
X41448342Y-84093995D02*
X41912642Y-84093995D01*
X41912642Y-84093995D02*
X41938802Y-84120155D01*
X41938802Y-84120155D02*
X42413542Y-84120155D01*
X38262422Y-80345715D02*
X38676722Y-80345715D01*
X38676722Y-80345715D02*
X38735622Y-80286815D01*
D53*
X40996222Y-80993609D02*
X41118336Y-80871495D01*
X41994983Y-80726714D02*
X42152441Y-80884172D01*
X41118336Y-80871495D02*
X41441736Y-80871495D01*
X41441736Y-80871495D02*
X41586517Y-80726714D01*
X41586517Y-80726714D02*
X41994983Y-80726714D01*
X42152441Y-80884172D02*
X42152441Y-82151176D01*
D52*
X42290080Y-82288815D02*
X43373662Y-82288815D01*
X43373662Y-82288815D02*
X43547653Y-82462806D01*
X43547653Y-82462806D02*
X43547653Y-82986044D01*
X43547653Y-82986044D02*
X42413542Y-84120155D01*
D53*
X40996222Y-81227095D02*
X40996222Y-80993609D01*
X42152441Y-82151176D02*
X42290080Y-82288815D01*
D52*
X41015782Y-82255795D02*
X41015782Y-81246655D01*
X41015782Y-81246655D02*
X40996222Y-81227095D01*
D53*
X41612702Y-84338215D02*
X41512502Y-84238015D01*
D54*
X41077502Y-98570215D02*
X41643004Y-98570215D01*
X41643004Y-98570215D02*
X42443104Y-97770115D01*
X39578902Y-103701015D02*
X39661503Y-103618414D01*
X39661503Y-103618414D02*
X39661503Y-102220214D01*
X39661503Y-102220214D02*
X39922003Y-101959714D01*
D60*
X39782102Y-101678615D02*
X39782102Y-102088115D01*
D55*
X39578902Y-103701015D02*
X39578902Y-103222815D01*
X39578902Y-103222815D02*
X39782102Y-103019615D01*
X39782102Y-103019615D02*
X39782102Y-102088115D01*
D53*
X39578902Y-103701015D02*
X38680702Y-103701015D01*
X38680702Y-103701015D02*
X37878702Y-104503015D01*
X40201402Y-107110075D02*
X38160762Y-107110075D01*
X38160762Y-107110075D02*
X37903702Y-106853015D01*
X35146402Y-107110075D02*
X36371642Y-107110075D01*
X36371642Y-107110075D02*
X36653702Y-106828015D01*
X35768902Y-103701015D02*
X35851702Y-103701015D01*
X35851702Y-103701015D02*
X36628702Y-104478015D01*
D56*
X36653702Y-106828015D02*
X37878702Y-106828015D01*
X37878702Y-106828015D02*
X37903702Y-106853015D01*
D52*
X45248702Y-101923015D02*
X44878702Y-101553015D01*
X48011702Y-101923015D02*
X45248702Y-101923015D01*
D61*
X37551202Y-106010515D02*
X38126101Y-106585414D01*
X44878702Y-104232657D02*
X44878702Y-101553015D01*
D54*
X41828702Y-102328015D02*
X41460401Y-101959714D01*
X41460401Y-101959714D02*
X39922003Y-101959714D01*
D53*
X40925102Y-101110215D02*
X40061502Y-101973815D01*
X41077502Y-101110215D02*
X40925102Y-101110215D01*
D58*
X41828702Y-102328015D02*
X44103702Y-102328015D01*
X44103702Y-102328015D02*
X44878702Y-101553015D01*
X41828702Y-102328015D02*
X41828702Y-101861415D01*
X41828702Y-101861415D02*
X41077502Y-101110215D01*
D61*
X41077502Y-98570215D02*
X42677702Y-98570215D01*
X41077502Y-101110215D02*
X44435902Y-101110215D01*
X44435902Y-101110215D02*
X44878702Y-101553015D01*
D58*
X44878702Y-100288615D02*
X42779302Y-98189215D01*
X44878702Y-101553015D02*
X44878702Y-100288615D01*
D60*
X41077502Y-98570215D02*
X41077502Y-99082215D01*
X41077502Y-99082215D02*
X41077502Y-99840215D01*
X40350502Y-101110215D02*
X39893302Y-101567415D01*
X39893302Y-101567415D02*
X39782102Y-101678615D01*
X41077502Y-99840215D02*
X41077502Y-100352215D01*
X41077502Y-100352215D02*
X39893302Y-101536415D01*
X39893302Y-101536415D02*
X39893302Y-101567415D01*
X41077502Y-101110215D02*
X40350502Y-101110215D01*
X44878702Y-99891413D02*
X44878702Y-101553015D01*
D52*
X58707642Y-88253815D02*
X58707642Y-86122015D01*
X58707642Y-86122015D02*
X58547882Y-85962255D01*
X58547882Y-85962255D02*
X57291942Y-85962255D01*
X57291942Y-85962255D02*
X56802642Y-85962255D01*
D54*
X55098302Y-87579815D02*
X57652642Y-87579815D01*
X57652642Y-87579815D02*
X58707642Y-88634815D01*
D52*
X55098302Y-87579815D02*
X58030502Y-87579815D01*
X58030502Y-87579815D02*
X58953702Y-88503015D01*
X60003702Y-89553015D02*
X61035842Y-89553015D01*
X61035842Y-89553015D02*
X61235142Y-89752315D01*
X58928702Y-87653015D02*
X58928702Y-88478015D01*
X58928702Y-88478015D02*
X58953702Y-88503015D01*
X56802642Y-86343255D02*
X56902642Y-86343255D01*
X56902642Y-86343255D02*
X58003702Y-87444315D01*
X58003702Y-87444315D02*
X58003702Y-87603015D01*
D56*
X60457702Y-85936855D02*
X60457702Y-86224015D01*
X60457702Y-86224015D02*
X59978702Y-86703015D01*
D58*
X55554642Y-92248155D02*
X55862503Y-91940294D01*
X55862503Y-91940294D02*
X55862503Y-90342114D01*
X55862503Y-90342114D02*
X56025202Y-90179415D01*
X56025202Y-90179415D02*
X56025202Y-89345915D01*
D57*
X57142702Y-88228415D02*
X56025202Y-89345915D01*
D52*
X51681181Y-78498344D02*
X51420544Y-78837883D01*
X51420544Y-78837883D02*
X51312593Y-78866932D01*
X51948702Y-91473815D02*
X51948702Y-90096775D01*
X54895102Y-88857255D02*
X54740102Y-88857255D01*
X54315802Y-89700167D02*
X53919194Y-90096775D01*
X51948702Y-90096775D02*
X51948702Y-88664215D01*
X54740102Y-88857255D02*
X54315802Y-89281555D01*
X54315802Y-89281555D02*
X54315802Y-89700167D01*
X53919194Y-90096775D02*
X51948702Y-90096775D01*
D56*
X56499367Y-63162614D02*
X57147068Y-63810315D01*
X57147068Y-63810315D02*
X59229868Y-65893115D01*
D58*
X57043942Y-62210115D02*
X57043942Y-63707189D01*
X57043942Y-63707189D02*
X57147068Y-63810315D01*
D53*
X51948702Y-88842015D02*
X51948702Y-88090175D01*
X51948702Y-88090175D02*
X51760742Y-87902215D01*
D55*
X60295142Y-72141315D02*
X60295142Y-70604937D01*
X60295142Y-70604937D02*
X59229868Y-69539663D01*
X59229868Y-69539663D02*
X59229868Y-65893115D01*
D52*
X51927242Y-91989075D02*
X51927242Y-91063475D01*
X51927242Y-91063475D02*
X51948702Y-91042015D01*
X52761507Y-87277151D02*
X53141166Y-87277151D01*
X53141166Y-87277151D02*
X53498102Y-86920215D01*
X53498102Y-86920215D02*
X53072942Y-86920215D01*
X53072942Y-86920215D02*
X52960893Y-87032264D01*
D55*
X55006902Y-88654015D02*
X55056902Y-88654015D01*
X51119962Y-91971295D02*
X51909462Y-91971295D01*
X51909462Y-91971295D02*
X51927242Y-91989075D01*
D52*
X51948702Y-89019815D02*
X52268002Y-89019815D01*
X52685951Y-88601866D02*
X53212903Y-88601866D01*
X52268002Y-89019815D02*
X52685951Y-88601866D01*
X53212903Y-88601866D02*
X53498102Y-88316667D01*
X53498102Y-88316667D02*
X53498102Y-87738515D01*
X53498102Y-87738515D02*
X53498102Y-87174215D01*
D54*
X54202241Y-86267014D02*
X54202241Y-86470076D01*
X54202241Y-86470076D02*
X53498102Y-87174215D01*
D59*
X54729443Y-86267014D02*
X54202241Y-86267014D01*
X54202241Y-86267014D02*
X54201124Y-86265897D01*
X55098302Y-85379815D02*
X55098302Y-85898155D01*
X55098302Y-85898155D02*
X54729443Y-86267014D01*
D61*
X55098302Y-85379815D02*
X55098302Y-85946415D01*
D55*
X56345442Y-79925234D02*
X56978283Y-79925234D01*
D52*
X56345442Y-79925234D02*
X54830229Y-79925234D01*
X53967123Y-78498344D02*
X51681181Y-78498344D01*
X54830229Y-79925234D02*
X54013273Y-79108278D01*
X48994520Y-80129815D02*
X48756920Y-80367415D01*
X54013273Y-79108278D02*
X54013273Y-78544494D01*
X48756920Y-80367415D02*
X47176802Y-80367415D01*
X54013273Y-78544494D02*
X53967123Y-78498344D01*
X50458594Y-80129815D02*
X48994520Y-80129815D01*
X51312593Y-78866932D02*
X51312593Y-79275816D01*
X51312593Y-79275816D02*
X50458594Y-80129815D01*
X47176802Y-80367415D02*
X46787502Y-80367415D01*
D58*
X60295142Y-76649815D02*
X60295142Y-75768815D01*
X59780000Y-72141315D02*
X60295142Y-72141315D01*
X60295142Y-75768815D02*
X59215341Y-74689014D01*
X59215341Y-74689014D02*
X59215341Y-72705974D01*
X59215341Y-72705974D02*
X59780000Y-72141315D01*
D56*
X46655342Y-63772215D02*
X55073916Y-63772215D01*
X55073916Y-63772215D02*
X55683517Y-63162614D01*
X55683517Y-63162614D02*
X56499367Y-63162614D01*
D54*
X60168142Y-72241315D02*
X60818584Y-72241315D01*
D57*
X59914142Y-76749815D02*
X59914142Y-79049815D01*
X59914142Y-79049815D02*
X59850642Y-79113315D01*
D55*
X56978283Y-79925234D02*
X58150502Y-78753015D01*
X58150502Y-78753015D02*
X59853702Y-78753015D01*
D62*
X56663223Y-82011674D02*
X56311601Y-82011674D01*
X56311601Y-82011674D02*
X55618741Y-82704534D01*
X55618741Y-82704534D02*
X55618741Y-84574815D01*
D63*
X59853702Y-78753015D02*
X59853702Y-78821195D01*
X59853702Y-78821195D02*
X56663223Y-82011674D01*
D56*
X53498102Y-87478215D02*
X53498102Y-87277773D01*
X53498102Y-87277773D02*
X53835922Y-86939953D01*
D58*
X51948702Y-91473815D02*
X51948702Y-89273815D01*
D56*
X51948702Y-92127815D02*
X51948702Y-91473815D01*
D52*
X51948702Y-88664215D02*
X51897902Y-88613415D01*
D58*
X55098302Y-85379815D02*
X55098302Y-85095254D01*
X55098302Y-85095254D02*
X55598502Y-84595054D01*
D60*
X53510703Y-87490816D02*
X53498102Y-87478215D01*
D64*
X55618741Y-84574815D02*
X55598502Y-84595054D01*
D61*
X55598502Y-84595054D02*
X55903302Y-84574815D01*
D60*
X51897902Y-88613415D02*
X51897902Y-89223015D01*
X51897902Y-89223015D02*
X51948702Y-89273815D01*
X51754902Y-91667615D02*
X51948702Y-91473815D01*
D52*
X53720922Y-83411495D02*
X53720922Y-82902795D01*
X53720922Y-82902795D02*
X53650502Y-82832375D01*
D55*
X38552742Y-90056135D02*
X38222541Y-90056135D01*
X38222541Y-90056135D02*
X38057442Y-90221234D01*
X38626402Y-90546355D02*
X38626402Y-90129795D01*
X38626402Y-90129795D02*
X38552742Y-90056135D01*
D57*
X38131102Y-87731415D02*
X38575603Y-88175916D01*
X38575603Y-88175916D02*
X38575603Y-89977394D01*
X38575603Y-89977394D02*
X38552742Y-89977394D01*
D58*
X53700922Y-83411495D02*
X53700922Y-82908955D01*
X53700922Y-82908955D02*
X53761316Y-82848561D01*
D52*
X53777502Y-82832375D02*
X53777502Y-83444135D01*
X53777502Y-83444135D02*
X53754262Y-83467375D01*
D55*
X38131102Y-87731415D02*
X38552742Y-88153055D01*
X38552742Y-88153055D02*
X38552742Y-90056135D01*
D65*
X38541302Y-87731415D02*
X40820302Y-90010415D01*
D61*
X40820302Y-90010415D02*
X42525302Y-91715415D01*
D65*
X38131102Y-87731415D02*
X38541302Y-87731415D01*
D52*
X38292902Y-81603015D02*
X38292902Y-81028215D01*
X38292902Y-81028215D02*
X38283502Y-81018815D01*
X39172502Y-82628415D02*
X38183302Y-82628415D01*
X38183302Y-82628415D02*
X38148502Y-82593615D01*
X38148502Y-82593615D02*
X38148502Y-81747415D01*
X38148502Y-81747415D02*
X38292902Y-81603015D01*
D55*
X60457702Y-91788415D02*
X60457702Y-92708813D01*
D52*
X46727502Y-83532415D02*
X47191802Y-83532415D01*
X47537502Y-81720901D02*
X47537502Y-81487415D01*
X47191802Y-83532415D02*
X47537502Y-83186715D01*
X47537502Y-83186715D02*
X47537502Y-81720901D01*
X45777502Y-81757415D02*
X46191802Y-81757415D01*
X46191802Y-81757415D02*
X46238953Y-81804566D01*
X46238953Y-81804566D02*
X46238953Y-83043866D01*
X46238953Y-83043866D02*
X46727502Y-83532415D01*
X44952502Y-80832415D02*
X44952502Y-80932415D01*
X44952502Y-80932415D02*
X45777502Y-81757415D01*
X44734736Y-84726849D02*
X45794648Y-84726849D01*
X45794648Y-84726849D02*
X45865402Y-84656095D01*
X44734736Y-84726849D02*
X44961176Y-84726849D01*
D53*
X41512502Y-83238015D02*
X41512502Y-82760215D01*
X41512502Y-82760215D02*
X41763302Y-82509415D01*
X41763302Y-82509415D02*
X41763302Y-81328501D01*
X41763302Y-81328501D02*
X41763302Y-81095015D01*
X41512502Y-83238015D02*
X40496502Y-83238015D01*
D52*
X41763302Y-81221215D02*
X41763302Y-81095015D01*
D53*
X37186222Y-84317173D02*
X36862204Y-83993155D01*
D55*
X36862204Y-83993155D02*
X36625984Y-83756935D01*
D53*
X37186222Y-84362915D02*
X37186222Y-84317173D01*
X36304142Y-82575835D02*
X36304142Y-82543515D01*
X36304142Y-82543515D02*
X36635042Y-82212615D01*
D52*
X36304142Y-82829835D02*
X36304142Y-82390535D01*
X36304142Y-82390535D02*
X36218102Y-82304495D01*
X43211102Y-82669815D02*
X42177604Y-82669815D01*
X42177604Y-82669815D02*
X42033953Y-82813466D01*
X42033953Y-82813466D02*
X42033953Y-83466996D01*
X42033953Y-83466996D02*
X41897403Y-83603546D01*
X39996353Y-83737275D02*
X40042571Y-83783493D01*
X41897403Y-83603546D02*
X40130082Y-83603546D01*
X40130082Y-83603546D02*
X39996353Y-83737275D01*
X40042571Y-83783493D02*
X40042571Y-86155846D01*
X40042571Y-86155846D02*
X40000542Y-86197875D01*
X40000542Y-86197875D02*
X37399582Y-86197875D01*
X37399582Y-86197875D02*
X37171302Y-85969595D01*
X37171302Y-85969595D02*
X37171302Y-85413015D01*
X37191302Y-85413015D02*
X37191302Y-85463015D01*
X45767502Y-82677415D02*
X45767502Y-83497415D01*
X45767502Y-83497415D02*
X45787502Y-83517415D01*
X44952502Y-81832415D02*
X44952502Y-81862415D01*
X44952502Y-81862415D02*
X45767502Y-82677415D01*
X37465622Y-64092255D02*
X37465622Y-65626415D01*
X37465622Y-65626415D02*
X37501182Y-65661975D01*
X51415302Y-87054415D02*
X51415302Y-86439415D01*
X51415302Y-86439415D02*
X51095302Y-86119415D01*
X51095302Y-86119415D02*
X51095302Y-86998715D01*
X51095302Y-86998715D02*
X51039602Y-87054415D01*
X51039602Y-87054415D02*
X50765302Y-87054415D01*
X51095302Y-86119415D02*
X51095302Y-85255115D01*
X51095302Y-85255115D02*
X51166002Y-85184415D01*
X51166002Y-85184415D02*
X51415302Y-85184415D01*
X51095302Y-86119415D02*
X51095302Y-85240115D01*
X51095302Y-85240115D02*
X51039602Y-85184415D01*
X51039602Y-85184415D02*
X50765302Y-85184415D01*
D56*
X50765302Y-86444015D02*
X50780302Y-86429015D01*
D52*
X50765302Y-85565415D02*
X50770411Y-85565415D01*
D58*
X45065302Y-91715415D02*
X45065302Y-92040415D01*
X45065302Y-92040415D02*
X45752721Y-92727834D01*
D52*
X50223862Y-82121175D02*
X50223862Y-83384753D01*
X50223862Y-83384753D02*
X50613824Y-83774715D01*
D58*
X45065302Y-91715415D02*
X45065302Y-91975685D01*
X45065302Y-91975685D02*
X45314394Y-92224777D01*
X45752721Y-92727834D02*
X48110664Y-92727834D01*
D55*
X50223862Y-82230575D02*
X49429022Y-83025415D01*
X50223862Y-82121175D02*
X50223862Y-82230575D01*
X50223862Y-82121175D02*
X49620662Y-82121175D01*
X49620662Y-82121175D02*
X49117742Y-82624095D01*
D56*
X50175602Y-82123715D02*
X49103902Y-81052015D01*
X50175602Y-82123715D02*
X50175602Y-82095595D01*
X50175602Y-82123715D02*
X50175602Y-81798715D01*
D52*
X53366022Y-80893497D02*
X54017944Y-80893497D01*
X54017944Y-80893497D02*
X54072142Y-80947695D01*
X40671102Y-96538215D02*
X40671102Y-96893815D01*
X40671102Y-96893815D02*
X41077502Y-97300215D01*
D53*
X40928204Y-109822415D02*
X39848742Y-109822415D01*
X39848742Y-109822415D02*
X39578902Y-109552575D01*
D52*
X39483702Y-109543015D02*
X39456202Y-109570515D01*
D55*
X45205302Y-87590415D02*
X45205302Y-86962215D01*
X45205302Y-86962215D02*
X45087251Y-86844164D01*
X45087251Y-86844164D02*
X44300476Y-86844164D01*
X44300476Y-86844164D02*
X42824704Y-88319936D01*
X42824704Y-88319936D02*
X42824704Y-88732296D01*
D53*
X46330302Y-86465415D02*
X46330302Y-87315415D01*
X46330302Y-87315415D02*
X46055302Y-87590415D01*
X45065302Y-86465415D02*
X45065302Y-87450415D01*
X45065302Y-87450415D02*
X45205302Y-87590415D01*
D54*
X42525302Y-86465415D02*
X42525302Y-88110415D01*
X42525302Y-88110415D02*
X43230302Y-88815415D01*
D53*
X46334702Y-86628015D02*
X46334702Y-86103015D01*
D52*
X45747502Y-80367415D02*
X45747502Y-80806715D01*
X47629807Y-81144664D02*
X47835173Y-81350030D01*
X45747502Y-80806715D02*
X46085451Y-81144664D01*
X46085451Y-81144664D02*
X47629807Y-81144664D01*
X47835173Y-81350030D02*
X47835173Y-83520484D01*
X47835173Y-83520484D02*
X46794242Y-84561415D01*
X46794242Y-84561415D02*
X46744242Y-84561415D01*
X45747502Y-80367415D02*
X45747502Y-80417415D01*
X46777502Y-84532415D02*
X46727502Y-84532415D01*
X45767502Y-80367415D02*
X45767502Y-80417415D01*
X55189742Y-79376135D02*
X56330434Y-79376135D01*
X56330434Y-79376135D02*
X58821942Y-76884627D01*
X58821942Y-76884627D02*
X58821942Y-70782869D01*
X58821942Y-70782869D02*
X58110488Y-70071415D01*
X58110488Y-70071415D02*
X58110488Y-69893361D01*
X58110488Y-69893361D02*
X57170942Y-68953815D01*
X53997038Y-82257237D02*
X53621412Y-82257237D01*
X53621412Y-82257237D02*
X53070222Y-82808427D01*
X52680922Y-83361495D02*
X52680922Y-83411495D01*
X53070222Y-82808427D02*
X53070222Y-82972195D01*
X53070222Y-82972195D02*
X52680922Y-83361495D01*
X54011181Y-82243094D02*
X53735555Y-82243094D01*
X52754262Y-83467375D02*
X52238262Y-83467375D01*
X52238262Y-83467375D02*
X52040142Y-83665495D01*
X49701502Y-87902215D02*
X49701502Y-88341515D01*
X49701502Y-88341515D02*
X49474742Y-88568275D01*
X49474742Y-88568275D02*
X49474742Y-90005529D01*
X49474742Y-90005529D02*
X49474742Y-90239015D01*
X49701502Y-88359415D02*
X49701502Y-87242955D01*
X49701502Y-87242955D02*
X49766842Y-87177615D01*
X52065302Y-85184415D02*
X52339602Y-85184415D01*
X52339602Y-85184415D02*
X52403302Y-85248115D01*
X52403302Y-85248115D02*
X52403302Y-85278215D01*
X52065302Y-85184415D02*
X52065302Y-85159415D01*
X51118141Y-87410866D02*
X51298702Y-87591427D01*
X51298702Y-87591427D02*
X51298702Y-88842015D01*
X52065302Y-85159415D02*
X51733851Y-84827964D01*
X51733851Y-84827964D02*
X50468141Y-84827964D01*
X50468141Y-84827964D02*
X50433851Y-84862254D01*
X50433851Y-84862254D02*
X50433851Y-85506576D01*
X50433851Y-85506576D02*
X50433860Y-85506585D01*
X50433851Y-85809015D02*
X50433851Y-87376576D01*
X50433860Y-85506585D02*
X50433860Y-85809006D01*
X50433860Y-85809006D02*
X50433851Y-85809015D01*
X50468141Y-87410866D02*
X51118141Y-87410866D01*
X50433851Y-87376576D02*
X50468141Y-87410866D01*
X51265442Y-89308933D02*
X51265442Y-88875275D01*
X51265442Y-88875275D02*
X51298702Y-88842015D01*
X51298702Y-88842015D02*
X51298702Y-89273815D01*
D54*
X52728481Y-85704533D02*
X52728481Y-85589836D01*
X52728481Y-85589836D02*
X53498102Y-84820215D01*
X52090302Y-86216415D02*
X52216600Y-86216415D01*
X52216600Y-86216415D02*
X52728481Y-85704533D01*
D52*
X53486802Y-84752615D02*
X53498102Y-84763915D01*
X53498102Y-84763915D02*
X53498102Y-85278215D01*
D57*
X53498102Y-85278215D02*
X52403302Y-85278215D01*
X52403302Y-85278215D02*
X52065302Y-85616215D01*
D53*
X52230694Y-77170767D02*
X48725494Y-77170767D01*
X48725494Y-77170767D02*
X48636542Y-77081815D01*
D54*
X52423862Y-82121175D02*
X51141342Y-80838655D01*
X51141342Y-80838655D02*
X50516142Y-80838655D01*
X50516142Y-80838655D02*
X52174482Y-80838655D01*
X52174482Y-80838655D02*
X52243342Y-80769795D01*
D55*
X52423862Y-82121175D02*
X52423862Y-80950315D01*
X52423862Y-80950315D02*
X52243342Y-80769795D01*
X52243342Y-80769795D02*
X52243342Y-81130575D01*
X52243342Y-81130575D02*
X52235722Y-81138195D01*
D52*
X52629422Y-80993415D02*
X52069782Y-80993415D01*
X52069782Y-80993415D02*
X51953782Y-80877415D01*
D55*
X51953782Y-80877415D02*
X51953782Y-81651095D01*
X51953782Y-81651095D02*
X52423862Y-82121175D01*
X50516142Y-80838655D02*
X51915022Y-80838655D01*
X51915022Y-80838655D02*
X51953782Y-80877415D01*
D52*
X38871253Y-78166844D02*
X38710153Y-78166844D01*
X38710153Y-78166844D02*
X38650722Y-78226275D01*
X38602842Y-78839615D02*
X38650722Y-78791735D01*
X38650722Y-78791735D02*
X38650722Y-78226275D01*
X38650722Y-78387375D02*
X38871253Y-78166844D01*
X38871253Y-78166844D02*
X40075871Y-78166844D01*
X40075871Y-78166844D02*
X40672322Y-78763295D01*
X40672322Y-78763295D02*
X41236622Y-78763295D01*
X38650722Y-78387375D02*
X38650722Y-78226275D01*
X38650722Y-78226275D02*
X38065062Y-77640615D01*
D53*
X42936782Y-79243355D02*
X42417922Y-79243355D01*
X42417922Y-79243355D02*
X42167162Y-79494115D01*
X41236622Y-78763295D02*
X41436342Y-78763295D01*
X41436342Y-78763295D02*
X42167162Y-79494115D01*
X43630202Y-79606575D02*
X43300002Y-79606575D01*
X43300002Y-79606575D02*
X42936782Y-79243355D01*
D52*
X40854722Y-78496595D02*
X40854722Y-78862915D01*
X40854722Y-78862915D02*
X40964042Y-78972235D01*
D53*
X45012522Y-78646455D02*
X44781445Y-78646455D01*
X44781445Y-78646455D02*
X44293142Y-79134758D01*
X44808762Y-77330735D02*
X45105942Y-77627915D01*
X39756702Y-77330735D02*
X44808762Y-77330735D01*
D55*
X45012522Y-78646455D02*
X44920522Y-78646455D01*
D52*
X50648702Y-89273815D02*
X50648702Y-89451615D01*
X50648702Y-88842015D02*
X50648702Y-89451615D01*
X50648702Y-89451615D02*
X50648702Y-89827055D01*
X50648702Y-89827055D02*
X49741442Y-90734315D01*
X49178831Y-92498600D02*
X49718326Y-93038095D01*
X49741442Y-90734315D02*
X49741442Y-91167004D01*
X49741442Y-91167004D02*
X49178831Y-91729615D01*
X49178831Y-91729615D02*
X49178831Y-92498600D01*
X49718326Y-93038095D02*
X52395742Y-93038095D01*
X54895102Y-90157255D02*
X54895102Y-90472695D01*
X54895102Y-90472695D02*
X55306582Y-90884175D01*
D53*
X53076462Y-90879095D02*
X54661062Y-90879095D01*
X54661062Y-90879095D02*
X54895102Y-90645055D01*
X54895102Y-90645055D02*
X54895102Y-90157255D01*
X52941842Y-91989075D02*
X52941842Y-91013715D01*
X52941842Y-91013715D02*
X53076462Y-90879095D01*
D52*
X52967242Y-92116075D02*
X52967242Y-91676775D01*
X52065302Y-87054415D02*
X52065302Y-87353715D01*
X52411442Y-87902215D02*
X52800742Y-87902215D01*
X52065302Y-87353715D02*
X52287791Y-87576204D01*
X52287791Y-87576204D02*
X52287791Y-87778564D01*
X52287791Y-87778564D02*
X52411442Y-87902215D01*
X53477223Y-86237934D02*
X52796771Y-86237934D01*
X52796771Y-86237934D02*
X52386753Y-86647952D01*
X52386753Y-86647952D02*
X52386753Y-86834964D01*
X52386753Y-86834964D02*
X52065302Y-87156415D01*
X52065302Y-87156415D02*
X52065302Y-87181415D01*
X52800742Y-88105415D02*
X52690002Y-88105415D01*
D53*
X55319282Y-80978175D02*
X55319282Y-80525675D01*
X55319282Y-80525675D02*
X55189742Y-80396135D01*
X42497002Y-93882489D02*
X42844651Y-93534840D01*
X42844651Y-93534840D02*
X43008997Y-93534840D01*
X43008997Y-93534840D02*
X43553364Y-92990473D01*
D52*
X43553364Y-92990473D02*
X43734342Y-92809495D01*
X43734342Y-92809495D02*
X43734342Y-91776375D01*
X43734342Y-91776375D02*
X43795302Y-91715415D01*
D53*
X42489742Y-92842515D02*
X42064735Y-92842515D01*
X42064735Y-92842515D02*
X41846849Y-92624629D01*
X41846849Y-92624629D02*
X41512396Y-92624629D01*
D52*
X46335302Y-91715415D02*
X47179242Y-91715415D01*
X47179242Y-91715415D02*
X47379242Y-91915415D01*
X39472222Y-91417575D02*
X40650874Y-91417575D01*
X39231116Y-91417575D02*
X39472222Y-91417575D01*
X39472222Y-91417575D02*
X38961682Y-91417575D01*
X38961682Y-91417575D02*
X38626402Y-91082295D01*
X41512396Y-92624629D02*
X41512396Y-92279097D01*
X41512396Y-92279097D02*
X40650874Y-91417575D01*
X46335302Y-91715415D02*
X46530222Y-91715415D01*
X53107702Y-89807215D02*
X53107702Y-89292915D01*
X53056902Y-89604015D02*
X53056902Y-89089715D01*
X53056902Y-89089715D02*
X54064053Y-88082564D01*
X54064053Y-88082564D02*
X55707715Y-88082564D01*
X55707715Y-88082564D02*
X55759274Y-88134123D01*
D66*
G36*
X37975322Y-101979303D02*
X37795510Y-102159115D01*
X37349802Y-102159115D01*
X37274501Y-102173284D01*
X37205341Y-102217787D01*
X37158945Y-102285690D01*
X37142622Y-102366295D01*
X37142622Y-103166295D01*
X37156791Y-103241596D01*
X37201294Y-103310756D01*
X37269197Y-103357152D01*
X37349802Y-103373475D01*
X38224802Y-103373475D01*
X38265419Y-103365832D01*
X38269694Y-103372476D01*
X38337597Y-103418872D01*
X38418202Y-103435195D01*
X38746702Y-103435195D01*
X38746702Y-103472415D01*
X38792162Y-103517875D01*
X37902502Y-103517875D01*
X37788202Y-103632175D01*
X37788202Y-105878275D01*
X40296802Y-105878275D01*
X40411102Y-105763975D01*
X40411102Y-104544631D01*
X40798906Y-104932435D01*
X40757302Y-104932435D01*
X40682001Y-104946604D01*
X40612841Y-104991107D01*
X40566445Y-105059010D01*
X40550122Y-105139615D01*
X40550122Y-106039615D01*
X40564291Y-106114916D01*
X40574653Y-106131019D01*
X40559258Y-106208416D01*
X40539844Y-106200375D01*
X40430002Y-106200375D01*
X40410152Y-106220225D01*
X40296802Y-106106875D01*
X37788202Y-106106875D01*
X37788202Y-106126875D01*
X37559602Y-106126875D01*
X37559602Y-106106875D01*
X37539602Y-106106875D01*
X37539602Y-105878275D01*
X37559602Y-105878275D01*
X37559602Y-103632175D01*
X37445302Y-103517875D01*
X36555642Y-103517875D01*
X36601102Y-103472415D01*
X36601102Y-103358663D01*
X36669263Y-103314803D01*
X36715659Y-103246900D01*
X36731982Y-103166295D01*
X36731982Y-103101586D01*
X36791800Y-103101638D01*
X36927214Y-103045686D01*
X37030909Y-102942172D01*
X37087098Y-102806856D01*
X37087225Y-102660337D01*
X37031273Y-102524923D01*
X36927759Y-102421228D01*
X36792443Y-102365039D01*
X36731736Y-102364986D01*
X36717813Y-102290994D01*
X36673310Y-102221834D01*
X36605407Y-102175438D01*
X36524802Y-102159115D01*
X35841787Y-102159115D01*
X35750999Y-102068168D01*
X35629142Y-102017568D01*
X35629265Y-101875477D01*
X35573313Y-101740063D01*
X35525728Y-101692395D01*
X37975322Y-101692395D01*
X37975322Y-101979303D01*
X37975322Y-101979303D01*
G37*
X37975322Y-101979303D02*
X37795510Y-102159115D01*
X37349802Y-102159115D01*
X37274501Y-102173284D01*
X37205341Y-102217787D01*
X37158945Y-102285690D01*
X37142622Y-102366295D01*
X37142622Y-103166295D01*
X37156791Y-103241596D01*
X37201294Y-103310756D01*
X37269197Y-103357152D01*
X37349802Y-103373475D01*
X38224802Y-103373475D01*
X38265419Y-103365832D01*
X38269694Y-103372476D01*
X38337597Y-103418872D01*
X38418202Y-103435195D01*
X38746702Y-103435195D01*
X38746702Y-103472415D01*
X38792162Y-103517875D01*
X37902502Y-103517875D01*
X37788202Y-103632175D01*
X37788202Y-105878275D01*
X40296802Y-105878275D01*
X40411102Y-105763975D01*
X40411102Y-104544631D01*
X40798906Y-104932435D01*
X40757302Y-104932435D01*
X40682001Y-104946604D01*
X40612841Y-104991107D01*
X40566445Y-105059010D01*
X40550122Y-105139615D01*
X40550122Y-106039615D01*
X40564291Y-106114916D01*
X40574653Y-106131019D01*
X40559258Y-106208416D01*
X40539844Y-106200375D01*
X40430002Y-106200375D01*
X40410152Y-106220225D01*
X40296802Y-106106875D01*
X37788202Y-106106875D01*
X37788202Y-106126875D01*
X37559602Y-106126875D01*
X37559602Y-106106875D01*
X37539602Y-106106875D01*
X37539602Y-105878275D01*
X37559602Y-105878275D01*
X37559602Y-103632175D01*
X37445302Y-103517875D01*
X36555642Y-103517875D01*
X36601102Y-103472415D01*
X36601102Y-103358663D01*
X36669263Y-103314803D01*
X36715659Y-103246900D01*
X36731982Y-103166295D01*
X36731982Y-103101586D01*
X36791800Y-103101638D01*
X36927214Y-103045686D01*
X37030909Y-102942172D01*
X37087098Y-102806856D01*
X37087225Y-102660337D01*
X37031273Y-102524923D01*
X36927759Y-102421228D01*
X36792443Y-102365039D01*
X36731736Y-102364986D01*
X36717813Y-102290994D01*
X36673310Y-102221834D01*
X36605407Y-102175438D01*
X36524802Y-102159115D01*
X35841787Y-102159115D01*
X35750999Y-102068168D01*
X35629142Y-102017568D01*
X35629265Y-101875477D01*
X35573313Y-101740063D01*
X35525728Y-101692395D01*
X37975322Y-101692395D01*
X37975322Y-101979303D01*
G36*
X41943002Y-102213715D02*
X41963002Y-102213715D01*
X41963002Y-102442315D01*
X41943002Y-102442315D01*
X41943002Y-103070915D01*
X42057302Y-103185215D01*
X42259862Y-103185215D01*
X42240332Y-103204711D01*
X42180269Y-103349360D01*
X42180132Y-103505983D01*
X42239943Y-103650737D01*
X42309919Y-103720835D01*
X41778298Y-103720835D01*
X41242678Y-103185215D01*
X41600102Y-103185215D01*
X41714402Y-103070915D01*
X41714402Y-102442315D01*
X41694402Y-102442315D01*
X41694402Y-102213715D01*
X41714402Y-102213715D01*
X41714402Y-102193715D01*
X41943002Y-102193715D01*
X41943002Y-102213715D01*
X41943002Y-102213715D01*
G37*
X41943002Y-102213715D02*
X41963002Y-102213715D01*
X41963002Y-102442315D01*
X41943002Y-102442315D01*
X41943002Y-103070915D01*
X42057302Y-103185215D01*
X42259862Y-103185215D01*
X42240332Y-103204711D01*
X42180269Y-103349360D01*
X42180132Y-103505983D01*
X42239943Y-103650737D01*
X42309919Y-103720835D01*
X41778298Y-103720835D01*
X41242678Y-103185215D01*
X41600102Y-103185215D01*
X41714402Y-103070915D01*
X41714402Y-102442315D01*
X41694402Y-102442315D01*
X41694402Y-102213715D01*
X41714402Y-102213715D01*
X41714402Y-102193715D01*
X41943002Y-102193715D01*
X41943002Y-102213715D01*
G36*
X42471502Y-99296639D02*
X42342350Y-99350004D01*
X42238655Y-99453518D01*
X42182466Y-99588834D01*
X42182339Y-99735353D01*
X42238291Y-99870767D01*
X42341805Y-99974462D01*
X42471502Y-100028318D01*
X42471502Y-101324415D01*
X42585800Y-101438713D01*
X42471502Y-101438713D01*
X42471502Y-101492295D01*
X42419645Y-101470815D01*
X42134702Y-101470815D01*
X42134702Y-101338815D01*
X42020402Y-101224515D01*
X41191802Y-101224515D01*
X41191802Y-101244515D01*
X40963202Y-101244515D01*
X40963202Y-101224515D01*
X40134602Y-101224515D01*
X40020302Y-101338815D01*
X40020302Y-101586157D01*
X40089906Y-101754198D01*
X40218519Y-101882810D01*
X40386559Y-101952415D01*
X40848902Y-101952415D01*
X40871502Y-101929815D01*
X40871502Y-102099415D01*
X40985800Y-102213713D01*
X40871502Y-102213713D01*
X40871502Y-102220835D01*
X40118202Y-102220835D01*
X40042901Y-102235004D01*
X39973741Y-102279507D01*
X39927345Y-102347410D01*
X39911022Y-102428015D01*
X39911022Y-102968815D01*
X39807502Y-102968815D01*
X39693202Y-103083115D01*
X39693202Y-103517875D01*
X39464602Y-103517875D01*
X39464602Y-103337096D01*
X39484059Y-103308620D01*
X39500382Y-103228015D01*
X39500382Y-102428015D01*
X39486213Y-102352714D01*
X39441710Y-102283554D01*
X39373807Y-102237158D01*
X39293202Y-102220835D01*
X39072402Y-102220835D01*
X39072402Y-102187395D01*
X39087502Y-102187395D01*
X39162803Y-102173226D01*
X39231963Y-102128723D01*
X39278359Y-102060820D01*
X39294682Y-101980215D01*
X39294682Y-101692395D01*
X39535002Y-101692395D01*
X39610303Y-101678226D01*
X39679463Y-101633723D01*
X39725859Y-101565820D01*
X39742182Y-101485215D01*
X39742182Y-100068815D01*
X40020302Y-100068815D01*
X40020302Y-100316157D01*
X40086185Y-100475215D01*
X40020302Y-100634273D01*
X40020302Y-100881615D01*
X40134602Y-100995915D01*
X40963202Y-100995915D01*
X40963202Y-99954515D01*
X41191802Y-99954515D01*
X41191802Y-100995915D01*
X42020402Y-100995915D01*
X42134702Y-100881615D01*
X42134702Y-100634273D01*
X42068819Y-100475215D01*
X42134702Y-100316157D01*
X42134702Y-100068815D01*
X42020402Y-99954515D01*
X41191802Y-99954515D01*
X40963202Y-99954515D01*
X40134602Y-99954515D01*
X40020302Y-100068815D01*
X39742182Y-100068815D01*
X39742182Y-98798815D01*
X40020302Y-98798815D01*
X40020302Y-99046157D01*
X40086185Y-99205215D01*
X40020302Y-99364273D01*
X40020302Y-99611615D01*
X40134602Y-99725915D01*
X40963202Y-99725915D01*
X40963202Y-98684515D01*
X41191802Y-98684515D01*
X41191802Y-99725915D01*
X42020402Y-99725915D01*
X42134702Y-99611615D01*
X42134702Y-99364273D01*
X42068819Y-99205215D01*
X42134702Y-99046157D01*
X42134702Y-98798815D01*
X42020402Y-98684515D01*
X41191802Y-98684515D01*
X40963202Y-98684515D01*
X40134602Y-98684515D01*
X40020302Y-98798815D01*
X39742182Y-98798815D01*
X39742182Y-98362387D01*
X39754488Y-98392170D01*
X39858002Y-98495865D01*
X39993318Y-98552054D01*
X40139837Y-98552181D01*
X40275251Y-98496229D01*
X40315635Y-98455915D01*
X40963202Y-98455915D01*
X40963202Y-98435915D01*
X41191802Y-98435915D01*
X41191802Y-98455915D01*
X42020402Y-98455915D01*
X42134702Y-98341615D01*
X42134702Y-98094273D01*
X42065098Y-97926232D01*
X41936485Y-97797620D01*
X41866452Y-97768611D01*
X41868359Y-97765820D01*
X41880348Y-97706615D01*
X42471502Y-97706615D01*
X42471502Y-99296639D01*
X42471502Y-99296639D01*
G37*
X42471502Y-99296639D02*
X42342350Y-99350004D01*
X42238655Y-99453518D01*
X42182466Y-99588834D01*
X42182339Y-99735353D01*
X42238291Y-99870767D01*
X42341805Y-99974462D01*
X42471502Y-100028318D01*
X42471502Y-101324415D01*
X42585800Y-101438713D01*
X42471502Y-101438713D01*
X42471502Y-101492295D01*
X42419645Y-101470815D01*
X42134702Y-101470815D01*
X42134702Y-101338815D01*
X42020402Y-101224515D01*
X41191802Y-101224515D01*
X41191802Y-101244515D01*
X40963202Y-101244515D01*
X40963202Y-101224515D01*
X40134602Y-101224515D01*
X40020302Y-101338815D01*
X40020302Y-101586157D01*
X40089906Y-101754198D01*
X40218519Y-101882810D01*
X40386559Y-101952415D01*
X40848902Y-101952415D01*
X40871502Y-101929815D01*
X40871502Y-102099415D01*
X40985800Y-102213713D01*
X40871502Y-102213713D01*
X40871502Y-102220835D01*
X40118202Y-102220835D01*
X40042901Y-102235004D01*
X39973741Y-102279507D01*
X39927345Y-102347410D01*
X39911022Y-102428015D01*
X39911022Y-102968815D01*
X39807502Y-102968815D01*
X39693202Y-103083115D01*
X39693202Y-103517875D01*
X39464602Y-103517875D01*
X39464602Y-103337096D01*
X39484059Y-103308620D01*
X39500382Y-103228015D01*
X39500382Y-102428015D01*
X39486213Y-102352714D01*
X39441710Y-102283554D01*
X39373807Y-102237158D01*
X39293202Y-102220835D01*
X39072402Y-102220835D01*
X39072402Y-102187395D01*
X39087502Y-102187395D01*
X39162803Y-102173226D01*
X39231963Y-102128723D01*
X39278359Y-102060820D01*
X39294682Y-101980215D01*
X39294682Y-101692395D01*
X39535002Y-101692395D01*
X39610303Y-101678226D01*
X39679463Y-101633723D01*
X39725859Y-101565820D01*
X39742182Y-101485215D01*
X39742182Y-100068815D01*
X40020302Y-100068815D01*
X40020302Y-100316157D01*
X40086185Y-100475215D01*
X40020302Y-100634273D01*
X40020302Y-100881615D01*
X40134602Y-100995915D01*
X40963202Y-100995915D01*
X40963202Y-99954515D01*
X41191802Y-99954515D01*
X41191802Y-100995915D01*
X42020402Y-100995915D01*
X42134702Y-100881615D01*
X42134702Y-100634273D01*
X42068819Y-100475215D01*
X42134702Y-100316157D01*
X42134702Y-100068815D01*
X42020402Y-99954515D01*
X41191802Y-99954515D01*
X40963202Y-99954515D01*
X40134602Y-99954515D01*
X40020302Y-100068815D01*
X39742182Y-100068815D01*
X39742182Y-98798815D01*
X40020302Y-98798815D01*
X40020302Y-99046157D01*
X40086185Y-99205215D01*
X40020302Y-99364273D01*
X40020302Y-99611615D01*
X40134602Y-99725915D01*
X40963202Y-99725915D01*
X40963202Y-98684515D01*
X41191802Y-98684515D01*
X41191802Y-99725915D01*
X42020402Y-99725915D01*
X42134702Y-99611615D01*
X42134702Y-99364273D01*
X42068819Y-99205215D01*
X42134702Y-99046157D01*
X42134702Y-98798815D01*
X42020402Y-98684515D01*
X41191802Y-98684515D01*
X40963202Y-98684515D01*
X40134602Y-98684515D01*
X40020302Y-98798815D01*
X39742182Y-98798815D01*
X39742182Y-98362387D01*
X39754488Y-98392170D01*
X39858002Y-98495865D01*
X39993318Y-98552054D01*
X40139837Y-98552181D01*
X40275251Y-98496229D01*
X40315635Y-98455915D01*
X40963202Y-98455915D01*
X40963202Y-98435915D01*
X41191802Y-98435915D01*
X41191802Y-98455915D01*
X42020402Y-98455915D01*
X42134702Y-98341615D01*
X42134702Y-98094273D01*
X42065098Y-97926232D01*
X41936485Y-97797620D01*
X41866452Y-97768611D01*
X41868359Y-97765820D01*
X41880348Y-97706615D01*
X42471502Y-97706615D01*
X42471502Y-99296639D01*
G36*
X40300102Y-107918215D02*
X40300102Y-108230557D01*
X40369706Y-108398598D01*
X40498319Y-108527210D01*
X40666359Y-108596815D01*
X41033633Y-108596815D01*
X41069891Y-108684567D01*
X41173405Y-108788262D01*
X41308721Y-108844451D01*
X41455240Y-108844578D01*
X41590654Y-108788626D01*
X41694349Y-108685112D01*
X41731014Y-108596815D01*
X42098245Y-108596815D01*
X42189008Y-108559220D01*
X42214805Y-108585062D01*
X42350121Y-108641251D01*
X42496640Y-108641378D01*
X42632054Y-108585426D01*
X42735749Y-108481912D01*
X42791938Y-108346596D01*
X42792065Y-108200077D01*
X42736113Y-108064663D01*
X42632599Y-107960968D01*
X42497283Y-107904779D01*
X42451026Y-107904739D01*
X42387502Y-107841215D01*
X42721522Y-107841215D01*
X42721522Y-107953015D01*
X42735691Y-108028316D01*
X42780194Y-108097476D01*
X42848097Y-108143872D01*
X42928702Y-108160195D01*
X43454942Y-108160195D01*
X43454942Y-110136000D01*
X41133715Y-110136000D01*
X41136556Y-110134826D01*
X41240251Y-110031312D01*
X41296440Y-109895996D01*
X41296567Y-109749477D01*
X41240615Y-109614063D01*
X41137101Y-109510368D01*
X41001785Y-109454179D01*
X40855266Y-109454052D01*
X40719852Y-109510004D01*
X40699505Y-109530315D01*
X40171082Y-109530315D01*
X40171082Y-108952575D01*
X40156913Y-108877274D01*
X40112410Y-108808114D01*
X40044507Y-108761718D01*
X39963902Y-108745395D01*
X39193902Y-108745395D01*
X39118601Y-108759564D01*
X39110881Y-108764531D01*
X39081497Y-108693592D01*
X38952885Y-108564979D01*
X38784844Y-108495375D01*
X38537502Y-108495375D01*
X38423202Y-108609675D01*
X38423202Y-109438275D01*
X38443202Y-109438275D01*
X38443202Y-109666875D01*
X38423202Y-109666875D01*
X38423202Y-109686875D01*
X38194602Y-109686875D01*
X38194602Y-109666875D01*
X37153202Y-109666875D01*
X37153202Y-109686875D01*
X36924602Y-109686875D01*
X36924602Y-109666875D01*
X35883202Y-109666875D01*
X35883202Y-109686875D01*
X35654602Y-109686875D01*
X35654602Y-109666875D01*
X35634602Y-109666875D01*
X35634602Y-109438275D01*
X35654602Y-109438275D01*
X35654602Y-109418275D01*
X35883202Y-109418275D01*
X35883202Y-109438275D01*
X36924602Y-109438275D01*
X36924602Y-109418275D01*
X37153202Y-109418275D01*
X37153202Y-109438275D01*
X38194602Y-109438275D01*
X38194602Y-108609675D01*
X38080302Y-108495375D01*
X37832960Y-108495375D01*
X37673902Y-108561258D01*
X37514844Y-108495375D01*
X37407251Y-108495375D01*
X37407265Y-108479477D01*
X37351313Y-108344063D01*
X37247799Y-108240368D01*
X37192138Y-108217255D01*
X39953902Y-108217255D01*
X40029203Y-108203086D01*
X40098363Y-108158583D01*
X40144759Y-108090680D01*
X40161082Y-108010075D01*
X40161082Y-107841215D01*
X40377102Y-107841215D01*
X40300102Y-107918215D01*
X40300102Y-107918215D01*
G37*
X40300102Y-107918215D02*
X40300102Y-108230557D01*
X40369706Y-108398598D01*
X40498319Y-108527210D01*
X40666359Y-108596815D01*
X41033633Y-108596815D01*
X41069891Y-108684567D01*
X41173405Y-108788262D01*
X41308721Y-108844451D01*
X41455240Y-108844578D01*
X41590654Y-108788626D01*
X41694349Y-108685112D01*
X41731014Y-108596815D01*
X42098245Y-108596815D01*
X42189008Y-108559220D01*
X42214805Y-108585062D01*
X42350121Y-108641251D01*
X42496640Y-108641378D01*
X42632054Y-108585426D01*
X42735749Y-108481912D01*
X42791938Y-108346596D01*
X42792065Y-108200077D01*
X42736113Y-108064663D01*
X42632599Y-107960968D01*
X42497283Y-107904779D01*
X42451026Y-107904739D01*
X42387502Y-107841215D01*
X42721522Y-107841215D01*
X42721522Y-107953015D01*
X42735691Y-108028316D01*
X42780194Y-108097476D01*
X42848097Y-108143872D01*
X42928702Y-108160195D01*
X43454942Y-108160195D01*
X43454942Y-110136000D01*
X41133715Y-110136000D01*
X41136556Y-110134826D01*
X41240251Y-110031312D01*
X41296440Y-109895996D01*
X41296567Y-109749477D01*
X41240615Y-109614063D01*
X41137101Y-109510368D01*
X41001785Y-109454179D01*
X40855266Y-109454052D01*
X40719852Y-109510004D01*
X40699505Y-109530315D01*
X40171082Y-109530315D01*
X40171082Y-108952575D01*
X40156913Y-108877274D01*
X40112410Y-108808114D01*
X40044507Y-108761718D01*
X39963902Y-108745395D01*
X39193902Y-108745395D01*
X39118601Y-108759564D01*
X39110881Y-108764531D01*
X39081497Y-108693592D01*
X38952885Y-108564979D01*
X38784844Y-108495375D01*
X38537502Y-108495375D01*
X38423202Y-108609675D01*
X38423202Y-109438275D01*
X38443202Y-109438275D01*
X38443202Y-109666875D01*
X38423202Y-109666875D01*
X38423202Y-109686875D01*
X38194602Y-109686875D01*
X38194602Y-109666875D01*
X37153202Y-109666875D01*
X37153202Y-109686875D01*
X36924602Y-109686875D01*
X36924602Y-109666875D01*
X35883202Y-109666875D01*
X35883202Y-109686875D01*
X35654602Y-109686875D01*
X35654602Y-109666875D01*
X35634602Y-109666875D01*
X35634602Y-109438275D01*
X35654602Y-109438275D01*
X35654602Y-109418275D01*
X35883202Y-109418275D01*
X35883202Y-109438275D01*
X36924602Y-109438275D01*
X36924602Y-109418275D01*
X37153202Y-109418275D01*
X37153202Y-109438275D01*
X38194602Y-109438275D01*
X38194602Y-108609675D01*
X38080302Y-108495375D01*
X37832960Y-108495375D01*
X37673902Y-108561258D01*
X37514844Y-108495375D01*
X37407251Y-108495375D01*
X37407265Y-108479477D01*
X37351313Y-108344063D01*
X37247799Y-108240368D01*
X37192138Y-108217255D01*
X39953902Y-108217255D01*
X40029203Y-108203086D01*
X40098363Y-108158583D01*
X40144759Y-108090680D01*
X40161082Y-108010075D01*
X40161082Y-107841215D01*
X40377102Y-107841215D01*
X40300102Y-107918215D01*
G36*
X41743102Y-86236815D02*
X41857402Y-86351115D01*
X42411002Y-86351115D01*
X42411002Y-86331115D01*
X42639602Y-86331115D01*
X42639602Y-86351115D01*
X43681002Y-86351115D01*
X43681002Y-86331115D01*
X43909602Y-86331115D01*
X43909602Y-86351115D01*
X44951002Y-86351115D01*
X44951002Y-86331115D01*
X45179602Y-86331115D01*
X45179602Y-86351115D01*
X45199602Y-86351115D01*
X45199602Y-86579715D01*
X45179602Y-86579715D01*
X45179602Y-86599715D01*
X44951002Y-86599715D01*
X44951002Y-86579715D01*
X43909602Y-86579715D01*
X43909602Y-86599715D01*
X43681002Y-86599715D01*
X43681002Y-86579715D01*
X42639602Y-86579715D01*
X42639602Y-86599715D01*
X42411002Y-86599715D01*
X42411002Y-86579715D01*
X41857402Y-86579715D01*
X41743102Y-86694015D01*
X41743102Y-87145331D01*
X41629404Y-87145232D01*
X41554902Y-87176016D01*
X41554902Y-85754215D01*
X41743102Y-85754215D01*
X41743102Y-86236815D01*
X41743102Y-86236815D01*
G37*
X41743102Y-86236815D02*
X41857402Y-86351115D01*
X42411002Y-86351115D01*
X42411002Y-86331115D01*
X42639602Y-86331115D01*
X42639602Y-86351115D01*
X43681002Y-86351115D01*
X43681002Y-86331115D01*
X43909602Y-86331115D01*
X43909602Y-86351115D01*
X44951002Y-86351115D01*
X44951002Y-86331115D01*
X45179602Y-86331115D01*
X45179602Y-86351115D01*
X45199602Y-86351115D01*
X45199602Y-86579715D01*
X45179602Y-86579715D01*
X45179602Y-86599715D01*
X44951002Y-86599715D01*
X44951002Y-86579715D01*
X43909602Y-86579715D01*
X43909602Y-86599715D01*
X43681002Y-86599715D01*
X43681002Y-86579715D01*
X42639602Y-86579715D01*
X42639602Y-86599715D01*
X42411002Y-86599715D01*
X42411002Y-86579715D01*
X41857402Y-86579715D01*
X41743102Y-86694015D01*
X41743102Y-87145331D01*
X41629404Y-87145232D01*
X41554902Y-87176016D01*
X41554902Y-85754215D01*
X41743102Y-85754215D01*
X41743102Y-86236815D01*
G36*
X46444602Y-86351115D02*
X46464602Y-86351115D01*
X46464602Y-86579715D01*
X46444602Y-86579715D01*
X46444602Y-86599715D01*
X46216002Y-86599715D01*
X46216002Y-86579715D01*
X46196002Y-86579715D01*
X46196002Y-86351115D01*
X46216002Y-86351115D01*
X46216002Y-86331115D01*
X46444602Y-86331115D01*
X46444602Y-86351115D01*
X46444602Y-86351115D01*
G37*
X46444602Y-86351115D02*
X46464602Y-86351115D01*
X46464602Y-86579715D01*
X46444602Y-86579715D01*
X46444602Y-86599715D01*
X46216002Y-86599715D01*
X46216002Y-86579715D01*
X46196002Y-86579715D01*
X46196002Y-86351115D01*
X46216002Y-86351115D01*
X46216002Y-86331115D01*
X46444602Y-86331115D01*
X46444602Y-86351115D01*
G36*
X49683962Y-81059254D02*
X49564879Y-81108579D01*
X49436267Y-81237192D01*
X49366662Y-81405232D01*
X49366662Y-81548523D01*
X49345123Y-81539579D01*
X49198604Y-81539452D01*
X49063190Y-81595404D01*
X48959495Y-81698918D01*
X48903306Y-81834234D01*
X48903179Y-81980753D01*
X48959131Y-82116167D01*
X49062645Y-82219862D01*
X49197961Y-82276051D01*
X49344480Y-82276178D01*
X49442984Y-82235477D01*
X49480960Y-82235477D01*
X49366662Y-82349775D01*
X49366662Y-82837118D01*
X49436267Y-83005158D01*
X49564879Y-83133771D01*
X49732920Y-83203375D01*
X50045262Y-83203375D01*
X50159562Y-83089075D01*
X50159562Y-82235475D01*
X50388162Y-82235475D01*
X50388162Y-83089075D01*
X50502462Y-83203375D01*
X50814804Y-83203375D01*
X50982845Y-83133771D01*
X51111457Y-83005158D01*
X51181062Y-82837118D01*
X51181062Y-82349775D01*
X51066762Y-82235475D01*
X50388162Y-82235475D01*
X50159562Y-82235475D01*
X50139562Y-82235475D01*
X50139562Y-82006875D01*
X50159562Y-82006875D01*
X50159562Y-81986875D01*
X50388162Y-81986875D01*
X50388162Y-82006875D01*
X51066762Y-82006875D01*
X51175678Y-81897959D01*
X51207062Y-82865326D01*
X51209453Y-82881948D01*
X51423400Y-83708560D01*
X51227492Y-83952679D01*
X51209553Y-83909263D01*
X51106039Y-83805568D01*
X50970723Y-83749379D01*
X50824204Y-83749252D01*
X50688790Y-83805204D01*
X50585095Y-83908718D01*
X50528906Y-84044034D01*
X50528869Y-84087140D01*
X50396690Y-84141755D01*
X50292995Y-84245269D01*
X50236806Y-84380585D01*
X50236679Y-84527104D01*
X50284735Y-84643408D01*
X50284045Y-84643869D01*
X50249756Y-84678159D01*
X50193319Y-84762622D01*
X50173501Y-84862254D01*
X50173501Y-85266045D01*
X50064849Y-85401435D01*
X49441842Y-85401435D01*
X49366541Y-85415604D01*
X49297381Y-85460107D01*
X49250985Y-85528010D01*
X49234662Y-85608615D01*
X49234662Y-86158615D01*
X49248831Y-86233916D01*
X49293334Y-86303076D01*
X49361237Y-86349472D01*
X49441842Y-86365795D01*
X50001302Y-86365795D01*
X50001302Y-86441435D01*
X49441842Y-86441435D01*
X49366541Y-86455604D01*
X49297381Y-86500107D01*
X49250985Y-86568010D01*
X49234662Y-86648615D01*
X49234662Y-87198615D01*
X49248831Y-87273916D01*
X49293334Y-87343076D01*
X49361237Y-87389472D01*
X49390683Y-87395435D01*
X49350302Y-87395435D01*
X49275001Y-87409604D01*
X49205841Y-87454107D01*
X49159445Y-87522010D01*
X49143122Y-87602615D01*
X49143122Y-88252615D01*
X49157291Y-88327916D01*
X49201794Y-88397076D01*
X49256880Y-88434715D01*
X49234210Y-88468643D01*
X49214392Y-88568275D01*
X49214392Y-89978511D01*
X49162695Y-90030118D01*
X49106506Y-90165434D01*
X49106379Y-90311953D01*
X49162331Y-90447367D01*
X49265845Y-90551062D01*
X49401161Y-90607251D01*
X49495340Y-90607332D01*
X49492097Y-90678987D01*
X49481092Y-90734315D01*
X49481092Y-90922207D01*
X49474601Y-91065655D01*
X48994736Y-91545520D01*
X48938299Y-91629983D01*
X48918481Y-91729615D01*
X48918481Y-92498600D01*
X48938299Y-92598232D01*
X48955783Y-92624398D01*
X48994736Y-92682695D01*
X49082860Y-92770819D01*
X47401717Y-92956786D01*
X47362184Y-92956752D01*
X47347618Y-92962771D01*
X45759702Y-93138425D01*
X44866356Y-93138425D01*
X44582693Y-92854762D01*
X44582693Y-92795001D01*
X44649360Y-92822615D01*
X44836702Y-92822615D01*
X44951002Y-92708315D01*
X44951002Y-91829715D01*
X44931002Y-91829715D01*
X44931002Y-91601115D01*
X44951002Y-91601115D01*
X44951002Y-91581115D01*
X45179602Y-91581115D01*
X45179602Y-91601115D01*
X45199602Y-91601115D01*
X45199602Y-91829715D01*
X45179602Y-91829715D01*
X45179602Y-92708315D01*
X45293902Y-92822615D01*
X45481244Y-92822615D01*
X45649285Y-92753011D01*
X45777897Y-92624398D01*
X45839613Y-92475405D01*
X45861794Y-92509876D01*
X45929697Y-92556272D01*
X46010302Y-92572595D01*
X46660302Y-92572595D01*
X46735603Y-92558426D01*
X46804763Y-92513923D01*
X46851159Y-92446020D01*
X46867482Y-92365415D01*
X46867482Y-91975765D01*
X47026668Y-91975765D01*
X47066831Y-92072967D01*
X47170345Y-92176662D01*
X47305661Y-92232851D01*
X47452180Y-92232978D01*
X47587594Y-92177026D01*
X47691289Y-92073512D01*
X47747478Y-91938196D01*
X47747605Y-91791677D01*
X47691653Y-91656263D01*
X47588139Y-91552568D01*
X47452823Y-91496379D01*
X47310861Y-91496256D01*
X47278874Y-91474883D01*
X47179242Y-91455065D01*
X46867482Y-91455065D01*
X46867482Y-91106215D01*
X47153702Y-91106215D01*
X47227557Y-91092318D01*
X47295387Y-91048670D01*
X47340893Y-90982071D01*
X47356902Y-90903015D01*
X47356902Y-89555900D01*
X47381863Y-89545586D01*
X47485558Y-89442072D01*
X47541747Y-89306756D01*
X47541874Y-89160237D01*
X47485922Y-89024823D01*
X47382408Y-88921128D01*
X47356902Y-88910537D01*
X47356902Y-87599503D01*
X47457609Y-87498972D01*
X47513798Y-87363656D01*
X47513925Y-87217137D01*
X47457973Y-87081723D01*
X47405912Y-87029571D01*
X47405912Y-86058175D01*
X47386094Y-85958543D01*
X47356902Y-85914855D01*
X47356902Y-85678015D01*
X47343005Y-85604160D01*
X47299357Y-85536330D01*
X47232758Y-85490824D01*
X47153702Y-85474815D01*
X46930392Y-85474815D01*
X46586629Y-85131052D01*
X46674086Y-85043595D01*
X47069242Y-85043595D01*
X47144543Y-85029426D01*
X47213703Y-84984923D01*
X47260099Y-84917020D01*
X47276422Y-84836415D01*
X47276422Y-84447425D01*
X48019268Y-83704579D01*
X48045765Y-83664924D01*
X48075705Y-83620116D01*
X48095523Y-83520484D01*
X48095523Y-82315851D01*
X48595977Y-80627765D01*
X48756920Y-80627765D01*
X48856552Y-80607947D01*
X48941015Y-80551510D01*
X49102360Y-80390165D01*
X49683962Y-80390165D01*
X49683962Y-81059254D01*
X49683962Y-81059254D01*
G37*
X49683962Y-81059254D02*
X49564879Y-81108579D01*
X49436267Y-81237192D01*
X49366662Y-81405232D01*
X49366662Y-81548523D01*
X49345123Y-81539579D01*
X49198604Y-81539452D01*
X49063190Y-81595404D01*
X48959495Y-81698918D01*
X48903306Y-81834234D01*
X48903179Y-81980753D01*
X48959131Y-82116167D01*
X49062645Y-82219862D01*
X49197961Y-82276051D01*
X49344480Y-82276178D01*
X49442984Y-82235477D01*
X49480960Y-82235477D01*
X49366662Y-82349775D01*
X49366662Y-82837118D01*
X49436267Y-83005158D01*
X49564879Y-83133771D01*
X49732920Y-83203375D01*
X50045262Y-83203375D01*
X50159562Y-83089075D01*
X50159562Y-82235475D01*
X50388162Y-82235475D01*
X50388162Y-83089075D01*
X50502462Y-83203375D01*
X50814804Y-83203375D01*
X50982845Y-83133771D01*
X51111457Y-83005158D01*
X51181062Y-82837118D01*
X51181062Y-82349775D01*
X51066762Y-82235475D01*
X50388162Y-82235475D01*
X50159562Y-82235475D01*
X50139562Y-82235475D01*
X50139562Y-82006875D01*
X50159562Y-82006875D01*
X50159562Y-81986875D01*
X50388162Y-81986875D01*
X50388162Y-82006875D01*
X51066762Y-82006875D01*
X51175678Y-81897959D01*
X51207062Y-82865326D01*
X51209453Y-82881948D01*
X51423400Y-83708560D01*
X51227492Y-83952679D01*
X51209553Y-83909263D01*
X51106039Y-83805568D01*
X50970723Y-83749379D01*
X50824204Y-83749252D01*
X50688790Y-83805204D01*
X50585095Y-83908718D01*
X50528906Y-84044034D01*
X50528869Y-84087140D01*
X50396690Y-84141755D01*
X50292995Y-84245269D01*
X50236806Y-84380585D01*
X50236679Y-84527104D01*
X50284735Y-84643408D01*
X50284045Y-84643869D01*
X50249756Y-84678159D01*
X50193319Y-84762622D01*
X50173501Y-84862254D01*
X50173501Y-85266045D01*
X50064849Y-85401435D01*
X49441842Y-85401435D01*
X49366541Y-85415604D01*
X49297381Y-85460107D01*
X49250985Y-85528010D01*
X49234662Y-85608615D01*
X49234662Y-86158615D01*
X49248831Y-86233916D01*
X49293334Y-86303076D01*
X49361237Y-86349472D01*
X49441842Y-86365795D01*
X50001302Y-86365795D01*
X50001302Y-86441435D01*
X49441842Y-86441435D01*
X49366541Y-86455604D01*
X49297381Y-86500107D01*
X49250985Y-86568010D01*
X49234662Y-86648615D01*
X49234662Y-87198615D01*
X49248831Y-87273916D01*
X49293334Y-87343076D01*
X49361237Y-87389472D01*
X49390683Y-87395435D01*
X49350302Y-87395435D01*
X49275001Y-87409604D01*
X49205841Y-87454107D01*
X49159445Y-87522010D01*
X49143122Y-87602615D01*
X49143122Y-88252615D01*
X49157291Y-88327916D01*
X49201794Y-88397076D01*
X49256880Y-88434715D01*
X49234210Y-88468643D01*
X49214392Y-88568275D01*
X49214392Y-89978511D01*
X49162695Y-90030118D01*
X49106506Y-90165434D01*
X49106379Y-90311953D01*
X49162331Y-90447367D01*
X49265845Y-90551062D01*
X49401161Y-90607251D01*
X49495340Y-90607332D01*
X49492097Y-90678987D01*
X49481092Y-90734315D01*
X49481092Y-90922207D01*
X49474601Y-91065655D01*
X48994736Y-91545520D01*
X48938299Y-91629983D01*
X48918481Y-91729615D01*
X48918481Y-92498600D01*
X48938299Y-92598232D01*
X48955783Y-92624398D01*
X48994736Y-92682695D01*
X49082860Y-92770819D01*
X47401717Y-92956786D01*
X47362184Y-92956752D01*
X47347618Y-92962771D01*
X45759702Y-93138425D01*
X44866356Y-93138425D01*
X44582693Y-92854762D01*
X44582693Y-92795001D01*
X44649360Y-92822615D01*
X44836702Y-92822615D01*
X44951002Y-92708315D01*
X44951002Y-91829715D01*
X44931002Y-91829715D01*
X44931002Y-91601115D01*
X44951002Y-91601115D01*
X44951002Y-91581115D01*
X45179602Y-91581115D01*
X45179602Y-91601115D01*
X45199602Y-91601115D01*
X45199602Y-91829715D01*
X45179602Y-91829715D01*
X45179602Y-92708315D01*
X45293902Y-92822615D01*
X45481244Y-92822615D01*
X45649285Y-92753011D01*
X45777897Y-92624398D01*
X45839613Y-92475405D01*
X45861794Y-92509876D01*
X45929697Y-92556272D01*
X46010302Y-92572595D01*
X46660302Y-92572595D01*
X46735603Y-92558426D01*
X46804763Y-92513923D01*
X46851159Y-92446020D01*
X46867482Y-92365415D01*
X46867482Y-91975765D01*
X47026668Y-91975765D01*
X47066831Y-92072967D01*
X47170345Y-92176662D01*
X47305661Y-92232851D01*
X47452180Y-92232978D01*
X47587594Y-92177026D01*
X47691289Y-92073512D01*
X47747478Y-91938196D01*
X47747605Y-91791677D01*
X47691653Y-91656263D01*
X47588139Y-91552568D01*
X47452823Y-91496379D01*
X47310861Y-91496256D01*
X47278874Y-91474883D01*
X47179242Y-91455065D01*
X46867482Y-91455065D01*
X46867482Y-91106215D01*
X47153702Y-91106215D01*
X47227557Y-91092318D01*
X47295387Y-91048670D01*
X47340893Y-90982071D01*
X47356902Y-90903015D01*
X47356902Y-89555900D01*
X47381863Y-89545586D01*
X47485558Y-89442072D01*
X47541747Y-89306756D01*
X47541874Y-89160237D01*
X47485922Y-89024823D01*
X47382408Y-88921128D01*
X47356902Y-88910537D01*
X47356902Y-87599503D01*
X47457609Y-87498972D01*
X47513798Y-87363656D01*
X47513925Y-87217137D01*
X47457973Y-87081723D01*
X47405912Y-87029571D01*
X47405912Y-86058175D01*
X47386094Y-85958543D01*
X47356902Y-85914855D01*
X47356902Y-85678015D01*
X47343005Y-85604160D01*
X47299357Y-85536330D01*
X47232758Y-85490824D01*
X47153702Y-85474815D01*
X46930392Y-85474815D01*
X46586629Y-85131052D01*
X46674086Y-85043595D01*
X47069242Y-85043595D01*
X47144543Y-85029426D01*
X47213703Y-84984923D01*
X47260099Y-84917020D01*
X47276422Y-84836415D01*
X47276422Y-84447425D01*
X48019268Y-83704579D01*
X48045765Y-83664924D01*
X48075705Y-83620116D01*
X48095523Y-83520484D01*
X48095523Y-82315851D01*
X48595977Y-80627765D01*
X48756920Y-80627765D01*
X48856552Y-80607947D01*
X48941015Y-80551510D01*
X49102360Y-80390165D01*
X49683962Y-80390165D01*
X49683962Y-81059254D01*
G36*
X44254979Y-70449153D02*
X44310931Y-70584567D01*
X44414445Y-70688262D01*
X44549761Y-70744451D01*
X44696280Y-70744578D01*
X44831694Y-70688626D01*
X44935389Y-70585112D01*
X44991578Y-70449796D01*
X44991598Y-70427015D01*
X45946261Y-70427015D01*
X45918806Y-70493134D01*
X45918679Y-70639653D01*
X45974631Y-70775067D01*
X46078145Y-70878762D01*
X46213461Y-70934951D01*
X46359980Y-70935078D01*
X46495394Y-70879126D01*
X46510172Y-70864373D01*
X56505442Y-70864373D01*
X56505442Y-71201715D01*
X56619742Y-71316015D01*
X57573342Y-71316015D01*
X57573342Y-70612415D01*
X57459042Y-70498115D01*
X56871699Y-70498115D01*
X56703659Y-70567720D01*
X56575046Y-70696332D01*
X56505442Y-70864373D01*
X46510172Y-70864373D01*
X46599089Y-70775612D01*
X46655278Y-70640296D01*
X46655405Y-70493777D01*
X46627819Y-70427015D01*
X58097898Y-70427015D01*
X58168998Y-70498115D01*
X57916242Y-70498115D01*
X57801942Y-70612415D01*
X57801942Y-71316015D01*
X57821942Y-71316015D01*
X57821942Y-71544615D01*
X57801942Y-71544615D01*
X57801942Y-71564615D01*
X57573342Y-71564615D01*
X57573342Y-71544615D01*
X56619742Y-71544615D01*
X56505442Y-71658915D01*
X56505442Y-71996257D01*
X56575046Y-72164298D01*
X56703659Y-72292910D01*
X56755462Y-72314368D01*
X56755462Y-73175315D01*
X56769631Y-73250616D01*
X56814134Y-73319776D01*
X56836471Y-73335038D01*
X56818181Y-73346807D01*
X56771785Y-73414710D01*
X56755462Y-73495315D01*
X56755462Y-74445315D01*
X56769631Y-74520616D01*
X56814134Y-74589776D01*
X56836471Y-74605038D01*
X56818181Y-74616807D01*
X56771785Y-74684710D01*
X56755462Y-74765315D01*
X56755462Y-75715315D01*
X56769631Y-75790616D01*
X56814134Y-75859776D01*
X56836471Y-75875038D01*
X56818181Y-75886807D01*
X56771785Y-75954710D01*
X56755462Y-76035315D01*
X56755462Y-76985315D01*
X56769631Y-77060616D01*
X56814134Y-77129776D01*
X56882037Y-77176172D01*
X56962642Y-77192495D01*
X58145883Y-77192495D01*
X57634263Y-77704115D01*
X54008642Y-77704115D01*
X53978996Y-77710118D01*
X53954760Y-77726433D01*
X53443199Y-78237994D01*
X51681181Y-78237994D01*
X51664357Y-78241341D01*
X51647246Y-78240216D01*
X51614978Y-78251163D01*
X51598342Y-78254472D01*
X51598342Y-78147713D01*
X51528738Y-77979672D01*
X51400125Y-77851060D01*
X51232085Y-77781455D01*
X50744742Y-77781455D01*
X50630442Y-77895755D01*
X50630442Y-78574355D01*
X50650442Y-78574355D01*
X50650442Y-78802955D01*
X50630442Y-78802955D01*
X50630442Y-78822955D01*
X50401842Y-78822955D01*
X50401842Y-78802955D01*
X50381842Y-78802955D01*
X50381842Y-78574355D01*
X50401842Y-78574355D01*
X50401842Y-77895755D01*
X50287542Y-77781455D01*
X49800199Y-77781455D01*
X49632159Y-77851060D01*
X49503546Y-77979672D01*
X49433942Y-78147713D01*
X49433942Y-78162240D01*
X49356646Y-78130143D01*
X49210127Y-78130016D01*
X49074713Y-78185968D01*
X48971018Y-78289482D01*
X48914829Y-78424798D01*
X48914769Y-78494200D01*
X48412078Y-77991509D01*
X48313194Y-77925437D01*
X48196552Y-77902235D01*
X47507326Y-77902235D01*
X47204524Y-77599433D01*
X47179315Y-77582716D01*
X47150642Y-77577115D01*
X45474286Y-77577115D01*
X45474305Y-77554977D01*
X45418353Y-77419563D01*
X45314839Y-77315868D01*
X45179523Y-77259679D01*
X45150773Y-77259654D01*
X45015308Y-77124189D01*
X44920544Y-77060870D01*
X44825775Y-77042019D01*
X55057568Y-77042019D01*
X55113520Y-77177433D01*
X55217034Y-77281128D01*
X55352350Y-77337317D01*
X55498869Y-77337444D01*
X55634283Y-77281492D01*
X55737978Y-77177978D01*
X55794167Y-77042662D01*
X55794294Y-76896143D01*
X55738342Y-76760729D01*
X55634828Y-76657034D01*
X55499512Y-76600845D01*
X55352993Y-76600718D01*
X55217579Y-76656670D01*
X55113884Y-76760184D01*
X55057695Y-76895500D01*
X55057568Y-77042019D01*
X44825775Y-77042019D01*
X44808762Y-77038635D01*
X39985511Y-77038635D01*
X39965599Y-77018688D01*
X39830283Y-76962499D01*
X39827842Y-76962497D01*
X39827842Y-76738915D01*
X39713542Y-76624615D01*
X38759942Y-76624615D01*
X38759942Y-77328215D01*
X38874242Y-77442515D01*
X39404388Y-77442515D01*
X39444291Y-77539087D01*
X39482253Y-77577115D01*
X38433417Y-77577115D01*
X38433425Y-77567677D01*
X38381709Y-77442515D01*
X38417042Y-77442515D01*
X38531342Y-77328215D01*
X38531342Y-76624615D01*
X38511342Y-76624615D01*
X38511342Y-76396015D01*
X38531342Y-76396015D01*
X38531342Y-76376015D01*
X38759942Y-76376015D01*
X38759942Y-76396015D01*
X39713542Y-76396015D01*
X39827842Y-76281715D01*
X39827842Y-75944373D01*
X39758238Y-75776332D01*
X39629625Y-75647720D01*
X39577822Y-75626262D01*
X39577822Y-74765315D01*
X39563653Y-74690014D01*
X39519150Y-74620854D01*
X39496813Y-74605592D01*
X39515103Y-74593823D01*
X39561499Y-74525920D01*
X39577822Y-74445315D01*
X39577822Y-73584368D01*
X39629625Y-73562910D01*
X39758238Y-73434298D01*
X39827842Y-73266257D01*
X39827842Y-72928915D01*
X39713542Y-72814615D01*
X38759942Y-72814615D01*
X38759942Y-72834615D01*
X38531342Y-72834615D01*
X38531342Y-72814615D01*
X38511342Y-72814615D01*
X38511342Y-72586015D01*
X38531342Y-72586015D01*
X38531342Y-72566015D01*
X38759942Y-72566015D01*
X38759942Y-72586015D01*
X39713542Y-72586015D01*
X39827842Y-72471715D01*
X39827842Y-72134373D01*
X39758238Y-71966332D01*
X39629625Y-71837720D01*
X39577822Y-71816262D01*
X39577822Y-70955315D01*
X39563653Y-70880014D01*
X39519150Y-70810854D01*
X39451247Y-70764458D01*
X39370642Y-70748135D01*
X37920642Y-70748135D01*
X37845341Y-70762304D01*
X37776181Y-70806807D01*
X37729785Y-70874710D01*
X37713462Y-70955315D01*
X37713462Y-71816262D01*
X37701842Y-71821075D01*
X37701842Y-70636379D01*
X37911206Y-70427015D01*
X44254998Y-70427015D01*
X44254979Y-70449153D01*
X44254979Y-70449153D01*
G37*
X44254979Y-70449153D02*
X44310931Y-70584567D01*
X44414445Y-70688262D01*
X44549761Y-70744451D01*
X44696280Y-70744578D01*
X44831694Y-70688626D01*
X44935389Y-70585112D01*
X44991578Y-70449796D01*
X44991598Y-70427015D01*
X45946261Y-70427015D01*
X45918806Y-70493134D01*
X45918679Y-70639653D01*
X45974631Y-70775067D01*
X46078145Y-70878762D01*
X46213461Y-70934951D01*
X46359980Y-70935078D01*
X46495394Y-70879126D01*
X46510172Y-70864373D01*
X56505442Y-70864373D01*
X56505442Y-71201715D01*
X56619742Y-71316015D01*
X57573342Y-71316015D01*
X57573342Y-70612415D01*
X57459042Y-70498115D01*
X56871699Y-70498115D01*
X56703659Y-70567720D01*
X56575046Y-70696332D01*
X56505442Y-70864373D01*
X46510172Y-70864373D01*
X46599089Y-70775612D01*
X46655278Y-70640296D01*
X46655405Y-70493777D01*
X46627819Y-70427015D01*
X58097898Y-70427015D01*
X58168998Y-70498115D01*
X57916242Y-70498115D01*
X57801942Y-70612415D01*
X57801942Y-71316015D01*
X57821942Y-71316015D01*
X57821942Y-71544615D01*
X57801942Y-71544615D01*
X57801942Y-71564615D01*
X57573342Y-71564615D01*
X57573342Y-71544615D01*
X56619742Y-71544615D01*
X56505442Y-71658915D01*
X56505442Y-71996257D01*
X56575046Y-72164298D01*
X56703659Y-72292910D01*
X56755462Y-72314368D01*
X56755462Y-73175315D01*
X56769631Y-73250616D01*
X56814134Y-73319776D01*
X56836471Y-73335038D01*
X56818181Y-73346807D01*
X56771785Y-73414710D01*
X56755462Y-73495315D01*
X56755462Y-74445315D01*
X56769631Y-74520616D01*
X56814134Y-74589776D01*
X56836471Y-74605038D01*
X56818181Y-74616807D01*
X56771785Y-74684710D01*
X56755462Y-74765315D01*
X56755462Y-75715315D01*
X56769631Y-75790616D01*
X56814134Y-75859776D01*
X56836471Y-75875038D01*
X56818181Y-75886807D01*
X56771785Y-75954710D01*
X56755462Y-76035315D01*
X56755462Y-76985315D01*
X56769631Y-77060616D01*
X56814134Y-77129776D01*
X56882037Y-77176172D01*
X56962642Y-77192495D01*
X58145883Y-77192495D01*
X57634263Y-77704115D01*
X54008642Y-77704115D01*
X53978996Y-77710118D01*
X53954760Y-77726433D01*
X53443199Y-78237994D01*
X51681181Y-78237994D01*
X51664357Y-78241341D01*
X51647246Y-78240216D01*
X51614978Y-78251163D01*
X51598342Y-78254472D01*
X51598342Y-78147713D01*
X51528738Y-77979672D01*
X51400125Y-77851060D01*
X51232085Y-77781455D01*
X50744742Y-77781455D01*
X50630442Y-77895755D01*
X50630442Y-78574355D01*
X50650442Y-78574355D01*
X50650442Y-78802955D01*
X50630442Y-78802955D01*
X50630442Y-78822955D01*
X50401842Y-78822955D01*
X50401842Y-78802955D01*
X50381842Y-78802955D01*
X50381842Y-78574355D01*
X50401842Y-78574355D01*
X50401842Y-77895755D01*
X50287542Y-77781455D01*
X49800199Y-77781455D01*
X49632159Y-77851060D01*
X49503546Y-77979672D01*
X49433942Y-78147713D01*
X49433942Y-78162240D01*
X49356646Y-78130143D01*
X49210127Y-78130016D01*
X49074713Y-78185968D01*
X48971018Y-78289482D01*
X48914829Y-78424798D01*
X48914769Y-78494200D01*
X48412078Y-77991509D01*
X48313194Y-77925437D01*
X48196552Y-77902235D01*
X47507326Y-77902235D01*
X47204524Y-77599433D01*
X47179315Y-77582716D01*
X47150642Y-77577115D01*
X45474286Y-77577115D01*
X45474305Y-77554977D01*
X45418353Y-77419563D01*
X45314839Y-77315868D01*
X45179523Y-77259679D01*
X45150773Y-77259654D01*
X45015308Y-77124189D01*
X44920544Y-77060870D01*
X44825775Y-77042019D01*
X55057568Y-77042019D01*
X55113520Y-77177433D01*
X55217034Y-77281128D01*
X55352350Y-77337317D01*
X55498869Y-77337444D01*
X55634283Y-77281492D01*
X55737978Y-77177978D01*
X55794167Y-77042662D01*
X55794294Y-76896143D01*
X55738342Y-76760729D01*
X55634828Y-76657034D01*
X55499512Y-76600845D01*
X55352993Y-76600718D01*
X55217579Y-76656670D01*
X55113884Y-76760184D01*
X55057695Y-76895500D01*
X55057568Y-77042019D01*
X44825775Y-77042019D01*
X44808762Y-77038635D01*
X39985511Y-77038635D01*
X39965599Y-77018688D01*
X39830283Y-76962499D01*
X39827842Y-76962497D01*
X39827842Y-76738915D01*
X39713542Y-76624615D01*
X38759942Y-76624615D01*
X38759942Y-77328215D01*
X38874242Y-77442515D01*
X39404388Y-77442515D01*
X39444291Y-77539087D01*
X39482253Y-77577115D01*
X38433417Y-77577115D01*
X38433425Y-77567677D01*
X38381709Y-77442515D01*
X38417042Y-77442515D01*
X38531342Y-77328215D01*
X38531342Y-76624615D01*
X38511342Y-76624615D01*
X38511342Y-76396015D01*
X38531342Y-76396015D01*
X38531342Y-76376015D01*
X38759942Y-76376015D01*
X38759942Y-76396015D01*
X39713542Y-76396015D01*
X39827842Y-76281715D01*
X39827842Y-75944373D01*
X39758238Y-75776332D01*
X39629625Y-75647720D01*
X39577822Y-75626262D01*
X39577822Y-74765315D01*
X39563653Y-74690014D01*
X39519150Y-74620854D01*
X39496813Y-74605592D01*
X39515103Y-74593823D01*
X39561499Y-74525920D01*
X39577822Y-74445315D01*
X39577822Y-73584368D01*
X39629625Y-73562910D01*
X39758238Y-73434298D01*
X39827842Y-73266257D01*
X39827842Y-72928915D01*
X39713542Y-72814615D01*
X38759942Y-72814615D01*
X38759942Y-72834615D01*
X38531342Y-72834615D01*
X38531342Y-72814615D01*
X38511342Y-72814615D01*
X38511342Y-72586015D01*
X38531342Y-72586015D01*
X38531342Y-72566015D01*
X38759942Y-72566015D01*
X38759942Y-72586015D01*
X39713542Y-72586015D01*
X39827842Y-72471715D01*
X39827842Y-72134373D01*
X39758238Y-71966332D01*
X39629625Y-71837720D01*
X39577822Y-71816262D01*
X39577822Y-70955315D01*
X39563653Y-70880014D01*
X39519150Y-70810854D01*
X39451247Y-70764458D01*
X39370642Y-70748135D01*
X37920642Y-70748135D01*
X37845341Y-70762304D01*
X37776181Y-70806807D01*
X37729785Y-70874710D01*
X37713462Y-70955315D01*
X37713462Y-71816262D01*
X37701842Y-71821075D01*
X37701842Y-70636379D01*
X37911206Y-70427015D01*
X44254998Y-70427015D01*
X44254979Y-70449153D01*
G36*
X41101282Y-94417512D02*
X41101282Y-95054855D01*
X41148073Y-95101646D01*
X41070728Y-95133604D01*
X40967033Y-95237118D01*
X40910844Y-95372434D01*
X40910717Y-95518953D01*
X40966669Y-95654367D01*
X41070183Y-95758062D01*
X41101282Y-95770976D01*
X41101282Y-96149398D01*
X41170887Y-96317438D01*
X41299499Y-96446051D01*
X41467540Y-96515655D01*
X41829882Y-96515655D01*
X41944182Y-96401355D01*
X41944182Y-95397755D01*
X41924182Y-95397755D01*
X41924182Y-95169155D01*
X41944182Y-95169155D01*
X41944182Y-95149155D01*
X42172782Y-95149155D01*
X42172782Y-95169155D01*
X42192782Y-95169155D01*
X42192782Y-95397755D01*
X42172782Y-95397755D01*
X42172782Y-96401355D01*
X42287082Y-96515655D01*
X42649424Y-96515655D01*
X42721522Y-96485791D01*
X42721522Y-97416844D01*
X42618067Y-97347717D01*
X42443104Y-97312916D01*
X42268141Y-97347717D01*
X42149165Y-97427215D01*
X41884682Y-97427215D01*
X41884682Y-96915215D01*
X41870513Y-96839914D01*
X41826010Y-96770754D01*
X41758107Y-96724358D01*
X41677502Y-96708035D01*
X40999375Y-96708035D01*
X41039338Y-96611796D01*
X41039465Y-96465277D01*
X40983513Y-96329863D01*
X40879999Y-96226168D01*
X40744683Y-96169979D01*
X40598164Y-96169852D01*
X40462750Y-96225804D01*
X40359055Y-96329318D01*
X40302866Y-96464634D01*
X40302739Y-96611153D01*
X40358691Y-96746567D01*
X40360900Y-96748780D01*
X40333041Y-96766707D01*
X40286645Y-96834610D01*
X40270322Y-96915215D01*
X40270322Y-97427215D01*
X39742182Y-97427215D01*
X39742182Y-96925215D01*
X39728013Y-96849914D01*
X39683510Y-96780754D01*
X39615607Y-96734358D01*
X39535002Y-96718035D01*
X39294682Y-96718035D01*
X39294682Y-96430215D01*
X39280513Y-96354914D01*
X39236010Y-96285754D01*
X39206565Y-96265635D01*
X39358482Y-96265635D01*
X39433783Y-96251466D01*
X39502943Y-96206963D01*
X39549339Y-96139060D01*
X39565662Y-96058455D01*
X39565662Y-94981499D01*
X39611535Y-95000547D01*
X39758054Y-95000674D01*
X39893468Y-94944722D01*
X39997163Y-94841208D01*
X40019260Y-94787994D01*
X40148434Y-94788106D01*
X40283848Y-94732154D01*
X40315732Y-94700325D01*
X40445121Y-94754053D01*
X40591640Y-94754180D01*
X40727054Y-94698228D01*
X40830749Y-94594714D01*
X40886938Y-94459398D01*
X40886975Y-94417251D01*
X41033442Y-94417378D01*
X41115357Y-94383531D01*
X41101282Y-94417512D01*
X41101282Y-94417512D01*
G37*
X41101282Y-94417512D02*
X41101282Y-95054855D01*
X41148073Y-95101646D01*
X41070728Y-95133604D01*
X40967033Y-95237118D01*
X40910844Y-95372434D01*
X40910717Y-95518953D01*
X40966669Y-95654367D01*
X41070183Y-95758062D01*
X41101282Y-95770976D01*
X41101282Y-96149398D01*
X41170887Y-96317438D01*
X41299499Y-96446051D01*
X41467540Y-96515655D01*
X41829882Y-96515655D01*
X41944182Y-96401355D01*
X41944182Y-95397755D01*
X41924182Y-95397755D01*
X41924182Y-95169155D01*
X41944182Y-95169155D01*
X41944182Y-95149155D01*
X42172782Y-95149155D01*
X42172782Y-95169155D01*
X42192782Y-95169155D01*
X42192782Y-95397755D01*
X42172782Y-95397755D01*
X42172782Y-96401355D01*
X42287082Y-96515655D01*
X42649424Y-96515655D01*
X42721522Y-96485791D01*
X42721522Y-97416844D01*
X42618067Y-97347717D01*
X42443104Y-97312916D01*
X42268141Y-97347717D01*
X42149165Y-97427215D01*
X41884682Y-97427215D01*
X41884682Y-96915215D01*
X41870513Y-96839914D01*
X41826010Y-96770754D01*
X41758107Y-96724358D01*
X41677502Y-96708035D01*
X40999375Y-96708035D01*
X41039338Y-96611796D01*
X41039465Y-96465277D01*
X40983513Y-96329863D01*
X40879999Y-96226168D01*
X40744683Y-96169979D01*
X40598164Y-96169852D01*
X40462750Y-96225804D01*
X40359055Y-96329318D01*
X40302866Y-96464634D01*
X40302739Y-96611153D01*
X40358691Y-96746567D01*
X40360900Y-96748780D01*
X40333041Y-96766707D01*
X40286645Y-96834610D01*
X40270322Y-96915215D01*
X40270322Y-97427215D01*
X39742182Y-97427215D01*
X39742182Y-96925215D01*
X39728013Y-96849914D01*
X39683510Y-96780754D01*
X39615607Y-96734358D01*
X39535002Y-96718035D01*
X39294682Y-96718035D01*
X39294682Y-96430215D01*
X39280513Y-96354914D01*
X39236010Y-96285754D01*
X39206565Y-96265635D01*
X39358482Y-96265635D01*
X39433783Y-96251466D01*
X39502943Y-96206963D01*
X39549339Y-96139060D01*
X39565662Y-96058455D01*
X39565662Y-94981499D01*
X39611535Y-95000547D01*
X39758054Y-95000674D01*
X39893468Y-94944722D01*
X39997163Y-94841208D01*
X40019260Y-94787994D01*
X40148434Y-94788106D01*
X40283848Y-94732154D01*
X40315732Y-94700325D01*
X40445121Y-94754053D01*
X40591640Y-94754180D01*
X40727054Y-94698228D01*
X40830749Y-94594714D01*
X40886938Y-94459398D01*
X40886975Y-94417251D01*
X41033442Y-94417378D01*
X41115357Y-94383531D01*
X41101282Y-94417512D01*
G36*
X35735882Y-83463675D02*
X35755882Y-83463675D01*
X35755882Y-83692275D01*
X35735882Y-83692275D01*
X35735882Y-84370875D01*
X35850182Y-84485175D01*
X35852727Y-84485175D01*
X35852659Y-84563933D01*
X35908611Y-84699347D01*
X36012125Y-84803042D01*
X36147441Y-84859231D01*
X36293960Y-84859358D01*
X36429374Y-84803406D01*
X36533069Y-84699892D01*
X36589258Y-84564576D01*
X36589385Y-84418057D01*
X36564151Y-84356985D01*
X36634178Y-84286958D01*
X36662282Y-84219107D01*
X36700804Y-84244847D01*
X36737862Y-84281905D01*
X36737862Y-84748215D01*
X36752031Y-84823516D01*
X36796534Y-84892676D01*
X36810155Y-84901983D01*
X36751841Y-84939507D01*
X36705445Y-85007410D01*
X36689122Y-85088015D01*
X36689122Y-85738015D01*
X36703291Y-85813316D01*
X36747794Y-85882476D01*
X36815697Y-85928872D01*
X36896302Y-85945195D01*
X36910952Y-85945195D01*
X36910952Y-85969595D01*
X36930770Y-86069227D01*
X36953152Y-86102723D01*
X36987207Y-86153690D01*
X37182752Y-86349235D01*
X35581102Y-86349235D01*
X35505801Y-86363404D01*
X35436641Y-86407907D01*
X35390245Y-86475810D01*
X35373922Y-86556415D01*
X35373922Y-88906415D01*
X35388091Y-88981716D01*
X35432594Y-89050876D01*
X35500497Y-89097272D01*
X35581102Y-89113595D01*
X37458065Y-89113595D01*
X37457939Y-89258755D01*
X37513891Y-89394169D01*
X37617405Y-89497864D01*
X37683475Y-89525299D01*
X37666655Y-89542090D01*
X37610466Y-89677406D01*
X37610339Y-89823925D01*
X37666291Y-89959339D01*
X37737699Y-90030872D01*
X37689206Y-90147653D01*
X37689079Y-90294172D01*
X37715623Y-90358414D01*
X37579032Y-90385584D01*
X37410105Y-90498457D01*
X37247290Y-90661271D01*
X37134417Y-90830199D01*
X37094780Y-91029462D01*
X37094781Y-91029467D01*
X37094781Y-91549235D01*
X36610538Y-91549235D01*
X36610664Y-91404075D01*
X36554712Y-91268661D01*
X36451198Y-91164966D01*
X36315882Y-91108777D01*
X36169363Y-91108650D01*
X36033949Y-91164602D01*
X35930254Y-91268116D01*
X35874065Y-91403432D01*
X35873939Y-91549235D01*
X35581102Y-91549235D01*
X35505801Y-91563404D01*
X35436641Y-91607907D01*
X35390245Y-91675810D01*
X35373922Y-91756415D01*
X35373922Y-94106415D01*
X35388091Y-94181716D01*
X35432594Y-94250876D01*
X35500497Y-94297272D01*
X35581102Y-94313595D01*
X37105302Y-94313595D01*
X37105302Y-94893235D01*
X37062502Y-94893235D01*
X36987201Y-94907404D01*
X36918041Y-94951907D01*
X36871645Y-95019810D01*
X36855322Y-95100415D01*
X36855322Y-96045885D01*
X36848323Y-96042979D01*
X36774632Y-96042915D01*
X36273037Y-95541320D01*
X36240525Y-95519596D01*
X36188574Y-95484883D01*
X36088942Y-95465065D01*
X36069682Y-95465065D01*
X36069682Y-95100415D01*
X36055513Y-95025114D01*
X36011010Y-94955954D01*
X35943107Y-94909558D01*
X35862502Y-94893235D01*
X35041000Y-94893235D01*
X35041000Y-86335155D01*
X36246582Y-86335155D01*
X36321883Y-86320986D01*
X36391043Y-86276483D01*
X36437439Y-86208580D01*
X36447316Y-86159805D01*
X36507572Y-86134908D01*
X36611267Y-86031394D01*
X36667456Y-85896078D01*
X36667583Y-85749559D01*
X36611631Y-85614145D01*
X36508117Y-85510450D01*
X36453762Y-85487879D01*
X36453762Y-85227975D01*
X36439593Y-85152674D01*
X36395090Y-85083514D01*
X36327187Y-85037118D01*
X36246582Y-85020795D01*
X35041000Y-85020795D01*
X35041000Y-84485175D01*
X35392982Y-84485175D01*
X35507282Y-84370875D01*
X35507282Y-83692275D01*
X35487282Y-83692275D01*
X35487282Y-83463675D01*
X35507282Y-83463675D01*
X35507282Y-83443675D01*
X35735882Y-83443675D01*
X35735882Y-83463675D01*
X35735882Y-83463675D01*
G37*
X35735882Y-83463675D02*
X35755882Y-83463675D01*
X35755882Y-83692275D01*
X35735882Y-83692275D01*
X35735882Y-84370875D01*
X35850182Y-84485175D01*
X35852727Y-84485175D01*
X35852659Y-84563933D01*
X35908611Y-84699347D01*
X36012125Y-84803042D01*
X36147441Y-84859231D01*
X36293960Y-84859358D01*
X36429374Y-84803406D01*
X36533069Y-84699892D01*
X36589258Y-84564576D01*
X36589385Y-84418057D01*
X36564151Y-84356985D01*
X36634178Y-84286958D01*
X36662282Y-84219107D01*
X36700804Y-84244847D01*
X36737862Y-84281905D01*
X36737862Y-84748215D01*
X36752031Y-84823516D01*
X36796534Y-84892676D01*
X36810155Y-84901983D01*
X36751841Y-84939507D01*
X36705445Y-85007410D01*
X36689122Y-85088015D01*
X36689122Y-85738015D01*
X36703291Y-85813316D01*
X36747794Y-85882476D01*
X36815697Y-85928872D01*
X36896302Y-85945195D01*
X36910952Y-85945195D01*
X36910952Y-85969595D01*
X36930770Y-86069227D01*
X36953152Y-86102723D01*
X36987207Y-86153690D01*
X37182752Y-86349235D01*
X35581102Y-86349235D01*
X35505801Y-86363404D01*
X35436641Y-86407907D01*
X35390245Y-86475810D01*
X35373922Y-86556415D01*
X35373922Y-88906415D01*
X35388091Y-88981716D01*
X35432594Y-89050876D01*
X35500497Y-89097272D01*
X35581102Y-89113595D01*
X37458065Y-89113595D01*
X37457939Y-89258755D01*
X37513891Y-89394169D01*
X37617405Y-89497864D01*
X37683475Y-89525299D01*
X37666655Y-89542090D01*
X37610466Y-89677406D01*
X37610339Y-89823925D01*
X37666291Y-89959339D01*
X37737699Y-90030872D01*
X37689206Y-90147653D01*
X37689079Y-90294172D01*
X37715623Y-90358414D01*
X37579032Y-90385584D01*
X37410105Y-90498457D01*
X37247290Y-90661271D01*
X37134417Y-90830199D01*
X37094780Y-91029462D01*
X37094781Y-91029467D01*
X37094781Y-91549235D01*
X36610538Y-91549235D01*
X36610664Y-91404075D01*
X36554712Y-91268661D01*
X36451198Y-91164966D01*
X36315882Y-91108777D01*
X36169363Y-91108650D01*
X36033949Y-91164602D01*
X35930254Y-91268116D01*
X35874065Y-91403432D01*
X35873939Y-91549235D01*
X35581102Y-91549235D01*
X35505801Y-91563404D01*
X35436641Y-91607907D01*
X35390245Y-91675810D01*
X35373922Y-91756415D01*
X35373922Y-94106415D01*
X35388091Y-94181716D01*
X35432594Y-94250876D01*
X35500497Y-94297272D01*
X35581102Y-94313595D01*
X37105302Y-94313595D01*
X37105302Y-94893235D01*
X37062502Y-94893235D01*
X36987201Y-94907404D01*
X36918041Y-94951907D01*
X36871645Y-95019810D01*
X36855322Y-95100415D01*
X36855322Y-96045885D01*
X36848323Y-96042979D01*
X36774632Y-96042915D01*
X36273037Y-95541320D01*
X36240525Y-95519596D01*
X36188574Y-95484883D01*
X36088942Y-95465065D01*
X36069682Y-95465065D01*
X36069682Y-95100415D01*
X36055513Y-95025114D01*
X36011010Y-94955954D01*
X35943107Y-94909558D01*
X35862502Y-94893235D01*
X35041000Y-94893235D01*
X35041000Y-86335155D01*
X36246582Y-86335155D01*
X36321883Y-86320986D01*
X36391043Y-86276483D01*
X36437439Y-86208580D01*
X36447316Y-86159805D01*
X36507572Y-86134908D01*
X36611267Y-86031394D01*
X36667456Y-85896078D01*
X36667583Y-85749559D01*
X36611631Y-85614145D01*
X36508117Y-85510450D01*
X36453762Y-85487879D01*
X36453762Y-85227975D01*
X36439593Y-85152674D01*
X36395090Y-85083514D01*
X36327187Y-85037118D01*
X36246582Y-85020795D01*
X35041000Y-85020795D01*
X35041000Y-84485175D01*
X35392982Y-84485175D01*
X35507282Y-84370875D01*
X35507282Y-83692275D01*
X35487282Y-83692275D01*
X35487282Y-83463675D01*
X35507282Y-83463675D01*
X35507282Y-83443675D01*
X35735882Y-83443675D01*
X35735882Y-83463675D01*
G36*
X54222922Y-90467255D02*
X54237091Y-90542556D01*
X54265687Y-90586995D01*
X53354586Y-90586995D01*
X53305155Y-90537478D01*
X53157015Y-90475965D01*
X52996612Y-90475825D01*
X52848366Y-90537079D01*
X52734845Y-90650402D01*
X52673332Y-90798542D01*
X52673243Y-90900038D01*
X52671977Y-90901933D01*
X52649742Y-91013715D01*
X52649742Y-91460113D01*
X52591541Y-91471064D01*
X52522381Y-91515567D01*
X52475985Y-91583470D01*
X52459662Y-91664075D01*
X52459662Y-92314075D01*
X52473831Y-92389376D01*
X52518334Y-92458536D01*
X52586237Y-92504932D01*
X52666842Y-92521255D01*
X53127063Y-92521255D01*
X53133559Y-92527751D01*
X53301600Y-92597355D01*
X53601442Y-92597355D01*
X53715742Y-92483055D01*
X53715742Y-91854455D01*
X53944342Y-91854455D01*
X53944342Y-92483055D01*
X54058642Y-92597355D01*
X54358484Y-92597355D01*
X54526525Y-92527751D01*
X54655137Y-92399138D01*
X54724742Y-92231098D01*
X54724742Y-91968755D01*
X54610442Y-91854455D01*
X53944342Y-91854455D01*
X53715742Y-91854455D01*
X53695742Y-91854455D01*
X53695742Y-91625855D01*
X53715742Y-91625855D01*
X53715742Y-91605855D01*
X53944342Y-91605855D01*
X53944342Y-91625855D01*
X54610442Y-91625855D01*
X54724742Y-91511555D01*
X54724742Y-91249212D01*
X54690039Y-91165431D01*
X54772844Y-91148960D01*
X54867608Y-91085641D01*
X54955153Y-90998096D01*
X54994171Y-91092527D01*
X55043719Y-91142162D01*
X55017241Y-91147144D01*
X54948081Y-91191647D01*
X54901685Y-91259550D01*
X54885362Y-91340155D01*
X54885362Y-92140155D01*
X54899531Y-92215456D01*
X54944034Y-92284616D01*
X55011937Y-92331012D01*
X55092542Y-92347335D01*
X55180670Y-92347335D01*
X55190911Y-92398818D01*
X55276254Y-92526543D01*
X55403979Y-92611886D01*
X55554642Y-92641855D01*
X55705305Y-92611886D01*
X55833030Y-92526543D01*
X56022598Y-92336975D01*
X56042843Y-92333166D01*
X56112003Y-92288663D01*
X56158399Y-92220760D01*
X56166616Y-92180181D01*
X56210462Y-92114561D01*
X56210462Y-92413815D01*
X56224631Y-92489116D01*
X56269134Y-92558276D01*
X56281942Y-92567027D01*
X56281942Y-92870886D01*
X52764093Y-92978675D01*
X52764105Y-92965157D01*
X52708153Y-92829743D01*
X52604639Y-92726048D01*
X52469323Y-92669859D01*
X52322804Y-92669732D01*
X52187390Y-92725684D01*
X52135238Y-92777745D01*
X49826166Y-92777745D01*
X49801916Y-92753495D01*
X49851362Y-92753495D01*
X49965662Y-92639195D01*
X49965662Y-92085595D01*
X49945662Y-92085595D01*
X49945662Y-91856995D01*
X49965662Y-91856995D01*
X49965662Y-91836995D01*
X50194262Y-91836995D01*
X50194262Y-91856995D01*
X50214262Y-91856995D01*
X50214262Y-92085595D01*
X50194262Y-92085595D01*
X50194262Y-92639195D01*
X50308562Y-92753495D01*
X50445904Y-92753495D01*
X50613945Y-92683891D01*
X50742557Y-92555278D01*
X50770279Y-92488351D01*
X50844962Y-92503475D01*
X51394962Y-92503475D01*
X51470263Y-92489306D01*
X51497612Y-92471708D01*
X51546237Y-92504932D01*
X51626842Y-92521255D01*
X52176842Y-92521255D01*
X52252143Y-92507086D01*
X52321303Y-92462583D01*
X52367699Y-92394680D01*
X52384022Y-92314075D01*
X52384022Y-91664075D01*
X52369853Y-91588774D01*
X52335663Y-91535640D01*
X52344559Y-91522620D01*
X52360882Y-91442015D01*
X52360882Y-90642015D01*
X52346713Y-90566714D01*
X52342402Y-90560014D01*
X52342402Y-90357125D01*
X53919194Y-90357125D01*
X54018826Y-90337307D01*
X54103289Y-90280870D01*
X54222922Y-90161237D01*
X54222922Y-90467255D01*
X54222922Y-90467255D01*
G37*
X54222922Y-90467255D02*
X54237091Y-90542556D01*
X54265687Y-90586995D01*
X53354586Y-90586995D01*
X53305155Y-90537478D01*
X53157015Y-90475965D01*
X52996612Y-90475825D01*
X52848366Y-90537079D01*
X52734845Y-90650402D01*
X52673332Y-90798542D01*
X52673243Y-90900038D01*
X52671977Y-90901933D01*
X52649742Y-91013715D01*
X52649742Y-91460113D01*
X52591541Y-91471064D01*
X52522381Y-91515567D01*
X52475985Y-91583470D01*
X52459662Y-91664075D01*
X52459662Y-92314075D01*
X52473831Y-92389376D01*
X52518334Y-92458536D01*
X52586237Y-92504932D01*
X52666842Y-92521255D01*
X53127063Y-92521255D01*
X53133559Y-92527751D01*
X53301600Y-92597355D01*
X53601442Y-92597355D01*
X53715742Y-92483055D01*
X53715742Y-91854455D01*
X53944342Y-91854455D01*
X53944342Y-92483055D01*
X54058642Y-92597355D01*
X54358484Y-92597355D01*
X54526525Y-92527751D01*
X54655137Y-92399138D01*
X54724742Y-92231098D01*
X54724742Y-91968755D01*
X54610442Y-91854455D01*
X53944342Y-91854455D01*
X53715742Y-91854455D01*
X53695742Y-91854455D01*
X53695742Y-91625855D01*
X53715742Y-91625855D01*
X53715742Y-91605855D01*
X53944342Y-91605855D01*
X53944342Y-91625855D01*
X54610442Y-91625855D01*
X54724742Y-91511555D01*
X54724742Y-91249212D01*
X54690039Y-91165431D01*
X54772844Y-91148960D01*
X54867608Y-91085641D01*
X54955153Y-90998096D01*
X54994171Y-91092527D01*
X55043719Y-91142162D01*
X55017241Y-91147144D01*
X54948081Y-91191647D01*
X54901685Y-91259550D01*
X54885362Y-91340155D01*
X54885362Y-92140155D01*
X54899531Y-92215456D01*
X54944034Y-92284616D01*
X55011937Y-92331012D01*
X55092542Y-92347335D01*
X55180670Y-92347335D01*
X55190911Y-92398818D01*
X55276254Y-92526543D01*
X55403979Y-92611886D01*
X55554642Y-92641855D01*
X55705305Y-92611886D01*
X55833030Y-92526543D01*
X56022598Y-92336975D01*
X56042843Y-92333166D01*
X56112003Y-92288663D01*
X56158399Y-92220760D01*
X56166616Y-92180181D01*
X56210462Y-92114561D01*
X56210462Y-92413815D01*
X56224631Y-92489116D01*
X56269134Y-92558276D01*
X56281942Y-92567027D01*
X56281942Y-92870886D01*
X52764093Y-92978675D01*
X52764105Y-92965157D01*
X52708153Y-92829743D01*
X52604639Y-92726048D01*
X52469323Y-92669859D01*
X52322804Y-92669732D01*
X52187390Y-92725684D01*
X52135238Y-92777745D01*
X49826166Y-92777745D01*
X49801916Y-92753495D01*
X49851362Y-92753495D01*
X49965662Y-92639195D01*
X49965662Y-92085595D01*
X49945662Y-92085595D01*
X49945662Y-91856995D01*
X49965662Y-91856995D01*
X49965662Y-91836995D01*
X50194262Y-91836995D01*
X50194262Y-91856995D01*
X50214262Y-91856995D01*
X50214262Y-92085595D01*
X50194262Y-92085595D01*
X50194262Y-92639195D01*
X50308562Y-92753495D01*
X50445904Y-92753495D01*
X50613945Y-92683891D01*
X50742557Y-92555278D01*
X50770279Y-92488351D01*
X50844962Y-92503475D01*
X51394962Y-92503475D01*
X51470263Y-92489306D01*
X51497612Y-92471708D01*
X51546237Y-92504932D01*
X51626842Y-92521255D01*
X52176842Y-92521255D01*
X52252143Y-92507086D01*
X52321303Y-92462583D01*
X52367699Y-92394680D01*
X52384022Y-92314075D01*
X52384022Y-91664075D01*
X52369853Y-91588774D01*
X52335663Y-91535640D01*
X52344559Y-91522620D01*
X52360882Y-91442015D01*
X52360882Y-90642015D01*
X52346713Y-90566714D01*
X52342402Y-90560014D01*
X52342402Y-90357125D01*
X53919194Y-90357125D01*
X54018826Y-90337307D01*
X54103289Y-90280870D01*
X54222922Y-90161237D01*
X54222922Y-90467255D01*
G36*
X61383000Y-92714587D02*
X60757541Y-92733751D01*
X60762502Y-92708813D01*
X60762502Y-92620995D01*
X60997642Y-92620995D01*
X61072943Y-92606826D01*
X61142103Y-92562323D01*
X61188499Y-92494420D01*
X61204822Y-92413815D01*
X61204822Y-91213815D01*
X61190653Y-91138514D01*
X61146150Y-91069354D01*
X61078247Y-91022958D01*
X60997642Y-91006635D01*
X60227642Y-91006635D01*
X60152341Y-91020804D01*
X60083181Y-91065307D01*
X60036785Y-91133210D01*
X60020462Y-91213815D01*
X60020462Y-92413815D01*
X60034631Y-92489116D01*
X60056146Y-92522551D01*
X60008495Y-92570118D01*
X59952306Y-92705434D01*
X59952260Y-92758425D01*
X59863342Y-92761150D01*
X59863342Y-92567961D01*
X59872103Y-92562323D01*
X59918499Y-92494420D01*
X59934822Y-92413815D01*
X59934822Y-91213815D01*
X59920653Y-91138514D01*
X59876150Y-91069354D01*
X59808247Y-91022958D01*
X59727642Y-91006635D01*
X58957642Y-91006635D01*
X58882341Y-91020804D01*
X58813181Y-91065307D01*
X58766785Y-91133210D01*
X58750462Y-91213815D01*
X58750462Y-91674115D01*
X58664822Y-91674115D01*
X58664822Y-91213815D01*
X58650653Y-91138514D01*
X58606150Y-91069354D01*
X58538247Y-91022958D01*
X58457642Y-91006635D01*
X57687642Y-91006635D01*
X57612341Y-91020804D01*
X57543181Y-91065307D01*
X57496785Y-91133210D01*
X57480462Y-91213815D01*
X57480462Y-91674115D01*
X57394822Y-91674115D01*
X57394822Y-91213815D01*
X57380653Y-91138514D01*
X57336150Y-91069354D01*
X57268247Y-91022958D01*
X57187642Y-91006635D01*
X56417642Y-91006635D01*
X56342341Y-91020804D01*
X56273181Y-91065307D01*
X56256203Y-91090155D01*
X56256203Y-90505190D01*
X56303590Y-90457803D01*
X56315204Y-90440421D01*
X56347037Y-90462172D01*
X56427642Y-90478495D01*
X60987642Y-90478495D01*
X61062943Y-90464326D01*
X61132103Y-90419823D01*
X61178499Y-90351920D01*
X61194822Y-90271315D01*
X61194822Y-90030995D01*
X61383000Y-90030995D01*
X61383000Y-92714587D01*
X61383000Y-92714587D01*
G37*
X61383000Y-92714587D02*
X60757541Y-92733751D01*
X60762502Y-92708813D01*
X60762502Y-92620995D01*
X60997642Y-92620995D01*
X61072943Y-92606826D01*
X61142103Y-92562323D01*
X61188499Y-92494420D01*
X61204822Y-92413815D01*
X61204822Y-91213815D01*
X61190653Y-91138514D01*
X61146150Y-91069354D01*
X61078247Y-91022958D01*
X60997642Y-91006635D01*
X60227642Y-91006635D01*
X60152341Y-91020804D01*
X60083181Y-91065307D01*
X60036785Y-91133210D01*
X60020462Y-91213815D01*
X60020462Y-92413815D01*
X60034631Y-92489116D01*
X60056146Y-92522551D01*
X60008495Y-92570118D01*
X59952306Y-92705434D01*
X59952260Y-92758425D01*
X59863342Y-92761150D01*
X59863342Y-92567961D01*
X59872103Y-92562323D01*
X59918499Y-92494420D01*
X59934822Y-92413815D01*
X59934822Y-91213815D01*
X59920653Y-91138514D01*
X59876150Y-91069354D01*
X59808247Y-91022958D01*
X59727642Y-91006635D01*
X58957642Y-91006635D01*
X58882341Y-91020804D01*
X58813181Y-91065307D01*
X58766785Y-91133210D01*
X58750462Y-91213815D01*
X58750462Y-91674115D01*
X58664822Y-91674115D01*
X58664822Y-91213815D01*
X58650653Y-91138514D01*
X58606150Y-91069354D01*
X58538247Y-91022958D01*
X58457642Y-91006635D01*
X57687642Y-91006635D01*
X57612341Y-91020804D01*
X57543181Y-91065307D01*
X57496785Y-91133210D01*
X57480462Y-91213815D01*
X57480462Y-91674115D01*
X57394822Y-91674115D01*
X57394822Y-91213815D01*
X57380653Y-91138514D01*
X57336150Y-91069354D01*
X57268247Y-91022958D01*
X57187642Y-91006635D01*
X56417642Y-91006635D01*
X56342341Y-91020804D01*
X56273181Y-91065307D01*
X56256203Y-91090155D01*
X56256203Y-90505190D01*
X56303590Y-90457803D01*
X56315204Y-90440421D01*
X56347037Y-90462172D01*
X56427642Y-90478495D01*
X60987642Y-90478495D01*
X61062943Y-90464326D01*
X61132103Y-90419823D01*
X61178499Y-90351920D01*
X61194822Y-90271315D01*
X61194822Y-90030995D01*
X61383000Y-90030995D01*
X61383000Y-92714587D01*
G36*
X50986291Y-89482167D02*
X51089805Y-89585862D01*
X51225121Y-89642051D01*
X51371640Y-89642178D01*
X51507054Y-89586226D01*
X51555002Y-89538362D01*
X51555002Y-90184815D01*
X51515502Y-90184815D01*
X51401202Y-90299115D01*
X51401202Y-90927715D01*
X51433002Y-90927715D01*
X51433002Y-91156315D01*
X51401202Y-91156315D01*
X51401202Y-91176315D01*
X51216602Y-91176315D01*
X51196602Y-91156315D01*
X50750802Y-91156315D01*
X50730802Y-91176315D01*
X50546202Y-91176315D01*
X50546202Y-91156315D01*
X50514402Y-91156315D01*
X50514402Y-90927715D01*
X50546202Y-90927715D01*
X50546202Y-90907715D01*
X50730802Y-90907715D01*
X50750802Y-90927715D01*
X51196602Y-90927715D01*
X51310902Y-90813415D01*
X51310902Y-90551072D01*
X51241297Y-90383032D01*
X51196202Y-90337937D01*
X51196202Y-90299115D01*
X51081902Y-90184815D01*
X51002760Y-90184815D01*
X50973702Y-90196851D01*
X50944644Y-90184815D01*
X50865502Y-90184815D01*
X50763004Y-90287313D01*
X50763004Y-90184815D01*
X50659132Y-90184815D01*
X50832797Y-90011151D01*
X50889234Y-89926687D01*
X50896023Y-89892556D01*
X50909052Y-89827055D01*
X50909052Y-89438780D01*
X50929003Y-89435026D01*
X50958871Y-89415806D01*
X50986291Y-89482167D01*
X50986291Y-89482167D01*
G37*
X50986291Y-89482167D02*
X51089805Y-89585862D01*
X51225121Y-89642051D01*
X51371640Y-89642178D01*
X51507054Y-89586226D01*
X51555002Y-89538362D01*
X51555002Y-90184815D01*
X51515502Y-90184815D01*
X51401202Y-90299115D01*
X51401202Y-90927715D01*
X51433002Y-90927715D01*
X51433002Y-91156315D01*
X51401202Y-91156315D01*
X51401202Y-91176315D01*
X51216602Y-91176315D01*
X51196602Y-91156315D01*
X50750802Y-91156315D01*
X50730802Y-91176315D01*
X50546202Y-91176315D01*
X50546202Y-91156315D01*
X50514402Y-91156315D01*
X50514402Y-90927715D01*
X50546202Y-90927715D01*
X50546202Y-90907715D01*
X50730802Y-90907715D01*
X50750802Y-90927715D01*
X51196602Y-90927715D01*
X51310902Y-90813415D01*
X51310902Y-90551072D01*
X51241297Y-90383032D01*
X51196202Y-90337937D01*
X51196202Y-90299115D01*
X51081902Y-90184815D01*
X51002760Y-90184815D01*
X50973702Y-90196851D01*
X50944644Y-90184815D01*
X50865502Y-90184815D01*
X50763004Y-90287313D01*
X50763004Y-90184815D01*
X50659132Y-90184815D01*
X50832797Y-90011151D01*
X50889234Y-89926687D01*
X50896023Y-89892556D01*
X50909052Y-89827055D01*
X50909052Y-89438780D01*
X50929003Y-89435026D01*
X50958871Y-89415806D01*
X50986291Y-89482167D01*
G36*
X40653322Y-84037795D02*
X40673322Y-84037795D01*
X40673322Y-84266395D01*
X40653322Y-84266395D01*
X40653322Y-84769995D01*
X40767622Y-84884295D01*
X40954965Y-84884295D01*
X41123005Y-84814690D01*
X41251618Y-84686078D01*
X41277126Y-84624495D01*
X41583443Y-84624495D01*
X41612702Y-84630315D01*
X41641961Y-84624495D01*
X41862242Y-84624495D01*
X41937543Y-84610326D01*
X42006703Y-84565823D01*
X42053099Y-84497920D01*
X42069422Y-84417315D01*
X42069422Y-84380505D01*
X42413542Y-84380505D01*
X42513174Y-84360687D01*
X42597637Y-84304250D01*
X42737342Y-84164545D01*
X42737342Y-84441575D01*
X42751472Y-84516669D01*
X42685539Y-84543980D01*
X42556926Y-84672592D01*
X42487322Y-84840633D01*
X42487322Y-84977975D01*
X42601622Y-85092275D01*
X43155222Y-85092275D01*
X43155222Y-85072275D01*
X43383822Y-85072275D01*
X43383822Y-85092275D01*
X43937422Y-85092275D01*
X44051722Y-84977975D01*
X44051722Y-84840633D01*
X43982118Y-84672592D01*
X43932681Y-84623155D01*
X44070895Y-84650648D01*
X44367588Y-84650648D01*
X44366500Y-84653268D01*
X44366373Y-84799787D01*
X44422325Y-84935201D01*
X44525839Y-85038896D01*
X44661155Y-85095085D01*
X44807674Y-85095212D01*
X44943088Y-85039260D01*
X44995240Y-84987199D01*
X45350938Y-84987199D01*
X45373437Y-85002572D01*
X45454042Y-85018895D01*
X45533735Y-85018895D01*
X45458930Y-85049804D01*
X45355235Y-85153318D01*
X45299046Y-85288634D01*
X45298919Y-85435153D01*
X45315307Y-85474815D01*
X44051722Y-85474815D01*
X44051722Y-85435175D01*
X43937422Y-85320875D01*
X43383822Y-85320875D01*
X43383822Y-85340875D01*
X43155222Y-85340875D01*
X43155222Y-85320875D01*
X42601622Y-85320875D01*
X42487322Y-85435175D01*
X42487322Y-85474815D01*
X41453702Y-85474815D01*
X41382470Y-85487709D01*
X41314042Y-85530416D01*
X41267621Y-85596380D01*
X41250521Y-85675208D01*
X41265437Y-85754478D01*
X41275502Y-85769654D01*
X41275502Y-88795287D01*
X40888282Y-88408067D01*
X40888282Y-86556415D01*
X40874113Y-86481114D01*
X40829610Y-86411954D01*
X40761707Y-86365558D01*
X40681102Y-86349235D01*
X40217372Y-86349235D01*
X40226666Y-86339941D01*
X40241420Y-86317860D01*
X40283103Y-86255478D01*
X40302921Y-86155846D01*
X40302921Y-84884295D01*
X40310422Y-84884295D01*
X40424722Y-84769995D01*
X40424722Y-84266395D01*
X40404722Y-84266395D01*
X40404722Y-84037795D01*
X40424722Y-84037795D01*
X40424722Y-84017795D01*
X40653322Y-84017795D01*
X40653322Y-84037795D01*
X40653322Y-84037795D01*
G37*
X40653322Y-84037795D02*
X40673322Y-84037795D01*
X40673322Y-84266395D01*
X40653322Y-84266395D01*
X40653322Y-84769995D01*
X40767622Y-84884295D01*
X40954965Y-84884295D01*
X41123005Y-84814690D01*
X41251618Y-84686078D01*
X41277126Y-84624495D01*
X41583443Y-84624495D01*
X41612702Y-84630315D01*
X41641961Y-84624495D01*
X41862242Y-84624495D01*
X41937543Y-84610326D01*
X42006703Y-84565823D01*
X42053099Y-84497920D01*
X42069422Y-84417315D01*
X42069422Y-84380505D01*
X42413542Y-84380505D01*
X42513174Y-84360687D01*
X42597637Y-84304250D01*
X42737342Y-84164545D01*
X42737342Y-84441575D01*
X42751472Y-84516669D01*
X42685539Y-84543980D01*
X42556926Y-84672592D01*
X42487322Y-84840633D01*
X42487322Y-84977975D01*
X42601622Y-85092275D01*
X43155222Y-85092275D01*
X43155222Y-85072275D01*
X43383822Y-85072275D01*
X43383822Y-85092275D01*
X43937422Y-85092275D01*
X44051722Y-84977975D01*
X44051722Y-84840633D01*
X43982118Y-84672592D01*
X43932681Y-84623155D01*
X44070895Y-84650648D01*
X44367588Y-84650648D01*
X44366500Y-84653268D01*
X44366373Y-84799787D01*
X44422325Y-84935201D01*
X44525839Y-85038896D01*
X44661155Y-85095085D01*
X44807674Y-85095212D01*
X44943088Y-85039260D01*
X44995240Y-84987199D01*
X45350938Y-84987199D01*
X45373437Y-85002572D01*
X45454042Y-85018895D01*
X45533735Y-85018895D01*
X45458930Y-85049804D01*
X45355235Y-85153318D01*
X45299046Y-85288634D01*
X45298919Y-85435153D01*
X45315307Y-85474815D01*
X44051722Y-85474815D01*
X44051722Y-85435175D01*
X43937422Y-85320875D01*
X43383822Y-85320875D01*
X43383822Y-85340875D01*
X43155222Y-85340875D01*
X43155222Y-85320875D01*
X42601622Y-85320875D01*
X42487322Y-85435175D01*
X42487322Y-85474815D01*
X41453702Y-85474815D01*
X41382470Y-85487709D01*
X41314042Y-85530416D01*
X41267621Y-85596380D01*
X41250521Y-85675208D01*
X41265437Y-85754478D01*
X41275502Y-85769654D01*
X41275502Y-88795287D01*
X40888282Y-88408067D01*
X40888282Y-86556415D01*
X40874113Y-86481114D01*
X40829610Y-86411954D01*
X40761707Y-86365558D01*
X40681102Y-86349235D01*
X40217372Y-86349235D01*
X40226666Y-86339941D01*
X40241420Y-86317860D01*
X40283103Y-86255478D01*
X40302921Y-86155846D01*
X40302921Y-84884295D01*
X40310422Y-84884295D01*
X40424722Y-84769995D01*
X40424722Y-84266395D01*
X40404722Y-84266395D01*
X40404722Y-84037795D01*
X40424722Y-84037795D01*
X40424722Y-84017795D01*
X40653322Y-84017795D01*
X40653322Y-84037795D01*
G36*
X61383000Y-81856115D02*
X60079242Y-81856115D01*
X59964942Y-81970415D01*
X59964942Y-83699015D01*
X59984942Y-83699015D01*
X59984942Y-83927615D01*
X59964942Y-83927615D01*
X59964942Y-85656215D01*
X60030462Y-85721735D01*
X60030462Y-86029135D01*
X58949517Y-86029135D01*
X58948174Y-86022383D01*
X58891737Y-85937920D01*
X58731977Y-85778160D01*
X58725025Y-85773515D01*
X58720536Y-85770515D01*
X59622042Y-85770515D01*
X59736342Y-85656215D01*
X59736342Y-83927615D01*
X58007742Y-83927615D01*
X57893442Y-84041915D01*
X57893442Y-85404258D01*
X57963047Y-85572298D01*
X58091659Y-85700911D01*
X58094059Y-85701905D01*
X57384822Y-85701905D01*
X57384822Y-85687255D01*
X57370653Y-85611954D01*
X57326150Y-85542794D01*
X57258247Y-85496398D01*
X57177642Y-85480075D01*
X56427642Y-85480075D01*
X56352341Y-85494244D01*
X56283181Y-85538747D01*
X56236785Y-85606650D01*
X56220462Y-85687255D01*
X56220462Y-87122615D01*
X55930482Y-87122615D01*
X55930482Y-86825815D01*
X55916313Y-86750514D01*
X55871810Y-86681354D01*
X55803907Y-86634958D01*
X55723302Y-86618635D01*
X55459883Y-86618635D01*
X55646098Y-86494211D01*
X55814031Y-86242880D01*
X55873002Y-85946415D01*
X55873002Y-85766655D01*
X55914159Y-85706420D01*
X55918053Y-85687192D01*
X56040770Y-85662782D01*
X56048258Y-85657779D01*
X56065868Y-85654276D01*
X56444925Y-85400999D01*
X56698202Y-85021942D01*
X56723518Y-84894670D01*
X56744872Y-84873353D01*
X56824311Y-84682043D01*
X56824492Y-84474896D01*
X56787141Y-84384500D01*
X56787141Y-83206226D01*
X57129790Y-83138068D01*
X57525328Y-82873779D01*
X57893442Y-82505665D01*
X57893442Y-83584715D01*
X58007742Y-83699015D01*
X59736342Y-83699015D01*
X59736342Y-81970415D01*
X59622042Y-81856115D01*
X58542992Y-81856115D01*
X59578611Y-80820495D01*
X61350642Y-80820495D01*
X61383000Y-80814406D01*
X61383000Y-81856115D01*
X61383000Y-81856115D01*
G37*
X61383000Y-81856115D02*
X60079242Y-81856115D01*
X59964942Y-81970415D01*
X59964942Y-83699015D01*
X59984942Y-83699015D01*
X59984942Y-83927615D01*
X59964942Y-83927615D01*
X59964942Y-85656215D01*
X60030462Y-85721735D01*
X60030462Y-86029135D01*
X58949517Y-86029135D01*
X58948174Y-86022383D01*
X58891737Y-85937920D01*
X58731977Y-85778160D01*
X58725025Y-85773515D01*
X58720536Y-85770515D01*
X59622042Y-85770515D01*
X59736342Y-85656215D01*
X59736342Y-83927615D01*
X58007742Y-83927615D01*
X57893442Y-84041915D01*
X57893442Y-85404258D01*
X57963047Y-85572298D01*
X58091659Y-85700911D01*
X58094059Y-85701905D01*
X57384822Y-85701905D01*
X57384822Y-85687255D01*
X57370653Y-85611954D01*
X57326150Y-85542794D01*
X57258247Y-85496398D01*
X57177642Y-85480075D01*
X56427642Y-85480075D01*
X56352341Y-85494244D01*
X56283181Y-85538747D01*
X56236785Y-85606650D01*
X56220462Y-85687255D01*
X56220462Y-87122615D01*
X55930482Y-87122615D01*
X55930482Y-86825815D01*
X55916313Y-86750514D01*
X55871810Y-86681354D01*
X55803907Y-86634958D01*
X55723302Y-86618635D01*
X55459883Y-86618635D01*
X55646098Y-86494211D01*
X55814031Y-86242880D01*
X55873002Y-85946415D01*
X55873002Y-85766655D01*
X55914159Y-85706420D01*
X55918053Y-85687192D01*
X56040770Y-85662782D01*
X56048258Y-85657779D01*
X56065868Y-85654276D01*
X56444925Y-85400999D01*
X56698202Y-85021942D01*
X56723518Y-84894670D01*
X56744872Y-84873353D01*
X56824311Y-84682043D01*
X56824492Y-84474896D01*
X56787141Y-84384500D01*
X56787141Y-83206226D01*
X57129790Y-83138068D01*
X57525328Y-82873779D01*
X57893442Y-82505665D01*
X57893442Y-83584715D01*
X58007742Y-83699015D01*
X59736342Y-83699015D01*
X59736342Y-81970415D01*
X59622042Y-81856115D01*
X58542992Y-81856115D01*
X59578611Y-80820495D01*
X61350642Y-80820495D01*
X61383000Y-80814406D01*
X61383000Y-81856115D01*
G36*
X39439202Y-84740915D02*
X39459202Y-84740915D01*
X39459202Y-84969515D01*
X39439202Y-84969515D01*
X39439202Y-85473115D01*
X39553502Y-85587415D01*
X39740845Y-85587415D01*
X39782221Y-85570276D01*
X39782221Y-85937525D01*
X38527064Y-85937525D01*
X38561603Y-85931026D01*
X38630763Y-85886523D01*
X38677159Y-85818620D01*
X38693482Y-85738015D01*
X38693482Y-85654890D01*
X38700234Y-85653547D01*
X38784697Y-85597110D01*
X38827948Y-85553859D01*
X38908959Y-85587415D01*
X39096302Y-85587415D01*
X39210602Y-85473115D01*
X39210602Y-84969515D01*
X39190602Y-84969515D01*
X39190602Y-84740915D01*
X39210602Y-84740915D01*
X39210602Y-84720915D01*
X39439202Y-84720915D01*
X39439202Y-84740915D01*
X39439202Y-84740915D01*
G37*
X39439202Y-84740915D02*
X39459202Y-84740915D01*
X39459202Y-84969515D01*
X39439202Y-84969515D01*
X39439202Y-85473115D01*
X39553502Y-85587415D01*
X39740845Y-85587415D01*
X39782221Y-85570276D01*
X39782221Y-85937525D01*
X38527064Y-85937525D01*
X38561603Y-85931026D01*
X38630763Y-85886523D01*
X38677159Y-85818620D01*
X38693482Y-85738015D01*
X38693482Y-85654890D01*
X38700234Y-85653547D01*
X38784697Y-85597110D01*
X38827948Y-85553859D01*
X38908959Y-85587415D01*
X39096302Y-85587415D01*
X39210602Y-85473115D01*
X39210602Y-84969515D01*
X39190602Y-84969515D01*
X39190602Y-84740915D01*
X39210602Y-84740915D01*
X39210602Y-84720915D01*
X39439202Y-84720915D01*
X39439202Y-84740915D01*
G36*
X37714759Y-85212010D02*
X37729122Y-85217959D01*
X37729122Y-85738015D01*
X37743291Y-85813316D01*
X37787794Y-85882476D01*
X37855697Y-85928872D01*
X37898427Y-85937525D01*
X37507422Y-85937525D01*
X37504198Y-85934301D01*
X37521603Y-85931026D01*
X37590763Y-85886523D01*
X37637159Y-85818620D01*
X37653482Y-85738015D01*
X37653482Y-85150733D01*
X37714759Y-85212010D01*
X37714759Y-85212010D01*
G37*
X37714759Y-85212010D02*
X37729122Y-85217959D01*
X37729122Y-85738015D01*
X37743291Y-85813316D01*
X37787794Y-85882476D01*
X37855697Y-85928872D01*
X37898427Y-85937525D01*
X37507422Y-85937525D01*
X37504198Y-85934301D01*
X37521603Y-85931026D01*
X37590763Y-85886523D01*
X37637159Y-85818620D01*
X37653482Y-85738015D01*
X37653482Y-85150733D01*
X37714759Y-85212010D01*
G36*
X46270734Y-84980876D02*
X46322713Y-85016392D01*
X46316682Y-85025189D01*
X46117720Y-85474815D01*
X46019316Y-85474815D01*
X46035518Y-85435796D01*
X46035645Y-85289277D01*
X45979693Y-85153863D01*
X45876179Y-85050168D01*
X45800866Y-85018895D01*
X46104042Y-85018895D01*
X46179343Y-85004726D01*
X46248503Y-84960223D01*
X46253108Y-84953484D01*
X46270734Y-84980876D01*
X46270734Y-84980876D01*
G37*
X46270734Y-84980876D02*
X46322713Y-85016392D01*
X46316682Y-85025189D01*
X46117720Y-85474815D01*
X46019316Y-85474815D01*
X46035518Y-85435796D01*
X46035645Y-85289277D01*
X45979693Y-85153863D01*
X45876179Y-85050168D01*
X45800866Y-85018895D01*
X46104042Y-85018895D01*
X46179343Y-85004726D01*
X46248503Y-84960223D01*
X46253108Y-84953484D01*
X46270734Y-84980876D01*
G36*
X38413042Y-84435115D02*
X38433042Y-84435115D01*
X38433042Y-84663715D01*
X38413042Y-84663715D01*
X38413042Y-84683715D01*
X38184442Y-84683715D01*
X38184442Y-84663715D01*
X38164442Y-84663715D01*
X38164442Y-84435115D01*
X38184442Y-84435115D01*
X38184442Y-84415115D01*
X38413042Y-84415115D01*
X38413042Y-84435115D01*
X38413042Y-84435115D01*
G37*
X38413042Y-84435115D02*
X38433042Y-84435115D01*
X38433042Y-84663715D01*
X38413042Y-84663715D01*
X38413042Y-84683715D01*
X38184442Y-84683715D01*
X38184442Y-84663715D01*
X38164442Y-84663715D01*
X38164442Y-84435115D01*
X38184442Y-84435115D01*
X38184442Y-84415115D01*
X38413042Y-84415115D01*
X38413042Y-84435115D01*
G36*
X37438382Y-81506495D02*
X37458382Y-81506495D01*
X37458382Y-81735095D01*
X37438382Y-81735095D01*
X37438382Y-81842275D01*
X37380342Y-81900315D01*
X37380342Y-82453915D01*
X37400342Y-82453915D01*
X37400342Y-82682515D01*
X37380342Y-82682515D01*
X37380342Y-82702515D01*
X37151742Y-82702515D01*
X37151742Y-82682515D01*
X37131742Y-82682515D01*
X37131742Y-82453915D01*
X37151742Y-82453915D01*
X37151742Y-82346735D01*
X37209782Y-82288695D01*
X37209782Y-81735095D01*
X37189782Y-81735095D01*
X37189782Y-81506495D01*
X37209782Y-81506495D01*
X37209782Y-81486495D01*
X37438382Y-81486495D01*
X37438382Y-81506495D01*
X37438382Y-81506495D01*
G37*
X37438382Y-81506495D02*
X37458382Y-81506495D01*
X37458382Y-81735095D01*
X37438382Y-81735095D01*
X37438382Y-81842275D01*
X37380342Y-81900315D01*
X37380342Y-82453915D01*
X37400342Y-82453915D01*
X37400342Y-82682515D01*
X37380342Y-82682515D01*
X37380342Y-82702515D01*
X37151742Y-82702515D01*
X37151742Y-82682515D01*
X37131742Y-82682515D01*
X37131742Y-82453915D01*
X37151742Y-82453915D01*
X37151742Y-82346735D01*
X37209782Y-82288695D01*
X37209782Y-81735095D01*
X37189782Y-81735095D01*
X37189782Y-81506495D01*
X37209782Y-81506495D01*
X37209782Y-81486495D01*
X37438382Y-81486495D01*
X37438382Y-81506495D01*
G36*
X46907942Y-81526815D02*
X46927942Y-81526815D01*
X46927942Y-81755415D01*
X46907942Y-81755415D01*
X46907942Y-81881475D01*
X46901802Y-81887615D01*
X46901802Y-82441215D01*
X46921802Y-82441215D01*
X46921802Y-82669815D01*
X46901802Y-82669815D01*
X46901802Y-82689815D01*
X46673202Y-82689815D01*
X46673202Y-82669815D01*
X46653202Y-82669815D01*
X46653202Y-82441215D01*
X46673202Y-82441215D01*
X46673202Y-82315155D01*
X46679342Y-82309015D01*
X46679342Y-81755415D01*
X46659342Y-81755415D01*
X46659342Y-81526815D01*
X46679342Y-81526815D01*
X46679342Y-81506815D01*
X46907942Y-81506815D01*
X46907942Y-81526815D01*
X46907942Y-81526815D01*
G37*
X46907942Y-81526815D02*
X46927942Y-81526815D01*
X46927942Y-81755415D01*
X46907942Y-81755415D01*
X46907942Y-81881475D01*
X46901802Y-81887615D01*
X46901802Y-82441215D01*
X46921802Y-82441215D01*
X46921802Y-82669815D01*
X46901802Y-82669815D01*
X46901802Y-82689815D01*
X46673202Y-82689815D01*
X46673202Y-82669815D01*
X46653202Y-82669815D01*
X46653202Y-82441215D01*
X46673202Y-82441215D01*
X46673202Y-82315155D01*
X46679342Y-82309015D01*
X46679342Y-81755415D01*
X46659342Y-81755415D01*
X46659342Y-81526815D01*
X46679342Y-81526815D01*
X46679342Y-81506815D01*
X46907942Y-81506815D01*
X46907942Y-81526815D01*
G36*
X54908217Y-81507703D02*
X54894075Y-81521845D01*
X54908217Y-81535987D01*
X54746572Y-81697632D01*
X54732430Y-81683490D01*
X54718288Y-81697632D01*
X54556643Y-81535987D01*
X54570785Y-81521845D01*
X54556643Y-81507703D01*
X54718288Y-81346058D01*
X54732430Y-81360200D01*
X54746572Y-81346058D01*
X54908217Y-81507703D01*
X54908217Y-81507703D01*
G37*
X54908217Y-81507703D02*
X54894075Y-81521845D01*
X54908217Y-81535987D01*
X54746572Y-81697632D01*
X54732430Y-81683490D01*
X54718288Y-81697632D01*
X54556643Y-81535987D01*
X54570785Y-81521845D01*
X54556643Y-81507703D01*
X54718288Y-81346058D01*
X54732430Y-81360200D01*
X54746572Y-81346058D01*
X54908217Y-81507703D01*
G36*
X35989562Y-80770146D02*
X35989562Y-80881404D01*
X35910891Y-80960075D01*
X35799633Y-80960075D01*
X35720962Y-80881404D01*
X35720962Y-80770146D01*
X35799633Y-80691475D01*
X35910891Y-80691475D01*
X35989562Y-80770146D01*
X35989562Y-80770146D01*
G37*
X35989562Y-80770146D02*
X35989562Y-80881404D01*
X35910891Y-80960075D01*
X35799633Y-80960075D01*
X35720962Y-80881404D01*
X35720962Y-80770146D01*
X35799633Y-80691475D01*
X35910891Y-80691475D01*
X35989562Y-80770146D01*
G36*
X45474616Y-78422561D02*
X45573500Y-78488633D01*
X45690142Y-78511835D01*
X47459552Y-78511835D01*
X47448886Y-78516242D01*
X47209231Y-78755479D01*
X47079370Y-79068218D01*
X47079075Y-79406846D01*
X47208389Y-79719811D01*
X47447626Y-79959466D01*
X47760365Y-80089327D01*
X48098993Y-80089622D01*
X48334223Y-79992427D01*
X48334219Y-79996595D01*
X48379864Y-80107065D01*
X47269682Y-80107065D01*
X47269682Y-80042415D01*
X47255513Y-79967114D01*
X47211010Y-79897954D01*
X47143107Y-79851558D01*
X47062502Y-79835235D01*
X46512502Y-79835235D01*
X46437201Y-79849404D01*
X46368041Y-79893907D01*
X46321645Y-79961810D01*
X46305322Y-80042415D01*
X46305322Y-80692415D01*
X46319491Y-80767716D01*
X46363994Y-80836876D01*
X46408119Y-80867025D01*
X46366381Y-80884314D01*
X46193291Y-80884314D01*
X46156581Y-80847604D01*
X46166963Y-80840923D01*
X46213359Y-80773020D01*
X46229682Y-80692415D01*
X46229682Y-80042415D01*
X46215513Y-79967114D01*
X46171010Y-79897954D01*
X46103107Y-79851558D01*
X46022502Y-79835235D01*
X45472502Y-79835235D01*
X45397201Y-79849404D01*
X45328041Y-79893907D01*
X45281645Y-79961810D01*
X45265322Y-80042415D01*
X45265322Y-80351870D01*
X45257547Y-80346558D01*
X45176942Y-80330235D01*
X44526942Y-80330235D01*
X44451641Y-80344404D01*
X44382481Y-80388907D01*
X44336085Y-80456810D01*
X44319762Y-80537415D01*
X44319762Y-80691824D01*
X44316989Y-80677883D01*
X44260552Y-80593420D01*
X43642017Y-79974885D01*
X43703140Y-79974938D01*
X43838554Y-79918986D01*
X43942249Y-79815472D01*
X43998438Y-79680156D01*
X43998565Y-79533637D01*
X43942613Y-79398223D01*
X43839099Y-79294528D01*
X43747796Y-79256615D01*
X43843562Y-79256615D01*
X43937289Y-79237971D01*
X43980731Y-79343110D01*
X44084245Y-79446805D01*
X44219561Y-79502994D01*
X44366080Y-79503121D01*
X44501494Y-79447169D01*
X44605189Y-79343655D01*
X44661378Y-79208339D01*
X44661403Y-79179589D01*
X44741595Y-79099397D01*
X44762522Y-79103635D01*
X45262522Y-79103635D01*
X45337823Y-79089466D01*
X45406983Y-79044963D01*
X45453379Y-78977060D01*
X45469702Y-78896455D01*
X45469702Y-78417647D01*
X45474616Y-78422561D01*
X45474616Y-78422561D01*
G37*
X45474616Y-78422561D02*
X45573500Y-78488633D01*
X45690142Y-78511835D01*
X47459552Y-78511835D01*
X47448886Y-78516242D01*
X47209231Y-78755479D01*
X47079370Y-79068218D01*
X47079075Y-79406846D01*
X47208389Y-79719811D01*
X47447626Y-79959466D01*
X47760365Y-80089327D01*
X48098993Y-80089622D01*
X48334223Y-79992427D01*
X48334219Y-79996595D01*
X48379864Y-80107065D01*
X47269682Y-80107065D01*
X47269682Y-80042415D01*
X47255513Y-79967114D01*
X47211010Y-79897954D01*
X47143107Y-79851558D01*
X47062502Y-79835235D01*
X46512502Y-79835235D01*
X46437201Y-79849404D01*
X46368041Y-79893907D01*
X46321645Y-79961810D01*
X46305322Y-80042415D01*
X46305322Y-80692415D01*
X46319491Y-80767716D01*
X46363994Y-80836876D01*
X46408119Y-80867025D01*
X46366381Y-80884314D01*
X46193291Y-80884314D01*
X46156581Y-80847604D01*
X46166963Y-80840923D01*
X46213359Y-80773020D01*
X46229682Y-80692415D01*
X46229682Y-80042415D01*
X46215513Y-79967114D01*
X46171010Y-79897954D01*
X46103107Y-79851558D01*
X46022502Y-79835235D01*
X45472502Y-79835235D01*
X45397201Y-79849404D01*
X45328041Y-79893907D01*
X45281645Y-79961810D01*
X45265322Y-80042415D01*
X45265322Y-80351870D01*
X45257547Y-80346558D01*
X45176942Y-80330235D01*
X44526942Y-80330235D01*
X44451641Y-80344404D01*
X44382481Y-80388907D01*
X44336085Y-80456810D01*
X44319762Y-80537415D01*
X44319762Y-80691824D01*
X44316989Y-80677883D01*
X44260552Y-80593420D01*
X43642017Y-79974885D01*
X43703140Y-79974938D01*
X43838554Y-79918986D01*
X43942249Y-79815472D01*
X43998438Y-79680156D01*
X43998565Y-79533637D01*
X43942613Y-79398223D01*
X43839099Y-79294528D01*
X43747796Y-79256615D01*
X43843562Y-79256615D01*
X43937289Y-79237971D01*
X43980731Y-79343110D01*
X44084245Y-79446805D01*
X44219561Y-79502994D01*
X44366080Y-79503121D01*
X44501494Y-79447169D01*
X44605189Y-79343655D01*
X44661378Y-79208339D01*
X44661403Y-79179589D01*
X44741595Y-79099397D01*
X44762522Y-79103635D01*
X45262522Y-79103635D01*
X45337823Y-79089466D01*
X45406983Y-79044963D01*
X45453379Y-78977060D01*
X45469702Y-78896455D01*
X45469702Y-78417647D01*
X45474616Y-78422561D01*
G36*
X42883442Y-80561615D02*
X42903442Y-80561615D01*
X42903442Y-80790215D01*
X42883442Y-80790215D01*
X42883442Y-80810215D01*
X42654842Y-80810215D01*
X42654842Y-80790215D01*
X42634842Y-80790215D01*
X42634842Y-80561615D01*
X42654842Y-80561615D01*
X42654842Y-80541615D01*
X42883442Y-80541615D01*
X42883442Y-80561615D01*
X42883442Y-80561615D01*
G37*
X42883442Y-80561615D02*
X42903442Y-80561615D01*
X42903442Y-80790215D01*
X42883442Y-80790215D01*
X42883442Y-80810215D01*
X42654842Y-80810215D01*
X42654842Y-80790215D01*
X42634842Y-80790215D01*
X42634842Y-80561615D01*
X42654842Y-80561615D01*
X42654842Y-80541615D01*
X42883442Y-80541615D01*
X42883442Y-80561615D01*
G36*
X53531122Y-79017355D02*
X53551122Y-79017355D01*
X53551122Y-79245955D01*
X53531122Y-79245955D01*
X53531122Y-79912055D01*
X53645422Y-80026355D01*
X53907765Y-80026355D01*
X54075805Y-79956750D01*
X54204418Y-79828138D01*
X54251434Y-79714629D01*
X54646134Y-80109329D01*
X54661873Y-80119846D01*
X54657562Y-80141135D01*
X54657562Y-80640381D01*
X54606132Y-80640381D01*
X54438091Y-80709986D01*
X54391623Y-80756454D01*
X54384553Y-80739343D01*
X54281039Y-80635648D01*
X54145723Y-80579459D01*
X54024002Y-80579353D01*
X54024002Y-80394155D01*
X54009833Y-80318854D01*
X53965330Y-80249694D01*
X53897427Y-80203298D01*
X53816822Y-80186975D01*
X53016822Y-80186975D01*
X52941521Y-80201144D01*
X52872361Y-80245647D01*
X52833487Y-80302541D01*
X52791850Y-80237834D01*
X52723947Y-80191438D01*
X52643342Y-80175115D01*
X51862402Y-80175115D01*
X51862405Y-80171177D01*
X51806453Y-80035763D01*
X51785222Y-80014495D01*
X52014742Y-80014495D01*
X52129042Y-79900195D01*
X52129042Y-79825015D01*
X52167142Y-79825015D01*
X52243605Y-79810080D01*
X52310826Y-79765499D01*
X52357642Y-79718683D01*
X52357642Y-79900195D01*
X52471942Y-80014495D01*
X52734285Y-80014495D01*
X52815766Y-79980744D01*
X52925879Y-80026355D01*
X53188222Y-80026355D01*
X53302522Y-79912055D01*
X53302522Y-79245955D01*
X53282522Y-79245955D01*
X53282522Y-79017355D01*
X53302522Y-79017355D01*
X53302522Y-78997355D01*
X53531122Y-78997355D01*
X53531122Y-79017355D01*
X53531122Y-79017355D01*
G37*
X53531122Y-79017355D02*
X53551122Y-79017355D01*
X53551122Y-79245955D01*
X53531122Y-79245955D01*
X53531122Y-79912055D01*
X53645422Y-80026355D01*
X53907765Y-80026355D01*
X54075805Y-79956750D01*
X54204418Y-79828138D01*
X54251434Y-79714629D01*
X54646134Y-80109329D01*
X54661873Y-80119846D01*
X54657562Y-80141135D01*
X54657562Y-80640381D01*
X54606132Y-80640381D01*
X54438091Y-80709986D01*
X54391623Y-80756454D01*
X54384553Y-80739343D01*
X54281039Y-80635648D01*
X54145723Y-80579459D01*
X54024002Y-80579353D01*
X54024002Y-80394155D01*
X54009833Y-80318854D01*
X53965330Y-80249694D01*
X53897427Y-80203298D01*
X53816822Y-80186975D01*
X53016822Y-80186975D01*
X52941521Y-80201144D01*
X52872361Y-80245647D01*
X52833487Y-80302541D01*
X52791850Y-80237834D01*
X52723947Y-80191438D01*
X52643342Y-80175115D01*
X51862402Y-80175115D01*
X51862405Y-80171177D01*
X51806453Y-80035763D01*
X51785222Y-80014495D01*
X52014742Y-80014495D01*
X52129042Y-79900195D01*
X52129042Y-79825015D01*
X52167142Y-79825015D01*
X52243605Y-79810080D01*
X52310826Y-79765499D01*
X52357642Y-79718683D01*
X52357642Y-79900195D01*
X52471942Y-80014495D01*
X52734285Y-80014495D01*
X52815766Y-79980744D01*
X52925879Y-80026355D01*
X53188222Y-80026355D01*
X53302522Y-79912055D01*
X53302522Y-79245955D01*
X53282522Y-79245955D01*
X53282522Y-79017355D01*
X53302522Y-79017355D01*
X53302522Y-78997355D01*
X53531122Y-78997355D01*
X53531122Y-79017355D01*
G36*
X45741006Y-54135534D02*
X45740879Y-54282053D01*
X45796831Y-54417467D01*
X45900345Y-54521162D01*
X46035661Y-54577351D01*
X46182180Y-54577478D01*
X46317594Y-54521526D01*
X46421289Y-54418012D01*
X46477478Y-54282696D01*
X46477605Y-54136177D01*
X46435351Y-54033915D01*
X61383000Y-54033915D01*
X61383000Y-68107595D01*
X61329125Y-68053720D01*
X61161085Y-67984115D01*
X60523742Y-67984115D01*
X60409442Y-68098415D01*
X60409442Y-68827015D01*
X60429442Y-68827015D01*
X60429442Y-69055615D01*
X60409442Y-69055615D01*
X60409442Y-69784215D01*
X60523742Y-69898515D01*
X61161085Y-69898515D01*
X61329125Y-69828910D01*
X61383000Y-69775035D01*
X61383000Y-72616095D01*
X61329125Y-72562220D01*
X61277322Y-72540762D01*
X61277322Y-71641315D01*
X61263153Y-71566014D01*
X61218650Y-71496854D01*
X61150747Y-71450458D01*
X61070142Y-71434135D01*
X60599942Y-71434135D01*
X60599942Y-70604937D01*
X60576740Y-70488295D01*
X60510668Y-70389411D01*
X60019772Y-69898515D01*
X60066542Y-69898515D01*
X60180842Y-69784215D01*
X60180842Y-69055615D01*
X60160842Y-69055615D01*
X60160842Y-68827015D01*
X60180842Y-68827015D01*
X60180842Y-68098415D01*
X60066542Y-67984115D01*
X59534668Y-67984115D01*
X59534668Y-66019874D01*
X59534933Y-66019477D01*
X59560068Y-65893115D01*
X59534933Y-65766753D01*
X59463355Y-65659628D01*
X57522574Y-63718847D01*
X57510799Y-63659652D01*
X57437642Y-63550165D01*
X57437642Y-63006953D01*
X60066479Y-63006953D01*
X60122431Y-63142367D01*
X60225945Y-63246062D01*
X60361261Y-63302251D01*
X60507780Y-63302378D01*
X60643194Y-63246426D01*
X60746889Y-63142912D01*
X60803078Y-63007596D01*
X60803205Y-62861077D01*
X60747253Y-62725663D01*
X60647255Y-62625491D01*
X60681294Y-62611426D01*
X60784989Y-62507912D01*
X60841178Y-62372596D01*
X60841305Y-62226077D01*
X60785353Y-62090663D01*
X60681839Y-61986968D01*
X60546523Y-61930779D01*
X60400004Y-61930652D01*
X60264590Y-61986604D01*
X60160895Y-62090118D01*
X60104706Y-62225434D01*
X60104579Y-62371953D01*
X60160531Y-62507367D01*
X60260529Y-62607539D01*
X60226490Y-62621604D01*
X60122795Y-62725118D01*
X60066606Y-62860434D01*
X60066479Y-63006953D01*
X57437642Y-63006953D01*
X57437642Y-62552840D01*
X57485112Y-62505453D01*
X57564551Y-62314143D01*
X57564732Y-62106996D01*
X57485627Y-61915548D01*
X57339280Y-61768945D01*
X57147970Y-61689506D01*
X56940823Y-61689325D01*
X56749375Y-61768430D01*
X56602772Y-61914777D01*
X56523333Y-62106087D01*
X56523152Y-62313234D01*
X56602257Y-62504682D01*
X56650242Y-62552751D01*
X56650242Y-62873928D01*
X56625729Y-62857549D01*
X56499367Y-62832414D01*
X55683517Y-62832414D01*
X55557155Y-62857549D01*
X55450030Y-62929127D01*
X54937142Y-63442015D01*
X47061456Y-63442015D01*
X46950680Y-63331045D01*
X46759370Y-63251606D01*
X46552223Y-63251425D01*
X46360775Y-63330530D01*
X46214172Y-63476877D01*
X46134733Y-63668187D01*
X46134552Y-63875334D01*
X46213657Y-64066782D01*
X46360004Y-64213385D01*
X46551314Y-64292824D01*
X46758461Y-64293005D01*
X46949909Y-64213900D01*
X47061589Y-64102415D01*
X55073916Y-64102415D01*
X55200278Y-64077280D01*
X55307403Y-64005702D01*
X55820291Y-63492814D01*
X56362593Y-63492814D01*
X56668436Y-63798657D01*
X56680211Y-63857852D01*
X56765554Y-63985577D01*
X56868680Y-64088703D01*
X56996405Y-64174046D01*
X57055600Y-64185821D01*
X58925068Y-66055289D01*
X58925068Y-68241688D01*
X58812480Y-68128903D01*
X58621170Y-68049464D01*
X58414023Y-68049283D01*
X58222575Y-68128388D01*
X58075972Y-68274735D01*
X57996533Y-68466045D01*
X57996352Y-68673192D01*
X58075457Y-68864640D01*
X58221804Y-69011243D01*
X58413114Y-69090682D01*
X58620261Y-69090863D01*
X58811709Y-69011758D01*
X58925068Y-68898597D01*
X58925068Y-69539663D01*
X58948270Y-69656305D01*
X59014342Y-69755189D01*
X59990342Y-70731189D01*
X59990342Y-71434135D01*
X59770440Y-71434135D01*
X59821912Y-71382753D01*
X59901351Y-71191443D01*
X59901532Y-70984296D01*
X59822427Y-70792848D01*
X59676080Y-70646245D01*
X59484770Y-70566806D01*
X59277623Y-70566625D01*
X59101342Y-70639463D01*
X59101342Y-70350815D01*
X59087445Y-70276960D01*
X59043797Y-70209130D01*
X58977198Y-70163624D01*
X58898142Y-70147615D01*
X58554878Y-70147615D01*
X58370838Y-69963575D01*
X58370838Y-69893361D01*
X58351020Y-69793729D01*
X58294583Y-69709266D01*
X57539242Y-68953925D01*
X57539305Y-68880877D01*
X57483353Y-68745463D01*
X57379839Y-68641768D01*
X57244523Y-68585579D01*
X57098004Y-68585452D01*
X56962590Y-68641404D01*
X56858895Y-68744918D01*
X56802706Y-68880234D01*
X56802579Y-69026753D01*
X56858531Y-69162167D01*
X56962045Y-69265862D01*
X57097361Y-69322051D01*
X57171052Y-69322115D01*
X57850138Y-70001201D01*
X57850138Y-70071415D01*
X57865295Y-70147615D01*
X37879642Y-70147615D01*
X37803179Y-70162550D01*
X37735958Y-70207131D01*
X37481958Y-70461131D01*
X37438451Y-70525759D01*
X37422442Y-70604815D01*
X37422442Y-77653315D01*
X37436339Y-77727170D01*
X37479987Y-77795000D01*
X37546586Y-77840506D01*
X37625642Y-77856515D01*
X37760186Y-77856515D01*
X37774242Y-77870595D01*
X37681522Y-77963315D01*
X37681522Y-78516915D01*
X37701522Y-78516915D01*
X37701522Y-78745515D01*
X37681522Y-78745515D01*
X37681522Y-79299115D01*
X37795822Y-79413415D01*
X37933164Y-79413415D01*
X38065238Y-79358709D01*
X37610412Y-79813535D01*
X37382432Y-79813535D01*
X37365292Y-79796395D01*
X37365292Y-79386745D01*
X37452922Y-79299115D01*
X37452922Y-78745515D01*
X37432922Y-78745515D01*
X37432922Y-78516915D01*
X37452922Y-78516915D01*
X37452922Y-77963315D01*
X37365292Y-77875685D01*
X37365292Y-74980274D01*
X37386540Y-74948474D01*
X37409741Y-74831833D01*
X37386540Y-74715191D01*
X37320468Y-74616307D01*
X36522451Y-73818290D01*
X36423567Y-73752218D01*
X36306925Y-73729016D01*
X36266632Y-73729016D01*
X36241341Y-73703725D01*
X36241341Y-69107652D01*
X37661478Y-69107652D01*
X37717430Y-69243066D01*
X37820944Y-69346761D01*
X37956260Y-69402950D01*
X38102779Y-69403077D01*
X38238193Y-69347125D01*
X38341888Y-69243611D01*
X38398077Y-69108295D01*
X38398204Y-68961776D01*
X38342252Y-68826362D01*
X38238738Y-68722667D01*
X38103422Y-68666478D01*
X37956903Y-68666351D01*
X37821489Y-68722303D01*
X37717794Y-68825817D01*
X37661605Y-68961133D01*
X37661478Y-69107652D01*
X36241341Y-69107652D01*
X36241341Y-67032853D01*
X37661478Y-67032853D01*
X37717430Y-67168267D01*
X37820944Y-67271962D01*
X37956260Y-67328151D01*
X38102779Y-67328278D01*
X38238193Y-67272326D01*
X38341888Y-67168812D01*
X38398077Y-67033496D01*
X38398204Y-66886977D01*
X38342252Y-66751563D01*
X38238738Y-66647868D01*
X38103422Y-66591679D01*
X37956903Y-66591552D01*
X37821489Y-66647504D01*
X37717794Y-66751018D01*
X37661605Y-66886334D01*
X37661478Y-67032853D01*
X36241341Y-67032853D01*
X36241341Y-64165193D01*
X37097259Y-64165193D01*
X37153211Y-64300607D01*
X37205272Y-64352759D01*
X37205272Y-65436969D01*
X37189135Y-65453078D01*
X37132946Y-65588394D01*
X37132819Y-65734913D01*
X37188771Y-65870327D01*
X37292285Y-65974022D01*
X37427601Y-66030211D01*
X37574120Y-66030338D01*
X37709534Y-65974386D01*
X37813229Y-65870872D01*
X37869418Y-65735556D01*
X37869545Y-65589037D01*
X37813593Y-65453623D01*
X37725972Y-65365849D01*
X37725972Y-64635815D01*
X39822742Y-64635815D01*
X39822742Y-69766615D01*
X39827953Y-69794310D01*
X39844321Y-69819747D01*
X39869296Y-69836812D01*
X39898942Y-69842815D01*
X56383542Y-69842815D01*
X56411237Y-69837604D01*
X56436674Y-69821236D01*
X56453739Y-69796261D01*
X56459742Y-69766615D01*
X56459742Y-64762815D01*
X56454531Y-64735120D01*
X56438163Y-64709683D01*
X56413188Y-64692618D01*
X56383542Y-64686615D01*
X39990187Y-64686615D01*
X39972867Y-64617334D01*
X39955010Y-64584212D01*
X39930516Y-64566464D01*
X39901047Y-64559644D01*
X39871247Y-64564826D01*
X39845810Y-64581194D01*
X39828745Y-64606169D01*
X39822742Y-64635815D01*
X37725972Y-64635815D01*
X37725972Y-64352759D01*
X37777669Y-64301152D01*
X37833858Y-64165836D01*
X37833985Y-64019317D01*
X37778033Y-63883903D01*
X37674519Y-63780208D01*
X37539203Y-63724019D01*
X37392684Y-63723892D01*
X37257270Y-63779844D01*
X37153575Y-63883358D01*
X37097386Y-64018674D01*
X37097259Y-64165193D01*
X36241341Y-64165193D01*
X36241341Y-63299053D01*
X40470379Y-63299053D01*
X40526331Y-63434467D01*
X40629845Y-63538162D01*
X40765161Y-63594351D01*
X40911680Y-63594478D01*
X41047094Y-63538526D01*
X41150789Y-63435012D01*
X41206978Y-63299696D01*
X41207077Y-63184753D01*
X43391379Y-63184753D01*
X43447331Y-63320167D01*
X43550845Y-63423862D01*
X43686161Y-63480051D01*
X43832680Y-63480178D01*
X43968094Y-63424226D01*
X44071789Y-63320712D01*
X44127978Y-63185396D01*
X44128105Y-63038877D01*
X44072153Y-62903463D01*
X43968639Y-62799768D01*
X43833323Y-62743579D01*
X43686804Y-62743452D01*
X43551390Y-62799404D01*
X43447695Y-62902918D01*
X43391506Y-63038234D01*
X43391379Y-63184753D01*
X41207077Y-63184753D01*
X41207105Y-63153177D01*
X41151153Y-63017763D01*
X41047639Y-62914068D01*
X40912323Y-62857879D01*
X40765804Y-62857752D01*
X40630390Y-62913704D01*
X40526695Y-63017218D01*
X40470506Y-63152534D01*
X40470379Y-63299053D01*
X36241341Y-63299053D01*
X36241341Y-62270353D01*
X37015979Y-62270353D01*
X37071931Y-62405767D01*
X37175445Y-62509462D01*
X37310761Y-62565651D01*
X37457280Y-62565778D01*
X37557536Y-62524353D01*
X40952979Y-62524353D01*
X41008931Y-62659767D01*
X41112445Y-62763462D01*
X41247761Y-62819651D01*
X41394280Y-62819778D01*
X41529694Y-62763826D01*
X41633389Y-62660312D01*
X41689578Y-62524996D01*
X41689705Y-62378477D01*
X41633753Y-62243063D01*
X41530239Y-62139368D01*
X41394923Y-62083179D01*
X41248404Y-62083052D01*
X41112990Y-62139004D01*
X41009295Y-62242518D01*
X40953106Y-62377834D01*
X40952979Y-62524353D01*
X37557536Y-62524353D01*
X37592694Y-62509826D01*
X37696389Y-62406312D01*
X37752578Y-62270996D01*
X37752705Y-62124477D01*
X37696753Y-61989063D01*
X37593239Y-61885368D01*
X37457923Y-61829179D01*
X37311404Y-61829052D01*
X37175990Y-61885004D01*
X37072295Y-61988518D01*
X37016106Y-62123834D01*
X37015979Y-62270353D01*
X36241341Y-62270353D01*
X36241341Y-61152753D01*
X41321279Y-61152753D01*
X41377231Y-61288167D01*
X41480745Y-61391862D01*
X41616061Y-61448051D01*
X41762580Y-61448178D01*
X41897994Y-61392226D01*
X42001689Y-61288712D01*
X42057878Y-61153396D01*
X42058005Y-61006877D01*
X42002053Y-60871463D01*
X41898539Y-60767768D01*
X41763223Y-60711579D01*
X41616704Y-60711452D01*
X41481290Y-60767404D01*
X41377595Y-60870918D01*
X41321406Y-61006234D01*
X41321279Y-61152753D01*
X36241341Y-61152753D01*
X36241341Y-60053983D01*
X36971618Y-60053983D01*
X37127821Y-60313948D01*
X37816241Y-60582205D01*
X38554917Y-60566596D01*
X39164863Y-60313948D01*
X39188918Y-60273913D01*
X51143459Y-60273913D01*
X51199411Y-60409327D01*
X51302925Y-60513022D01*
X51438241Y-60569211D01*
X51584760Y-60569338D01*
X51720174Y-60513386D01*
X51823869Y-60409872D01*
X51880058Y-60274556D01*
X51880185Y-60128037D01*
X51849587Y-60053983D01*
X56971618Y-60053983D01*
X57127821Y-60313948D01*
X57816241Y-60582205D01*
X58554917Y-60566596D01*
X59164863Y-60313948D01*
X59321066Y-60053983D01*
X58146342Y-58879260D01*
X56971618Y-60053983D01*
X51849587Y-60053983D01*
X51824233Y-59992623D01*
X51720719Y-59888928D01*
X51585403Y-59832739D01*
X51438884Y-59832612D01*
X51303470Y-59888564D01*
X51199775Y-59992078D01*
X51143586Y-60127394D01*
X51143459Y-60273913D01*
X39188918Y-60273913D01*
X39321066Y-60053983D01*
X38146342Y-58879260D01*
X36971618Y-60053983D01*
X36241341Y-60053983D01*
X36241341Y-58387514D01*
X36281752Y-58387514D01*
X36297361Y-59126190D01*
X36550009Y-59736136D01*
X36809974Y-59892339D01*
X37984697Y-58717615D01*
X38307987Y-58717615D01*
X39482710Y-59892339D01*
X39742675Y-59736136D01*
X39871618Y-59405233D01*
X42756379Y-59405233D01*
X42812331Y-59540647D01*
X42915845Y-59644342D01*
X43051161Y-59700531D01*
X43197680Y-59700658D01*
X43333094Y-59644706D01*
X43436789Y-59541192D01*
X43492978Y-59405876D01*
X43493105Y-59259357D01*
X43437153Y-59123943D01*
X43333639Y-59020248D01*
X43198323Y-58964059D01*
X43051804Y-58963932D01*
X42916390Y-59019884D01*
X42812695Y-59123398D01*
X42756506Y-59258714D01*
X42756379Y-59405233D01*
X39871618Y-59405233D01*
X40010932Y-59047716D01*
X39997447Y-58409553D01*
X49385779Y-58409553D01*
X49441731Y-58544967D01*
X49545245Y-58648662D01*
X49680561Y-58704851D01*
X49827080Y-58704978D01*
X49962494Y-58649026D01*
X50066189Y-58545512D01*
X50122378Y-58410196D01*
X50122397Y-58387514D01*
X56281752Y-58387514D01*
X56297361Y-59126190D01*
X56550009Y-59736136D01*
X56809974Y-59892339D01*
X57984697Y-58717615D01*
X58307987Y-58717615D01*
X59482710Y-59892339D01*
X59742675Y-59736136D01*
X60010932Y-59047716D01*
X59995323Y-58309040D01*
X59742675Y-57699094D01*
X59482710Y-57542891D01*
X58307987Y-58717615D01*
X57984697Y-58717615D01*
X56809974Y-57542891D01*
X56550009Y-57699094D01*
X56281752Y-58387514D01*
X50122397Y-58387514D01*
X50122505Y-58263677D01*
X50066553Y-58128263D01*
X49963039Y-58024568D01*
X49827723Y-57968379D01*
X49681204Y-57968252D01*
X49545790Y-58024204D01*
X49442095Y-58127718D01*
X49385906Y-58263034D01*
X49385779Y-58409553D01*
X39997447Y-58409553D01*
X39995323Y-58309040D01*
X39742675Y-57699094D01*
X39482710Y-57542891D01*
X38307987Y-58717615D01*
X37984697Y-58717615D01*
X36809974Y-57542891D01*
X36550009Y-57699094D01*
X36281752Y-58387514D01*
X36241341Y-58387514D01*
X36241341Y-57381247D01*
X36971618Y-57381247D01*
X38146342Y-58555970D01*
X39321066Y-57381247D01*
X56971618Y-57381247D01*
X58146342Y-58555970D01*
X59321066Y-57381247D01*
X59221628Y-57215753D01*
X60295079Y-57215753D01*
X60351031Y-57351167D01*
X60454545Y-57454862D01*
X60589861Y-57511051D01*
X60736380Y-57511178D01*
X60871794Y-57455226D01*
X60975489Y-57351712D01*
X61031678Y-57216396D01*
X61031805Y-57069877D01*
X60975853Y-56934463D01*
X60872339Y-56830768D01*
X60737023Y-56774579D01*
X60590504Y-56774452D01*
X60455090Y-56830404D01*
X60351395Y-56933918D01*
X60295206Y-57069234D01*
X60295079Y-57215753D01*
X59221628Y-57215753D01*
X59164863Y-57121282D01*
X58476443Y-56853025D01*
X57737767Y-56868634D01*
X57127821Y-57121282D01*
X56971618Y-57381247D01*
X39321066Y-57381247D01*
X39164863Y-57121282D01*
X38476443Y-56853025D01*
X37737767Y-56868634D01*
X37127821Y-57121282D01*
X36971618Y-57381247D01*
X36241341Y-57381247D01*
X36241341Y-57063966D01*
X37045142Y-56260165D01*
X37770422Y-56260165D01*
X37870054Y-56240347D01*
X37954517Y-56183910D01*
X38598353Y-55540075D01*
X38671400Y-55540138D01*
X38806814Y-55484186D01*
X38910509Y-55380672D01*
X38966698Y-55245356D01*
X38966825Y-55098837D01*
X38910873Y-54963423D01*
X38807359Y-54859728D01*
X38731320Y-54828153D01*
X41054579Y-54828153D01*
X41110531Y-54963567D01*
X41214045Y-55067262D01*
X41349361Y-55123451D01*
X41495880Y-55123578D01*
X41631294Y-55067626D01*
X41734989Y-54964112D01*
X41791178Y-54828796D01*
X41791189Y-54815453D01*
X56485079Y-54815453D01*
X56541031Y-54950867D01*
X56644545Y-55054562D01*
X56779861Y-55110751D01*
X56926380Y-55110878D01*
X57061794Y-55054926D01*
X57142069Y-54974791D01*
X60551619Y-54974791D01*
X60607571Y-55110205D01*
X60711085Y-55213900D01*
X60846401Y-55270089D01*
X60992920Y-55270216D01*
X61128334Y-55214264D01*
X61232029Y-55110750D01*
X61288218Y-54975434D01*
X61288345Y-54828915D01*
X61232393Y-54693501D01*
X61128879Y-54589806D01*
X60993563Y-54533617D01*
X60847044Y-54533490D01*
X60711630Y-54589442D01*
X60607935Y-54692956D01*
X60551746Y-54828272D01*
X60551619Y-54974791D01*
X57142069Y-54974791D01*
X57165489Y-54951412D01*
X57221678Y-54816096D01*
X57221805Y-54669577D01*
X57165853Y-54534163D01*
X57062339Y-54430468D01*
X56927023Y-54374279D01*
X56780504Y-54374152D01*
X56645090Y-54430104D01*
X56541395Y-54533618D01*
X56485206Y-54668934D01*
X56485079Y-54815453D01*
X41791189Y-54815453D01*
X41791305Y-54682277D01*
X41735353Y-54546863D01*
X41631839Y-54443168D01*
X41496523Y-54386979D01*
X41350004Y-54386852D01*
X41214590Y-54442804D01*
X41110895Y-54546318D01*
X41054706Y-54681634D01*
X41054579Y-54828153D01*
X38731320Y-54828153D01*
X38672043Y-54803539D01*
X38525524Y-54803412D01*
X38390110Y-54859364D01*
X38286415Y-54962878D01*
X38230226Y-55098194D01*
X38230162Y-55171884D01*
X37662582Y-55739465D01*
X36937302Y-55739465D01*
X36837670Y-55759283D01*
X36753207Y-55815720D01*
X35796896Y-56772031D01*
X35740459Y-56856494D01*
X35720641Y-56956126D01*
X35720641Y-73811565D01*
X35740459Y-73911197D01*
X35744453Y-73917174D01*
X35796896Y-73995660D01*
X35914182Y-74112947D01*
X35921644Y-74150458D01*
X35987716Y-74249342D01*
X36086600Y-74315414D01*
X36175069Y-74333012D01*
X36330652Y-74488595D01*
X35130262Y-74488595D01*
X35054961Y-74502764D01*
X35041000Y-74511748D01*
X35041000Y-54033915D01*
X45783203Y-54033915D01*
X45741006Y-54135534D01*
X45741006Y-54135534D01*
G37*
X45741006Y-54135534D02*
X45740879Y-54282053D01*
X45796831Y-54417467D01*
X45900345Y-54521162D01*
X46035661Y-54577351D01*
X46182180Y-54577478D01*
X46317594Y-54521526D01*
X46421289Y-54418012D01*
X46477478Y-54282696D01*
X46477605Y-54136177D01*
X46435351Y-54033915D01*
X61383000Y-54033915D01*
X61383000Y-68107595D01*
X61329125Y-68053720D01*
X61161085Y-67984115D01*
X60523742Y-67984115D01*
X60409442Y-68098415D01*
X60409442Y-68827015D01*
X60429442Y-68827015D01*
X60429442Y-69055615D01*
X60409442Y-69055615D01*
X60409442Y-69784215D01*
X60523742Y-69898515D01*
X61161085Y-69898515D01*
X61329125Y-69828910D01*
X61383000Y-69775035D01*
X61383000Y-72616095D01*
X61329125Y-72562220D01*
X61277322Y-72540762D01*
X61277322Y-71641315D01*
X61263153Y-71566014D01*
X61218650Y-71496854D01*
X61150747Y-71450458D01*
X61070142Y-71434135D01*
X60599942Y-71434135D01*
X60599942Y-70604937D01*
X60576740Y-70488295D01*
X60510668Y-70389411D01*
X60019772Y-69898515D01*
X60066542Y-69898515D01*
X60180842Y-69784215D01*
X60180842Y-69055615D01*
X60160842Y-69055615D01*
X60160842Y-68827015D01*
X60180842Y-68827015D01*
X60180842Y-68098415D01*
X60066542Y-67984115D01*
X59534668Y-67984115D01*
X59534668Y-66019874D01*
X59534933Y-66019477D01*
X59560068Y-65893115D01*
X59534933Y-65766753D01*
X59463355Y-65659628D01*
X57522574Y-63718847D01*
X57510799Y-63659652D01*
X57437642Y-63550165D01*
X57437642Y-63006953D01*
X60066479Y-63006953D01*
X60122431Y-63142367D01*
X60225945Y-63246062D01*
X60361261Y-63302251D01*
X60507780Y-63302378D01*
X60643194Y-63246426D01*
X60746889Y-63142912D01*
X60803078Y-63007596D01*
X60803205Y-62861077D01*
X60747253Y-62725663D01*
X60647255Y-62625491D01*
X60681294Y-62611426D01*
X60784989Y-62507912D01*
X60841178Y-62372596D01*
X60841305Y-62226077D01*
X60785353Y-62090663D01*
X60681839Y-61986968D01*
X60546523Y-61930779D01*
X60400004Y-61930652D01*
X60264590Y-61986604D01*
X60160895Y-62090118D01*
X60104706Y-62225434D01*
X60104579Y-62371953D01*
X60160531Y-62507367D01*
X60260529Y-62607539D01*
X60226490Y-62621604D01*
X60122795Y-62725118D01*
X60066606Y-62860434D01*
X60066479Y-63006953D01*
X57437642Y-63006953D01*
X57437642Y-62552840D01*
X57485112Y-62505453D01*
X57564551Y-62314143D01*
X57564732Y-62106996D01*
X57485627Y-61915548D01*
X57339280Y-61768945D01*
X57147970Y-61689506D01*
X56940823Y-61689325D01*
X56749375Y-61768430D01*
X56602772Y-61914777D01*
X56523333Y-62106087D01*
X56523152Y-62313234D01*
X56602257Y-62504682D01*
X56650242Y-62552751D01*
X56650242Y-62873928D01*
X56625729Y-62857549D01*
X56499367Y-62832414D01*
X55683517Y-62832414D01*
X55557155Y-62857549D01*
X55450030Y-62929127D01*
X54937142Y-63442015D01*
X47061456Y-63442015D01*
X46950680Y-63331045D01*
X46759370Y-63251606D01*
X46552223Y-63251425D01*
X46360775Y-63330530D01*
X46214172Y-63476877D01*
X46134733Y-63668187D01*
X46134552Y-63875334D01*
X46213657Y-64066782D01*
X46360004Y-64213385D01*
X46551314Y-64292824D01*
X46758461Y-64293005D01*
X46949909Y-64213900D01*
X47061589Y-64102415D01*
X55073916Y-64102415D01*
X55200278Y-64077280D01*
X55307403Y-64005702D01*
X55820291Y-63492814D01*
X56362593Y-63492814D01*
X56668436Y-63798657D01*
X56680211Y-63857852D01*
X56765554Y-63985577D01*
X56868680Y-64088703D01*
X56996405Y-64174046D01*
X57055600Y-64185821D01*
X58925068Y-66055289D01*
X58925068Y-68241688D01*
X58812480Y-68128903D01*
X58621170Y-68049464D01*
X58414023Y-68049283D01*
X58222575Y-68128388D01*
X58075972Y-68274735D01*
X57996533Y-68466045D01*
X57996352Y-68673192D01*
X58075457Y-68864640D01*
X58221804Y-69011243D01*
X58413114Y-69090682D01*
X58620261Y-69090863D01*
X58811709Y-69011758D01*
X58925068Y-68898597D01*
X58925068Y-69539663D01*
X58948270Y-69656305D01*
X59014342Y-69755189D01*
X59990342Y-70731189D01*
X59990342Y-71434135D01*
X59770440Y-71434135D01*
X59821912Y-71382753D01*
X59901351Y-71191443D01*
X59901532Y-70984296D01*
X59822427Y-70792848D01*
X59676080Y-70646245D01*
X59484770Y-70566806D01*
X59277623Y-70566625D01*
X59101342Y-70639463D01*
X59101342Y-70350815D01*
X59087445Y-70276960D01*
X59043797Y-70209130D01*
X58977198Y-70163624D01*
X58898142Y-70147615D01*
X58554878Y-70147615D01*
X58370838Y-69963575D01*
X58370838Y-69893361D01*
X58351020Y-69793729D01*
X58294583Y-69709266D01*
X57539242Y-68953925D01*
X57539305Y-68880877D01*
X57483353Y-68745463D01*
X57379839Y-68641768D01*
X57244523Y-68585579D01*
X57098004Y-68585452D01*
X56962590Y-68641404D01*
X56858895Y-68744918D01*
X56802706Y-68880234D01*
X56802579Y-69026753D01*
X56858531Y-69162167D01*
X56962045Y-69265862D01*
X57097361Y-69322051D01*
X57171052Y-69322115D01*
X57850138Y-70001201D01*
X57850138Y-70071415D01*
X57865295Y-70147615D01*
X37879642Y-70147615D01*
X37803179Y-70162550D01*
X37735958Y-70207131D01*
X37481958Y-70461131D01*
X37438451Y-70525759D01*
X37422442Y-70604815D01*
X37422442Y-77653315D01*
X37436339Y-77727170D01*
X37479987Y-77795000D01*
X37546586Y-77840506D01*
X37625642Y-77856515D01*
X37760186Y-77856515D01*
X37774242Y-77870595D01*
X37681522Y-77963315D01*
X37681522Y-78516915D01*
X37701522Y-78516915D01*
X37701522Y-78745515D01*
X37681522Y-78745515D01*
X37681522Y-79299115D01*
X37795822Y-79413415D01*
X37933164Y-79413415D01*
X38065238Y-79358709D01*
X37610412Y-79813535D01*
X37382432Y-79813535D01*
X37365292Y-79796395D01*
X37365292Y-79386745D01*
X37452922Y-79299115D01*
X37452922Y-78745515D01*
X37432922Y-78745515D01*
X37432922Y-78516915D01*
X37452922Y-78516915D01*
X37452922Y-77963315D01*
X37365292Y-77875685D01*
X37365292Y-74980274D01*
X37386540Y-74948474D01*
X37409741Y-74831833D01*
X37386540Y-74715191D01*
X37320468Y-74616307D01*
X36522451Y-73818290D01*
X36423567Y-73752218D01*
X36306925Y-73729016D01*
X36266632Y-73729016D01*
X36241341Y-73703725D01*
X36241341Y-69107652D01*
X37661478Y-69107652D01*
X37717430Y-69243066D01*
X37820944Y-69346761D01*
X37956260Y-69402950D01*
X38102779Y-69403077D01*
X38238193Y-69347125D01*
X38341888Y-69243611D01*
X38398077Y-69108295D01*
X38398204Y-68961776D01*
X38342252Y-68826362D01*
X38238738Y-68722667D01*
X38103422Y-68666478D01*
X37956903Y-68666351D01*
X37821489Y-68722303D01*
X37717794Y-68825817D01*
X37661605Y-68961133D01*
X37661478Y-69107652D01*
X36241341Y-69107652D01*
X36241341Y-67032853D01*
X37661478Y-67032853D01*
X37717430Y-67168267D01*
X37820944Y-67271962D01*
X37956260Y-67328151D01*
X38102779Y-67328278D01*
X38238193Y-67272326D01*
X38341888Y-67168812D01*
X38398077Y-67033496D01*
X38398204Y-66886977D01*
X38342252Y-66751563D01*
X38238738Y-66647868D01*
X38103422Y-66591679D01*
X37956903Y-66591552D01*
X37821489Y-66647504D01*
X37717794Y-66751018D01*
X37661605Y-66886334D01*
X37661478Y-67032853D01*
X36241341Y-67032853D01*
X36241341Y-64165193D01*
X37097259Y-64165193D01*
X37153211Y-64300607D01*
X37205272Y-64352759D01*
X37205272Y-65436969D01*
X37189135Y-65453078D01*
X37132946Y-65588394D01*
X37132819Y-65734913D01*
X37188771Y-65870327D01*
X37292285Y-65974022D01*
X37427601Y-66030211D01*
X37574120Y-66030338D01*
X37709534Y-65974386D01*
X37813229Y-65870872D01*
X37869418Y-65735556D01*
X37869545Y-65589037D01*
X37813593Y-65453623D01*
X37725972Y-65365849D01*
X37725972Y-64635815D01*
X39822742Y-64635815D01*
X39822742Y-69766615D01*
X39827953Y-69794310D01*
X39844321Y-69819747D01*
X39869296Y-69836812D01*
X39898942Y-69842815D01*
X56383542Y-69842815D01*
X56411237Y-69837604D01*
X56436674Y-69821236D01*
X56453739Y-69796261D01*
X56459742Y-69766615D01*
X56459742Y-64762815D01*
X56454531Y-64735120D01*
X56438163Y-64709683D01*
X56413188Y-64692618D01*
X56383542Y-64686615D01*
X39990187Y-64686615D01*
X39972867Y-64617334D01*
X39955010Y-64584212D01*
X39930516Y-64566464D01*
X39901047Y-64559644D01*
X39871247Y-64564826D01*
X39845810Y-64581194D01*
X39828745Y-64606169D01*
X39822742Y-64635815D01*
X37725972Y-64635815D01*
X37725972Y-64352759D01*
X37777669Y-64301152D01*
X37833858Y-64165836D01*
X37833985Y-64019317D01*
X37778033Y-63883903D01*
X37674519Y-63780208D01*
X37539203Y-63724019D01*
X37392684Y-63723892D01*
X37257270Y-63779844D01*
X37153575Y-63883358D01*
X37097386Y-64018674D01*
X37097259Y-64165193D01*
X36241341Y-64165193D01*
X36241341Y-63299053D01*
X40470379Y-63299053D01*
X40526331Y-63434467D01*
X40629845Y-63538162D01*
X40765161Y-63594351D01*
X40911680Y-63594478D01*
X41047094Y-63538526D01*
X41150789Y-63435012D01*
X41206978Y-63299696D01*
X41207077Y-63184753D01*
X43391379Y-63184753D01*
X43447331Y-63320167D01*
X43550845Y-63423862D01*
X43686161Y-63480051D01*
X43832680Y-63480178D01*
X43968094Y-63424226D01*
X44071789Y-63320712D01*
X44127978Y-63185396D01*
X44128105Y-63038877D01*
X44072153Y-62903463D01*
X43968639Y-62799768D01*
X43833323Y-62743579D01*
X43686804Y-62743452D01*
X43551390Y-62799404D01*
X43447695Y-62902918D01*
X43391506Y-63038234D01*
X43391379Y-63184753D01*
X41207077Y-63184753D01*
X41207105Y-63153177D01*
X41151153Y-63017763D01*
X41047639Y-62914068D01*
X40912323Y-62857879D01*
X40765804Y-62857752D01*
X40630390Y-62913704D01*
X40526695Y-63017218D01*
X40470506Y-63152534D01*
X40470379Y-63299053D01*
X36241341Y-63299053D01*
X36241341Y-62270353D01*
X37015979Y-62270353D01*
X37071931Y-62405767D01*
X37175445Y-62509462D01*
X37310761Y-62565651D01*
X37457280Y-62565778D01*
X37557536Y-62524353D01*
X40952979Y-62524353D01*
X41008931Y-62659767D01*
X41112445Y-62763462D01*
X41247761Y-62819651D01*
X41394280Y-62819778D01*
X41529694Y-62763826D01*
X41633389Y-62660312D01*
X41689578Y-62524996D01*
X41689705Y-62378477D01*
X41633753Y-62243063D01*
X41530239Y-62139368D01*
X41394923Y-62083179D01*
X41248404Y-62083052D01*
X41112990Y-62139004D01*
X41009295Y-62242518D01*
X40953106Y-62377834D01*
X40952979Y-62524353D01*
X37557536Y-62524353D01*
X37592694Y-62509826D01*
X37696389Y-62406312D01*
X37752578Y-62270996D01*
X37752705Y-62124477D01*
X37696753Y-61989063D01*
X37593239Y-61885368D01*
X37457923Y-61829179D01*
X37311404Y-61829052D01*
X37175990Y-61885004D01*
X37072295Y-61988518D01*
X37016106Y-62123834D01*
X37015979Y-62270353D01*
X36241341Y-62270353D01*
X36241341Y-61152753D01*
X41321279Y-61152753D01*
X41377231Y-61288167D01*
X41480745Y-61391862D01*
X41616061Y-61448051D01*
X41762580Y-61448178D01*
X41897994Y-61392226D01*
X42001689Y-61288712D01*
X42057878Y-61153396D01*
X42058005Y-61006877D01*
X42002053Y-60871463D01*
X41898539Y-60767768D01*
X41763223Y-60711579D01*
X41616704Y-60711452D01*
X41481290Y-60767404D01*
X41377595Y-60870918D01*
X41321406Y-61006234D01*
X41321279Y-61152753D01*
X36241341Y-61152753D01*
X36241341Y-60053983D01*
X36971618Y-60053983D01*
X37127821Y-60313948D01*
X37816241Y-60582205D01*
X38554917Y-60566596D01*
X39164863Y-60313948D01*
X39188918Y-60273913D01*
X51143459Y-60273913D01*
X51199411Y-60409327D01*
X51302925Y-60513022D01*
X51438241Y-60569211D01*
X51584760Y-60569338D01*
X51720174Y-60513386D01*
X51823869Y-60409872D01*
X51880058Y-60274556D01*
X51880185Y-60128037D01*
X51849587Y-60053983D01*
X56971618Y-60053983D01*
X57127821Y-60313948D01*
X57816241Y-60582205D01*
X58554917Y-60566596D01*
X59164863Y-60313948D01*
X59321066Y-60053983D01*
X58146342Y-58879260D01*
X56971618Y-60053983D01*
X51849587Y-60053983D01*
X51824233Y-59992623D01*
X51720719Y-59888928D01*
X51585403Y-59832739D01*
X51438884Y-59832612D01*
X51303470Y-59888564D01*
X51199775Y-59992078D01*
X51143586Y-60127394D01*
X51143459Y-60273913D01*
X39188918Y-60273913D01*
X39321066Y-60053983D01*
X38146342Y-58879260D01*
X36971618Y-60053983D01*
X36241341Y-60053983D01*
X36241341Y-58387514D01*
X36281752Y-58387514D01*
X36297361Y-59126190D01*
X36550009Y-59736136D01*
X36809974Y-59892339D01*
X37984697Y-58717615D01*
X38307987Y-58717615D01*
X39482710Y-59892339D01*
X39742675Y-59736136D01*
X39871618Y-59405233D01*
X42756379Y-59405233D01*
X42812331Y-59540647D01*
X42915845Y-59644342D01*
X43051161Y-59700531D01*
X43197680Y-59700658D01*
X43333094Y-59644706D01*
X43436789Y-59541192D01*
X43492978Y-59405876D01*
X43493105Y-59259357D01*
X43437153Y-59123943D01*
X43333639Y-59020248D01*
X43198323Y-58964059D01*
X43051804Y-58963932D01*
X42916390Y-59019884D01*
X42812695Y-59123398D01*
X42756506Y-59258714D01*
X42756379Y-59405233D01*
X39871618Y-59405233D01*
X40010932Y-59047716D01*
X39997447Y-58409553D01*
X49385779Y-58409553D01*
X49441731Y-58544967D01*
X49545245Y-58648662D01*
X49680561Y-58704851D01*
X49827080Y-58704978D01*
X49962494Y-58649026D01*
X50066189Y-58545512D01*
X50122378Y-58410196D01*
X50122397Y-58387514D01*
X56281752Y-58387514D01*
X56297361Y-59126190D01*
X56550009Y-59736136D01*
X56809974Y-59892339D01*
X57984697Y-58717615D01*
X58307987Y-58717615D01*
X59482710Y-59892339D01*
X59742675Y-59736136D01*
X60010932Y-59047716D01*
X59995323Y-58309040D01*
X59742675Y-57699094D01*
X59482710Y-57542891D01*
X58307987Y-58717615D01*
X57984697Y-58717615D01*
X56809974Y-57542891D01*
X56550009Y-57699094D01*
X56281752Y-58387514D01*
X50122397Y-58387514D01*
X50122505Y-58263677D01*
X50066553Y-58128263D01*
X49963039Y-58024568D01*
X49827723Y-57968379D01*
X49681204Y-57968252D01*
X49545790Y-58024204D01*
X49442095Y-58127718D01*
X49385906Y-58263034D01*
X49385779Y-58409553D01*
X39997447Y-58409553D01*
X39995323Y-58309040D01*
X39742675Y-57699094D01*
X39482710Y-57542891D01*
X38307987Y-58717615D01*
X37984697Y-58717615D01*
X36809974Y-57542891D01*
X36550009Y-57699094D01*
X36281752Y-58387514D01*
X36241341Y-58387514D01*
X36241341Y-57381247D01*
X36971618Y-57381247D01*
X38146342Y-58555970D01*
X39321066Y-57381247D01*
X56971618Y-57381247D01*
X58146342Y-58555970D01*
X59321066Y-57381247D01*
X59221628Y-57215753D01*
X60295079Y-57215753D01*
X60351031Y-57351167D01*
X60454545Y-57454862D01*
X60589861Y-57511051D01*
X60736380Y-57511178D01*
X60871794Y-57455226D01*
X60975489Y-57351712D01*
X61031678Y-57216396D01*
X61031805Y-57069877D01*
X60975853Y-56934463D01*
X60872339Y-56830768D01*
X60737023Y-56774579D01*
X60590504Y-56774452D01*
X60455090Y-56830404D01*
X60351395Y-56933918D01*
X60295206Y-57069234D01*
X60295079Y-57215753D01*
X59221628Y-57215753D01*
X59164863Y-57121282D01*
X58476443Y-56853025D01*
X57737767Y-56868634D01*
X57127821Y-57121282D01*
X56971618Y-57381247D01*
X39321066Y-57381247D01*
X39164863Y-57121282D01*
X38476443Y-56853025D01*
X37737767Y-56868634D01*
X37127821Y-57121282D01*
X36971618Y-57381247D01*
X36241341Y-57381247D01*
X36241341Y-57063966D01*
X37045142Y-56260165D01*
X37770422Y-56260165D01*
X37870054Y-56240347D01*
X37954517Y-56183910D01*
X38598353Y-55540075D01*
X38671400Y-55540138D01*
X38806814Y-55484186D01*
X38910509Y-55380672D01*
X38966698Y-55245356D01*
X38966825Y-55098837D01*
X38910873Y-54963423D01*
X38807359Y-54859728D01*
X38731320Y-54828153D01*
X41054579Y-54828153D01*
X41110531Y-54963567D01*
X41214045Y-55067262D01*
X41349361Y-55123451D01*
X41495880Y-55123578D01*
X41631294Y-55067626D01*
X41734989Y-54964112D01*
X41791178Y-54828796D01*
X41791189Y-54815453D01*
X56485079Y-54815453D01*
X56541031Y-54950867D01*
X56644545Y-55054562D01*
X56779861Y-55110751D01*
X56926380Y-55110878D01*
X57061794Y-55054926D01*
X57142069Y-54974791D01*
X60551619Y-54974791D01*
X60607571Y-55110205D01*
X60711085Y-55213900D01*
X60846401Y-55270089D01*
X60992920Y-55270216D01*
X61128334Y-55214264D01*
X61232029Y-55110750D01*
X61288218Y-54975434D01*
X61288345Y-54828915D01*
X61232393Y-54693501D01*
X61128879Y-54589806D01*
X60993563Y-54533617D01*
X60847044Y-54533490D01*
X60711630Y-54589442D01*
X60607935Y-54692956D01*
X60551746Y-54828272D01*
X60551619Y-54974791D01*
X57142069Y-54974791D01*
X57165489Y-54951412D01*
X57221678Y-54816096D01*
X57221805Y-54669577D01*
X57165853Y-54534163D01*
X57062339Y-54430468D01*
X56927023Y-54374279D01*
X56780504Y-54374152D01*
X56645090Y-54430104D01*
X56541395Y-54533618D01*
X56485206Y-54668934D01*
X56485079Y-54815453D01*
X41791189Y-54815453D01*
X41791305Y-54682277D01*
X41735353Y-54546863D01*
X41631839Y-54443168D01*
X41496523Y-54386979D01*
X41350004Y-54386852D01*
X41214590Y-54442804D01*
X41110895Y-54546318D01*
X41054706Y-54681634D01*
X41054579Y-54828153D01*
X38731320Y-54828153D01*
X38672043Y-54803539D01*
X38525524Y-54803412D01*
X38390110Y-54859364D01*
X38286415Y-54962878D01*
X38230226Y-55098194D01*
X38230162Y-55171884D01*
X37662582Y-55739465D01*
X36937302Y-55739465D01*
X36837670Y-55759283D01*
X36753207Y-55815720D01*
X35796896Y-56772031D01*
X35740459Y-56856494D01*
X35720641Y-56956126D01*
X35720641Y-73811565D01*
X35740459Y-73911197D01*
X35744453Y-73917174D01*
X35796896Y-73995660D01*
X35914182Y-74112947D01*
X35921644Y-74150458D01*
X35987716Y-74249342D01*
X36086600Y-74315414D01*
X36175069Y-74333012D01*
X36330652Y-74488595D01*
X35130262Y-74488595D01*
X35054961Y-74502764D01*
X35041000Y-74511748D01*
X35041000Y-54033915D01*
X45783203Y-54033915D01*
X45741006Y-54135534D01*
G36*
X39650922Y-78648995D02*
X39670922Y-78648995D01*
X39670922Y-78877595D01*
X39650922Y-78877595D01*
X39650922Y-78897595D01*
X39422322Y-78897595D01*
X39422322Y-78877595D01*
X39402322Y-78877595D01*
X39402322Y-78648995D01*
X39422322Y-78648995D01*
X39422322Y-78628995D01*
X39650922Y-78628995D01*
X39650922Y-78648995D01*
X39650922Y-78648995D01*
G37*
X39650922Y-78648995D02*
X39670922Y-78648995D01*
X39670922Y-78877595D01*
X39650922Y-78877595D01*
X39650922Y-78897595D01*
X39422322Y-78897595D01*
X39422322Y-78877595D01*
X39402322Y-78877595D01*
X39402322Y-78648995D01*
X39422322Y-78648995D01*
X39422322Y-78628995D01*
X39650922Y-78628995D01*
X39650922Y-78648995D01*
G36*
X60409442Y-73335515D02*
X60429442Y-73335515D01*
X60429442Y-73564115D01*
X60409442Y-73564115D01*
X60409442Y-74292715D01*
X60523742Y-74407015D01*
X61161085Y-74407015D01*
X61329125Y-74337410D01*
X61383000Y-74283535D01*
X61383000Y-77412688D01*
X61350642Y-77406135D01*
X60434842Y-77406135D01*
X60434842Y-77356995D01*
X61070142Y-77356995D01*
X61145443Y-77342826D01*
X61214603Y-77298323D01*
X61260999Y-77230420D01*
X61277322Y-77149815D01*
X61277322Y-76149815D01*
X61263153Y-76074514D01*
X61218650Y-76005354D01*
X61150747Y-75958958D01*
X61070142Y-75942635D01*
X60688842Y-75942635D01*
X60688842Y-75768815D01*
X60658873Y-75618153D01*
X60658873Y-75618152D01*
X60573530Y-75490427D01*
X59609041Y-74525938D01*
X59609041Y-74407015D01*
X60066542Y-74407015D01*
X60180842Y-74292715D01*
X60180842Y-73564115D01*
X60160842Y-73564115D01*
X60160842Y-73335515D01*
X60180842Y-73335515D01*
X60180842Y-73315515D01*
X60409442Y-73315515D01*
X60409442Y-73335515D01*
X60409442Y-73335515D01*
G37*
X60409442Y-73335515D02*
X60429442Y-73335515D01*
X60429442Y-73564115D01*
X60409442Y-73564115D01*
X60409442Y-74292715D01*
X60523742Y-74407015D01*
X61161085Y-74407015D01*
X61329125Y-74337410D01*
X61383000Y-74283535D01*
X61383000Y-77412688D01*
X61350642Y-77406135D01*
X60434842Y-77406135D01*
X60434842Y-77356995D01*
X61070142Y-77356995D01*
X61145443Y-77342826D01*
X61214603Y-77298323D01*
X61260999Y-77230420D01*
X61277322Y-77149815D01*
X61277322Y-76149815D01*
X61263153Y-76074514D01*
X61218650Y-76005354D01*
X61150747Y-75958958D01*
X61070142Y-75942635D01*
X60688842Y-75942635D01*
X60688842Y-75768815D01*
X60658873Y-75618153D01*
X60658873Y-75618152D01*
X60573530Y-75490427D01*
X59609041Y-74525938D01*
X59609041Y-74407015D01*
X60066542Y-74407015D01*
X60180842Y-74292715D01*
X60180842Y-73564115D01*
X60160842Y-73564115D01*
X60160842Y-73335515D01*
X60180842Y-73335515D01*
X60180842Y-73315515D01*
X60409442Y-73315515D01*
X60409442Y-73335515D01*
M02*
