G04 #@! TF.FileFunction,Copper,L2,Inr,Signal*
%FSLAX46Y46*%
G04 Gerber Fmt 4.6, Leading zero omitted, Abs format (unit mm)*
G04 Created by KiCad (PCBNEW 4.0.2-stable) date 1/2/2018 2:21:40 AM*
%MOMM*%
G01*
G04 APERTURE LIST*
%ADD10C,0.050000*%
%ADD11R,3.000000X3.000000*%
%ADD12R,1.450000X0.950000*%
%ADD13R,1.450000X1.450000*%
%ADD14C,1.450000*%
%ADD15C,2.800000*%
%ADD16C,0.330200*%
%ADD17C,0.635000*%
%ADD18C,0.381000*%
%ADD19C,0.152400*%
G04 APERTURE END LIST*
D10*
D11*
X59850642Y-79113315D03*
X59850642Y-83813315D03*
D12*
X38645642Y-71430315D03*
X38645642Y-72700315D03*
X38645642Y-73970315D03*
X38645642Y-75240315D03*
X38645642Y-76510315D03*
X57687642Y-71430315D03*
X57687642Y-72700315D03*
X57687642Y-73970315D03*
X57687642Y-76510315D03*
X57687642Y-75240315D03*
D13*
X35855262Y-75745775D03*
D14*
X35855262Y-78285775D03*
X35855262Y-80825775D03*
D15*
X38146342Y-58717615D03*
X58146342Y-58717615D03*
D16*
X37038902Y-108552415D03*
X40066899Y-98183818D03*
X51494042Y-80244115D03*
X49283065Y-78498379D03*
X39205651Y-64305615D03*
X38794042Y-68623615D03*
X37709462Y-79560855D03*
X55697742Y-58997015D03*
X54681742Y-55695015D03*
X36998262Y-54191335D03*
X47981222Y-54445335D03*
X51582942Y-55893135D03*
X46287042Y-70566715D03*
X44623342Y-70376215D03*
X47145562Y-87290075D03*
X42599300Y-95801213D03*
X42443104Y-96690605D03*
X40857481Y-104344432D03*
X42365602Y-105364715D03*
X41013992Y-106220813D03*
X42042722Y-104328015D03*
X35487058Y-84277901D03*
X52116342Y-96881115D03*
X51100342Y-103688315D03*
X54542042Y-109466815D03*
X58720342Y-109212815D03*
X50630442Y-100932415D03*
X47709442Y-104755115D03*
X47595142Y-102735815D03*
X35542102Y-108463515D03*
X35542102Y-102380215D03*
X35098342Y-106114015D03*
X35114500Y-104475715D03*
X35114500Y-105301215D03*
D17*
X57653542Y-90703117D03*
X56850902Y-90747015D03*
D16*
X45766342Y-64381815D03*
X42423702Y-108273015D03*
X56148240Y-87046405D03*
D17*
X60549142Y-69817415D03*
X60041142Y-65143815D03*
X58110742Y-65601015D03*
X59914142Y-74478315D03*
D16*
X41816642Y-77716815D03*
X36546142Y-73652815D03*
X44166142Y-60889315D03*
D17*
X54336302Y-106665195D03*
X54305822Y-102403075D03*
D16*
X54366782Y-105915895D03*
X54343922Y-103063475D03*
X45824762Y-79624355D03*
X41670302Y-84995815D03*
X41702342Y-87513595D03*
X42063022Y-88572775D03*
X41788702Y-88166375D03*
X39420302Y-84745815D03*
X40920302Y-84995815D03*
X49763329Y-91643213D03*
X50023382Y-89225935D03*
X47435122Y-93325115D03*
X47200942Y-82611395D03*
D17*
X55951742Y-63721415D03*
D16*
X54255022Y-92349755D03*
X37013502Y-68491535D03*
X36317542Y-63020375D03*
X51887742Y-79642135D03*
X47173511Y-89233175D03*
X42705642Y-80688615D03*
X35083102Y-103904215D03*
X36718862Y-102733275D03*
X42550702Y-99662415D03*
X35184702Y-100018015D03*
X35184702Y-99078215D03*
X35184702Y-99586215D03*
X35260902Y-101948415D03*
X35184702Y-98671815D03*
X35184702Y-98163815D03*
D18*
X42573900Y-103428015D03*
D16*
X42599300Y-96335015D03*
X50052502Y-85932415D03*
X42347502Y-104945615D03*
X36299220Y-85822497D03*
X48702582Y-79923657D03*
D17*
X38400830Y-95775498D03*
D16*
X42484662Y-78207035D03*
X39276642Y-80266975D03*
X37851702Y-90940055D03*
X55425931Y-76969081D03*
X49271542Y-81907815D03*
X44359704Y-89245621D03*
X44884962Y-84275095D03*
X35715713Y-82106255D03*
X44483357Y-87225165D03*
X44430302Y-88765815D03*
X42372902Y-106139415D03*
X50897142Y-84117615D03*
X37826302Y-89185817D03*
X37722162Y-80980715D03*
X39685116Y-94632311D03*
X50018302Y-99103615D03*
D17*
X58683702Y-96792215D03*
X59695702Y-96792215D03*
X58683702Y-96030215D03*
X59695702Y-96030215D03*
X59695702Y-95268215D03*
X58683702Y-95268215D03*
D16*
X40518702Y-94385817D03*
X49027702Y-96081015D03*
X36774742Y-96411215D03*
D17*
X38733082Y-100924795D03*
X38733082Y-99908795D03*
X36528702Y-100828015D03*
X36528702Y-100003015D03*
X36503702Y-99253015D03*
X36503702Y-98453015D03*
X36503702Y-97653015D03*
D16*
X38635002Y-101732715D03*
X38598462Y-55171775D03*
X44867182Y-82540275D03*
X44867182Y-83764555D03*
X41279080Y-95446015D03*
X45669704Y-86533155D03*
X45667282Y-85362215D03*
X41788702Y-93712455D03*
X46604542Y-93678175D03*
X43190900Y-91097535D03*
X39299502Y-80909595D03*
X44143282Y-93504655D03*
D17*
X53287282Y-98344155D03*
X52794522Y-98836915D03*
D16*
X40728304Y-107104615D03*
X40159457Y-80136331D03*
X41019082Y-81171215D03*
X42443104Y-97770115D03*
X38212382Y-91315975D03*
X48011702Y-101923015D03*
D17*
X37776702Y-107678015D03*
X36653702Y-107653015D03*
X37776702Y-106853015D03*
X36653702Y-106828015D03*
X37751702Y-106103015D03*
X36628702Y-106078015D03*
X37751702Y-105303015D03*
X36628702Y-105278015D03*
X37751702Y-104503015D03*
X36628702Y-104478015D03*
D16*
X36242301Y-91477013D03*
X47935502Y-96792215D03*
D17*
X60041142Y-87394215D03*
X59207702Y-88503015D03*
X56581662Y-101691875D03*
X56703582Y-105875255D03*
X56642622Y-100787635D03*
X56637542Y-109083275D03*
X58409302Y-89503015D03*
X59232702Y-89553015D03*
X60003702Y-89553015D03*
X58384302Y-88453015D03*
X59978702Y-88503015D03*
D16*
X51420544Y-78837883D03*
X41689642Y-61079815D03*
D17*
X57043942Y-62210115D03*
D16*
X52761507Y-87277151D03*
D17*
X46655342Y-63772215D03*
X56303702Y-84578015D03*
X56127002Y-83596915D03*
D16*
X53650502Y-82832375D03*
D17*
X58517142Y-68570073D03*
X59380742Y-71087415D03*
D16*
X38057442Y-90221234D03*
X38626402Y-90546355D03*
X38552742Y-90056135D03*
X38283502Y-81018815D03*
X60320542Y-92779015D03*
X53599702Y-95827015D03*
X47498622Y-81511575D03*
X44734736Y-84726849D03*
X36221022Y-84490995D03*
X45669704Y-85987055D03*
X41763302Y-81095015D03*
X36625984Y-83756935D03*
X51821702Y-93795015D03*
X40960504Y-94049015D03*
X40075496Y-94419743D03*
X51847102Y-95065015D03*
X36635042Y-82212615D03*
X43211102Y-82669815D03*
X37501182Y-65661975D03*
X37465622Y-64092255D03*
X38029841Y-66959915D03*
X38029841Y-69034714D03*
X51364502Y-86454415D03*
X50780302Y-86429015D03*
X51364502Y-85997215D03*
X50780302Y-85971815D03*
X51415302Y-85565415D03*
X50770411Y-85565415D03*
X50613824Y-83774715D03*
X45314394Y-92224777D03*
D17*
X48161464Y-92727834D03*
D16*
X49515382Y-92337055D03*
D17*
X50912382Y-83355615D03*
D16*
X54072142Y-80947695D03*
X40671102Y-96538215D03*
X40928204Y-109822415D03*
X42824704Y-88732296D03*
X41321342Y-62451415D03*
X51511822Y-60200975D03*
X57170942Y-68953815D03*
X43759742Y-63111815D03*
X52040142Y-83665495D03*
X49474742Y-90239015D03*
X51298702Y-89273815D03*
X51298702Y-89273815D03*
X51298702Y-89273815D03*
X51298702Y-89273815D03*
X50721502Y-88105415D03*
X44430302Y-88257815D03*
X41382302Y-108476215D03*
D17*
X48636542Y-77081815D03*
X52230694Y-77170767D03*
D16*
X52235722Y-81138195D03*
X50605042Y-84454166D03*
X37978702Y-89750987D03*
X38065062Y-77640615D03*
X43630202Y-79606575D03*
X44500900Y-87739655D03*
X44293142Y-79134758D03*
X39756702Y-77330735D03*
X45105942Y-77627915D03*
X52395742Y-93038095D03*
X55306582Y-90884175D03*
X53477223Y-86161734D03*
X55319282Y-80978175D03*
X43734342Y-92809495D03*
X53172982Y-81582695D03*
X52002042Y-95509515D03*
X47379242Y-91864615D03*
X38626402Y-91082295D03*
X46109242Y-54209115D03*
X43124742Y-59332295D03*
X60434842Y-62934015D03*
X60919982Y-54901853D03*
X56853442Y-54742515D03*
X41422942Y-54755215D03*
X60663442Y-57142815D03*
X60472942Y-62299015D03*
X49754142Y-58336615D03*
X55759274Y-88134123D03*
X40838742Y-63226115D03*
X37384342Y-62197415D03*
D19*
G36*
X45741006Y-54135534D02*
X45740879Y-54282053D01*
X45796831Y-54417467D01*
X45900345Y-54521162D01*
X46035661Y-54577351D01*
X46182180Y-54577478D01*
X46317594Y-54521526D01*
X46421289Y-54418012D01*
X46477478Y-54282696D01*
X46477605Y-54136177D01*
X46435351Y-54033915D01*
X61383000Y-54033915D01*
X61383000Y-77412688D01*
X61350642Y-77406135D01*
X58350642Y-77406135D01*
X58275341Y-77420304D01*
X58206181Y-77464807D01*
X58159785Y-77532710D01*
X58143462Y-77613315D01*
X58143462Y-80613315D01*
X58157631Y-80688616D01*
X58202134Y-80757776D01*
X58270037Y-80804172D01*
X58350642Y-80820495D01*
X61350642Y-80820495D01*
X61383000Y-80814406D01*
X61383000Y-81856115D01*
X60079242Y-81856115D01*
X59964942Y-81970415D01*
X59964942Y-83699015D01*
X59984942Y-83699015D01*
X59984942Y-83927615D01*
X59964942Y-83927615D01*
X59964942Y-85656215D01*
X60079242Y-85770515D01*
X61383000Y-85770515D01*
X61383000Y-110136000D01*
X41133715Y-110136000D01*
X41136556Y-110134826D01*
X41240251Y-110031312D01*
X41296440Y-109895996D01*
X41296567Y-109749477D01*
X41240615Y-109614063D01*
X41137101Y-109510368D01*
X41001785Y-109454179D01*
X40855266Y-109454052D01*
X40719852Y-109510004D01*
X40616157Y-109613518D01*
X40559968Y-109748834D01*
X40559841Y-109895353D01*
X40615793Y-110030767D01*
X40719307Y-110134462D01*
X40723011Y-110136000D01*
X35041000Y-110136000D01*
X35041000Y-109186394D01*
X56116752Y-109186394D01*
X56195857Y-109377842D01*
X56342204Y-109524445D01*
X56533514Y-109603884D01*
X56740661Y-109604065D01*
X56932109Y-109524960D01*
X57078712Y-109378613D01*
X57158151Y-109187303D01*
X57158332Y-108980156D01*
X57079227Y-108788708D01*
X56932880Y-108642105D01*
X56741570Y-108562666D01*
X56534423Y-108562485D01*
X56342975Y-108641590D01*
X56196372Y-108787937D01*
X56116933Y-108979247D01*
X56116752Y-109186394D01*
X35041000Y-109186394D01*
X35041000Y-108625353D01*
X36670539Y-108625353D01*
X36726491Y-108760767D01*
X36830005Y-108864462D01*
X36965321Y-108920651D01*
X37111840Y-108920778D01*
X37247254Y-108864826D01*
X37350949Y-108761312D01*
X37407138Y-108625996D01*
X37407204Y-108549153D01*
X41013939Y-108549153D01*
X41069891Y-108684567D01*
X41173405Y-108788262D01*
X41308721Y-108844451D01*
X41455240Y-108844578D01*
X41590654Y-108788626D01*
X41694349Y-108685112D01*
X41750538Y-108549796D01*
X41750665Y-108403277D01*
X41694713Y-108267863D01*
X41591199Y-108164168D01*
X41455883Y-108107979D01*
X41309364Y-108107852D01*
X41173950Y-108163804D01*
X41070255Y-108267318D01*
X41014066Y-108402634D01*
X41013939Y-108549153D01*
X37407204Y-108549153D01*
X37407265Y-108479477D01*
X37351313Y-108344063D01*
X37247799Y-108240368D01*
X37112483Y-108184179D01*
X36965964Y-108184052D01*
X36830550Y-108240004D01*
X36726855Y-108343518D01*
X36670666Y-108478834D01*
X36670539Y-108625353D01*
X35041000Y-108625353D01*
X35041000Y-104581134D01*
X36107912Y-104581134D01*
X36187017Y-104772582D01*
X36292321Y-104878071D01*
X36187532Y-104982677D01*
X36108093Y-105173987D01*
X36107912Y-105381134D01*
X36187017Y-105572582D01*
X36292321Y-105678071D01*
X36187532Y-105782677D01*
X36108093Y-105973987D01*
X36107912Y-106181134D01*
X36187017Y-106372582D01*
X36279800Y-106465527D01*
X36212532Y-106532677D01*
X36133093Y-106723987D01*
X36132912Y-106931134D01*
X36212017Y-107122582D01*
X36329821Y-107240592D01*
X36212532Y-107357677D01*
X36133093Y-107548987D01*
X36132912Y-107756134D01*
X36212017Y-107947582D01*
X36358364Y-108094185D01*
X36549674Y-108173624D01*
X36756821Y-108173805D01*
X36948269Y-108094700D01*
X37094872Y-107948353D01*
X37174311Y-107757043D01*
X37174492Y-107549896D01*
X37095387Y-107358448D01*
X36977583Y-107240438D01*
X37094872Y-107123353D01*
X37174311Y-106932043D01*
X37174492Y-106724896D01*
X37095387Y-106533448D01*
X37002604Y-106440503D01*
X37069872Y-106373353D01*
X37149311Y-106182043D01*
X37149492Y-105974896D01*
X37070387Y-105783448D01*
X36965083Y-105677959D01*
X37069872Y-105573353D01*
X37149311Y-105382043D01*
X37149492Y-105174896D01*
X37070387Y-104983448D01*
X36965083Y-104877959D01*
X37069872Y-104773353D01*
X37139307Y-104606134D01*
X37230912Y-104606134D01*
X37310017Y-104797582D01*
X37415321Y-104903071D01*
X37310532Y-105007677D01*
X37231093Y-105198987D01*
X37230912Y-105406134D01*
X37310017Y-105597582D01*
X37415321Y-105703071D01*
X37310532Y-105807677D01*
X37231093Y-105998987D01*
X37230912Y-106206134D01*
X37310017Y-106397582D01*
X37402800Y-106490527D01*
X37335532Y-106557677D01*
X37256093Y-106748987D01*
X37255912Y-106956134D01*
X37335017Y-107147582D01*
X37452821Y-107265592D01*
X37335532Y-107382677D01*
X37256093Y-107573987D01*
X37255912Y-107781134D01*
X37335017Y-107972582D01*
X37481364Y-108119185D01*
X37672674Y-108198624D01*
X37879821Y-108198805D01*
X38071269Y-108119700D01*
X38217872Y-107973353D01*
X38297311Y-107782043D01*
X38297492Y-107574896D01*
X38218387Y-107383448D01*
X38100583Y-107265438D01*
X38188621Y-107177553D01*
X40359941Y-107177553D01*
X40415893Y-107312967D01*
X40519407Y-107416662D01*
X40654723Y-107472851D01*
X40801242Y-107472978D01*
X40936656Y-107417026D01*
X41040351Y-107313512D01*
X41096540Y-107178196D01*
X41096667Y-107031677D01*
X41040715Y-106896263D01*
X40937201Y-106792568D01*
X40801885Y-106736379D01*
X40655366Y-106736252D01*
X40519952Y-106792204D01*
X40416257Y-106895718D01*
X40360068Y-107031034D01*
X40359941Y-107177553D01*
X38188621Y-107177553D01*
X38217872Y-107148353D01*
X38297311Y-106957043D01*
X38297492Y-106749896D01*
X38218387Y-106558448D01*
X38125604Y-106465503D01*
X38192872Y-106398353D01*
X38270106Y-106212353D01*
X42004539Y-106212353D01*
X42060491Y-106347767D01*
X42164005Y-106451462D01*
X42299321Y-106507651D01*
X42445840Y-106507778D01*
X42581254Y-106451826D01*
X42684949Y-106348312D01*
X42741138Y-106212996D01*
X42741265Y-106066477D01*
X42704862Y-105978374D01*
X56182792Y-105978374D01*
X56261897Y-106169822D01*
X56408244Y-106316425D01*
X56599554Y-106395864D01*
X56806701Y-106396045D01*
X56998149Y-106316940D01*
X57144752Y-106170593D01*
X57224191Y-105979283D01*
X57224372Y-105772136D01*
X57145267Y-105580688D01*
X56998920Y-105434085D01*
X56807610Y-105354646D01*
X56600463Y-105354465D01*
X56409015Y-105433570D01*
X56262412Y-105579917D01*
X56182973Y-105771227D01*
X56182792Y-105978374D01*
X42704862Y-105978374D01*
X42685313Y-105931063D01*
X42581799Y-105827368D01*
X42446483Y-105771179D01*
X42299964Y-105771052D01*
X42164550Y-105827004D01*
X42060855Y-105930518D01*
X42004666Y-106065834D01*
X42004539Y-106212353D01*
X38270106Y-106212353D01*
X38272311Y-106207043D01*
X38272492Y-105999896D01*
X38193387Y-105808448D01*
X38088083Y-105702959D01*
X38192872Y-105598353D01*
X38272311Y-105407043D01*
X38272492Y-105199896D01*
X38193387Y-105008448D01*
X38088083Y-104902959D01*
X38192872Y-104798353D01*
X38272311Y-104607043D01*
X38272492Y-104399896D01*
X38193387Y-104208448D01*
X38047040Y-104061845D01*
X37855730Y-103982406D01*
X37648583Y-103982225D01*
X37457135Y-104061330D01*
X37310532Y-104207677D01*
X37231093Y-104398987D01*
X37230912Y-104606134D01*
X37139307Y-104606134D01*
X37149311Y-104582043D01*
X37149492Y-104374896D01*
X37070387Y-104183448D01*
X36924040Y-104036845D01*
X36732730Y-103957406D01*
X36525583Y-103957225D01*
X36334135Y-104036330D01*
X36187532Y-104182677D01*
X36108093Y-104373987D01*
X36107912Y-104581134D01*
X35041000Y-104581134D01*
X35041000Y-97756134D01*
X35982912Y-97756134D01*
X36062017Y-97947582D01*
X36167321Y-98053071D01*
X36062532Y-98157677D01*
X35983093Y-98348987D01*
X35982912Y-98556134D01*
X36062017Y-98747582D01*
X36167321Y-98853071D01*
X36062532Y-98957677D01*
X35983093Y-99148987D01*
X35982912Y-99356134D01*
X36062017Y-99547582D01*
X36154800Y-99640527D01*
X36087532Y-99707677D01*
X36008093Y-99898987D01*
X36007912Y-100106134D01*
X36087017Y-100297582D01*
X36204821Y-100415592D01*
X36087532Y-100532677D01*
X36008093Y-100723987D01*
X36007912Y-100931134D01*
X36087017Y-101122582D01*
X36233364Y-101269185D01*
X36424674Y-101348624D01*
X36631821Y-101348805D01*
X36823269Y-101269700D01*
X36969872Y-101123353D01*
X37049311Y-100932043D01*
X37049492Y-100724896D01*
X36970387Y-100533448D01*
X36852583Y-100415438D01*
X36969872Y-100298353D01*
X37049311Y-100107043D01*
X37049394Y-100011914D01*
X38212292Y-100011914D01*
X38291397Y-100203362D01*
X38437744Y-100349965D01*
X38598848Y-100416861D01*
X38438515Y-100483110D01*
X38291912Y-100629457D01*
X38212473Y-100820767D01*
X38212292Y-101027914D01*
X38291397Y-101219362D01*
X38437744Y-101365965D01*
X38497804Y-101390904D01*
X38426650Y-101420304D01*
X38322955Y-101523818D01*
X38266766Y-101659134D01*
X38266639Y-101805653D01*
X38322591Y-101941067D01*
X38426105Y-102044762D01*
X38561421Y-102100951D01*
X38707940Y-102101078D01*
X38843354Y-102045126D01*
X38892612Y-101995953D01*
X47643339Y-101995953D01*
X47699291Y-102131367D01*
X47802805Y-102235062D01*
X47938121Y-102291251D01*
X48084640Y-102291378D01*
X48220054Y-102235426D01*
X48323749Y-102131912D01*
X48379938Y-101996596D01*
X48380065Y-101850077D01*
X48357306Y-101794994D01*
X56060872Y-101794994D01*
X56139977Y-101986442D01*
X56286324Y-102133045D01*
X56477634Y-102212484D01*
X56684781Y-102212665D01*
X56876229Y-102133560D01*
X57022832Y-101987213D01*
X57102271Y-101795903D01*
X57102452Y-101588756D01*
X57023347Y-101397308D01*
X56879463Y-101253172D01*
X56937189Y-101229320D01*
X57083792Y-101082973D01*
X57163231Y-100891663D01*
X57163412Y-100684516D01*
X57084307Y-100493068D01*
X56937960Y-100346465D01*
X56746650Y-100267026D01*
X56539503Y-100266845D01*
X56348055Y-100345950D01*
X56201452Y-100492297D01*
X56122013Y-100683607D01*
X56121832Y-100890754D01*
X56200937Y-101082202D01*
X56344821Y-101226338D01*
X56287095Y-101250190D01*
X56140492Y-101396537D01*
X56061053Y-101587847D01*
X56060872Y-101794994D01*
X48357306Y-101794994D01*
X48324113Y-101714663D01*
X48220599Y-101610968D01*
X48085283Y-101554779D01*
X47938764Y-101554652D01*
X47803350Y-101610604D01*
X47699655Y-101714118D01*
X47643466Y-101849434D01*
X47643339Y-101995953D01*
X38892612Y-101995953D01*
X38947049Y-101941612D01*
X39003238Y-101806296D01*
X39003365Y-101659777D01*
X38947413Y-101524363D01*
X38859261Y-101436057D01*
X39027649Y-101366480D01*
X39174252Y-101220133D01*
X39253691Y-101028823D01*
X39253872Y-100821676D01*
X39174767Y-100630228D01*
X39028420Y-100483625D01*
X38867316Y-100416729D01*
X39027649Y-100350480D01*
X39174252Y-100204133D01*
X39253691Y-100012823D01*
X39253872Y-99805676D01*
X39174767Y-99614228D01*
X39028420Y-99467625D01*
X38837110Y-99388186D01*
X38629963Y-99388005D01*
X38438515Y-99467110D01*
X38291912Y-99613457D01*
X38212473Y-99804767D01*
X38212292Y-100011914D01*
X37049394Y-100011914D01*
X37049492Y-99899896D01*
X36970387Y-99708448D01*
X36877604Y-99615503D01*
X36944872Y-99548353D01*
X37024311Y-99357043D01*
X37024468Y-99176553D01*
X49649939Y-99176553D01*
X49705891Y-99311967D01*
X49809405Y-99415662D01*
X49944721Y-99471851D01*
X50091240Y-99471978D01*
X50226654Y-99416026D01*
X50330349Y-99312512D01*
X50386538Y-99177196D01*
X50386665Y-99030677D01*
X50349213Y-98940034D01*
X52273732Y-98940034D01*
X52352837Y-99131482D01*
X52499184Y-99278085D01*
X52690494Y-99357524D01*
X52897641Y-99357705D01*
X53089089Y-99278600D01*
X53235692Y-99132253D01*
X53315131Y-98940943D01*
X53315197Y-98864879D01*
X53390401Y-98864945D01*
X53581849Y-98785840D01*
X53728452Y-98639493D01*
X53807891Y-98448183D01*
X53808072Y-98241036D01*
X53728967Y-98049588D01*
X53582620Y-97902985D01*
X53391310Y-97823546D01*
X53184163Y-97823365D01*
X52992715Y-97902470D01*
X52846112Y-98048817D01*
X52766673Y-98240127D01*
X52766607Y-98316191D01*
X52691403Y-98316125D01*
X52499955Y-98395230D01*
X52353352Y-98541577D01*
X52273913Y-98732887D01*
X52273732Y-98940034D01*
X50349213Y-98940034D01*
X50330713Y-98895263D01*
X50227199Y-98791568D01*
X50091883Y-98735379D01*
X49945364Y-98735252D01*
X49809950Y-98791204D01*
X49706255Y-98894718D01*
X49650066Y-99030034D01*
X49649939Y-99176553D01*
X37024468Y-99176553D01*
X37024492Y-99149896D01*
X36945387Y-98958448D01*
X36840083Y-98852959D01*
X36944872Y-98748353D01*
X37024311Y-98557043D01*
X37024492Y-98349896D01*
X36986008Y-98256756D01*
X39698536Y-98256756D01*
X39754488Y-98392170D01*
X39858002Y-98495865D01*
X39993318Y-98552054D01*
X40139837Y-98552181D01*
X40275251Y-98496229D01*
X40378946Y-98392715D01*
X40435135Y-98257399D01*
X40435262Y-98110880D01*
X40379310Y-97975466D01*
X40275796Y-97871771D01*
X40206637Y-97843053D01*
X42074741Y-97843053D01*
X42130693Y-97978467D01*
X42234207Y-98082162D01*
X42369523Y-98138351D01*
X42516042Y-98138478D01*
X42651456Y-98082526D01*
X42755151Y-97979012D01*
X42811340Y-97843696D01*
X42811467Y-97697177D01*
X42755515Y-97561763D01*
X42652001Y-97458068D01*
X42516685Y-97401879D01*
X42370166Y-97401752D01*
X42234752Y-97457704D01*
X42131057Y-97561218D01*
X42074868Y-97696534D01*
X42074741Y-97843053D01*
X40206637Y-97843053D01*
X40140480Y-97815582D01*
X39993961Y-97815455D01*
X39858547Y-97871407D01*
X39754852Y-97974921D01*
X39698663Y-98110237D01*
X39698536Y-98256756D01*
X36986008Y-98256756D01*
X36945387Y-98158448D01*
X36840083Y-98052959D01*
X36944872Y-97948353D01*
X37024311Y-97757043D01*
X37024492Y-97549896D01*
X36945387Y-97358448D01*
X36799040Y-97211845D01*
X36607730Y-97132406D01*
X36400583Y-97132225D01*
X36209135Y-97211330D01*
X36062532Y-97357677D01*
X35983093Y-97548987D01*
X35982912Y-97756134D01*
X35041000Y-97756134D01*
X35041000Y-96484153D01*
X36406379Y-96484153D01*
X36462331Y-96619567D01*
X36565845Y-96723262D01*
X36701161Y-96779451D01*
X36847680Y-96779578D01*
X36983094Y-96723626D01*
X37086789Y-96620112D01*
X37090509Y-96611153D01*
X40302739Y-96611153D01*
X40358691Y-96746567D01*
X40462205Y-96850262D01*
X40597521Y-96906451D01*
X40744040Y-96906578D01*
X40844296Y-96865153D01*
X47567139Y-96865153D01*
X47623091Y-97000567D01*
X47726605Y-97104262D01*
X47861921Y-97160451D01*
X48008440Y-97160578D01*
X48143854Y-97104626D01*
X48247549Y-97001112D01*
X48303738Y-96865796D01*
X48303865Y-96719277D01*
X48247913Y-96583863D01*
X48144399Y-96480168D01*
X48009083Y-96423979D01*
X47862564Y-96423852D01*
X47727150Y-96479804D01*
X47623455Y-96583318D01*
X47567266Y-96718634D01*
X47567139Y-96865153D01*
X40844296Y-96865153D01*
X40879454Y-96850626D01*
X40983149Y-96747112D01*
X41039338Y-96611796D01*
X41039465Y-96465277D01*
X40983513Y-96329863D01*
X40879999Y-96226168D01*
X40744683Y-96169979D01*
X40598164Y-96169852D01*
X40462750Y-96225804D01*
X40359055Y-96329318D01*
X40302866Y-96464634D01*
X40302739Y-96611153D01*
X37090509Y-96611153D01*
X37142978Y-96484796D01*
X37143105Y-96338277D01*
X37087153Y-96202863D01*
X36983639Y-96099168D01*
X36848323Y-96042979D01*
X36701804Y-96042852D01*
X36566390Y-96098804D01*
X36462695Y-96202318D01*
X36406506Y-96337634D01*
X36406379Y-96484153D01*
X35041000Y-96484153D01*
X35041000Y-95878617D01*
X37880040Y-95878617D01*
X37959145Y-96070065D01*
X38105492Y-96216668D01*
X38296802Y-96296107D01*
X38503949Y-96296288D01*
X38695397Y-96217183D01*
X38758737Y-96153953D01*
X48659339Y-96153953D01*
X48715291Y-96289367D01*
X48818805Y-96393062D01*
X48954121Y-96449251D01*
X49100640Y-96449378D01*
X49236054Y-96393426D01*
X49339749Y-96289912D01*
X49395938Y-96154596D01*
X49396065Y-96008077D01*
X49351390Y-95899953D01*
X53231339Y-95899953D01*
X53287291Y-96035367D01*
X53390805Y-96139062D01*
X53526121Y-96195251D01*
X53672640Y-96195378D01*
X53808054Y-96139426D01*
X53911749Y-96035912D01*
X53967938Y-95900596D01*
X53968065Y-95754077D01*
X53912113Y-95618663D01*
X53808599Y-95514968D01*
X53673283Y-95458779D01*
X53526764Y-95458652D01*
X53391350Y-95514604D01*
X53287655Y-95618118D01*
X53231466Y-95753434D01*
X53231339Y-95899953D01*
X49351390Y-95899953D01*
X49340113Y-95872663D01*
X49236599Y-95768968D01*
X49101283Y-95712779D01*
X48954764Y-95712652D01*
X48819350Y-95768604D01*
X48715655Y-95872118D01*
X48659466Y-96007434D01*
X48659339Y-96153953D01*
X38758737Y-96153953D01*
X38842000Y-96070836D01*
X38921439Y-95879526D01*
X38921620Y-95672379D01*
X38858226Y-95518953D01*
X40910717Y-95518953D01*
X40966669Y-95654367D01*
X41070183Y-95758062D01*
X41205499Y-95814251D01*
X41352018Y-95814378D01*
X41487432Y-95758426D01*
X41591127Y-95654912D01*
X41647316Y-95519596D01*
X41647443Y-95373077D01*
X41591491Y-95237663D01*
X41491956Y-95137953D01*
X51478739Y-95137953D01*
X51534691Y-95273367D01*
X51638205Y-95377062D01*
X51655304Y-95384162D01*
X51633806Y-95435934D01*
X51633679Y-95582453D01*
X51689631Y-95717867D01*
X51793145Y-95821562D01*
X51928461Y-95877751D01*
X52074980Y-95877878D01*
X52210394Y-95821926D01*
X52314089Y-95718412D01*
X52370278Y-95583096D01*
X52370405Y-95436577D01*
X52343448Y-95371334D01*
X58162912Y-95371334D01*
X58242017Y-95562782D01*
X58328321Y-95649237D01*
X58242532Y-95734877D01*
X58163093Y-95926187D01*
X58162912Y-96133334D01*
X58242017Y-96324782D01*
X58328321Y-96411237D01*
X58242532Y-96496877D01*
X58163093Y-96688187D01*
X58162912Y-96895334D01*
X58242017Y-97086782D01*
X58388364Y-97233385D01*
X58579674Y-97312824D01*
X58786821Y-97313005D01*
X58978269Y-97233900D01*
X59124872Y-97087553D01*
X59189763Y-96931277D01*
X59254017Y-97086782D01*
X59400364Y-97233385D01*
X59591674Y-97312824D01*
X59798821Y-97313005D01*
X59990269Y-97233900D01*
X60136872Y-97087553D01*
X60216311Y-96896243D01*
X60216492Y-96689096D01*
X60137387Y-96497648D01*
X60051083Y-96411193D01*
X60136872Y-96325553D01*
X60216311Y-96134243D01*
X60216492Y-95927096D01*
X60137387Y-95735648D01*
X60051083Y-95649193D01*
X60136872Y-95563553D01*
X60216311Y-95372243D01*
X60216492Y-95165096D01*
X60137387Y-94973648D01*
X59991040Y-94827045D01*
X59799730Y-94747606D01*
X59592583Y-94747425D01*
X59401135Y-94826530D01*
X59254532Y-94972877D01*
X59189641Y-95129153D01*
X59125387Y-94973648D01*
X58979040Y-94827045D01*
X58787730Y-94747606D01*
X58580583Y-94747425D01*
X58389135Y-94826530D01*
X58242532Y-94972877D01*
X58163093Y-95164187D01*
X58162912Y-95371334D01*
X52343448Y-95371334D01*
X52314453Y-95301163D01*
X52210939Y-95197468D01*
X52193840Y-95190368D01*
X52215338Y-95138596D01*
X52215465Y-94992077D01*
X52159513Y-94856663D01*
X52055999Y-94752968D01*
X51920683Y-94696779D01*
X51774164Y-94696652D01*
X51638750Y-94752604D01*
X51535055Y-94856118D01*
X51478866Y-94991434D01*
X51478739Y-95137953D01*
X41491956Y-95137953D01*
X41487977Y-95133968D01*
X41352661Y-95077779D01*
X41206142Y-95077652D01*
X41070728Y-95133604D01*
X40967033Y-95237118D01*
X40910844Y-95372434D01*
X40910717Y-95518953D01*
X38858226Y-95518953D01*
X38842515Y-95480931D01*
X38696168Y-95334328D01*
X38504858Y-95254889D01*
X38297711Y-95254708D01*
X38106263Y-95333813D01*
X37959660Y-95480160D01*
X37880221Y-95671470D01*
X37880040Y-95878617D01*
X35041000Y-95878617D01*
X35041000Y-94705249D01*
X39316753Y-94705249D01*
X39372705Y-94840663D01*
X39476219Y-94944358D01*
X39611535Y-95000547D01*
X39758054Y-95000674D01*
X39893468Y-94944722D01*
X39997163Y-94841208D01*
X40019260Y-94787994D01*
X40148434Y-94788106D01*
X40283848Y-94732154D01*
X40315732Y-94700325D01*
X40445121Y-94754053D01*
X40591640Y-94754180D01*
X40727054Y-94698228D01*
X40830749Y-94594714D01*
X40886938Y-94459398D01*
X40886975Y-94417251D01*
X41033442Y-94417378D01*
X41168856Y-94361426D01*
X41272551Y-94257912D01*
X41328740Y-94122596D01*
X41328867Y-93976077D01*
X41272915Y-93840663D01*
X41217742Y-93785393D01*
X41420339Y-93785393D01*
X41476291Y-93920807D01*
X41579805Y-94024502D01*
X41715121Y-94080691D01*
X41861640Y-94080818D01*
X41997054Y-94024866D01*
X42100749Y-93921352D01*
X42156938Y-93786036D01*
X42157065Y-93639517D01*
X42131479Y-93577593D01*
X43774919Y-93577593D01*
X43830871Y-93713007D01*
X43934385Y-93816702D01*
X44069701Y-93872891D01*
X44216220Y-93873018D01*
X44351634Y-93817066D01*
X44417702Y-93751113D01*
X46236179Y-93751113D01*
X46292131Y-93886527D01*
X46395645Y-93990222D01*
X46530961Y-94046411D01*
X46677480Y-94046538D01*
X46812894Y-93990586D01*
X46916589Y-93887072D01*
X46924528Y-93867953D01*
X51453339Y-93867953D01*
X51509291Y-94003367D01*
X51612805Y-94107062D01*
X51748121Y-94163251D01*
X51894640Y-94163378D01*
X52030054Y-94107426D01*
X52133749Y-94003912D01*
X52189938Y-93868596D01*
X52190065Y-93722077D01*
X52134113Y-93586663D01*
X52030599Y-93482968D01*
X51895283Y-93426779D01*
X51748764Y-93426652D01*
X51613350Y-93482604D01*
X51509655Y-93586118D01*
X51453466Y-93721434D01*
X51453339Y-93867953D01*
X46924528Y-93867953D01*
X46972778Y-93751756D01*
X46972905Y-93605237D01*
X46916953Y-93469823D01*
X46813439Y-93366128D01*
X46678123Y-93309939D01*
X46531604Y-93309812D01*
X46396190Y-93365764D01*
X46292495Y-93469278D01*
X46236306Y-93604594D01*
X46236179Y-93751113D01*
X44417702Y-93751113D01*
X44455329Y-93713552D01*
X44511518Y-93578236D01*
X44511645Y-93431717D01*
X44455693Y-93296303D01*
X44352179Y-93192608D01*
X44216863Y-93136419D01*
X44070344Y-93136292D01*
X43934930Y-93192244D01*
X43831235Y-93295758D01*
X43775046Y-93431074D01*
X43774919Y-93577593D01*
X42131479Y-93577593D01*
X42101113Y-93504103D01*
X41997599Y-93400408D01*
X41862283Y-93344219D01*
X41715764Y-93344092D01*
X41580350Y-93400044D01*
X41476655Y-93503558D01*
X41420466Y-93638874D01*
X41420339Y-93785393D01*
X41217742Y-93785393D01*
X41169401Y-93736968D01*
X41034085Y-93680779D01*
X40887566Y-93680652D01*
X40752152Y-93736604D01*
X40648457Y-93840118D01*
X40592268Y-93975434D01*
X40592231Y-94017581D01*
X40445764Y-94017454D01*
X40310350Y-94073406D01*
X40278466Y-94105235D01*
X40149077Y-94051507D01*
X40002558Y-94051380D01*
X39867144Y-94107332D01*
X39763449Y-94210846D01*
X39741352Y-94264060D01*
X39612178Y-94263948D01*
X39476764Y-94319900D01*
X39373069Y-94423414D01*
X39316880Y-94558730D01*
X39316753Y-94705249D01*
X35041000Y-94705249D01*
X35041000Y-92882433D01*
X43365979Y-92882433D01*
X43421931Y-93017847D01*
X43525445Y-93121542D01*
X43660761Y-93177731D01*
X43807280Y-93177858D01*
X43942694Y-93121906D01*
X44046389Y-93018392D01*
X44102578Y-92883076D01*
X44102623Y-92830953D01*
X47640674Y-92830953D01*
X47719779Y-93022401D01*
X47866126Y-93169004D01*
X48057436Y-93248443D01*
X48264583Y-93248624D01*
X48456031Y-93169519D01*
X48514619Y-93111033D01*
X52027379Y-93111033D01*
X52083331Y-93246447D01*
X52186845Y-93350142D01*
X52322161Y-93406331D01*
X52468680Y-93406458D01*
X52604094Y-93350506D01*
X52707789Y-93246992D01*
X52763978Y-93111676D01*
X52764105Y-92965157D01*
X52717330Y-92851953D01*
X59952179Y-92851953D01*
X60008131Y-92987367D01*
X60111645Y-93091062D01*
X60246961Y-93147251D01*
X60393480Y-93147378D01*
X60528894Y-93091426D01*
X60632589Y-92987912D01*
X60688778Y-92852596D01*
X60688905Y-92706077D01*
X60632953Y-92570663D01*
X60529439Y-92466968D01*
X60394123Y-92410779D01*
X60247604Y-92410652D01*
X60112190Y-92466604D01*
X60008495Y-92570118D01*
X59952306Y-92705434D01*
X59952179Y-92851953D01*
X52717330Y-92851953D01*
X52708153Y-92829743D01*
X52604639Y-92726048D01*
X52469323Y-92669859D01*
X52322804Y-92669732D01*
X52187390Y-92725684D01*
X52083695Y-92829198D01*
X52027506Y-92964514D01*
X52027379Y-93111033D01*
X48514619Y-93111033D01*
X48602634Y-93023172D01*
X48682073Y-92831862D01*
X48682254Y-92624715D01*
X48603149Y-92433267D01*
X48579916Y-92409993D01*
X49147019Y-92409993D01*
X49202971Y-92545407D01*
X49306485Y-92649102D01*
X49441801Y-92705291D01*
X49588320Y-92705418D01*
X49723734Y-92649466D01*
X49827429Y-92545952D01*
X49883618Y-92410636D01*
X49883745Y-92264117D01*
X49827793Y-92128703D01*
X49724279Y-92025008D01*
X49588963Y-91968819D01*
X49442444Y-91968692D01*
X49307030Y-92024644D01*
X49203335Y-92128158D01*
X49147146Y-92263474D01*
X49147019Y-92409993D01*
X48579916Y-92409993D01*
X48456802Y-92286664D01*
X48265492Y-92207225D01*
X48058345Y-92207044D01*
X47866897Y-92286149D01*
X47720294Y-92432496D01*
X47640855Y-92623806D01*
X47640674Y-92830953D01*
X44102623Y-92830953D01*
X44102705Y-92736557D01*
X44046753Y-92601143D01*
X43943239Y-92497448D01*
X43807923Y-92441259D01*
X43661404Y-92441132D01*
X43525990Y-92497084D01*
X43422295Y-92600598D01*
X43366106Y-92735914D01*
X43365979Y-92882433D01*
X35041000Y-92882433D01*
X35041000Y-92297715D01*
X44946031Y-92297715D01*
X45001983Y-92433129D01*
X45105497Y-92536824D01*
X45240813Y-92593013D01*
X45387332Y-92593140D01*
X45522746Y-92537188D01*
X45626441Y-92433674D01*
X45682630Y-92298358D01*
X45682757Y-92151839D01*
X45626805Y-92016425D01*
X45548071Y-91937553D01*
X47010879Y-91937553D01*
X47066831Y-92072967D01*
X47170345Y-92176662D01*
X47305661Y-92232851D01*
X47452180Y-92232978D01*
X47587594Y-92177026D01*
X47691289Y-92073512D01*
X47747478Y-91938196D01*
X47747605Y-91791677D01*
X47691653Y-91656263D01*
X47588139Y-91552568D01*
X47452823Y-91496379D01*
X47306304Y-91496252D01*
X47170890Y-91552204D01*
X47067195Y-91655718D01*
X47011006Y-91791034D01*
X47010879Y-91937553D01*
X45548071Y-91937553D01*
X45523291Y-91912730D01*
X45387975Y-91856541D01*
X45241456Y-91856414D01*
X45106042Y-91912366D01*
X45002347Y-92015880D01*
X44946158Y-92151196D01*
X44946031Y-92297715D01*
X35041000Y-92297715D01*
X35041000Y-91549951D01*
X35873938Y-91549951D01*
X35929890Y-91685365D01*
X36033404Y-91789060D01*
X36168720Y-91845249D01*
X36315239Y-91845376D01*
X36450653Y-91789424D01*
X36554348Y-91685910D01*
X36610537Y-91550594D01*
X36610664Y-91404075D01*
X36554712Y-91268661D01*
X36451198Y-91164966D01*
X36315882Y-91108777D01*
X36169363Y-91108650D01*
X36033949Y-91164602D01*
X35930254Y-91268116D01*
X35874065Y-91403432D01*
X35873938Y-91549951D01*
X35041000Y-91549951D01*
X35041000Y-89258755D01*
X37457939Y-89258755D01*
X37513891Y-89394169D01*
X37617405Y-89497864D01*
X37683475Y-89525299D01*
X37666655Y-89542090D01*
X37610466Y-89677406D01*
X37610339Y-89823925D01*
X37666291Y-89959339D01*
X37737699Y-90030872D01*
X37689206Y-90147653D01*
X37689079Y-90294172D01*
X37745031Y-90429586D01*
X37848545Y-90533281D01*
X37983861Y-90589470D01*
X38130380Y-90589597D01*
X38258110Y-90536820D01*
X38258039Y-90619293D01*
X38313991Y-90754707D01*
X38373518Y-90814338D01*
X38314355Y-90873398D01*
X38283486Y-90947737D01*
X38219995Y-90947682D01*
X38220065Y-90867117D01*
X38164113Y-90731703D01*
X38060599Y-90628008D01*
X37925283Y-90571819D01*
X37778764Y-90571692D01*
X37643350Y-90627644D01*
X37539655Y-90731158D01*
X37483466Y-90866474D01*
X37483339Y-91012993D01*
X37539291Y-91148407D01*
X37642805Y-91252102D01*
X37778121Y-91308291D01*
X37844089Y-91308348D01*
X37844019Y-91388913D01*
X37899971Y-91524327D01*
X38003485Y-91628022D01*
X38138801Y-91684211D01*
X38285320Y-91684338D01*
X38420734Y-91628386D01*
X38524429Y-91524872D01*
X38555298Y-91450533D01*
X38699340Y-91450658D01*
X38834754Y-91394706D01*
X38938449Y-91291192D01*
X38988576Y-91170473D01*
X42822537Y-91170473D01*
X42878489Y-91305887D01*
X42982003Y-91409582D01*
X43117319Y-91465771D01*
X43263838Y-91465898D01*
X43399252Y-91409946D01*
X43502947Y-91306432D01*
X43559136Y-91171116D01*
X43559263Y-91024597D01*
X43531380Y-90957113D01*
X54938219Y-90957113D01*
X54994171Y-91092527D01*
X55097685Y-91196222D01*
X55233001Y-91252411D01*
X55379520Y-91252538D01*
X55514934Y-91196586D01*
X55618629Y-91093072D01*
X55674818Y-90957756D01*
X55674945Y-90811237D01*
X55618993Y-90675823D01*
X55515479Y-90572128D01*
X55380163Y-90515939D01*
X55233644Y-90515812D01*
X55098230Y-90571764D01*
X54994535Y-90675278D01*
X54938346Y-90810594D01*
X54938219Y-90957113D01*
X43531380Y-90957113D01*
X43503311Y-90889183D01*
X43399797Y-90785488D01*
X43264481Y-90729299D01*
X43117962Y-90729172D01*
X42982548Y-90785124D01*
X42878853Y-90888638D01*
X42822664Y-91023954D01*
X42822537Y-91170473D01*
X38988576Y-91170473D01*
X38994638Y-91155876D01*
X38994765Y-91009357D01*
X38938813Y-90873943D01*
X38879286Y-90814312D01*
X38938449Y-90755252D01*
X38994638Y-90619936D01*
X38994765Y-90473417D01*
X38938813Y-90338003D01*
X38912809Y-90311953D01*
X49106379Y-90311953D01*
X49162331Y-90447367D01*
X49265845Y-90551062D01*
X49401161Y-90607251D01*
X49547680Y-90607378D01*
X49683094Y-90551426D01*
X49786789Y-90447912D01*
X49842978Y-90312596D01*
X49843105Y-90166077D01*
X49787153Y-90030663D01*
X49683639Y-89926968D01*
X49548323Y-89870779D01*
X49401804Y-89870652D01*
X49266390Y-89926604D01*
X49162695Y-90030118D01*
X49106506Y-90165434D01*
X49106379Y-90311953D01*
X38912809Y-90311953D01*
X38865136Y-90264197D01*
X38920978Y-90129716D01*
X38921105Y-89983197D01*
X38865153Y-89847783D01*
X38761639Y-89744088D01*
X38626323Y-89687899D01*
X38479804Y-89687772D01*
X38347009Y-89742642D01*
X38347065Y-89678049D01*
X38291113Y-89542635D01*
X38187599Y-89438940D01*
X38121529Y-89411505D01*
X38138349Y-89394714D01*
X38169971Y-89318559D01*
X43991341Y-89318559D01*
X44047293Y-89453973D01*
X44150807Y-89557668D01*
X44286123Y-89613857D01*
X44432642Y-89613984D01*
X44568056Y-89558032D01*
X44671751Y-89454518D01*
X44716499Y-89346753D01*
X50930339Y-89346753D01*
X50986291Y-89482167D01*
X51089805Y-89585862D01*
X51225121Y-89642051D01*
X51371640Y-89642178D01*
X51458873Y-89606134D01*
X57888512Y-89606134D01*
X57967617Y-89797582D01*
X58113964Y-89944185D01*
X58305274Y-90023624D01*
X58512421Y-90023805D01*
X58703869Y-89944700D01*
X58796078Y-89852652D01*
X58937364Y-89994185D01*
X59128674Y-90073624D01*
X59335821Y-90073805D01*
X59527269Y-89994700D01*
X59618232Y-89903896D01*
X59708364Y-89994185D01*
X59899674Y-90073624D01*
X60106821Y-90073805D01*
X60298269Y-89994700D01*
X60444872Y-89848353D01*
X60524311Y-89657043D01*
X60524492Y-89449896D01*
X60445387Y-89258448D01*
X60299040Y-89111845D01*
X60107730Y-89032406D01*
X59900583Y-89032225D01*
X59709135Y-89111330D01*
X59618172Y-89202134D01*
X59528040Y-89111845D01*
X59336730Y-89032406D01*
X59129583Y-89032225D01*
X58938135Y-89111330D01*
X58845926Y-89203378D01*
X58704640Y-89061845D01*
X58513330Y-88982406D01*
X58306183Y-88982225D01*
X58114735Y-89061330D01*
X57968132Y-89207677D01*
X57888693Y-89398987D01*
X57888512Y-89606134D01*
X51458873Y-89606134D01*
X51507054Y-89586226D01*
X51610749Y-89482712D01*
X51666938Y-89347396D01*
X51667065Y-89200877D01*
X51611113Y-89065463D01*
X51507599Y-88961768D01*
X51372283Y-88905579D01*
X51225764Y-88905452D01*
X51090350Y-88961404D01*
X50986655Y-89064918D01*
X50930466Y-89200234D01*
X50930339Y-89346753D01*
X44716499Y-89346753D01*
X44727940Y-89319202D01*
X44728067Y-89172683D01*
X44674325Y-89042617D01*
X44742349Y-88974712D01*
X44798538Y-88839396D01*
X44798665Y-88692877D01*
X44742713Y-88557463D01*
X44741387Y-88556134D01*
X57863512Y-88556134D01*
X57942617Y-88747582D01*
X58088964Y-88894185D01*
X58280274Y-88973624D01*
X58487421Y-88973805D01*
X58678869Y-88894700D01*
X58771078Y-88802652D01*
X58912364Y-88944185D01*
X59103674Y-89023624D01*
X59310821Y-89023805D01*
X59502269Y-88944700D01*
X59593232Y-88853896D01*
X59683364Y-88944185D01*
X59874674Y-89023624D01*
X60081821Y-89023805D01*
X60273269Y-88944700D01*
X60419872Y-88798353D01*
X60499311Y-88607043D01*
X60499492Y-88399896D01*
X60420387Y-88208448D01*
X60274040Y-88061845D01*
X60082730Y-87982406D01*
X59875583Y-87982225D01*
X59684135Y-88061330D01*
X59593172Y-88152134D01*
X59503040Y-88061845D01*
X59311730Y-87982406D01*
X59104583Y-87982225D01*
X58913135Y-88061330D01*
X58820926Y-88153378D01*
X58679640Y-88011845D01*
X58488330Y-87932406D01*
X58281183Y-87932225D01*
X58089735Y-88011330D01*
X57943132Y-88157677D01*
X57863693Y-88348987D01*
X57863512Y-88556134D01*
X44741387Y-88556134D01*
X44697156Y-88511826D01*
X44742349Y-88466712D01*
X44798538Y-88331396D01*
X44798665Y-88184877D01*
X44795970Y-88178353D01*
X50353139Y-88178353D01*
X50409091Y-88313767D01*
X50512605Y-88417462D01*
X50647921Y-88473651D01*
X50794440Y-88473778D01*
X50929854Y-88417826D01*
X51033549Y-88314312D01*
X51078084Y-88207061D01*
X55390911Y-88207061D01*
X55446863Y-88342475D01*
X55550377Y-88446170D01*
X55685693Y-88502359D01*
X55832212Y-88502486D01*
X55967626Y-88446534D01*
X56071321Y-88343020D01*
X56127510Y-88207704D01*
X56127637Y-88061185D01*
X56071685Y-87925771D01*
X55968171Y-87822076D01*
X55832855Y-87765887D01*
X55686336Y-87765760D01*
X55550922Y-87821712D01*
X55447227Y-87925226D01*
X55391038Y-88060542D01*
X55390911Y-88207061D01*
X51078084Y-88207061D01*
X51089738Y-88178996D01*
X51089865Y-88032477D01*
X51033913Y-87897063D01*
X50930399Y-87793368D01*
X50795083Y-87737179D01*
X50648564Y-87737052D01*
X50513150Y-87793004D01*
X50409455Y-87896518D01*
X50353266Y-88031834D01*
X50353139Y-88178353D01*
X44795970Y-88178353D01*
X44742713Y-88049463D01*
X44727313Y-88034036D01*
X44812947Y-87948552D01*
X44869136Y-87813236D01*
X44869263Y-87666717D01*
X44813311Y-87531303D01*
X44755753Y-87473644D01*
X44795404Y-87434062D01*
X44830273Y-87350089D01*
X52393144Y-87350089D01*
X52449096Y-87485503D01*
X52552610Y-87589198D01*
X52687926Y-87645387D01*
X52834445Y-87645514D01*
X52969859Y-87589562D01*
X53062248Y-87497334D01*
X59520352Y-87497334D01*
X59599457Y-87688782D01*
X59745804Y-87835385D01*
X59937114Y-87914824D01*
X60144261Y-87915005D01*
X60335709Y-87835900D01*
X60482312Y-87689553D01*
X60561751Y-87498243D01*
X60561932Y-87291096D01*
X60482827Y-87099648D01*
X60336480Y-86953045D01*
X60145170Y-86873606D01*
X59938023Y-86873425D01*
X59746575Y-86952530D01*
X59599972Y-87098877D01*
X59520533Y-87290187D01*
X59520352Y-87497334D01*
X53062248Y-87497334D01*
X53073554Y-87486048D01*
X53129743Y-87350732D01*
X53129870Y-87204213D01*
X53073918Y-87068799D01*
X52970404Y-86965104D01*
X52835088Y-86908915D01*
X52688569Y-86908788D01*
X52553155Y-86964740D01*
X52449460Y-87068254D01*
X52393271Y-87203570D01*
X52393144Y-87350089D01*
X44830273Y-87350089D01*
X44851593Y-87298746D01*
X44851720Y-87152227D01*
X44795768Y-87016813D01*
X44692254Y-86913118D01*
X44556938Y-86856929D01*
X44410419Y-86856802D01*
X44275005Y-86912754D01*
X44171310Y-87016268D01*
X44115121Y-87151584D01*
X44114994Y-87298103D01*
X44170946Y-87433517D01*
X44228504Y-87491176D01*
X44188853Y-87530758D01*
X44132664Y-87666074D01*
X44132537Y-87812593D01*
X44188489Y-87948007D01*
X44203889Y-87963434D01*
X44118255Y-88048918D01*
X44062066Y-88184234D01*
X44061939Y-88330753D01*
X44117891Y-88466167D01*
X44163448Y-88511804D01*
X44118255Y-88556918D01*
X44062066Y-88692234D01*
X44061939Y-88838753D01*
X44115681Y-88968819D01*
X44047657Y-89036724D01*
X43991468Y-89172040D01*
X43991341Y-89318559D01*
X38169971Y-89318559D01*
X38194538Y-89259398D01*
X38194665Y-89112879D01*
X38138713Y-88977465D01*
X38035199Y-88873770D01*
X37899883Y-88817581D01*
X37753364Y-88817454D01*
X37617950Y-88873406D01*
X37514255Y-88976920D01*
X37458066Y-89112236D01*
X37457939Y-89258755D01*
X35041000Y-89258755D01*
X35041000Y-88805234D01*
X42456341Y-88805234D01*
X42512293Y-88940648D01*
X42615807Y-89044343D01*
X42751123Y-89100532D01*
X42897642Y-89100659D01*
X43033056Y-89044707D01*
X43136751Y-88941193D01*
X43192940Y-88805877D01*
X43193067Y-88659358D01*
X43137115Y-88523944D01*
X43033601Y-88420249D01*
X42898285Y-88364060D01*
X42751766Y-88363933D01*
X42616352Y-88419885D01*
X42512657Y-88523399D01*
X42456468Y-88658715D01*
X42456341Y-88805234D01*
X35041000Y-88805234D01*
X35041000Y-85895435D01*
X35930857Y-85895435D01*
X35986809Y-86030849D01*
X36090323Y-86134544D01*
X36225639Y-86190733D01*
X36372158Y-86190860D01*
X36507572Y-86134908D01*
X36611267Y-86031394D01*
X36667456Y-85896078D01*
X36667583Y-85749559D01*
X36611631Y-85614145D01*
X36508117Y-85510450D01*
X36372801Y-85454261D01*
X36226282Y-85454134D01*
X36090868Y-85510086D01*
X35987173Y-85613600D01*
X35930984Y-85748916D01*
X35930857Y-85895435D01*
X35041000Y-85895435D01*
X35041000Y-85435153D01*
X45298919Y-85435153D01*
X45354871Y-85570567D01*
X45458385Y-85674262D01*
X45460751Y-85675244D01*
X45357657Y-85778158D01*
X45301468Y-85913474D01*
X45301341Y-86059993D01*
X45357293Y-86195407D01*
X45421900Y-86260127D01*
X45357657Y-86324258D01*
X45301468Y-86459574D01*
X45301341Y-86606093D01*
X45357293Y-86741507D01*
X45460807Y-86845202D01*
X45596123Y-86901391D01*
X45742642Y-86901518D01*
X45878056Y-86845566D01*
X45981751Y-86742052D01*
X46037940Y-86606736D01*
X46038067Y-86460217D01*
X45982115Y-86324803D01*
X45917508Y-86260083D01*
X45981751Y-86195952D01*
X46037940Y-86060636D01*
X46038067Y-85914117D01*
X45982115Y-85778703D01*
X45878601Y-85675008D01*
X45876235Y-85674026D01*
X45911970Y-85638353D01*
X50402048Y-85638353D01*
X50458000Y-85773767D01*
X50462061Y-85777835D01*
X50412066Y-85898234D01*
X50411939Y-86044753D01*
X50467891Y-86180167D01*
X50488048Y-86200359D01*
X50468255Y-86220118D01*
X50412066Y-86355434D01*
X50411939Y-86501953D01*
X50467891Y-86637367D01*
X50571405Y-86741062D01*
X50706721Y-86797251D01*
X50853240Y-86797378D01*
X50988654Y-86741426D01*
X51059757Y-86670447D01*
X51155605Y-86766462D01*
X51290921Y-86822651D01*
X51437440Y-86822778D01*
X51572854Y-86766826D01*
X51676549Y-86663312D01*
X51732738Y-86527996D01*
X51732865Y-86381477D01*
X51676913Y-86246063D01*
X51665542Y-86234672D01*
X53108860Y-86234672D01*
X53164812Y-86370086D01*
X53268326Y-86473781D01*
X53403642Y-86529970D01*
X53550161Y-86530097D01*
X53685575Y-86474145D01*
X53789270Y-86370631D01*
X53845459Y-86235315D01*
X53845586Y-86088796D01*
X53789634Y-85953382D01*
X53686120Y-85849687D01*
X53550804Y-85793498D01*
X53404285Y-85793371D01*
X53268871Y-85849323D01*
X53165176Y-85952837D01*
X53108987Y-86088153D01*
X53108860Y-86234672D01*
X51665542Y-86234672D01*
X51656756Y-86225871D01*
X51676549Y-86206112D01*
X51732738Y-86070796D01*
X51732865Y-85924277D01*
X51687385Y-85814207D01*
X51727349Y-85774312D01*
X51783538Y-85638996D01*
X51783665Y-85492477D01*
X51727713Y-85357063D01*
X51624199Y-85253368D01*
X51488883Y-85197179D01*
X51342364Y-85197052D01*
X51206950Y-85253004D01*
X51103255Y-85356518D01*
X51092900Y-85381454D01*
X51082822Y-85357063D01*
X50979308Y-85253368D01*
X50843992Y-85197179D01*
X50697473Y-85197052D01*
X50562059Y-85253004D01*
X50458364Y-85356518D01*
X50402175Y-85491834D01*
X50402048Y-85638353D01*
X45911970Y-85638353D01*
X45979329Y-85571112D01*
X46035518Y-85435796D01*
X46035645Y-85289277D01*
X45979693Y-85153863D01*
X45876179Y-85050168D01*
X45740863Y-84993979D01*
X45594344Y-84993852D01*
X45458930Y-85049804D01*
X45355235Y-85153318D01*
X45299046Y-85288634D01*
X45298919Y-85435153D01*
X35041000Y-85435153D01*
X35041000Y-84563933D01*
X35852659Y-84563933D01*
X35908611Y-84699347D01*
X36012125Y-84803042D01*
X36147441Y-84859231D01*
X36293960Y-84859358D01*
X36429374Y-84803406D01*
X36432999Y-84799787D01*
X44366373Y-84799787D01*
X44422325Y-84935201D01*
X44525839Y-85038896D01*
X44661155Y-85095085D01*
X44807674Y-85095212D01*
X44943088Y-85039260D01*
X45046783Y-84935746D01*
X45102972Y-84800430D01*
X45103099Y-84653911D01*
X45078235Y-84593736D01*
X45093314Y-84587506D01*
X45153821Y-84527104D01*
X50236679Y-84527104D01*
X50292631Y-84662518D01*
X50396145Y-84766213D01*
X50531461Y-84822402D01*
X50677980Y-84822529D01*
X50813394Y-84766577D01*
X50917089Y-84663063D01*
X50973278Y-84527747D01*
X50973315Y-84484641D01*
X51105494Y-84430026D01*
X51209189Y-84326512D01*
X51265378Y-84191196D01*
X51265505Y-84044677D01*
X51209553Y-83909263D01*
X51129664Y-83829234D01*
X51206949Y-83797300D01*
X51265918Y-83738433D01*
X51671779Y-83738433D01*
X51727731Y-83873847D01*
X51831245Y-83977542D01*
X51966561Y-84033731D01*
X52113080Y-84033858D01*
X52248494Y-83977906D01*
X52352189Y-83874392D01*
X52408378Y-83739076D01*
X52408411Y-83700034D01*
X55606212Y-83700034D01*
X55685317Y-83891482D01*
X55831664Y-84038085D01*
X56022974Y-84117524D01*
X56054582Y-84117552D01*
X56009135Y-84136330D01*
X55862532Y-84282677D01*
X55783093Y-84473987D01*
X55782912Y-84681134D01*
X55862017Y-84872582D01*
X56008364Y-85019185D01*
X56199674Y-85098624D01*
X56406821Y-85098805D01*
X56598269Y-85019700D01*
X56744872Y-84873353D01*
X56824311Y-84682043D01*
X56824492Y-84474896D01*
X56745387Y-84283448D01*
X56599040Y-84136845D01*
X56407730Y-84057406D01*
X56376122Y-84057378D01*
X56413545Y-84041915D01*
X57893442Y-84041915D01*
X57893442Y-85404258D01*
X57963047Y-85572298D01*
X58091659Y-85700911D01*
X58259700Y-85770515D01*
X59622042Y-85770515D01*
X59736342Y-85656215D01*
X59736342Y-83927615D01*
X58007742Y-83927615D01*
X57893442Y-84041915D01*
X56413545Y-84041915D01*
X56421569Y-84038600D01*
X56568172Y-83892253D01*
X56647611Y-83700943D01*
X56647792Y-83493796D01*
X56568687Y-83302348D01*
X56422340Y-83155745D01*
X56231030Y-83076306D01*
X56023883Y-83076125D01*
X55832435Y-83155230D01*
X55685832Y-83301577D01*
X55606393Y-83492887D01*
X55606212Y-83700034D01*
X52408411Y-83700034D01*
X52408505Y-83592557D01*
X52352553Y-83457143D01*
X52249039Y-83353448D01*
X52113723Y-83297259D01*
X51967204Y-83297132D01*
X51831790Y-83353084D01*
X51728095Y-83456598D01*
X51671906Y-83591914D01*
X51671779Y-83738433D01*
X51265918Y-83738433D01*
X51353552Y-83650953D01*
X51432991Y-83459643D01*
X51433172Y-83252496D01*
X51354067Y-83061048D01*
X51207720Y-82914445D01*
X51185728Y-82905313D01*
X53282139Y-82905313D01*
X53338091Y-83040727D01*
X53441605Y-83144422D01*
X53576921Y-83200611D01*
X53723440Y-83200738D01*
X53858854Y-83144786D01*
X53962549Y-83041272D01*
X54018738Y-82905956D01*
X54018865Y-82759437D01*
X53962913Y-82624023D01*
X53859399Y-82520328D01*
X53724083Y-82464139D01*
X53577564Y-82464012D01*
X53442150Y-82519964D01*
X53338455Y-82623478D01*
X53282266Y-82758794D01*
X53282139Y-82905313D01*
X51185728Y-82905313D01*
X51016410Y-82835006D01*
X50809263Y-82834825D01*
X50617815Y-82913930D01*
X50471212Y-83060277D01*
X50391773Y-83251587D01*
X50391592Y-83458734D01*
X50396690Y-83471071D01*
X50301777Y-83565818D01*
X50245588Y-83701134D01*
X50245461Y-83847653D01*
X50301413Y-83983067D01*
X50404927Y-84086762D01*
X50467200Y-84112621D01*
X50396690Y-84141755D01*
X50292995Y-84245269D01*
X50236806Y-84380585D01*
X50236679Y-84527104D01*
X45153821Y-84527104D01*
X45197009Y-84483992D01*
X45253198Y-84348676D01*
X45253325Y-84202157D01*
X45197373Y-84066743D01*
X45141671Y-84010944D01*
X45179229Y-83973452D01*
X45235418Y-83838136D01*
X45235545Y-83691617D01*
X45179593Y-83556203D01*
X45076079Y-83452508D01*
X44940763Y-83396319D01*
X44794244Y-83396192D01*
X44658830Y-83452144D01*
X44555135Y-83555658D01*
X44498946Y-83690974D01*
X44498819Y-83837493D01*
X44554771Y-83972907D01*
X44610473Y-84028706D01*
X44572915Y-84066198D01*
X44516726Y-84201514D01*
X44516599Y-84348033D01*
X44541463Y-84408208D01*
X44526384Y-84414438D01*
X44422689Y-84517952D01*
X44366500Y-84653268D01*
X44366373Y-84799787D01*
X36432999Y-84799787D01*
X36533069Y-84699892D01*
X36589258Y-84564576D01*
X36589385Y-84418057D01*
X36533433Y-84282643D01*
X36429919Y-84178948D01*
X36294603Y-84122759D01*
X36148084Y-84122632D01*
X36012670Y-84178584D01*
X35908975Y-84282098D01*
X35852786Y-84417414D01*
X35852659Y-84563933D01*
X35041000Y-84563933D01*
X35041000Y-83829873D01*
X36257621Y-83829873D01*
X36313573Y-83965287D01*
X36417087Y-84068982D01*
X36552403Y-84125171D01*
X36698922Y-84125298D01*
X36834336Y-84069346D01*
X36938031Y-83965832D01*
X36994220Y-83830516D01*
X36994347Y-83683997D01*
X36938395Y-83548583D01*
X36834881Y-83444888D01*
X36699565Y-83388699D01*
X36553046Y-83388572D01*
X36417632Y-83444524D01*
X36313937Y-83548038D01*
X36257748Y-83683354D01*
X36257621Y-83829873D01*
X35041000Y-83829873D01*
X35041000Y-82742753D01*
X42842739Y-82742753D01*
X42898691Y-82878167D01*
X43002205Y-82981862D01*
X43137521Y-83038051D01*
X43284040Y-83038178D01*
X43419454Y-82982226D01*
X43523149Y-82878712D01*
X43579338Y-82743396D01*
X43579450Y-82613213D01*
X44498819Y-82613213D01*
X44554771Y-82748627D01*
X44658285Y-82852322D01*
X44793601Y-82908511D01*
X44940120Y-82908638D01*
X45075534Y-82852686D01*
X45179229Y-82749172D01*
X45235418Y-82613856D01*
X45235545Y-82467337D01*
X45179593Y-82331923D01*
X45076079Y-82228228D01*
X44940763Y-82172039D01*
X44794244Y-82171912D01*
X44658830Y-82227864D01*
X44555135Y-82331378D01*
X44498946Y-82466694D01*
X44498819Y-82613213D01*
X43579450Y-82613213D01*
X43579465Y-82596877D01*
X43523513Y-82461463D01*
X43419999Y-82357768D01*
X43284683Y-82301579D01*
X43138164Y-82301452D01*
X43002750Y-82357404D01*
X42899055Y-82460918D01*
X42842866Y-82596234D01*
X42842739Y-82742753D01*
X35041000Y-82742753D01*
X35041000Y-81714040D01*
X35084822Y-81757862D01*
X35168834Y-81673850D01*
X35242432Y-81863721D01*
X35395381Y-81917309D01*
X35347477Y-82032674D01*
X35347350Y-82179193D01*
X35403302Y-82314607D01*
X35506816Y-82418302D01*
X35642132Y-82474491D01*
X35788651Y-82474618D01*
X35924065Y-82418666D01*
X36027760Y-82315152D01*
X36040050Y-82285553D01*
X36266679Y-82285553D01*
X36322631Y-82420967D01*
X36426145Y-82524662D01*
X36561461Y-82580851D01*
X36707980Y-82580978D01*
X36843394Y-82525026D01*
X36947089Y-82421512D01*
X37003278Y-82286196D01*
X37003405Y-82139677D01*
X36947453Y-82004263D01*
X36923985Y-81980753D01*
X48903179Y-81980753D01*
X48959131Y-82116167D01*
X49062645Y-82219862D01*
X49197961Y-82276051D01*
X49344480Y-82276178D01*
X49474700Y-82222372D01*
X57893442Y-82222372D01*
X57893442Y-83584715D01*
X58007742Y-83699015D01*
X59736342Y-83699015D01*
X59736342Y-81970415D01*
X59622042Y-81856115D01*
X58259700Y-81856115D01*
X58091659Y-81925719D01*
X57963047Y-82054332D01*
X57893442Y-82222372D01*
X49474700Y-82222372D01*
X49479894Y-82220226D01*
X49583589Y-82116712D01*
X49639778Y-81981396D01*
X49639905Y-81834877D01*
X49583953Y-81699463D01*
X49540200Y-81655633D01*
X52804619Y-81655633D01*
X52860571Y-81791047D01*
X52964085Y-81894742D01*
X53099401Y-81950931D01*
X53245920Y-81951058D01*
X53381334Y-81895106D01*
X53485029Y-81791592D01*
X53541218Y-81656276D01*
X53541345Y-81509757D01*
X53485393Y-81374343D01*
X53381879Y-81270648D01*
X53246563Y-81214459D01*
X53100044Y-81214332D01*
X52964630Y-81270284D01*
X52860935Y-81373798D01*
X52804746Y-81509114D01*
X52804619Y-81655633D01*
X49540200Y-81655633D01*
X49480439Y-81595768D01*
X49345123Y-81539579D01*
X49198604Y-81539452D01*
X49063190Y-81595404D01*
X48959495Y-81698918D01*
X48903306Y-81834234D01*
X48903179Y-81980753D01*
X36923985Y-81980753D01*
X36843939Y-81900568D01*
X36708623Y-81844379D01*
X36562104Y-81844252D01*
X36426690Y-81900204D01*
X36322995Y-82003718D01*
X36266806Y-82139034D01*
X36266679Y-82285553D01*
X36040050Y-82285553D01*
X36083949Y-82179836D01*
X36084076Y-82033317D01*
X36069430Y-81997870D01*
X36155865Y-81993051D01*
X36468092Y-81863721D01*
X36541691Y-81673848D01*
X36452356Y-81584513D01*
X47130259Y-81584513D01*
X47186211Y-81719927D01*
X47289725Y-81823622D01*
X47425041Y-81879811D01*
X47571560Y-81879938D01*
X47706974Y-81823986D01*
X47810669Y-81720472D01*
X47866858Y-81585156D01*
X47866985Y-81438637D01*
X47811033Y-81303223D01*
X47719104Y-81211133D01*
X51867359Y-81211133D01*
X51923311Y-81346547D01*
X52026825Y-81450242D01*
X52162141Y-81506431D01*
X52308660Y-81506558D01*
X52444074Y-81450606D01*
X52547769Y-81347092D01*
X52603958Y-81211776D01*
X52604085Y-81065257D01*
X52585647Y-81020633D01*
X53703779Y-81020633D01*
X53759731Y-81156047D01*
X53863245Y-81259742D01*
X53998561Y-81315931D01*
X54145080Y-81316058D01*
X54280494Y-81260106D01*
X54384189Y-81156592D01*
X54427988Y-81051113D01*
X54950919Y-81051113D01*
X55006871Y-81186527D01*
X55110385Y-81290222D01*
X55245701Y-81346411D01*
X55392220Y-81346538D01*
X55527634Y-81290586D01*
X55631329Y-81187072D01*
X55687518Y-81051756D01*
X55687645Y-80905237D01*
X55631693Y-80769823D01*
X55528179Y-80666128D01*
X55392863Y-80609939D01*
X55246344Y-80609812D01*
X55110930Y-80665764D01*
X55007235Y-80769278D01*
X54951046Y-80904594D01*
X54950919Y-81051113D01*
X54427988Y-81051113D01*
X54440378Y-81021276D01*
X54440505Y-80874757D01*
X54384553Y-80739343D01*
X54281039Y-80635648D01*
X54145723Y-80579459D01*
X53999204Y-80579332D01*
X53863790Y-80635284D01*
X53760095Y-80738798D01*
X53703906Y-80874114D01*
X53703779Y-81020633D01*
X52585647Y-81020633D01*
X52548133Y-80929843D01*
X52444619Y-80826148D01*
X52309303Y-80769959D01*
X52162784Y-80769832D01*
X52027370Y-80825784D01*
X51923675Y-80929298D01*
X51867486Y-81064614D01*
X51867359Y-81211133D01*
X47719104Y-81211133D01*
X47707519Y-81199528D01*
X47572203Y-81143339D01*
X47425684Y-81143212D01*
X47290270Y-81199164D01*
X47186575Y-81302678D01*
X47130386Y-81437994D01*
X47130259Y-81584513D01*
X36452356Y-81584513D01*
X35855262Y-80987420D01*
X35841120Y-81001562D01*
X35679475Y-80839917D01*
X35693617Y-80825775D01*
X36016907Y-80825775D01*
X36703335Y-81512204D01*
X36893208Y-81438605D01*
X37028082Y-81053653D01*
X37353799Y-81053653D01*
X37409751Y-81189067D01*
X37513265Y-81292762D01*
X37648581Y-81348951D01*
X37795100Y-81349078D01*
X37930514Y-81293126D01*
X37983817Y-81239916D01*
X38074605Y-81330862D01*
X38209921Y-81387051D01*
X38356440Y-81387178D01*
X38491854Y-81331226D01*
X38595549Y-81227712D01*
X38651738Y-81092396D01*
X38651865Y-80945877D01*
X38595913Y-80810463D01*
X38492399Y-80706768D01*
X38357083Y-80650579D01*
X38210564Y-80650452D01*
X38075150Y-80706404D01*
X38021847Y-80759614D01*
X37931059Y-80668668D01*
X37795743Y-80612479D01*
X37649224Y-80612352D01*
X37513810Y-80668304D01*
X37410115Y-80771818D01*
X37353926Y-80907134D01*
X37353799Y-81053653D01*
X37028082Y-81053653D01*
X37048720Y-80994751D01*
X37022538Y-80525172D01*
X36945801Y-80339913D01*
X38908279Y-80339913D01*
X38964231Y-80475327D01*
X39067745Y-80579022D01*
X39101342Y-80592973D01*
X39091150Y-80597184D01*
X38987455Y-80700698D01*
X38931266Y-80836014D01*
X38931139Y-80982533D01*
X38987091Y-81117947D01*
X39090605Y-81221642D01*
X39225921Y-81277831D01*
X39372440Y-81277958D01*
X39454254Y-81244153D01*
X40650719Y-81244153D01*
X40706671Y-81379567D01*
X40810185Y-81483262D01*
X40945501Y-81539451D01*
X41092020Y-81539578D01*
X41227434Y-81483626D01*
X41331129Y-81380112D01*
X41387318Y-81244796D01*
X41387384Y-81167953D01*
X41394939Y-81167953D01*
X41450891Y-81303367D01*
X41554405Y-81407062D01*
X41689721Y-81463251D01*
X41836240Y-81463378D01*
X41971654Y-81407426D01*
X42075349Y-81303912D01*
X42131538Y-81168596D01*
X42131665Y-81022077D01*
X42075713Y-80886663D01*
X41972199Y-80782968D01*
X41836883Y-80726779D01*
X41690364Y-80726652D01*
X41554950Y-80782604D01*
X41451255Y-80886118D01*
X41395066Y-81021434D01*
X41394939Y-81167953D01*
X41387384Y-81167953D01*
X41387445Y-81098277D01*
X41331493Y-80962863D01*
X41227979Y-80859168D01*
X41092663Y-80802979D01*
X40946144Y-80802852D01*
X40810730Y-80858804D01*
X40707035Y-80962318D01*
X40650846Y-81097634D01*
X40650719Y-81244153D01*
X39454254Y-81244153D01*
X39507854Y-81222006D01*
X39611549Y-81118492D01*
X39667738Y-80983176D01*
X39667865Y-80836657D01*
X39611913Y-80701243D01*
X39508399Y-80597548D01*
X39474802Y-80583597D01*
X39484994Y-80579386D01*
X39588689Y-80475872D01*
X39644878Y-80340556D01*
X39644991Y-80209269D01*
X39791094Y-80209269D01*
X39847046Y-80344683D01*
X39950560Y-80448378D01*
X40085876Y-80504567D01*
X40232395Y-80504694D01*
X40367809Y-80448742D01*
X40471504Y-80345228D01*
X40483203Y-80317053D01*
X51125679Y-80317053D01*
X51181631Y-80452467D01*
X51285145Y-80556162D01*
X51420461Y-80612351D01*
X51566980Y-80612478D01*
X51702394Y-80556526D01*
X51806089Y-80453012D01*
X51862278Y-80317696D01*
X51862405Y-80171177D01*
X51806453Y-80035763D01*
X51702939Y-79932068D01*
X51567623Y-79875879D01*
X51421104Y-79875752D01*
X51285690Y-79931704D01*
X51181995Y-80035218D01*
X51125806Y-80170534D01*
X51125679Y-80317053D01*
X40483203Y-80317053D01*
X40527693Y-80209912D01*
X40527820Y-80063393D01*
X40500220Y-79996595D01*
X48334219Y-79996595D01*
X48390171Y-80132009D01*
X48493685Y-80235704D01*
X48629001Y-80291893D01*
X48775520Y-80292020D01*
X48910934Y-80236068D01*
X49014629Y-80132554D01*
X49070818Y-79997238D01*
X49070945Y-79850719D01*
X49014993Y-79715305D01*
X48911479Y-79611610D01*
X48776163Y-79555421D01*
X48629644Y-79555294D01*
X48494230Y-79611246D01*
X48390535Y-79714760D01*
X48334346Y-79850076D01*
X48334219Y-79996595D01*
X40500220Y-79996595D01*
X40471868Y-79927979D01*
X40368354Y-79824284D01*
X40233038Y-79768095D01*
X40086519Y-79767968D01*
X39951105Y-79823920D01*
X39847410Y-79927434D01*
X39791221Y-80062750D01*
X39791094Y-80209269D01*
X39644991Y-80209269D01*
X39645005Y-80194037D01*
X39589053Y-80058623D01*
X39485539Y-79954928D01*
X39350223Y-79898739D01*
X39203704Y-79898612D01*
X39068290Y-79954564D01*
X38964595Y-80058078D01*
X38908406Y-80193394D01*
X38908279Y-80339913D01*
X36945801Y-80339913D01*
X36893208Y-80212945D01*
X36703335Y-80139346D01*
X36016907Y-80825775D01*
X35693617Y-80825775D01*
X35679475Y-80811633D01*
X35841120Y-80649988D01*
X35855262Y-80664130D01*
X36541691Y-79977702D01*
X36468092Y-79787829D01*
X36158943Y-79679513D01*
X43261839Y-79679513D01*
X43317791Y-79814927D01*
X43421305Y-79918622D01*
X43556621Y-79974811D01*
X43703140Y-79974938D01*
X43838554Y-79918986D01*
X43942249Y-79815472D01*
X43998438Y-79680156D01*
X43998565Y-79533637D01*
X43942613Y-79398223D01*
X43839099Y-79294528D01*
X43703783Y-79238339D01*
X43557264Y-79238212D01*
X43421850Y-79294164D01*
X43318155Y-79397678D01*
X43261966Y-79532994D01*
X43261839Y-79679513D01*
X36158943Y-79679513D01*
X36024238Y-79632317D01*
X35554659Y-79658499D01*
X35242432Y-79787829D01*
X35168834Y-79977700D01*
X35084822Y-79893688D01*
X35041000Y-79937510D01*
X35041000Y-78745736D01*
X35067913Y-78810871D01*
X35328792Y-79072206D01*
X35669822Y-79213814D01*
X36039082Y-79214136D01*
X36054668Y-79207696D01*
X43924779Y-79207696D01*
X43980731Y-79343110D01*
X44084245Y-79446805D01*
X44219561Y-79502994D01*
X44366080Y-79503121D01*
X44501494Y-79447169D01*
X44605189Y-79343655D01*
X44661378Y-79208339D01*
X44661505Y-79061820D01*
X44605553Y-78926406D01*
X44589996Y-78910821D01*
X51052181Y-78910821D01*
X51108133Y-79046235D01*
X51211647Y-79149930D01*
X51346963Y-79206119D01*
X51493482Y-79206246D01*
X51628896Y-79150294D01*
X51732591Y-79046780D01*
X51788780Y-78911464D01*
X51788907Y-78764945D01*
X51732955Y-78629531D01*
X51629441Y-78525836D01*
X51494125Y-78469647D01*
X51347606Y-78469520D01*
X51212192Y-78525472D01*
X51108497Y-78628986D01*
X51052308Y-78764302D01*
X51052181Y-78910821D01*
X44589996Y-78910821D01*
X44502039Y-78822711D01*
X44366723Y-78766522D01*
X44220204Y-78766395D01*
X44084790Y-78822347D01*
X43981095Y-78925861D01*
X43924906Y-79061177D01*
X43924779Y-79207696D01*
X36054668Y-79207696D01*
X36380358Y-79073124D01*
X36641693Y-78812245D01*
X36783301Y-78471215D01*
X36783467Y-78279973D01*
X42116299Y-78279973D01*
X42172251Y-78415387D01*
X42275765Y-78519082D01*
X42411081Y-78575271D01*
X42557600Y-78575398D01*
X42567476Y-78571317D01*
X48914702Y-78571317D01*
X48970654Y-78706731D01*
X49074168Y-78810426D01*
X49209484Y-78866615D01*
X49356003Y-78866742D01*
X49491417Y-78810790D01*
X49595112Y-78707276D01*
X49651301Y-78571960D01*
X49651428Y-78425441D01*
X49595476Y-78290027D01*
X49491962Y-78186332D01*
X49356646Y-78130143D01*
X49210127Y-78130016D01*
X49074713Y-78185968D01*
X48971018Y-78289482D01*
X48914829Y-78424798D01*
X48914702Y-78571317D01*
X42567476Y-78571317D01*
X42693014Y-78519446D01*
X42796709Y-78415932D01*
X42852898Y-78280616D01*
X42853025Y-78134097D01*
X42797073Y-77998683D01*
X42693559Y-77894988D01*
X42558243Y-77838799D01*
X42411724Y-77838672D01*
X42276310Y-77894624D01*
X42172615Y-77998138D01*
X42116426Y-78133454D01*
X42116299Y-78279973D01*
X36783467Y-78279973D01*
X36783623Y-78101955D01*
X36642611Y-77760679D01*
X36595568Y-77713553D01*
X37696699Y-77713553D01*
X37752651Y-77848967D01*
X37856165Y-77952662D01*
X37991481Y-78008851D01*
X38138000Y-78008978D01*
X38273414Y-77953026D01*
X38377109Y-77849512D01*
X38433298Y-77714196D01*
X38433309Y-77700853D01*
X44737579Y-77700853D01*
X44793531Y-77836267D01*
X44897045Y-77939962D01*
X45032361Y-77996151D01*
X45178880Y-77996278D01*
X45314294Y-77940326D01*
X45417989Y-77836812D01*
X45474178Y-77701496D01*
X45474305Y-77554977D01*
X45418353Y-77419563D01*
X45314839Y-77315868D01*
X45179523Y-77259679D01*
X45033004Y-77259552D01*
X44897590Y-77315504D01*
X44793895Y-77419018D01*
X44737706Y-77554334D01*
X44737579Y-77700853D01*
X38433309Y-77700853D01*
X38433425Y-77567677D01*
X38377473Y-77432263D01*
X38273959Y-77328568D01*
X38138643Y-77272379D01*
X37992124Y-77272252D01*
X37856710Y-77328204D01*
X37753015Y-77431718D01*
X37696826Y-77567034D01*
X37696699Y-77713553D01*
X36595568Y-77713553D01*
X36381732Y-77499344D01*
X36040702Y-77357736D01*
X35671442Y-77357414D01*
X35330166Y-77498426D01*
X35068831Y-77759305D01*
X35041000Y-77826330D01*
X35041000Y-76655717D01*
X35049657Y-76661632D01*
X35130262Y-76677955D01*
X36580262Y-76677955D01*
X36655563Y-76663786D01*
X36724723Y-76619283D01*
X36771119Y-76551380D01*
X36787442Y-76470775D01*
X36787442Y-75020775D01*
X36773273Y-74945474D01*
X36728770Y-74876314D01*
X36660867Y-74829918D01*
X36580262Y-74813595D01*
X35130262Y-74813595D01*
X35054961Y-74827764D01*
X35041000Y-74836748D01*
X35041000Y-74198915D01*
X37463442Y-74198915D01*
X37463442Y-74536257D01*
X37533046Y-74704298D01*
X37661659Y-74832910D01*
X37713462Y-74854368D01*
X37713462Y-75715315D01*
X37727631Y-75790616D01*
X37772134Y-75859776D01*
X37794471Y-75875038D01*
X37776181Y-75886807D01*
X37729785Y-75954710D01*
X37713462Y-76035315D01*
X37713462Y-76985315D01*
X37727631Y-77060616D01*
X37772134Y-77129776D01*
X37840037Y-77176172D01*
X37920642Y-77192495D01*
X39370642Y-77192495D01*
X39419102Y-77183377D01*
X39388466Y-77257154D01*
X39388339Y-77403673D01*
X39444291Y-77539087D01*
X39547805Y-77642782D01*
X39683121Y-77698971D01*
X39829640Y-77699098D01*
X39965054Y-77643146D01*
X40068749Y-77539632D01*
X40124938Y-77404316D01*
X40125065Y-77257797D01*
X40094959Y-77184934D01*
X48115752Y-77184934D01*
X48194857Y-77376382D01*
X48341204Y-77522985D01*
X48532514Y-77602424D01*
X48739661Y-77602605D01*
X48931109Y-77523500D01*
X49077712Y-77377153D01*
X49120592Y-77273886D01*
X51709904Y-77273886D01*
X51789009Y-77465334D01*
X51935356Y-77611937D01*
X52126666Y-77691376D01*
X52333813Y-77691557D01*
X52525261Y-77612452D01*
X52671864Y-77466105D01*
X52751303Y-77274795D01*
X52751484Y-77067648D01*
X52740895Y-77042019D01*
X55057568Y-77042019D01*
X55113520Y-77177433D01*
X55217034Y-77281128D01*
X55352350Y-77337317D01*
X55498869Y-77337444D01*
X55634283Y-77281492D01*
X55737978Y-77177978D01*
X55794167Y-77042662D01*
X55794294Y-76896143D01*
X55738342Y-76760729D01*
X55634828Y-76657034D01*
X55499512Y-76600845D01*
X55352993Y-76600718D01*
X55217579Y-76656670D01*
X55113884Y-76760184D01*
X55057695Y-76895500D01*
X55057568Y-77042019D01*
X52740895Y-77042019D01*
X52672379Y-76876200D01*
X52526032Y-76729597D01*
X52334722Y-76650158D01*
X52127575Y-76649977D01*
X51936127Y-76729082D01*
X51789524Y-76875429D01*
X51710085Y-77066739D01*
X51709904Y-77273886D01*
X49120592Y-77273886D01*
X49157151Y-77185843D01*
X49157332Y-76978696D01*
X49078227Y-76787248D01*
X48931880Y-76640645D01*
X48740570Y-76561206D01*
X48533423Y-76561025D01*
X48341975Y-76640130D01*
X48195372Y-76786477D01*
X48115933Y-76977787D01*
X48115752Y-77184934D01*
X40094959Y-77184934D01*
X40069113Y-77122383D01*
X39965599Y-77018688D01*
X39830283Y-76962499D01*
X39683764Y-76962372D01*
X39573218Y-77008049D01*
X39577822Y-76985315D01*
X39577822Y-76035315D01*
X39563653Y-75960014D01*
X39519150Y-75890854D01*
X39496813Y-75875592D01*
X39515103Y-75863823D01*
X39561499Y-75795920D01*
X39577822Y-75715315D01*
X39577822Y-75468915D01*
X56505442Y-75468915D01*
X56505442Y-75806257D01*
X56575046Y-75974298D01*
X56703659Y-76102910D01*
X56755462Y-76124368D01*
X56755462Y-76985315D01*
X56769631Y-77060616D01*
X56814134Y-77129776D01*
X56882037Y-77176172D01*
X56962642Y-77192495D01*
X58412642Y-77192495D01*
X58487943Y-77178326D01*
X58557103Y-77133823D01*
X58603499Y-77065920D01*
X58619822Y-76985315D01*
X58619822Y-76124368D01*
X58671625Y-76102910D01*
X58800238Y-75974298D01*
X58869842Y-75806257D01*
X58869842Y-75468915D01*
X58755542Y-75354615D01*
X57801942Y-75354615D01*
X57801942Y-75374615D01*
X57573342Y-75374615D01*
X57573342Y-75354615D01*
X56619742Y-75354615D01*
X56505442Y-75468915D01*
X39577822Y-75468915D01*
X39577822Y-74854368D01*
X39629625Y-74832910D01*
X39758238Y-74704298D01*
X39770633Y-74674373D01*
X56505442Y-74674373D01*
X56505442Y-75011715D01*
X56619742Y-75126015D01*
X57573342Y-75126015D01*
X57573342Y-75106015D01*
X57801942Y-75106015D01*
X57801942Y-75126015D01*
X58755542Y-75126015D01*
X58869842Y-75011715D01*
X58869842Y-74674373D01*
X58800238Y-74506332D01*
X58671625Y-74377720D01*
X58619822Y-74356262D01*
X58619822Y-73495315D01*
X58605653Y-73420014D01*
X58561150Y-73350854D01*
X58538813Y-73335592D01*
X58557103Y-73323823D01*
X58603499Y-73255920D01*
X58619822Y-73175315D01*
X58619822Y-72225315D01*
X58605653Y-72150014D01*
X58561150Y-72080854D01*
X58538813Y-72065592D01*
X58557103Y-72053823D01*
X58603499Y-71985920D01*
X58619822Y-71905315D01*
X58619822Y-71190534D01*
X58859952Y-71190534D01*
X58939057Y-71381982D01*
X59085404Y-71528585D01*
X59276714Y-71608024D01*
X59483861Y-71608205D01*
X59675309Y-71529100D01*
X59821912Y-71382753D01*
X59901351Y-71191443D01*
X59901532Y-70984296D01*
X59822427Y-70792848D01*
X59676080Y-70646245D01*
X59484770Y-70566806D01*
X59277623Y-70566625D01*
X59086175Y-70645730D01*
X58939572Y-70792077D01*
X58860133Y-70983387D01*
X58859952Y-71190534D01*
X58619822Y-71190534D01*
X58619822Y-70955315D01*
X58605653Y-70880014D01*
X58561150Y-70810854D01*
X58493247Y-70764458D01*
X58412642Y-70748135D01*
X56962642Y-70748135D01*
X56887341Y-70762304D01*
X56818181Y-70806807D01*
X56771785Y-70874710D01*
X56755462Y-70955315D01*
X56755462Y-71905315D01*
X56769631Y-71980616D01*
X56814134Y-72049776D01*
X56836471Y-72065038D01*
X56818181Y-72076807D01*
X56771785Y-72144710D01*
X56755462Y-72225315D01*
X56755462Y-73175315D01*
X56769631Y-73250616D01*
X56814134Y-73319776D01*
X56836471Y-73335038D01*
X56818181Y-73346807D01*
X56771785Y-73414710D01*
X56755462Y-73495315D01*
X56755462Y-74356262D01*
X56703659Y-74377720D01*
X56575046Y-74506332D01*
X56505442Y-74674373D01*
X39770633Y-74674373D01*
X39827842Y-74536257D01*
X39827842Y-74198915D01*
X39713542Y-74084615D01*
X38759942Y-74084615D01*
X38759942Y-74104615D01*
X38531342Y-74104615D01*
X38531342Y-74084615D01*
X37577742Y-74084615D01*
X37463442Y-74198915D01*
X35041000Y-74198915D01*
X35041000Y-71658915D01*
X37463442Y-71658915D01*
X37463442Y-71996257D01*
X37533046Y-72164298D01*
X37661659Y-72292910D01*
X37713462Y-72314368D01*
X37713462Y-73086262D01*
X37661659Y-73107720D01*
X37533046Y-73236332D01*
X37463442Y-73404373D01*
X37463442Y-73741715D01*
X37577742Y-73856015D01*
X38531342Y-73856015D01*
X38531342Y-73836015D01*
X38759942Y-73836015D01*
X38759942Y-73856015D01*
X39713542Y-73856015D01*
X39827842Y-73741715D01*
X39827842Y-73404373D01*
X39758238Y-73236332D01*
X39629625Y-73107720D01*
X39577822Y-73086262D01*
X39577822Y-72314368D01*
X39629625Y-72292910D01*
X39758238Y-72164298D01*
X39827842Y-71996257D01*
X39827842Y-71658915D01*
X39713542Y-71544615D01*
X38759942Y-71544615D01*
X38759942Y-71564615D01*
X38531342Y-71564615D01*
X38531342Y-71544615D01*
X37577742Y-71544615D01*
X37463442Y-71658915D01*
X35041000Y-71658915D01*
X35041000Y-70864373D01*
X37463442Y-70864373D01*
X37463442Y-71201715D01*
X37577742Y-71316015D01*
X38531342Y-71316015D01*
X38531342Y-70612415D01*
X38759942Y-70612415D01*
X38759942Y-71316015D01*
X39713542Y-71316015D01*
X39827842Y-71201715D01*
X39827842Y-70864373D01*
X39758238Y-70696332D01*
X39629625Y-70567720D01*
X39461585Y-70498115D01*
X38874242Y-70498115D01*
X38759942Y-70612415D01*
X38531342Y-70612415D01*
X38417042Y-70498115D01*
X37829699Y-70498115D01*
X37661659Y-70567720D01*
X37533046Y-70696332D01*
X37463442Y-70864373D01*
X35041000Y-70864373D01*
X35041000Y-69107652D01*
X37661478Y-69107652D01*
X37717430Y-69243066D01*
X37820944Y-69346761D01*
X37956260Y-69402950D01*
X38102779Y-69403077D01*
X38238193Y-69347125D01*
X38341888Y-69243611D01*
X38398077Y-69108295D01*
X38398147Y-69026753D01*
X56802579Y-69026753D01*
X56858531Y-69162167D01*
X56962045Y-69265862D01*
X57097361Y-69322051D01*
X57243880Y-69322178D01*
X57379294Y-69266226D01*
X57482989Y-69162712D01*
X57539178Y-69027396D01*
X57539305Y-68880877D01*
X57483353Y-68745463D01*
X57411209Y-68673192D01*
X57996352Y-68673192D01*
X58075457Y-68864640D01*
X58221804Y-69011243D01*
X58413114Y-69090682D01*
X58620261Y-69090863D01*
X58811709Y-69011758D01*
X58958312Y-68865411D01*
X59037751Y-68674101D01*
X59037932Y-68466954D01*
X58958827Y-68275506D01*
X58812480Y-68128903D01*
X58621170Y-68049464D01*
X58414023Y-68049283D01*
X58222575Y-68128388D01*
X58075972Y-68274735D01*
X57996533Y-68466045D01*
X57996352Y-68673192D01*
X57411209Y-68673192D01*
X57379839Y-68641768D01*
X57244523Y-68585579D01*
X57098004Y-68585452D01*
X56962590Y-68641404D01*
X56858895Y-68744918D01*
X56802706Y-68880234D01*
X56802579Y-69026753D01*
X38398147Y-69026753D01*
X38398204Y-68961776D01*
X38342252Y-68826362D01*
X38238738Y-68722667D01*
X38103422Y-68666478D01*
X37956903Y-68666351D01*
X37821489Y-68722303D01*
X37717794Y-68825817D01*
X37661605Y-68961133D01*
X37661478Y-69107652D01*
X35041000Y-69107652D01*
X35041000Y-67032853D01*
X37661478Y-67032853D01*
X37717430Y-67168267D01*
X37820944Y-67271962D01*
X37956260Y-67328151D01*
X38102779Y-67328278D01*
X38238193Y-67272326D01*
X38341888Y-67168812D01*
X38398077Y-67033496D01*
X38398204Y-66886977D01*
X38342252Y-66751563D01*
X38238738Y-66647868D01*
X38103422Y-66591679D01*
X37956903Y-66591552D01*
X37821489Y-66647504D01*
X37717794Y-66751018D01*
X37661605Y-66886334D01*
X37661478Y-67032853D01*
X35041000Y-67032853D01*
X35041000Y-65734913D01*
X37132819Y-65734913D01*
X37188771Y-65870327D01*
X37292285Y-65974022D01*
X37427601Y-66030211D01*
X37574120Y-66030338D01*
X37709534Y-65974386D01*
X37813229Y-65870872D01*
X37869418Y-65735556D01*
X37869545Y-65589037D01*
X37813593Y-65453623D01*
X37710079Y-65349928D01*
X37574763Y-65293739D01*
X37428244Y-65293612D01*
X37292830Y-65349564D01*
X37189135Y-65453078D01*
X37132946Y-65588394D01*
X37132819Y-65734913D01*
X35041000Y-65734913D01*
X35041000Y-64165193D01*
X37097259Y-64165193D01*
X37153211Y-64300607D01*
X37256725Y-64404302D01*
X37392041Y-64460491D01*
X37538560Y-64460618D01*
X37673974Y-64404666D01*
X37777669Y-64301152D01*
X37833858Y-64165836D01*
X37833985Y-64019317D01*
X37778033Y-63883903D01*
X37769479Y-63875334D01*
X46134552Y-63875334D01*
X46213657Y-64066782D01*
X46360004Y-64213385D01*
X46551314Y-64292824D01*
X46758461Y-64293005D01*
X46949909Y-64213900D01*
X47096512Y-64067553D01*
X47175951Y-63876243D01*
X47176132Y-63669096D01*
X47097027Y-63477648D01*
X46950680Y-63331045D01*
X46759370Y-63251606D01*
X46552223Y-63251425D01*
X46360775Y-63330530D01*
X46214172Y-63476877D01*
X46134733Y-63668187D01*
X46134552Y-63875334D01*
X37769479Y-63875334D01*
X37674519Y-63780208D01*
X37539203Y-63724019D01*
X37392684Y-63723892D01*
X37257270Y-63779844D01*
X37153575Y-63883358D01*
X37097386Y-64018674D01*
X37097259Y-64165193D01*
X35041000Y-64165193D01*
X35041000Y-63299053D01*
X40470379Y-63299053D01*
X40526331Y-63434467D01*
X40629845Y-63538162D01*
X40765161Y-63594351D01*
X40911680Y-63594478D01*
X41047094Y-63538526D01*
X41150789Y-63435012D01*
X41206978Y-63299696D01*
X41207077Y-63184753D01*
X43391379Y-63184753D01*
X43447331Y-63320167D01*
X43550845Y-63423862D01*
X43686161Y-63480051D01*
X43832680Y-63480178D01*
X43968094Y-63424226D01*
X44071789Y-63320712D01*
X44127978Y-63185396D01*
X44128105Y-63038877D01*
X44114915Y-63006953D01*
X60066479Y-63006953D01*
X60122431Y-63142367D01*
X60225945Y-63246062D01*
X60361261Y-63302251D01*
X60507780Y-63302378D01*
X60643194Y-63246426D01*
X60746889Y-63142912D01*
X60803078Y-63007596D01*
X60803205Y-62861077D01*
X60747253Y-62725663D01*
X60647255Y-62625491D01*
X60681294Y-62611426D01*
X60784989Y-62507912D01*
X60841178Y-62372596D01*
X60841305Y-62226077D01*
X60785353Y-62090663D01*
X60681839Y-61986968D01*
X60546523Y-61930779D01*
X60400004Y-61930652D01*
X60264590Y-61986604D01*
X60160895Y-62090118D01*
X60104706Y-62225434D01*
X60104579Y-62371953D01*
X60160531Y-62507367D01*
X60260529Y-62607539D01*
X60226490Y-62621604D01*
X60122795Y-62725118D01*
X60066606Y-62860434D01*
X60066479Y-63006953D01*
X44114915Y-63006953D01*
X44072153Y-62903463D01*
X43968639Y-62799768D01*
X43833323Y-62743579D01*
X43686804Y-62743452D01*
X43551390Y-62799404D01*
X43447695Y-62902918D01*
X43391506Y-63038234D01*
X43391379Y-63184753D01*
X41207077Y-63184753D01*
X41207105Y-63153177D01*
X41151153Y-63017763D01*
X41047639Y-62914068D01*
X40912323Y-62857879D01*
X40765804Y-62857752D01*
X40630390Y-62913704D01*
X40526695Y-63017218D01*
X40470506Y-63152534D01*
X40470379Y-63299053D01*
X35041000Y-63299053D01*
X35041000Y-62270353D01*
X37015979Y-62270353D01*
X37071931Y-62405767D01*
X37175445Y-62509462D01*
X37310761Y-62565651D01*
X37457280Y-62565778D01*
X37557536Y-62524353D01*
X40952979Y-62524353D01*
X41008931Y-62659767D01*
X41112445Y-62763462D01*
X41247761Y-62819651D01*
X41394280Y-62819778D01*
X41529694Y-62763826D01*
X41633389Y-62660312D01*
X41689578Y-62524996D01*
X41689705Y-62378477D01*
X41662748Y-62313234D01*
X56523152Y-62313234D01*
X56602257Y-62504682D01*
X56748604Y-62651285D01*
X56939914Y-62730724D01*
X57147061Y-62730905D01*
X57338509Y-62651800D01*
X57485112Y-62505453D01*
X57564551Y-62314143D01*
X57564732Y-62106996D01*
X57485627Y-61915548D01*
X57339280Y-61768945D01*
X57147970Y-61689506D01*
X56940823Y-61689325D01*
X56749375Y-61768430D01*
X56602772Y-61914777D01*
X56523333Y-62106087D01*
X56523152Y-62313234D01*
X41662748Y-62313234D01*
X41633753Y-62243063D01*
X41530239Y-62139368D01*
X41394923Y-62083179D01*
X41248404Y-62083052D01*
X41112990Y-62139004D01*
X41009295Y-62242518D01*
X40953106Y-62377834D01*
X40952979Y-62524353D01*
X37557536Y-62524353D01*
X37592694Y-62509826D01*
X37696389Y-62406312D01*
X37752578Y-62270996D01*
X37752705Y-62124477D01*
X37696753Y-61989063D01*
X37593239Y-61885368D01*
X37457923Y-61829179D01*
X37311404Y-61829052D01*
X37175990Y-61885004D01*
X37072295Y-61988518D01*
X37016106Y-62123834D01*
X37015979Y-62270353D01*
X35041000Y-62270353D01*
X35041000Y-61152753D01*
X41321279Y-61152753D01*
X41377231Y-61288167D01*
X41480745Y-61391862D01*
X41616061Y-61448051D01*
X41762580Y-61448178D01*
X41897994Y-61392226D01*
X42001689Y-61288712D01*
X42057878Y-61153396D01*
X42058005Y-61006877D01*
X42002053Y-60871463D01*
X41898539Y-60767768D01*
X41763223Y-60711579D01*
X41616704Y-60711452D01*
X41481290Y-60767404D01*
X41377595Y-60870918D01*
X41321406Y-61006234D01*
X41321279Y-61152753D01*
X35041000Y-61152753D01*
X35041000Y-60053983D01*
X36971618Y-60053983D01*
X37127821Y-60313948D01*
X37816241Y-60582205D01*
X38554917Y-60566596D01*
X39164863Y-60313948D01*
X39188918Y-60273913D01*
X51143459Y-60273913D01*
X51199411Y-60409327D01*
X51302925Y-60513022D01*
X51438241Y-60569211D01*
X51584760Y-60569338D01*
X51720174Y-60513386D01*
X51823869Y-60409872D01*
X51880058Y-60274556D01*
X51880185Y-60128037D01*
X51849587Y-60053983D01*
X56971618Y-60053983D01*
X57127821Y-60313948D01*
X57816241Y-60582205D01*
X58554917Y-60566596D01*
X59164863Y-60313948D01*
X59321066Y-60053983D01*
X58146342Y-58879260D01*
X56971618Y-60053983D01*
X51849587Y-60053983D01*
X51824233Y-59992623D01*
X51720719Y-59888928D01*
X51585403Y-59832739D01*
X51438884Y-59832612D01*
X51303470Y-59888564D01*
X51199775Y-59992078D01*
X51143586Y-60127394D01*
X51143459Y-60273913D01*
X39188918Y-60273913D01*
X39321066Y-60053983D01*
X38146342Y-58879260D01*
X36971618Y-60053983D01*
X35041000Y-60053983D01*
X35041000Y-58387514D01*
X36281752Y-58387514D01*
X36297361Y-59126190D01*
X36550009Y-59736136D01*
X36809974Y-59892339D01*
X37984697Y-58717615D01*
X38307987Y-58717615D01*
X39482710Y-59892339D01*
X39742675Y-59736136D01*
X39871618Y-59405233D01*
X42756379Y-59405233D01*
X42812331Y-59540647D01*
X42915845Y-59644342D01*
X43051161Y-59700531D01*
X43197680Y-59700658D01*
X43333094Y-59644706D01*
X43436789Y-59541192D01*
X43492978Y-59405876D01*
X43493105Y-59259357D01*
X43437153Y-59123943D01*
X43333639Y-59020248D01*
X43198323Y-58964059D01*
X43051804Y-58963932D01*
X42916390Y-59019884D01*
X42812695Y-59123398D01*
X42756506Y-59258714D01*
X42756379Y-59405233D01*
X39871618Y-59405233D01*
X40010932Y-59047716D01*
X39997447Y-58409553D01*
X49385779Y-58409553D01*
X49441731Y-58544967D01*
X49545245Y-58648662D01*
X49680561Y-58704851D01*
X49827080Y-58704978D01*
X49962494Y-58649026D01*
X50066189Y-58545512D01*
X50122378Y-58410196D01*
X50122397Y-58387514D01*
X56281752Y-58387514D01*
X56297361Y-59126190D01*
X56550009Y-59736136D01*
X56809974Y-59892339D01*
X57984697Y-58717615D01*
X58307987Y-58717615D01*
X59482710Y-59892339D01*
X59742675Y-59736136D01*
X60010932Y-59047716D01*
X59995323Y-58309040D01*
X59742675Y-57699094D01*
X59482710Y-57542891D01*
X58307987Y-58717615D01*
X57984697Y-58717615D01*
X56809974Y-57542891D01*
X56550009Y-57699094D01*
X56281752Y-58387514D01*
X50122397Y-58387514D01*
X50122505Y-58263677D01*
X50066553Y-58128263D01*
X49963039Y-58024568D01*
X49827723Y-57968379D01*
X49681204Y-57968252D01*
X49545790Y-58024204D01*
X49442095Y-58127718D01*
X49385906Y-58263034D01*
X49385779Y-58409553D01*
X39997447Y-58409553D01*
X39995323Y-58309040D01*
X39742675Y-57699094D01*
X39482710Y-57542891D01*
X38307987Y-58717615D01*
X37984697Y-58717615D01*
X36809974Y-57542891D01*
X36550009Y-57699094D01*
X36281752Y-58387514D01*
X35041000Y-58387514D01*
X35041000Y-57381247D01*
X36971618Y-57381247D01*
X38146342Y-58555970D01*
X39321066Y-57381247D01*
X56971618Y-57381247D01*
X58146342Y-58555970D01*
X59321066Y-57381247D01*
X59221628Y-57215753D01*
X60295079Y-57215753D01*
X60351031Y-57351167D01*
X60454545Y-57454862D01*
X60589861Y-57511051D01*
X60736380Y-57511178D01*
X60871794Y-57455226D01*
X60975489Y-57351712D01*
X61031678Y-57216396D01*
X61031805Y-57069877D01*
X60975853Y-56934463D01*
X60872339Y-56830768D01*
X60737023Y-56774579D01*
X60590504Y-56774452D01*
X60455090Y-56830404D01*
X60351395Y-56933918D01*
X60295206Y-57069234D01*
X60295079Y-57215753D01*
X59221628Y-57215753D01*
X59164863Y-57121282D01*
X58476443Y-56853025D01*
X57737767Y-56868634D01*
X57127821Y-57121282D01*
X56971618Y-57381247D01*
X39321066Y-57381247D01*
X39164863Y-57121282D01*
X38476443Y-56853025D01*
X37737767Y-56868634D01*
X37127821Y-57121282D01*
X36971618Y-57381247D01*
X35041000Y-57381247D01*
X35041000Y-55244713D01*
X38230099Y-55244713D01*
X38286051Y-55380127D01*
X38389565Y-55483822D01*
X38524881Y-55540011D01*
X38671400Y-55540138D01*
X38806814Y-55484186D01*
X38910509Y-55380672D01*
X38966698Y-55245356D01*
X38966825Y-55098837D01*
X38910873Y-54963423D01*
X38807359Y-54859728D01*
X38731320Y-54828153D01*
X41054579Y-54828153D01*
X41110531Y-54963567D01*
X41214045Y-55067262D01*
X41349361Y-55123451D01*
X41495880Y-55123578D01*
X41631294Y-55067626D01*
X41734989Y-54964112D01*
X41791178Y-54828796D01*
X41791189Y-54815453D01*
X56485079Y-54815453D01*
X56541031Y-54950867D01*
X56644545Y-55054562D01*
X56779861Y-55110751D01*
X56926380Y-55110878D01*
X57061794Y-55054926D01*
X57142069Y-54974791D01*
X60551619Y-54974791D01*
X60607571Y-55110205D01*
X60711085Y-55213900D01*
X60846401Y-55270089D01*
X60992920Y-55270216D01*
X61128334Y-55214264D01*
X61232029Y-55110750D01*
X61288218Y-54975434D01*
X61288345Y-54828915D01*
X61232393Y-54693501D01*
X61128879Y-54589806D01*
X60993563Y-54533617D01*
X60847044Y-54533490D01*
X60711630Y-54589442D01*
X60607935Y-54692956D01*
X60551746Y-54828272D01*
X60551619Y-54974791D01*
X57142069Y-54974791D01*
X57165489Y-54951412D01*
X57221678Y-54816096D01*
X57221805Y-54669577D01*
X57165853Y-54534163D01*
X57062339Y-54430468D01*
X56927023Y-54374279D01*
X56780504Y-54374152D01*
X56645090Y-54430104D01*
X56541395Y-54533618D01*
X56485206Y-54668934D01*
X56485079Y-54815453D01*
X41791189Y-54815453D01*
X41791305Y-54682277D01*
X41735353Y-54546863D01*
X41631839Y-54443168D01*
X41496523Y-54386979D01*
X41350004Y-54386852D01*
X41214590Y-54442804D01*
X41110895Y-54546318D01*
X41054706Y-54681634D01*
X41054579Y-54828153D01*
X38731320Y-54828153D01*
X38672043Y-54803539D01*
X38525524Y-54803412D01*
X38390110Y-54859364D01*
X38286415Y-54962878D01*
X38230226Y-55098194D01*
X38230099Y-55244713D01*
X35041000Y-55244713D01*
X35041000Y-54033915D01*
X45783203Y-54033915D01*
X45741006Y-54135534D01*
X45741006Y-54135534D01*
G37*
X45741006Y-54135534D02*
X45740879Y-54282053D01*
X45796831Y-54417467D01*
X45900345Y-54521162D01*
X46035661Y-54577351D01*
X46182180Y-54577478D01*
X46317594Y-54521526D01*
X46421289Y-54418012D01*
X46477478Y-54282696D01*
X46477605Y-54136177D01*
X46435351Y-54033915D01*
X61383000Y-54033915D01*
X61383000Y-77412688D01*
X61350642Y-77406135D01*
X58350642Y-77406135D01*
X58275341Y-77420304D01*
X58206181Y-77464807D01*
X58159785Y-77532710D01*
X58143462Y-77613315D01*
X58143462Y-80613315D01*
X58157631Y-80688616D01*
X58202134Y-80757776D01*
X58270037Y-80804172D01*
X58350642Y-80820495D01*
X61350642Y-80820495D01*
X61383000Y-80814406D01*
X61383000Y-81856115D01*
X60079242Y-81856115D01*
X59964942Y-81970415D01*
X59964942Y-83699015D01*
X59984942Y-83699015D01*
X59984942Y-83927615D01*
X59964942Y-83927615D01*
X59964942Y-85656215D01*
X60079242Y-85770515D01*
X61383000Y-85770515D01*
X61383000Y-110136000D01*
X41133715Y-110136000D01*
X41136556Y-110134826D01*
X41240251Y-110031312D01*
X41296440Y-109895996D01*
X41296567Y-109749477D01*
X41240615Y-109614063D01*
X41137101Y-109510368D01*
X41001785Y-109454179D01*
X40855266Y-109454052D01*
X40719852Y-109510004D01*
X40616157Y-109613518D01*
X40559968Y-109748834D01*
X40559841Y-109895353D01*
X40615793Y-110030767D01*
X40719307Y-110134462D01*
X40723011Y-110136000D01*
X35041000Y-110136000D01*
X35041000Y-109186394D01*
X56116752Y-109186394D01*
X56195857Y-109377842D01*
X56342204Y-109524445D01*
X56533514Y-109603884D01*
X56740661Y-109604065D01*
X56932109Y-109524960D01*
X57078712Y-109378613D01*
X57158151Y-109187303D01*
X57158332Y-108980156D01*
X57079227Y-108788708D01*
X56932880Y-108642105D01*
X56741570Y-108562666D01*
X56534423Y-108562485D01*
X56342975Y-108641590D01*
X56196372Y-108787937D01*
X56116933Y-108979247D01*
X56116752Y-109186394D01*
X35041000Y-109186394D01*
X35041000Y-108625353D01*
X36670539Y-108625353D01*
X36726491Y-108760767D01*
X36830005Y-108864462D01*
X36965321Y-108920651D01*
X37111840Y-108920778D01*
X37247254Y-108864826D01*
X37350949Y-108761312D01*
X37407138Y-108625996D01*
X37407204Y-108549153D01*
X41013939Y-108549153D01*
X41069891Y-108684567D01*
X41173405Y-108788262D01*
X41308721Y-108844451D01*
X41455240Y-108844578D01*
X41590654Y-108788626D01*
X41694349Y-108685112D01*
X41750538Y-108549796D01*
X41750665Y-108403277D01*
X41694713Y-108267863D01*
X41591199Y-108164168D01*
X41455883Y-108107979D01*
X41309364Y-108107852D01*
X41173950Y-108163804D01*
X41070255Y-108267318D01*
X41014066Y-108402634D01*
X41013939Y-108549153D01*
X37407204Y-108549153D01*
X37407265Y-108479477D01*
X37351313Y-108344063D01*
X37247799Y-108240368D01*
X37112483Y-108184179D01*
X36965964Y-108184052D01*
X36830550Y-108240004D01*
X36726855Y-108343518D01*
X36670666Y-108478834D01*
X36670539Y-108625353D01*
X35041000Y-108625353D01*
X35041000Y-104581134D01*
X36107912Y-104581134D01*
X36187017Y-104772582D01*
X36292321Y-104878071D01*
X36187532Y-104982677D01*
X36108093Y-105173987D01*
X36107912Y-105381134D01*
X36187017Y-105572582D01*
X36292321Y-105678071D01*
X36187532Y-105782677D01*
X36108093Y-105973987D01*
X36107912Y-106181134D01*
X36187017Y-106372582D01*
X36279800Y-106465527D01*
X36212532Y-106532677D01*
X36133093Y-106723987D01*
X36132912Y-106931134D01*
X36212017Y-107122582D01*
X36329821Y-107240592D01*
X36212532Y-107357677D01*
X36133093Y-107548987D01*
X36132912Y-107756134D01*
X36212017Y-107947582D01*
X36358364Y-108094185D01*
X36549674Y-108173624D01*
X36756821Y-108173805D01*
X36948269Y-108094700D01*
X37094872Y-107948353D01*
X37174311Y-107757043D01*
X37174492Y-107549896D01*
X37095387Y-107358448D01*
X36977583Y-107240438D01*
X37094872Y-107123353D01*
X37174311Y-106932043D01*
X37174492Y-106724896D01*
X37095387Y-106533448D01*
X37002604Y-106440503D01*
X37069872Y-106373353D01*
X37149311Y-106182043D01*
X37149492Y-105974896D01*
X37070387Y-105783448D01*
X36965083Y-105677959D01*
X37069872Y-105573353D01*
X37149311Y-105382043D01*
X37149492Y-105174896D01*
X37070387Y-104983448D01*
X36965083Y-104877959D01*
X37069872Y-104773353D01*
X37139307Y-104606134D01*
X37230912Y-104606134D01*
X37310017Y-104797582D01*
X37415321Y-104903071D01*
X37310532Y-105007677D01*
X37231093Y-105198987D01*
X37230912Y-105406134D01*
X37310017Y-105597582D01*
X37415321Y-105703071D01*
X37310532Y-105807677D01*
X37231093Y-105998987D01*
X37230912Y-106206134D01*
X37310017Y-106397582D01*
X37402800Y-106490527D01*
X37335532Y-106557677D01*
X37256093Y-106748987D01*
X37255912Y-106956134D01*
X37335017Y-107147582D01*
X37452821Y-107265592D01*
X37335532Y-107382677D01*
X37256093Y-107573987D01*
X37255912Y-107781134D01*
X37335017Y-107972582D01*
X37481364Y-108119185D01*
X37672674Y-108198624D01*
X37879821Y-108198805D01*
X38071269Y-108119700D01*
X38217872Y-107973353D01*
X38297311Y-107782043D01*
X38297492Y-107574896D01*
X38218387Y-107383448D01*
X38100583Y-107265438D01*
X38188621Y-107177553D01*
X40359941Y-107177553D01*
X40415893Y-107312967D01*
X40519407Y-107416662D01*
X40654723Y-107472851D01*
X40801242Y-107472978D01*
X40936656Y-107417026D01*
X41040351Y-107313512D01*
X41096540Y-107178196D01*
X41096667Y-107031677D01*
X41040715Y-106896263D01*
X40937201Y-106792568D01*
X40801885Y-106736379D01*
X40655366Y-106736252D01*
X40519952Y-106792204D01*
X40416257Y-106895718D01*
X40360068Y-107031034D01*
X40359941Y-107177553D01*
X38188621Y-107177553D01*
X38217872Y-107148353D01*
X38297311Y-106957043D01*
X38297492Y-106749896D01*
X38218387Y-106558448D01*
X38125604Y-106465503D01*
X38192872Y-106398353D01*
X38270106Y-106212353D01*
X42004539Y-106212353D01*
X42060491Y-106347767D01*
X42164005Y-106451462D01*
X42299321Y-106507651D01*
X42445840Y-106507778D01*
X42581254Y-106451826D01*
X42684949Y-106348312D01*
X42741138Y-106212996D01*
X42741265Y-106066477D01*
X42704862Y-105978374D01*
X56182792Y-105978374D01*
X56261897Y-106169822D01*
X56408244Y-106316425D01*
X56599554Y-106395864D01*
X56806701Y-106396045D01*
X56998149Y-106316940D01*
X57144752Y-106170593D01*
X57224191Y-105979283D01*
X57224372Y-105772136D01*
X57145267Y-105580688D01*
X56998920Y-105434085D01*
X56807610Y-105354646D01*
X56600463Y-105354465D01*
X56409015Y-105433570D01*
X56262412Y-105579917D01*
X56182973Y-105771227D01*
X56182792Y-105978374D01*
X42704862Y-105978374D01*
X42685313Y-105931063D01*
X42581799Y-105827368D01*
X42446483Y-105771179D01*
X42299964Y-105771052D01*
X42164550Y-105827004D01*
X42060855Y-105930518D01*
X42004666Y-106065834D01*
X42004539Y-106212353D01*
X38270106Y-106212353D01*
X38272311Y-106207043D01*
X38272492Y-105999896D01*
X38193387Y-105808448D01*
X38088083Y-105702959D01*
X38192872Y-105598353D01*
X38272311Y-105407043D01*
X38272492Y-105199896D01*
X38193387Y-105008448D01*
X38088083Y-104902959D01*
X38192872Y-104798353D01*
X38272311Y-104607043D01*
X38272492Y-104399896D01*
X38193387Y-104208448D01*
X38047040Y-104061845D01*
X37855730Y-103982406D01*
X37648583Y-103982225D01*
X37457135Y-104061330D01*
X37310532Y-104207677D01*
X37231093Y-104398987D01*
X37230912Y-104606134D01*
X37139307Y-104606134D01*
X37149311Y-104582043D01*
X37149492Y-104374896D01*
X37070387Y-104183448D01*
X36924040Y-104036845D01*
X36732730Y-103957406D01*
X36525583Y-103957225D01*
X36334135Y-104036330D01*
X36187532Y-104182677D01*
X36108093Y-104373987D01*
X36107912Y-104581134D01*
X35041000Y-104581134D01*
X35041000Y-97756134D01*
X35982912Y-97756134D01*
X36062017Y-97947582D01*
X36167321Y-98053071D01*
X36062532Y-98157677D01*
X35983093Y-98348987D01*
X35982912Y-98556134D01*
X36062017Y-98747582D01*
X36167321Y-98853071D01*
X36062532Y-98957677D01*
X35983093Y-99148987D01*
X35982912Y-99356134D01*
X36062017Y-99547582D01*
X36154800Y-99640527D01*
X36087532Y-99707677D01*
X36008093Y-99898987D01*
X36007912Y-100106134D01*
X36087017Y-100297582D01*
X36204821Y-100415592D01*
X36087532Y-100532677D01*
X36008093Y-100723987D01*
X36007912Y-100931134D01*
X36087017Y-101122582D01*
X36233364Y-101269185D01*
X36424674Y-101348624D01*
X36631821Y-101348805D01*
X36823269Y-101269700D01*
X36969872Y-101123353D01*
X37049311Y-100932043D01*
X37049492Y-100724896D01*
X36970387Y-100533448D01*
X36852583Y-100415438D01*
X36969872Y-100298353D01*
X37049311Y-100107043D01*
X37049394Y-100011914D01*
X38212292Y-100011914D01*
X38291397Y-100203362D01*
X38437744Y-100349965D01*
X38598848Y-100416861D01*
X38438515Y-100483110D01*
X38291912Y-100629457D01*
X38212473Y-100820767D01*
X38212292Y-101027914D01*
X38291397Y-101219362D01*
X38437744Y-101365965D01*
X38497804Y-101390904D01*
X38426650Y-101420304D01*
X38322955Y-101523818D01*
X38266766Y-101659134D01*
X38266639Y-101805653D01*
X38322591Y-101941067D01*
X38426105Y-102044762D01*
X38561421Y-102100951D01*
X38707940Y-102101078D01*
X38843354Y-102045126D01*
X38892612Y-101995953D01*
X47643339Y-101995953D01*
X47699291Y-102131367D01*
X47802805Y-102235062D01*
X47938121Y-102291251D01*
X48084640Y-102291378D01*
X48220054Y-102235426D01*
X48323749Y-102131912D01*
X48379938Y-101996596D01*
X48380065Y-101850077D01*
X48357306Y-101794994D01*
X56060872Y-101794994D01*
X56139977Y-101986442D01*
X56286324Y-102133045D01*
X56477634Y-102212484D01*
X56684781Y-102212665D01*
X56876229Y-102133560D01*
X57022832Y-101987213D01*
X57102271Y-101795903D01*
X57102452Y-101588756D01*
X57023347Y-101397308D01*
X56879463Y-101253172D01*
X56937189Y-101229320D01*
X57083792Y-101082973D01*
X57163231Y-100891663D01*
X57163412Y-100684516D01*
X57084307Y-100493068D01*
X56937960Y-100346465D01*
X56746650Y-100267026D01*
X56539503Y-100266845D01*
X56348055Y-100345950D01*
X56201452Y-100492297D01*
X56122013Y-100683607D01*
X56121832Y-100890754D01*
X56200937Y-101082202D01*
X56344821Y-101226338D01*
X56287095Y-101250190D01*
X56140492Y-101396537D01*
X56061053Y-101587847D01*
X56060872Y-101794994D01*
X48357306Y-101794994D01*
X48324113Y-101714663D01*
X48220599Y-101610968D01*
X48085283Y-101554779D01*
X47938764Y-101554652D01*
X47803350Y-101610604D01*
X47699655Y-101714118D01*
X47643466Y-101849434D01*
X47643339Y-101995953D01*
X38892612Y-101995953D01*
X38947049Y-101941612D01*
X39003238Y-101806296D01*
X39003365Y-101659777D01*
X38947413Y-101524363D01*
X38859261Y-101436057D01*
X39027649Y-101366480D01*
X39174252Y-101220133D01*
X39253691Y-101028823D01*
X39253872Y-100821676D01*
X39174767Y-100630228D01*
X39028420Y-100483625D01*
X38867316Y-100416729D01*
X39027649Y-100350480D01*
X39174252Y-100204133D01*
X39253691Y-100012823D01*
X39253872Y-99805676D01*
X39174767Y-99614228D01*
X39028420Y-99467625D01*
X38837110Y-99388186D01*
X38629963Y-99388005D01*
X38438515Y-99467110D01*
X38291912Y-99613457D01*
X38212473Y-99804767D01*
X38212292Y-100011914D01*
X37049394Y-100011914D01*
X37049492Y-99899896D01*
X36970387Y-99708448D01*
X36877604Y-99615503D01*
X36944872Y-99548353D01*
X37024311Y-99357043D01*
X37024468Y-99176553D01*
X49649939Y-99176553D01*
X49705891Y-99311967D01*
X49809405Y-99415662D01*
X49944721Y-99471851D01*
X50091240Y-99471978D01*
X50226654Y-99416026D01*
X50330349Y-99312512D01*
X50386538Y-99177196D01*
X50386665Y-99030677D01*
X50349213Y-98940034D01*
X52273732Y-98940034D01*
X52352837Y-99131482D01*
X52499184Y-99278085D01*
X52690494Y-99357524D01*
X52897641Y-99357705D01*
X53089089Y-99278600D01*
X53235692Y-99132253D01*
X53315131Y-98940943D01*
X53315197Y-98864879D01*
X53390401Y-98864945D01*
X53581849Y-98785840D01*
X53728452Y-98639493D01*
X53807891Y-98448183D01*
X53808072Y-98241036D01*
X53728967Y-98049588D01*
X53582620Y-97902985D01*
X53391310Y-97823546D01*
X53184163Y-97823365D01*
X52992715Y-97902470D01*
X52846112Y-98048817D01*
X52766673Y-98240127D01*
X52766607Y-98316191D01*
X52691403Y-98316125D01*
X52499955Y-98395230D01*
X52353352Y-98541577D01*
X52273913Y-98732887D01*
X52273732Y-98940034D01*
X50349213Y-98940034D01*
X50330713Y-98895263D01*
X50227199Y-98791568D01*
X50091883Y-98735379D01*
X49945364Y-98735252D01*
X49809950Y-98791204D01*
X49706255Y-98894718D01*
X49650066Y-99030034D01*
X49649939Y-99176553D01*
X37024468Y-99176553D01*
X37024492Y-99149896D01*
X36945387Y-98958448D01*
X36840083Y-98852959D01*
X36944872Y-98748353D01*
X37024311Y-98557043D01*
X37024492Y-98349896D01*
X36986008Y-98256756D01*
X39698536Y-98256756D01*
X39754488Y-98392170D01*
X39858002Y-98495865D01*
X39993318Y-98552054D01*
X40139837Y-98552181D01*
X40275251Y-98496229D01*
X40378946Y-98392715D01*
X40435135Y-98257399D01*
X40435262Y-98110880D01*
X40379310Y-97975466D01*
X40275796Y-97871771D01*
X40206637Y-97843053D01*
X42074741Y-97843053D01*
X42130693Y-97978467D01*
X42234207Y-98082162D01*
X42369523Y-98138351D01*
X42516042Y-98138478D01*
X42651456Y-98082526D01*
X42755151Y-97979012D01*
X42811340Y-97843696D01*
X42811467Y-97697177D01*
X42755515Y-97561763D01*
X42652001Y-97458068D01*
X42516685Y-97401879D01*
X42370166Y-97401752D01*
X42234752Y-97457704D01*
X42131057Y-97561218D01*
X42074868Y-97696534D01*
X42074741Y-97843053D01*
X40206637Y-97843053D01*
X40140480Y-97815582D01*
X39993961Y-97815455D01*
X39858547Y-97871407D01*
X39754852Y-97974921D01*
X39698663Y-98110237D01*
X39698536Y-98256756D01*
X36986008Y-98256756D01*
X36945387Y-98158448D01*
X36840083Y-98052959D01*
X36944872Y-97948353D01*
X37024311Y-97757043D01*
X37024492Y-97549896D01*
X36945387Y-97358448D01*
X36799040Y-97211845D01*
X36607730Y-97132406D01*
X36400583Y-97132225D01*
X36209135Y-97211330D01*
X36062532Y-97357677D01*
X35983093Y-97548987D01*
X35982912Y-97756134D01*
X35041000Y-97756134D01*
X35041000Y-96484153D01*
X36406379Y-96484153D01*
X36462331Y-96619567D01*
X36565845Y-96723262D01*
X36701161Y-96779451D01*
X36847680Y-96779578D01*
X36983094Y-96723626D01*
X37086789Y-96620112D01*
X37090509Y-96611153D01*
X40302739Y-96611153D01*
X40358691Y-96746567D01*
X40462205Y-96850262D01*
X40597521Y-96906451D01*
X40744040Y-96906578D01*
X40844296Y-96865153D01*
X47567139Y-96865153D01*
X47623091Y-97000567D01*
X47726605Y-97104262D01*
X47861921Y-97160451D01*
X48008440Y-97160578D01*
X48143854Y-97104626D01*
X48247549Y-97001112D01*
X48303738Y-96865796D01*
X48303865Y-96719277D01*
X48247913Y-96583863D01*
X48144399Y-96480168D01*
X48009083Y-96423979D01*
X47862564Y-96423852D01*
X47727150Y-96479804D01*
X47623455Y-96583318D01*
X47567266Y-96718634D01*
X47567139Y-96865153D01*
X40844296Y-96865153D01*
X40879454Y-96850626D01*
X40983149Y-96747112D01*
X41039338Y-96611796D01*
X41039465Y-96465277D01*
X40983513Y-96329863D01*
X40879999Y-96226168D01*
X40744683Y-96169979D01*
X40598164Y-96169852D01*
X40462750Y-96225804D01*
X40359055Y-96329318D01*
X40302866Y-96464634D01*
X40302739Y-96611153D01*
X37090509Y-96611153D01*
X37142978Y-96484796D01*
X37143105Y-96338277D01*
X37087153Y-96202863D01*
X36983639Y-96099168D01*
X36848323Y-96042979D01*
X36701804Y-96042852D01*
X36566390Y-96098804D01*
X36462695Y-96202318D01*
X36406506Y-96337634D01*
X36406379Y-96484153D01*
X35041000Y-96484153D01*
X35041000Y-95878617D01*
X37880040Y-95878617D01*
X37959145Y-96070065D01*
X38105492Y-96216668D01*
X38296802Y-96296107D01*
X38503949Y-96296288D01*
X38695397Y-96217183D01*
X38758737Y-96153953D01*
X48659339Y-96153953D01*
X48715291Y-96289367D01*
X48818805Y-96393062D01*
X48954121Y-96449251D01*
X49100640Y-96449378D01*
X49236054Y-96393426D01*
X49339749Y-96289912D01*
X49395938Y-96154596D01*
X49396065Y-96008077D01*
X49351390Y-95899953D01*
X53231339Y-95899953D01*
X53287291Y-96035367D01*
X53390805Y-96139062D01*
X53526121Y-96195251D01*
X53672640Y-96195378D01*
X53808054Y-96139426D01*
X53911749Y-96035912D01*
X53967938Y-95900596D01*
X53968065Y-95754077D01*
X53912113Y-95618663D01*
X53808599Y-95514968D01*
X53673283Y-95458779D01*
X53526764Y-95458652D01*
X53391350Y-95514604D01*
X53287655Y-95618118D01*
X53231466Y-95753434D01*
X53231339Y-95899953D01*
X49351390Y-95899953D01*
X49340113Y-95872663D01*
X49236599Y-95768968D01*
X49101283Y-95712779D01*
X48954764Y-95712652D01*
X48819350Y-95768604D01*
X48715655Y-95872118D01*
X48659466Y-96007434D01*
X48659339Y-96153953D01*
X38758737Y-96153953D01*
X38842000Y-96070836D01*
X38921439Y-95879526D01*
X38921620Y-95672379D01*
X38858226Y-95518953D01*
X40910717Y-95518953D01*
X40966669Y-95654367D01*
X41070183Y-95758062D01*
X41205499Y-95814251D01*
X41352018Y-95814378D01*
X41487432Y-95758426D01*
X41591127Y-95654912D01*
X41647316Y-95519596D01*
X41647443Y-95373077D01*
X41591491Y-95237663D01*
X41491956Y-95137953D01*
X51478739Y-95137953D01*
X51534691Y-95273367D01*
X51638205Y-95377062D01*
X51655304Y-95384162D01*
X51633806Y-95435934D01*
X51633679Y-95582453D01*
X51689631Y-95717867D01*
X51793145Y-95821562D01*
X51928461Y-95877751D01*
X52074980Y-95877878D01*
X52210394Y-95821926D01*
X52314089Y-95718412D01*
X52370278Y-95583096D01*
X52370405Y-95436577D01*
X52343448Y-95371334D01*
X58162912Y-95371334D01*
X58242017Y-95562782D01*
X58328321Y-95649237D01*
X58242532Y-95734877D01*
X58163093Y-95926187D01*
X58162912Y-96133334D01*
X58242017Y-96324782D01*
X58328321Y-96411237D01*
X58242532Y-96496877D01*
X58163093Y-96688187D01*
X58162912Y-96895334D01*
X58242017Y-97086782D01*
X58388364Y-97233385D01*
X58579674Y-97312824D01*
X58786821Y-97313005D01*
X58978269Y-97233900D01*
X59124872Y-97087553D01*
X59189763Y-96931277D01*
X59254017Y-97086782D01*
X59400364Y-97233385D01*
X59591674Y-97312824D01*
X59798821Y-97313005D01*
X59990269Y-97233900D01*
X60136872Y-97087553D01*
X60216311Y-96896243D01*
X60216492Y-96689096D01*
X60137387Y-96497648D01*
X60051083Y-96411193D01*
X60136872Y-96325553D01*
X60216311Y-96134243D01*
X60216492Y-95927096D01*
X60137387Y-95735648D01*
X60051083Y-95649193D01*
X60136872Y-95563553D01*
X60216311Y-95372243D01*
X60216492Y-95165096D01*
X60137387Y-94973648D01*
X59991040Y-94827045D01*
X59799730Y-94747606D01*
X59592583Y-94747425D01*
X59401135Y-94826530D01*
X59254532Y-94972877D01*
X59189641Y-95129153D01*
X59125387Y-94973648D01*
X58979040Y-94827045D01*
X58787730Y-94747606D01*
X58580583Y-94747425D01*
X58389135Y-94826530D01*
X58242532Y-94972877D01*
X58163093Y-95164187D01*
X58162912Y-95371334D01*
X52343448Y-95371334D01*
X52314453Y-95301163D01*
X52210939Y-95197468D01*
X52193840Y-95190368D01*
X52215338Y-95138596D01*
X52215465Y-94992077D01*
X52159513Y-94856663D01*
X52055999Y-94752968D01*
X51920683Y-94696779D01*
X51774164Y-94696652D01*
X51638750Y-94752604D01*
X51535055Y-94856118D01*
X51478866Y-94991434D01*
X51478739Y-95137953D01*
X41491956Y-95137953D01*
X41487977Y-95133968D01*
X41352661Y-95077779D01*
X41206142Y-95077652D01*
X41070728Y-95133604D01*
X40967033Y-95237118D01*
X40910844Y-95372434D01*
X40910717Y-95518953D01*
X38858226Y-95518953D01*
X38842515Y-95480931D01*
X38696168Y-95334328D01*
X38504858Y-95254889D01*
X38297711Y-95254708D01*
X38106263Y-95333813D01*
X37959660Y-95480160D01*
X37880221Y-95671470D01*
X37880040Y-95878617D01*
X35041000Y-95878617D01*
X35041000Y-94705249D01*
X39316753Y-94705249D01*
X39372705Y-94840663D01*
X39476219Y-94944358D01*
X39611535Y-95000547D01*
X39758054Y-95000674D01*
X39893468Y-94944722D01*
X39997163Y-94841208D01*
X40019260Y-94787994D01*
X40148434Y-94788106D01*
X40283848Y-94732154D01*
X40315732Y-94700325D01*
X40445121Y-94754053D01*
X40591640Y-94754180D01*
X40727054Y-94698228D01*
X40830749Y-94594714D01*
X40886938Y-94459398D01*
X40886975Y-94417251D01*
X41033442Y-94417378D01*
X41168856Y-94361426D01*
X41272551Y-94257912D01*
X41328740Y-94122596D01*
X41328867Y-93976077D01*
X41272915Y-93840663D01*
X41217742Y-93785393D01*
X41420339Y-93785393D01*
X41476291Y-93920807D01*
X41579805Y-94024502D01*
X41715121Y-94080691D01*
X41861640Y-94080818D01*
X41997054Y-94024866D01*
X42100749Y-93921352D01*
X42156938Y-93786036D01*
X42157065Y-93639517D01*
X42131479Y-93577593D01*
X43774919Y-93577593D01*
X43830871Y-93713007D01*
X43934385Y-93816702D01*
X44069701Y-93872891D01*
X44216220Y-93873018D01*
X44351634Y-93817066D01*
X44417702Y-93751113D01*
X46236179Y-93751113D01*
X46292131Y-93886527D01*
X46395645Y-93990222D01*
X46530961Y-94046411D01*
X46677480Y-94046538D01*
X46812894Y-93990586D01*
X46916589Y-93887072D01*
X46924528Y-93867953D01*
X51453339Y-93867953D01*
X51509291Y-94003367D01*
X51612805Y-94107062D01*
X51748121Y-94163251D01*
X51894640Y-94163378D01*
X52030054Y-94107426D01*
X52133749Y-94003912D01*
X52189938Y-93868596D01*
X52190065Y-93722077D01*
X52134113Y-93586663D01*
X52030599Y-93482968D01*
X51895283Y-93426779D01*
X51748764Y-93426652D01*
X51613350Y-93482604D01*
X51509655Y-93586118D01*
X51453466Y-93721434D01*
X51453339Y-93867953D01*
X46924528Y-93867953D01*
X46972778Y-93751756D01*
X46972905Y-93605237D01*
X46916953Y-93469823D01*
X46813439Y-93366128D01*
X46678123Y-93309939D01*
X46531604Y-93309812D01*
X46396190Y-93365764D01*
X46292495Y-93469278D01*
X46236306Y-93604594D01*
X46236179Y-93751113D01*
X44417702Y-93751113D01*
X44455329Y-93713552D01*
X44511518Y-93578236D01*
X44511645Y-93431717D01*
X44455693Y-93296303D01*
X44352179Y-93192608D01*
X44216863Y-93136419D01*
X44070344Y-93136292D01*
X43934930Y-93192244D01*
X43831235Y-93295758D01*
X43775046Y-93431074D01*
X43774919Y-93577593D01*
X42131479Y-93577593D01*
X42101113Y-93504103D01*
X41997599Y-93400408D01*
X41862283Y-93344219D01*
X41715764Y-93344092D01*
X41580350Y-93400044D01*
X41476655Y-93503558D01*
X41420466Y-93638874D01*
X41420339Y-93785393D01*
X41217742Y-93785393D01*
X41169401Y-93736968D01*
X41034085Y-93680779D01*
X40887566Y-93680652D01*
X40752152Y-93736604D01*
X40648457Y-93840118D01*
X40592268Y-93975434D01*
X40592231Y-94017581D01*
X40445764Y-94017454D01*
X40310350Y-94073406D01*
X40278466Y-94105235D01*
X40149077Y-94051507D01*
X40002558Y-94051380D01*
X39867144Y-94107332D01*
X39763449Y-94210846D01*
X39741352Y-94264060D01*
X39612178Y-94263948D01*
X39476764Y-94319900D01*
X39373069Y-94423414D01*
X39316880Y-94558730D01*
X39316753Y-94705249D01*
X35041000Y-94705249D01*
X35041000Y-92882433D01*
X43365979Y-92882433D01*
X43421931Y-93017847D01*
X43525445Y-93121542D01*
X43660761Y-93177731D01*
X43807280Y-93177858D01*
X43942694Y-93121906D01*
X44046389Y-93018392D01*
X44102578Y-92883076D01*
X44102623Y-92830953D01*
X47640674Y-92830953D01*
X47719779Y-93022401D01*
X47866126Y-93169004D01*
X48057436Y-93248443D01*
X48264583Y-93248624D01*
X48456031Y-93169519D01*
X48514619Y-93111033D01*
X52027379Y-93111033D01*
X52083331Y-93246447D01*
X52186845Y-93350142D01*
X52322161Y-93406331D01*
X52468680Y-93406458D01*
X52604094Y-93350506D01*
X52707789Y-93246992D01*
X52763978Y-93111676D01*
X52764105Y-92965157D01*
X52717330Y-92851953D01*
X59952179Y-92851953D01*
X60008131Y-92987367D01*
X60111645Y-93091062D01*
X60246961Y-93147251D01*
X60393480Y-93147378D01*
X60528894Y-93091426D01*
X60632589Y-92987912D01*
X60688778Y-92852596D01*
X60688905Y-92706077D01*
X60632953Y-92570663D01*
X60529439Y-92466968D01*
X60394123Y-92410779D01*
X60247604Y-92410652D01*
X60112190Y-92466604D01*
X60008495Y-92570118D01*
X59952306Y-92705434D01*
X59952179Y-92851953D01*
X52717330Y-92851953D01*
X52708153Y-92829743D01*
X52604639Y-92726048D01*
X52469323Y-92669859D01*
X52322804Y-92669732D01*
X52187390Y-92725684D01*
X52083695Y-92829198D01*
X52027506Y-92964514D01*
X52027379Y-93111033D01*
X48514619Y-93111033D01*
X48602634Y-93023172D01*
X48682073Y-92831862D01*
X48682254Y-92624715D01*
X48603149Y-92433267D01*
X48579916Y-92409993D01*
X49147019Y-92409993D01*
X49202971Y-92545407D01*
X49306485Y-92649102D01*
X49441801Y-92705291D01*
X49588320Y-92705418D01*
X49723734Y-92649466D01*
X49827429Y-92545952D01*
X49883618Y-92410636D01*
X49883745Y-92264117D01*
X49827793Y-92128703D01*
X49724279Y-92025008D01*
X49588963Y-91968819D01*
X49442444Y-91968692D01*
X49307030Y-92024644D01*
X49203335Y-92128158D01*
X49147146Y-92263474D01*
X49147019Y-92409993D01*
X48579916Y-92409993D01*
X48456802Y-92286664D01*
X48265492Y-92207225D01*
X48058345Y-92207044D01*
X47866897Y-92286149D01*
X47720294Y-92432496D01*
X47640855Y-92623806D01*
X47640674Y-92830953D01*
X44102623Y-92830953D01*
X44102705Y-92736557D01*
X44046753Y-92601143D01*
X43943239Y-92497448D01*
X43807923Y-92441259D01*
X43661404Y-92441132D01*
X43525990Y-92497084D01*
X43422295Y-92600598D01*
X43366106Y-92735914D01*
X43365979Y-92882433D01*
X35041000Y-92882433D01*
X35041000Y-92297715D01*
X44946031Y-92297715D01*
X45001983Y-92433129D01*
X45105497Y-92536824D01*
X45240813Y-92593013D01*
X45387332Y-92593140D01*
X45522746Y-92537188D01*
X45626441Y-92433674D01*
X45682630Y-92298358D01*
X45682757Y-92151839D01*
X45626805Y-92016425D01*
X45548071Y-91937553D01*
X47010879Y-91937553D01*
X47066831Y-92072967D01*
X47170345Y-92176662D01*
X47305661Y-92232851D01*
X47452180Y-92232978D01*
X47587594Y-92177026D01*
X47691289Y-92073512D01*
X47747478Y-91938196D01*
X47747605Y-91791677D01*
X47691653Y-91656263D01*
X47588139Y-91552568D01*
X47452823Y-91496379D01*
X47306304Y-91496252D01*
X47170890Y-91552204D01*
X47067195Y-91655718D01*
X47011006Y-91791034D01*
X47010879Y-91937553D01*
X45548071Y-91937553D01*
X45523291Y-91912730D01*
X45387975Y-91856541D01*
X45241456Y-91856414D01*
X45106042Y-91912366D01*
X45002347Y-92015880D01*
X44946158Y-92151196D01*
X44946031Y-92297715D01*
X35041000Y-92297715D01*
X35041000Y-91549951D01*
X35873938Y-91549951D01*
X35929890Y-91685365D01*
X36033404Y-91789060D01*
X36168720Y-91845249D01*
X36315239Y-91845376D01*
X36450653Y-91789424D01*
X36554348Y-91685910D01*
X36610537Y-91550594D01*
X36610664Y-91404075D01*
X36554712Y-91268661D01*
X36451198Y-91164966D01*
X36315882Y-91108777D01*
X36169363Y-91108650D01*
X36033949Y-91164602D01*
X35930254Y-91268116D01*
X35874065Y-91403432D01*
X35873938Y-91549951D01*
X35041000Y-91549951D01*
X35041000Y-89258755D01*
X37457939Y-89258755D01*
X37513891Y-89394169D01*
X37617405Y-89497864D01*
X37683475Y-89525299D01*
X37666655Y-89542090D01*
X37610466Y-89677406D01*
X37610339Y-89823925D01*
X37666291Y-89959339D01*
X37737699Y-90030872D01*
X37689206Y-90147653D01*
X37689079Y-90294172D01*
X37745031Y-90429586D01*
X37848545Y-90533281D01*
X37983861Y-90589470D01*
X38130380Y-90589597D01*
X38258110Y-90536820D01*
X38258039Y-90619293D01*
X38313991Y-90754707D01*
X38373518Y-90814338D01*
X38314355Y-90873398D01*
X38283486Y-90947737D01*
X38219995Y-90947682D01*
X38220065Y-90867117D01*
X38164113Y-90731703D01*
X38060599Y-90628008D01*
X37925283Y-90571819D01*
X37778764Y-90571692D01*
X37643350Y-90627644D01*
X37539655Y-90731158D01*
X37483466Y-90866474D01*
X37483339Y-91012993D01*
X37539291Y-91148407D01*
X37642805Y-91252102D01*
X37778121Y-91308291D01*
X37844089Y-91308348D01*
X37844019Y-91388913D01*
X37899971Y-91524327D01*
X38003485Y-91628022D01*
X38138801Y-91684211D01*
X38285320Y-91684338D01*
X38420734Y-91628386D01*
X38524429Y-91524872D01*
X38555298Y-91450533D01*
X38699340Y-91450658D01*
X38834754Y-91394706D01*
X38938449Y-91291192D01*
X38988576Y-91170473D01*
X42822537Y-91170473D01*
X42878489Y-91305887D01*
X42982003Y-91409582D01*
X43117319Y-91465771D01*
X43263838Y-91465898D01*
X43399252Y-91409946D01*
X43502947Y-91306432D01*
X43559136Y-91171116D01*
X43559263Y-91024597D01*
X43531380Y-90957113D01*
X54938219Y-90957113D01*
X54994171Y-91092527D01*
X55097685Y-91196222D01*
X55233001Y-91252411D01*
X55379520Y-91252538D01*
X55514934Y-91196586D01*
X55618629Y-91093072D01*
X55674818Y-90957756D01*
X55674945Y-90811237D01*
X55618993Y-90675823D01*
X55515479Y-90572128D01*
X55380163Y-90515939D01*
X55233644Y-90515812D01*
X55098230Y-90571764D01*
X54994535Y-90675278D01*
X54938346Y-90810594D01*
X54938219Y-90957113D01*
X43531380Y-90957113D01*
X43503311Y-90889183D01*
X43399797Y-90785488D01*
X43264481Y-90729299D01*
X43117962Y-90729172D01*
X42982548Y-90785124D01*
X42878853Y-90888638D01*
X42822664Y-91023954D01*
X42822537Y-91170473D01*
X38988576Y-91170473D01*
X38994638Y-91155876D01*
X38994765Y-91009357D01*
X38938813Y-90873943D01*
X38879286Y-90814312D01*
X38938449Y-90755252D01*
X38994638Y-90619936D01*
X38994765Y-90473417D01*
X38938813Y-90338003D01*
X38912809Y-90311953D01*
X49106379Y-90311953D01*
X49162331Y-90447367D01*
X49265845Y-90551062D01*
X49401161Y-90607251D01*
X49547680Y-90607378D01*
X49683094Y-90551426D01*
X49786789Y-90447912D01*
X49842978Y-90312596D01*
X49843105Y-90166077D01*
X49787153Y-90030663D01*
X49683639Y-89926968D01*
X49548323Y-89870779D01*
X49401804Y-89870652D01*
X49266390Y-89926604D01*
X49162695Y-90030118D01*
X49106506Y-90165434D01*
X49106379Y-90311953D01*
X38912809Y-90311953D01*
X38865136Y-90264197D01*
X38920978Y-90129716D01*
X38921105Y-89983197D01*
X38865153Y-89847783D01*
X38761639Y-89744088D01*
X38626323Y-89687899D01*
X38479804Y-89687772D01*
X38347009Y-89742642D01*
X38347065Y-89678049D01*
X38291113Y-89542635D01*
X38187599Y-89438940D01*
X38121529Y-89411505D01*
X38138349Y-89394714D01*
X38169971Y-89318559D01*
X43991341Y-89318559D01*
X44047293Y-89453973D01*
X44150807Y-89557668D01*
X44286123Y-89613857D01*
X44432642Y-89613984D01*
X44568056Y-89558032D01*
X44671751Y-89454518D01*
X44716499Y-89346753D01*
X50930339Y-89346753D01*
X50986291Y-89482167D01*
X51089805Y-89585862D01*
X51225121Y-89642051D01*
X51371640Y-89642178D01*
X51458873Y-89606134D01*
X57888512Y-89606134D01*
X57967617Y-89797582D01*
X58113964Y-89944185D01*
X58305274Y-90023624D01*
X58512421Y-90023805D01*
X58703869Y-89944700D01*
X58796078Y-89852652D01*
X58937364Y-89994185D01*
X59128674Y-90073624D01*
X59335821Y-90073805D01*
X59527269Y-89994700D01*
X59618232Y-89903896D01*
X59708364Y-89994185D01*
X59899674Y-90073624D01*
X60106821Y-90073805D01*
X60298269Y-89994700D01*
X60444872Y-89848353D01*
X60524311Y-89657043D01*
X60524492Y-89449896D01*
X60445387Y-89258448D01*
X60299040Y-89111845D01*
X60107730Y-89032406D01*
X59900583Y-89032225D01*
X59709135Y-89111330D01*
X59618172Y-89202134D01*
X59528040Y-89111845D01*
X59336730Y-89032406D01*
X59129583Y-89032225D01*
X58938135Y-89111330D01*
X58845926Y-89203378D01*
X58704640Y-89061845D01*
X58513330Y-88982406D01*
X58306183Y-88982225D01*
X58114735Y-89061330D01*
X57968132Y-89207677D01*
X57888693Y-89398987D01*
X57888512Y-89606134D01*
X51458873Y-89606134D01*
X51507054Y-89586226D01*
X51610749Y-89482712D01*
X51666938Y-89347396D01*
X51667065Y-89200877D01*
X51611113Y-89065463D01*
X51507599Y-88961768D01*
X51372283Y-88905579D01*
X51225764Y-88905452D01*
X51090350Y-88961404D01*
X50986655Y-89064918D01*
X50930466Y-89200234D01*
X50930339Y-89346753D01*
X44716499Y-89346753D01*
X44727940Y-89319202D01*
X44728067Y-89172683D01*
X44674325Y-89042617D01*
X44742349Y-88974712D01*
X44798538Y-88839396D01*
X44798665Y-88692877D01*
X44742713Y-88557463D01*
X44741387Y-88556134D01*
X57863512Y-88556134D01*
X57942617Y-88747582D01*
X58088964Y-88894185D01*
X58280274Y-88973624D01*
X58487421Y-88973805D01*
X58678869Y-88894700D01*
X58771078Y-88802652D01*
X58912364Y-88944185D01*
X59103674Y-89023624D01*
X59310821Y-89023805D01*
X59502269Y-88944700D01*
X59593232Y-88853896D01*
X59683364Y-88944185D01*
X59874674Y-89023624D01*
X60081821Y-89023805D01*
X60273269Y-88944700D01*
X60419872Y-88798353D01*
X60499311Y-88607043D01*
X60499492Y-88399896D01*
X60420387Y-88208448D01*
X60274040Y-88061845D01*
X60082730Y-87982406D01*
X59875583Y-87982225D01*
X59684135Y-88061330D01*
X59593172Y-88152134D01*
X59503040Y-88061845D01*
X59311730Y-87982406D01*
X59104583Y-87982225D01*
X58913135Y-88061330D01*
X58820926Y-88153378D01*
X58679640Y-88011845D01*
X58488330Y-87932406D01*
X58281183Y-87932225D01*
X58089735Y-88011330D01*
X57943132Y-88157677D01*
X57863693Y-88348987D01*
X57863512Y-88556134D01*
X44741387Y-88556134D01*
X44697156Y-88511826D01*
X44742349Y-88466712D01*
X44798538Y-88331396D01*
X44798665Y-88184877D01*
X44795970Y-88178353D01*
X50353139Y-88178353D01*
X50409091Y-88313767D01*
X50512605Y-88417462D01*
X50647921Y-88473651D01*
X50794440Y-88473778D01*
X50929854Y-88417826D01*
X51033549Y-88314312D01*
X51078084Y-88207061D01*
X55390911Y-88207061D01*
X55446863Y-88342475D01*
X55550377Y-88446170D01*
X55685693Y-88502359D01*
X55832212Y-88502486D01*
X55967626Y-88446534D01*
X56071321Y-88343020D01*
X56127510Y-88207704D01*
X56127637Y-88061185D01*
X56071685Y-87925771D01*
X55968171Y-87822076D01*
X55832855Y-87765887D01*
X55686336Y-87765760D01*
X55550922Y-87821712D01*
X55447227Y-87925226D01*
X55391038Y-88060542D01*
X55390911Y-88207061D01*
X51078084Y-88207061D01*
X51089738Y-88178996D01*
X51089865Y-88032477D01*
X51033913Y-87897063D01*
X50930399Y-87793368D01*
X50795083Y-87737179D01*
X50648564Y-87737052D01*
X50513150Y-87793004D01*
X50409455Y-87896518D01*
X50353266Y-88031834D01*
X50353139Y-88178353D01*
X44795970Y-88178353D01*
X44742713Y-88049463D01*
X44727313Y-88034036D01*
X44812947Y-87948552D01*
X44869136Y-87813236D01*
X44869263Y-87666717D01*
X44813311Y-87531303D01*
X44755753Y-87473644D01*
X44795404Y-87434062D01*
X44830273Y-87350089D01*
X52393144Y-87350089D01*
X52449096Y-87485503D01*
X52552610Y-87589198D01*
X52687926Y-87645387D01*
X52834445Y-87645514D01*
X52969859Y-87589562D01*
X53062248Y-87497334D01*
X59520352Y-87497334D01*
X59599457Y-87688782D01*
X59745804Y-87835385D01*
X59937114Y-87914824D01*
X60144261Y-87915005D01*
X60335709Y-87835900D01*
X60482312Y-87689553D01*
X60561751Y-87498243D01*
X60561932Y-87291096D01*
X60482827Y-87099648D01*
X60336480Y-86953045D01*
X60145170Y-86873606D01*
X59938023Y-86873425D01*
X59746575Y-86952530D01*
X59599972Y-87098877D01*
X59520533Y-87290187D01*
X59520352Y-87497334D01*
X53062248Y-87497334D01*
X53073554Y-87486048D01*
X53129743Y-87350732D01*
X53129870Y-87204213D01*
X53073918Y-87068799D01*
X52970404Y-86965104D01*
X52835088Y-86908915D01*
X52688569Y-86908788D01*
X52553155Y-86964740D01*
X52449460Y-87068254D01*
X52393271Y-87203570D01*
X52393144Y-87350089D01*
X44830273Y-87350089D01*
X44851593Y-87298746D01*
X44851720Y-87152227D01*
X44795768Y-87016813D01*
X44692254Y-86913118D01*
X44556938Y-86856929D01*
X44410419Y-86856802D01*
X44275005Y-86912754D01*
X44171310Y-87016268D01*
X44115121Y-87151584D01*
X44114994Y-87298103D01*
X44170946Y-87433517D01*
X44228504Y-87491176D01*
X44188853Y-87530758D01*
X44132664Y-87666074D01*
X44132537Y-87812593D01*
X44188489Y-87948007D01*
X44203889Y-87963434D01*
X44118255Y-88048918D01*
X44062066Y-88184234D01*
X44061939Y-88330753D01*
X44117891Y-88466167D01*
X44163448Y-88511804D01*
X44118255Y-88556918D01*
X44062066Y-88692234D01*
X44061939Y-88838753D01*
X44115681Y-88968819D01*
X44047657Y-89036724D01*
X43991468Y-89172040D01*
X43991341Y-89318559D01*
X38169971Y-89318559D01*
X38194538Y-89259398D01*
X38194665Y-89112879D01*
X38138713Y-88977465D01*
X38035199Y-88873770D01*
X37899883Y-88817581D01*
X37753364Y-88817454D01*
X37617950Y-88873406D01*
X37514255Y-88976920D01*
X37458066Y-89112236D01*
X37457939Y-89258755D01*
X35041000Y-89258755D01*
X35041000Y-88805234D01*
X42456341Y-88805234D01*
X42512293Y-88940648D01*
X42615807Y-89044343D01*
X42751123Y-89100532D01*
X42897642Y-89100659D01*
X43033056Y-89044707D01*
X43136751Y-88941193D01*
X43192940Y-88805877D01*
X43193067Y-88659358D01*
X43137115Y-88523944D01*
X43033601Y-88420249D01*
X42898285Y-88364060D01*
X42751766Y-88363933D01*
X42616352Y-88419885D01*
X42512657Y-88523399D01*
X42456468Y-88658715D01*
X42456341Y-88805234D01*
X35041000Y-88805234D01*
X35041000Y-85895435D01*
X35930857Y-85895435D01*
X35986809Y-86030849D01*
X36090323Y-86134544D01*
X36225639Y-86190733D01*
X36372158Y-86190860D01*
X36507572Y-86134908D01*
X36611267Y-86031394D01*
X36667456Y-85896078D01*
X36667583Y-85749559D01*
X36611631Y-85614145D01*
X36508117Y-85510450D01*
X36372801Y-85454261D01*
X36226282Y-85454134D01*
X36090868Y-85510086D01*
X35987173Y-85613600D01*
X35930984Y-85748916D01*
X35930857Y-85895435D01*
X35041000Y-85895435D01*
X35041000Y-85435153D01*
X45298919Y-85435153D01*
X45354871Y-85570567D01*
X45458385Y-85674262D01*
X45460751Y-85675244D01*
X45357657Y-85778158D01*
X45301468Y-85913474D01*
X45301341Y-86059993D01*
X45357293Y-86195407D01*
X45421900Y-86260127D01*
X45357657Y-86324258D01*
X45301468Y-86459574D01*
X45301341Y-86606093D01*
X45357293Y-86741507D01*
X45460807Y-86845202D01*
X45596123Y-86901391D01*
X45742642Y-86901518D01*
X45878056Y-86845566D01*
X45981751Y-86742052D01*
X46037940Y-86606736D01*
X46038067Y-86460217D01*
X45982115Y-86324803D01*
X45917508Y-86260083D01*
X45981751Y-86195952D01*
X46037940Y-86060636D01*
X46038067Y-85914117D01*
X45982115Y-85778703D01*
X45878601Y-85675008D01*
X45876235Y-85674026D01*
X45911970Y-85638353D01*
X50402048Y-85638353D01*
X50458000Y-85773767D01*
X50462061Y-85777835D01*
X50412066Y-85898234D01*
X50411939Y-86044753D01*
X50467891Y-86180167D01*
X50488048Y-86200359D01*
X50468255Y-86220118D01*
X50412066Y-86355434D01*
X50411939Y-86501953D01*
X50467891Y-86637367D01*
X50571405Y-86741062D01*
X50706721Y-86797251D01*
X50853240Y-86797378D01*
X50988654Y-86741426D01*
X51059757Y-86670447D01*
X51155605Y-86766462D01*
X51290921Y-86822651D01*
X51437440Y-86822778D01*
X51572854Y-86766826D01*
X51676549Y-86663312D01*
X51732738Y-86527996D01*
X51732865Y-86381477D01*
X51676913Y-86246063D01*
X51665542Y-86234672D01*
X53108860Y-86234672D01*
X53164812Y-86370086D01*
X53268326Y-86473781D01*
X53403642Y-86529970D01*
X53550161Y-86530097D01*
X53685575Y-86474145D01*
X53789270Y-86370631D01*
X53845459Y-86235315D01*
X53845586Y-86088796D01*
X53789634Y-85953382D01*
X53686120Y-85849687D01*
X53550804Y-85793498D01*
X53404285Y-85793371D01*
X53268871Y-85849323D01*
X53165176Y-85952837D01*
X53108987Y-86088153D01*
X53108860Y-86234672D01*
X51665542Y-86234672D01*
X51656756Y-86225871D01*
X51676549Y-86206112D01*
X51732738Y-86070796D01*
X51732865Y-85924277D01*
X51687385Y-85814207D01*
X51727349Y-85774312D01*
X51783538Y-85638996D01*
X51783665Y-85492477D01*
X51727713Y-85357063D01*
X51624199Y-85253368D01*
X51488883Y-85197179D01*
X51342364Y-85197052D01*
X51206950Y-85253004D01*
X51103255Y-85356518D01*
X51092900Y-85381454D01*
X51082822Y-85357063D01*
X50979308Y-85253368D01*
X50843992Y-85197179D01*
X50697473Y-85197052D01*
X50562059Y-85253004D01*
X50458364Y-85356518D01*
X50402175Y-85491834D01*
X50402048Y-85638353D01*
X45911970Y-85638353D01*
X45979329Y-85571112D01*
X46035518Y-85435796D01*
X46035645Y-85289277D01*
X45979693Y-85153863D01*
X45876179Y-85050168D01*
X45740863Y-84993979D01*
X45594344Y-84993852D01*
X45458930Y-85049804D01*
X45355235Y-85153318D01*
X45299046Y-85288634D01*
X45298919Y-85435153D01*
X35041000Y-85435153D01*
X35041000Y-84563933D01*
X35852659Y-84563933D01*
X35908611Y-84699347D01*
X36012125Y-84803042D01*
X36147441Y-84859231D01*
X36293960Y-84859358D01*
X36429374Y-84803406D01*
X36432999Y-84799787D01*
X44366373Y-84799787D01*
X44422325Y-84935201D01*
X44525839Y-85038896D01*
X44661155Y-85095085D01*
X44807674Y-85095212D01*
X44943088Y-85039260D01*
X45046783Y-84935746D01*
X45102972Y-84800430D01*
X45103099Y-84653911D01*
X45078235Y-84593736D01*
X45093314Y-84587506D01*
X45153821Y-84527104D01*
X50236679Y-84527104D01*
X50292631Y-84662518D01*
X50396145Y-84766213D01*
X50531461Y-84822402D01*
X50677980Y-84822529D01*
X50813394Y-84766577D01*
X50917089Y-84663063D01*
X50973278Y-84527747D01*
X50973315Y-84484641D01*
X51105494Y-84430026D01*
X51209189Y-84326512D01*
X51265378Y-84191196D01*
X51265505Y-84044677D01*
X51209553Y-83909263D01*
X51129664Y-83829234D01*
X51206949Y-83797300D01*
X51265918Y-83738433D01*
X51671779Y-83738433D01*
X51727731Y-83873847D01*
X51831245Y-83977542D01*
X51966561Y-84033731D01*
X52113080Y-84033858D01*
X52248494Y-83977906D01*
X52352189Y-83874392D01*
X52408378Y-83739076D01*
X52408411Y-83700034D01*
X55606212Y-83700034D01*
X55685317Y-83891482D01*
X55831664Y-84038085D01*
X56022974Y-84117524D01*
X56054582Y-84117552D01*
X56009135Y-84136330D01*
X55862532Y-84282677D01*
X55783093Y-84473987D01*
X55782912Y-84681134D01*
X55862017Y-84872582D01*
X56008364Y-85019185D01*
X56199674Y-85098624D01*
X56406821Y-85098805D01*
X56598269Y-85019700D01*
X56744872Y-84873353D01*
X56824311Y-84682043D01*
X56824492Y-84474896D01*
X56745387Y-84283448D01*
X56599040Y-84136845D01*
X56407730Y-84057406D01*
X56376122Y-84057378D01*
X56413545Y-84041915D01*
X57893442Y-84041915D01*
X57893442Y-85404258D01*
X57963047Y-85572298D01*
X58091659Y-85700911D01*
X58259700Y-85770515D01*
X59622042Y-85770515D01*
X59736342Y-85656215D01*
X59736342Y-83927615D01*
X58007742Y-83927615D01*
X57893442Y-84041915D01*
X56413545Y-84041915D01*
X56421569Y-84038600D01*
X56568172Y-83892253D01*
X56647611Y-83700943D01*
X56647792Y-83493796D01*
X56568687Y-83302348D01*
X56422340Y-83155745D01*
X56231030Y-83076306D01*
X56023883Y-83076125D01*
X55832435Y-83155230D01*
X55685832Y-83301577D01*
X55606393Y-83492887D01*
X55606212Y-83700034D01*
X52408411Y-83700034D01*
X52408505Y-83592557D01*
X52352553Y-83457143D01*
X52249039Y-83353448D01*
X52113723Y-83297259D01*
X51967204Y-83297132D01*
X51831790Y-83353084D01*
X51728095Y-83456598D01*
X51671906Y-83591914D01*
X51671779Y-83738433D01*
X51265918Y-83738433D01*
X51353552Y-83650953D01*
X51432991Y-83459643D01*
X51433172Y-83252496D01*
X51354067Y-83061048D01*
X51207720Y-82914445D01*
X51185728Y-82905313D01*
X53282139Y-82905313D01*
X53338091Y-83040727D01*
X53441605Y-83144422D01*
X53576921Y-83200611D01*
X53723440Y-83200738D01*
X53858854Y-83144786D01*
X53962549Y-83041272D01*
X54018738Y-82905956D01*
X54018865Y-82759437D01*
X53962913Y-82624023D01*
X53859399Y-82520328D01*
X53724083Y-82464139D01*
X53577564Y-82464012D01*
X53442150Y-82519964D01*
X53338455Y-82623478D01*
X53282266Y-82758794D01*
X53282139Y-82905313D01*
X51185728Y-82905313D01*
X51016410Y-82835006D01*
X50809263Y-82834825D01*
X50617815Y-82913930D01*
X50471212Y-83060277D01*
X50391773Y-83251587D01*
X50391592Y-83458734D01*
X50396690Y-83471071D01*
X50301777Y-83565818D01*
X50245588Y-83701134D01*
X50245461Y-83847653D01*
X50301413Y-83983067D01*
X50404927Y-84086762D01*
X50467200Y-84112621D01*
X50396690Y-84141755D01*
X50292995Y-84245269D01*
X50236806Y-84380585D01*
X50236679Y-84527104D01*
X45153821Y-84527104D01*
X45197009Y-84483992D01*
X45253198Y-84348676D01*
X45253325Y-84202157D01*
X45197373Y-84066743D01*
X45141671Y-84010944D01*
X45179229Y-83973452D01*
X45235418Y-83838136D01*
X45235545Y-83691617D01*
X45179593Y-83556203D01*
X45076079Y-83452508D01*
X44940763Y-83396319D01*
X44794244Y-83396192D01*
X44658830Y-83452144D01*
X44555135Y-83555658D01*
X44498946Y-83690974D01*
X44498819Y-83837493D01*
X44554771Y-83972907D01*
X44610473Y-84028706D01*
X44572915Y-84066198D01*
X44516726Y-84201514D01*
X44516599Y-84348033D01*
X44541463Y-84408208D01*
X44526384Y-84414438D01*
X44422689Y-84517952D01*
X44366500Y-84653268D01*
X44366373Y-84799787D01*
X36432999Y-84799787D01*
X36533069Y-84699892D01*
X36589258Y-84564576D01*
X36589385Y-84418057D01*
X36533433Y-84282643D01*
X36429919Y-84178948D01*
X36294603Y-84122759D01*
X36148084Y-84122632D01*
X36012670Y-84178584D01*
X35908975Y-84282098D01*
X35852786Y-84417414D01*
X35852659Y-84563933D01*
X35041000Y-84563933D01*
X35041000Y-83829873D01*
X36257621Y-83829873D01*
X36313573Y-83965287D01*
X36417087Y-84068982D01*
X36552403Y-84125171D01*
X36698922Y-84125298D01*
X36834336Y-84069346D01*
X36938031Y-83965832D01*
X36994220Y-83830516D01*
X36994347Y-83683997D01*
X36938395Y-83548583D01*
X36834881Y-83444888D01*
X36699565Y-83388699D01*
X36553046Y-83388572D01*
X36417632Y-83444524D01*
X36313937Y-83548038D01*
X36257748Y-83683354D01*
X36257621Y-83829873D01*
X35041000Y-83829873D01*
X35041000Y-82742753D01*
X42842739Y-82742753D01*
X42898691Y-82878167D01*
X43002205Y-82981862D01*
X43137521Y-83038051D01*
X43284040Y-83038178D01*
X43419454Y-82982226D01*
X43523149Y-82878712D01*
X43579338Y-82743396D01*
X43579450Y-82613213D01*
X44498819Y-82613213D01*
X44554771Y-82748627D01*
X44658285Y-82852322D01*
X44793601Y-82908511D01*
X44940120Y-82908638D01*
X45075534Y-82852686D01*
X45179229Y-82749172D01*
X45235418Y-82613856D01*
X45235545Y-82467337D01*
X45179593Y-82331923D01*
X45076079Y-82228228D01*
X44940763Y-82172039D01*
X44794244Y-82171912D01*
X44658830Y-82227864D01*
X44555135Y-82331378D01*
X44498946Y-82466694D01*
X44498819Y-82613213D01*
X43579450Y-82613213D01*
X43579465Y-82596877D01*
X43523513Y-82461463D01*
X43419999Y-82357768D01*
X43284683Y-82301579D01*
X43138164Y-82301452D01*
X43002750Y-82357404D01*
X42899055Y-82460918D01*
X42842866Y-82596234D01*
X42842739Y-82742753D01*
X35041000Y-82742753D01*
X35041000Y-81714040D01*
X35084822Y-81757862D01*
X35168834Y-81673850D01*
X35242432Y-81863721D01*
X35395381Y-81917309D01*
X35347477Y-82032674D01*
X35347350Y-82179193D01*
X35403302Y-82314607D01*
X35506816Y-82418302D01*
X35642132Y-82474491D01*
X35788651Y-82474618D01*
X35924065Y-82418666D01*
X36027760Y-82315152D01*
X36040050Y-82285553D01*
X36266679Y-82285553D01*
X36322631Y-82420967D01*
X36426145Y-82524662D01*
X36561461Y-82580851D01*
X36707980Y-82580978D01*
X36843394Y-82525026D01*
X36947089Y-82421512D01*
X37003278Y-82286196D01*
X37003405Y-82139677D01*
X36947453Y-82004263D01*
X36923985Y-81980753D01*
X48903179Y-81980753D01*
X48959131Y-82116167D01*
X49062645Y-82219862D01*
X49197961Y-82276051D01*
X49344480Y-82276178D01*
X49474700Y-82222372D01*
X57893442Y-82222372D01*
X57893442Y-83584715D01*
X58007742Y-83699015D01*
X59736342Y-83699015D01*
X59736342Y-81970415D01*
X59622042Y-81856115D01*
X58259700Y-81856115D01*
X58091659Y-81925719D01*
X57963047Y-82054332D01*
X57893442Y-82222372D01*
X49474700Y-82222372D01*
X49479894Y-82220226D01*
X49583589Y-82116712D01*
X49639778Y-81981396D01*
X49639905Y-81834877D01*
X49583953Y-81699463D01*
X49540200Y-81655633D01*
X52804619Y-81655633D01*
X52860571Y-81791047D01*
X52964085Y-81894742D01*
X53099401Y-81950931D01*
X53245920Y-81951058D01*
X53381334Y-81895106D01*
X53485029Y-81791592D01*
X53541218Y-81656276D01*
X53541345Y-81509757D01*
X53485393Y-81374343D01*
X53381879Y-81270648D01*
X53246563Y-81214459D01*
X53100044Y-81214332D01*
X52964630Y-81270284D01*
X52860935Y-81373798D01*
X52804746Y-81509114D01*
X52804619Y-81655633D01*
X49540200Y-81655633D01*
X49480439Y-81595768D01*
X49345123Y-81539579D01*
X49198604Y-81539452D01*
X49063190Y-81595404D01*
X48959495Y-81698918D01*
X48903306Y-81834234D01*
X48903179Y-81980753D01*
X36923985Y-81980753D01*
X36843939Y-81900568D01*
X36708623Y-81844379D01*
X36562104Y-81844252D01*
X36426690Y-81900204D01*
X36322995Y-82003718D01*
X36266806Y-82139034D01*
X36266679Y-82285553D01*
X36040050Y-82285553D01*
X36083949Y-82179836D01*
X36084076Y-82033317D01*
X36069430Y-81997870D01*
X36155865Y-81993051D01*
X36468092Y-81863721D01*
X36541691Y-81673848D01*
X36452356Y-81584513D01*
X47130259Y-81584513D01*
X47186211Y-81719927D01*
X47289725Y-81823622D01*
X47425041Y-81879811D01*
X47571560Y-81879938D01*
X47706974Y-81823986D01*
X47810669Y-81720472D01*
X47866858Y-81585156D01*
X47866985Y-81438637D01*
X47811033Y-81303223D01*
X47719104Y-81211133D01*
X51867359Y-81211133D01*
X51923311Y-81346547D01*
X52026825Y-81450242D01*
X52162141Y-81506431D01*
X52308660Y-81506558D01*
X52444074Y-81450606D01*
X52547769Y-81347092D01*
X52603958Y-81211776D01*
X52604085Y-81065257D01*
X52585647Y-81020633D01*
X53703779Y-81020633D01*
X53759731Y-81156047D01*
X53863245Y-81259742D01*
X53998561Y-81315931D01*
X54145080Y-81316058D01*
X54280494Y-81260106D01*
X54384189Y-81156592D01*
X54427988Y-81051113D01*
X54950919Y-81051113D01*
X55006871Y-81186527D01*
X55110385Y-81290222D01*
X55245701Y-81346411D01*
X55392220Y-81346538D01*
X55527634Y-81290586D01*
X55631329Y-81187072D01*
X55687518Y-81051756D01*
X55687645Y-80905237D01*
X55631693Y-80769823D01*
X55528179Y-80666128D01*
X55392863Y-80609939D01*
X55246344Y-80609812D01*
X55110930Y-80665764D01*
X55007235Y-80769278D01*
X54951046Y-80904594D01*
X54950919Y-81051113D01*
X54427988Y-81051113D01*
X54440378Y-81021276D01*
X54440505Y-80874757D01*
X54384553Y-80739343D01*
X54281039Y-80635648D01*
X54145723Y-80579459D01*
X53999204Y-80579332D01*
X53863790Y-80635284D01*
X53760095Y-80738798D01*
X53703906Y-80874114D01*
X53703779Y-81020633D01*
X52585647Y-81020633D01*
X52548133Y-80929843D01*
X52444619Y-80826148D01*
X52309303Y-80769959D01*
X52162784Y-80769832D01*
X52027370Y-80825784D01*
X51923675Y-80929298D01*
X51867486Y-81064614D01*
X51867359Y-81211133D01*
X47719104Y-81211133D01*
X47707519Y-81199528D01*
X47572203Y-81143339D01*
X47425684Y-81143212D01*
X47290270Y-81199164D01*
X47186575Y-81302678D01*
X47130386Y-81437994D01*
X47130259Y-81584513D01*
X36452356Y-81584513D01*
X35855262Y-80987420D01*
X35841120Y-81001562D01*
X35679475Y-80839917D01*
X35693617Y-80825775D01*
X36016907Y-80825775D01*
X36703335Y-81512204D01*
X36893208Y-81438605D01*
X37028082Y-81053653D01*
X37353799Y-81053653D01*
X37409751Y-81189067D01*
X37513265Y-81292762D01*
X37648581Y-81348951D01*
X37795100Y-81349078D01*
X37930514Y-81293126D01*
X37983817Y-81239916D01*
X38074605Y-81330862D01*
X38209921Y-81387051D01*
X38356440Y-81387178D01*
X38491854Y-81331226D01*
X38595549Y-81227712D01*
X38651738Y-81092396D01*
X38651865Y-80945877D01*
X38595913Y-80810463D01*
X38492399Y-80706768D01*
X38357083Y-80650579D01*
X38210564Y-80650452D01*
X38075150Y-80706404D01*
X38021847Y-80759614D01*
X37931059Y-80668668D01*
X37795743Y-80612479D01*
X37649224Y-80612352D01*
X37513810Y-80668304D01*
X37410115Y-80771818D01*
X37353926Y-80907134D01*
X37353799Y-81053653D01*
X37028082Y-81053653D01*
X37048720Y-80994751D01*
X37022538Y-80525172D01*
X36945801Y-80339913D01*
X38908279Y-80339913D01*
X38964231Y-80475327D01*
X39067745Y-80579022D01*
X39101342Y-80592973D01*
X39091150Y-80597184D01*
X38987455Y-80700698D01*
X38931266Y-80836014D01*
X38931139Y-80982533D01*
X38987091Y-81117947D01*
X39090605Y-81221642D01*
X39225921Y-81277831D01*
X39372440Y-81277958D01*
X39454254Y-81244153D01*
X40650719Y-81244153D01*
X40706671Y-81379567D01*
X40810185Y-81483262D01*
X40945501Y-81539451D01*
X41092020Y-81539578D01*
X41227434Y-81483626D01*
X41331129Y-81380112D01*
X41387318Y-81244796D01*
X41387384Y-81167953D01*
X41394939Y-81167953D01*
X41450891Y-81303367D01*
X41554405Y-81407062D01*
X41689721Y-81463251D01*
X41836240Y-81463378D01*
X41971654Y-81407426D01*
X42075349Y-81303912D01*
X42131538Y-81168596D01*
X42131665Y-81022077D01*
X42075713Y-80886663D01*
X41972199Y-80782968D01*
X41836883Y-80726779D01*
X41690364Y-80726652D01*
X41554950Y-80782604D01*
X41451255Y-80886118D01*
X41395066Y-81021434D01*
X41394939Y-81167953D01*
X41387384Y-81167953D01*
X41387445Y-81098277D01*
X41331493Y-80962863D01*
X41227979Y-80859168D01*
X41092663Y-80802979D01*
X40946144Y-80802852D01*
X40810730Y-80858804D01*
X40707035Y-80962318D01*
X40650846Y-81097634D01*
X40650719Y-81244153D01*
X39454254Y-81244153D01*
X39507854Y-81222006D01*
X39611549Y-81118492D01*
X39667738Y-80983176D01*
X39667865Y-80836657D01*
X39611913Y-80701243D01*
X39508399Y-80597548D01*
X39474802Y-80583597D01*
X39484994Y-80579386D01*
X39588689Y-80475872D01*
X39644878Y-80340556D01*
X39644991Y-80209269D01*
X39791094Y-80209269D01*
X39847046Y-80344683D01*
X39950560Y-80448378D01*
X40085876Y-80504567D01*
X40232395Y-80504694D01*
X40367809Y-80448742D01*
X40471504Y-80345228D01*
X40483203Y-80317053D01*
X51125679Y-80317053D01*
X51181631Y-80452467D01*
X51285145Y-80556162D01*
X51420461Y-80612351D01*
X51566980Y-80612478D01*
X51702394Y-80556526D01*
X51806089Y-80453012D01*
X51862278Y-80317696D01*
X51862405Y-80171177D01*
X51806453Y-80035763D01*
X51702939Y-79932068D01*
X51567623Y-79875879D01*
X51421104Y-79875752D01*
X51285690Y-79931704D01*
X51181995Y-80035218D01*
X51125806Y-80170534D01*
X51125679Y-80317053D01*
X40483203Y-80317053D01*
X40527693Y-80209912D01*
X40527820Y-80063393D01*
X40500220Y-79996595D01*
X48334219Y-79996595D01*
X48390171Y-80132009D01*
X48493685Y-80235704D01*
X48629001Y-80291893D01*
X48775520Y-80292020D01*
X48910934Y-80236068D01*
X49014629Y-80132554D01*
X49070818Y-79997238D01*
X49070945Y-79850719D01*
X49014993Y-79715305D01*
X48911479Y-79611610D01*
X48776163Y-79555421D01*
X48629644Y-79555294D01*
X48494230Y-79611246D01*
X48390535Y-79714760D01*
X48334346Y-79850076D01*
X48334219Y-79996595D01*
X40500220Y-79996595D01*
X40471868Y-79927979D01*
X40368354Y-79824284D01*
X40233038Y-79768095D01*
X40086519Y-79767968D01*
X39951105Y-79823920D01*
X39847410Y-79927434D01*
X39791221Y-80062750D01*
X39791094Y-80209269D01*
X39644991Y-80209269D01*
X39645005Y-80194037D01*
X39589053Y-80058623D01*
X39485539Y-79954928D01*
X39350223Y-79898739D01*
X39203704Y-79898612D01*
X39068290Y-79954564D01*
X38964595Y-80058078D01*
X38908406Y-80193394D01*
X38908279Y-80339913D01*
X36945801Y-80339913D01*
X36893208Y-80212945D01*
X36703335Y-80139346D01*
X36016907Y-80825775D01*
X35693617Y-80825775D01*
X35679475Y-80811633D01*
X35841120Y-80649988D01*
X35855262Y-80664130D01*
X36541691Y-79977702D01*
X36468092Y-79787829D01*
X36158943Y-79679513D01*
X43261839Y-79679513D01*
X43317791Y-79814927D01*
X43421305Y-79918622D01*
X43556621Y-79974811D01*
X43703140Y-79974938D01*
X43838554Y-79918986D01*
X43942249Y-79815472D01*
X43998438Y-79680156D01*
X43998565Y-79533637D01*
X43942613Y-79398223D01*
X43839099Y-79294528D01*
X43703783Y-79238339D01*
X43557264Y-79238212D01*
X43421850Y-79294164D01*
X43318155Y-79397678D01*
X43261966Y-79532994D01*
X43261839Y-79679513D01*
X36158943Y-79679513D01*
X36024238Y-79632317D01*
X35554659Y-79658499D01*
X35242432Y-79787829D01*
X35168834Y-79977700D01*
X35084822Y-79893688D01*
X35041000Y-79937510D01*
X35041000Y-78745736D01*
X35067913Y-78810871D01*
X35328792Y-79072206D01*
X35669822Y-79213814D01*
X36039082Y-79214136D01*
X36054668Y-79207696D01*
X43924779Y-79207696D01*
X43980731Y-79343110D01*
X44084245Y-79446805D01*
X44219561Y-79502994D01*
X44366080Y-79503121D01*
X44501494Y-79447169D01*
X44605189Y-79343655D01*
X44661378Y-79208339D01*
X44661505Y-79061820D01*
X44605553Y-78926406D01*
X44589996Y-78910821D01*
X51052181Y-78910821D01*
X51108133Y-79046235D01*
X51211647Y-79149930D01*
X51346963Y-79206119D01*
X51493482Y-79206246D01*
X51628896Y-79150294D01*
X51732591Y-79046780D01*
X51788780Y-78911464D01*
X51788907Y-78764945D01*
X51732955Y-78629531D01*
X51629441Y-78525836D01*
X51494125Y-78469647D01*
X51347606Y-78469520D01*
X51212192Y-78525472D01*
X51108497Y-78628986D01*
X51052308Y-78764302D01*
X51052181Y-78910821D01*
X44589996Y-78910821D01*
X44502039Y-78822711D01*
X44366723Y-78766522D01*
X44220204Y-78766395D01*
X44084790Y-78822347D01*
X43981095Y-78925861D01*
X43924906Y-79061177D01*
X43924779Y-79207696D01*
X36054668Y-79207696D01*
X36380358Y-79073124D01*
X36641693Y-78812245D01*
X36783301Y-78471215D01*
X36783467Y-78279973D01*
X42116299Y-78279973D01*
X42172251Y-78415387D01*
X42275765Y-78519082D01*
X42411081Y-78575271D01*
X42557600Y-78575398D01*
X42567476Y-78571317D01*
X48914702Y-78571317D01*
X48970654Y-78706731D01*
X49074168Y-78810426D01*
X49209484Y-78866615D01*
X49356003Y-78866742D01*
X49491417Y-78810790D01*
X49595112Y-78707276D01*
X49651301Y-78571960D01*
X49651428Y-78425441D01*
X49595476Y-78290027D01*
X49491962Y-78186332D01*
X49356646Y-78130143D01*
X49210127Y-78130016D01*
X49074713Y-78185968D01*
X48971018Y-78289482D01*
X48914829Y-78424798D01*
X48914702Y-78571317D01*
X42567476Y-78571317D01*
X42693014Y-78519446D01*
X42796709Y-78415932D01*
X42852898Y-78280616D01*
X42853025Y-78134097D01*
X42797073Y-77998683D01*
X42693559Y-77894988D01*
X42558243Y-77838799D01*
X42411724Y-77838672D01*
X42276310Y-77894624D01*
X42172615Y-77998138D01*
X42116426Y-78133454D01*
X42116299Y-78279973D01*
X36783467Y-78279973D01*
X36783623Y-78101955D01*
X36642611Y-77760679D01*
X36595568Y-77713553D01*
X37696699Y-77713553D01*
X37752651Y-77848967D01*
X37856165Y-77952662D01*
X37991481Y-78008851D01*
X38138000Y-78008978D01*
X38273414Y-77953026D01*
X38377109Y-77849512D01*
X38433298Y-77714196D01*
X38433309Y-77700853D01*
X44737579Y-77700853D01*
X44793531Y-77836267D01*
X44897045Y-77939962D01*
X45032361Y-77996151D01*
X45178880Y-77996278D01*
X45314294Y-77940326D01*
X45417989Y-77836812D01*
X45474178Y-77701496D01*
X45474305Y-77554977D01*
X45418353Y-77419563D01*
X45314839Y-77315868D01*
X45179523Y-77259679D01*
X45033004Y-77259552D01*
X44897590Y-77315504D01*
X44793895Y-77419018D01*
X44737706Y-77554334D01*
X44737579Y-77700853D01*
X38433309Y-77700853D01*
X38433425Y-77567677D01*
X38377473Y-77432263D01*
X38273959Y-77328568D01*
X38138643Y-77272379D01*
X37992124Y-77272252D01*
X37856710Y-77328204D01*
X37753015Y-77431718D01*
X37696826Y-77567034D01*
X37696699Y-77713553D01*
X36595568Y-77713553D01*
X36381732Y-77499344D01*
X36040702Y-77357736D01*
X35671442Y-77357414D01*
X35330166Y-77498426D01*
X35068831Y-77759305D01*
X35041000Y-77826330D01*
X35041000Y-76655717D01*
X35049657Y-76661632D01*
X35130262Y-76677955D01*
X36580262Y-76677955D01*
X36655563Y-76663786D01*
X36724723Y-76619283D01*
X36771119Y-76551380D01*
X36787442Y-76470775D01*
X36787442Y-75020775D01*
X36773273Y-74945474D01*
X36728770Y-74876314D01*
X36660867Y-74829918D01*
X36580262Y-74813595D01*
X35130262Y-74813595D01*
X35054961Y-74827764D01*
X35041000Y-74836748D01*
X35041000Y-74198915D01*
X37463442Y-74198915D01*
X37463442Y-74536257D01*
X37533046Y-74704298D01*
X37661659Y-74832910D01*
X37713462Y-74854368D01*
X37713462Y-75715315D01*
X37727631Y-75790616D01*
X37772134Y-75859776D01*
X37794471Y-75875038D01*
X37776181Y-75886807D01*
X37729785Y-75954710D01*
X37713462Y-76035315D01*
X37713462Y-76985315D01*
X37727631Y-77060616D01*
X37772134Y-77129776D01*
X37840037Y-77176172D01*
X37920642Y-77192495D01*
X39370642Y-77192495D01*
X39419102Y-77183377D01*
X39388466Y-77257154D01*
X39388339Y-77403673D01*
X39444291Y-77539087D01*
X39547805Y-77642782D01*
X39683121Y-77698971D01*
X39829640Y-77699098D01*
X39965054Y-77643146D01*
X40068749Y-77539632D01*
X40124938Y-77404316D01*
X40125065Y-77257797D01*
X40094959Y-77184934D01*
X48115752Y-77184934D01*
X48194857Y-77376382D01*
X48341204Y-77522985D01*
X48532514Y-77602424D01*
X48739661Y-77602605D01*
X48931109Y-77523500D01*
X49077712Y-77377153D01*
X49120592Y-77273886D01*
X51709904Y-77273886D01*
X51789009Y-77465334D01*
X51935356Y-77611937D01*
X52126666Y-77691376D01*
X52333813Y-77691557D01*
X52525261Y-77612452D01*
X52671864Y-77466105D01*
X52751303Y-77274795D01*
X52751484Y-77067648D01*
X52740895Y-77042019D01*
X55057568Y-77042019D01*
X55113520Y-77177433D01*
X55217034Y-77281128D01*
X55352350Y-77337317D01*
X55498869Y-77337444D01*
X55634283Y-77281492D01*
X55737978Y-77177978D01*
X55794167Y-77042662D01*
X55794294Y-76896143D01*
X55738342Y-76760729D01*
X55634828Y-76657034D01*
X55499512Y-76600845D01*
X55352993Y-76600718D01*
X55217579Y-76656670D01*
X55113884Y-76760184D01*
X55057695Y-76895500D01*
X55057568Y-77042019D01*
X52740895Y-77042019D01*
X52672379Y-76876200D01*
X52526032Y-76729597D01*
X52334722Y-76650158D01*
X52127575Y-76649977D01*
X51936127Y-76729082D01*
X51789524Y-76875429D01*
X51710085Y-77066739D01*
X51709904Y-77273886D01*
X49120592Y-77273886D01*
X49157151Y-77185843D01*
X49157332Y-76978696D01*
X49078227Y-76787248D01*
X48931880Y-76640645D01*
X48740570Y-76561206D01*
X48533423Y-76561025D01*
X48341975Y-76640130D01*
X48195372Y-76786477D01*
X48115933Y-76977787D01*
X48115752Y-77184934D01*
X40094959Y-77184934D01*
X40069113Y-77122383D01*
X39965599Y-77018688D01*
X39830283Y-76962499D01*
X39683764Y-76962372D01*
X39573218Y-77008049D01*
X39577822Y-76985315D01*
X39577822Y-76035315D01*
X39563653Y-75960014D01*
X39519150Y-75890854D01*
X39496813Y-75875592D01*
X39515103Y-75863823D01*
X39561499Y-75795920D01*
X39577822Y-75715315D01*
X39577822Y-75468915D01*
X56505442Y-75468915D01*
X56505442Y-75806257D01*
X56575046Y-75974298D01*
X56703659Y-76102910D01*
X56755462Y-76124368D01*
X56755462Y-76985315D01*
X56769631Y-77060616D01*
X56814134Y-77129776D01*
X56882037Y-77176172D01*
X56962642Y-77192495D01*
X58412642Y-77192495D01*
X58487943Y-77178326D01*
X58557103Y-77133823D01*
X58603499Y-77065920D01*
X58619822Y-76985315D01*
X58619822Y-76124368D01*
X58671625Y-76102910D01*
X58800238Y-75974298D01*
X58869842Y-75806257D01*
X58869842Y-75468915D01*
X58755542Y-75354615D01*
X57801942Y-75354615D01*
X57801942Y-75374615D01*
X57573342Y-75374615D01*
X57573342Y-75354615D01*
X56619742Y-75354615D01*
X56505442Y-75468915D01*
X39577822Y-75468915D01*
X39577822Y-74854368D01*
X39629625Y-74832910D01*
X39758238Y-74704298D01*
X39770633Y-74674373D01*
X56505442Y-74674373D01*
X56505442Y-75011715D01*
X56619742Y-75126015D01*
X57573342Y-75126015D01*
X57573342Y-75106015D01*
X57801942Y-75106015D01*
X57801942Y-75126015D01*
X58755542Y-75126015D01*
X58869842Y-75011715D01*
X58869842Y-74674373D01*
X58800238Y-74506332D01*
X58671625Y-74377720D01*
X58619822Y-74356262D01*
X58619822Y-73495315D01*
X58605653Y-73420014D01*
X58561150Y-73350854D01*
X58538813Y-73335592D01*
X58557103Y-73323823D01*
X58603499Y-73255920D01*
X58619822Y-73175315D01*
X58619822Y-72225315D01*
X58605653Y-72150014D01*
X58561150Y-72080854D01*
X58538813Y-72065592D01*
X58557103Y-72053823D01*
X58603499Y-71985920D01*
X58619822Y-71905315D01*
X58619822Y-71190534D01*
X58859952Y-71190534D01*
X58939057Y-71381982D01*
X59085404Y-71528585D01*
X59276714Y-71608024D01*
X59483861Y-71608205D01*
X59675309Y-71529100D01*
X59821912Y-71382753D01*
X59901351Y-71191443D01*
X59901532Y-70984296D01*
X59822427Y-70792848D01*
X59676080Y-70646245D01*
X59484770Y-70566806D01*
X59277623Y-70566625D01*
X59086175Y-70645730D01*
X58939572Y-70792077D01*
X58860133Y-70983387D01*
X58859952Y-71190534D01*
X58619822Y-71190534D01*
X58619822Y-70955315D01*
X58605653Y-70880014D01*
X58561150Y-70810854D01*
X58493247Y-70764458D01*
X58412642Y-70748135D01*
X56962642Y-70748135D01*
X56887341Y-70762304D01*
X56818181Y-70806807D01*
X56771785Y-70874710D01*
X56755462Y-70955315D01*
X56755462Y-71905315D01*
X56769631Y-71980616D01*
X56814134Y-72049776D01*
X56836471Y-72065038D01*
X56818181Y-72076807D01*
X56771785Y-72144710D01*
X56755462Y-72225315D01*
X56755462Y-73175315D01*
X56769631Y-73250616D01*
X56814134Y-73319776D01*
X56836471Y-73335038D01*
X56818181Y-73346807D01*
X56771785Y-73414710D01*
X56755462Y-73495315D01*
X56755462Y-74356262D01*
X56703659Y-74377720D01*
X56575046Y-74506332D01*
X56505442Y-74674373D01*
X39770633Y-74674373D01*
X39827842Y-74536257D01*
X39827842Y-74198915D01*
X39713542Y-74084615D01*
X38759942Y-74084615D01*
X38759942Y-74104615D01*
X38531342Y-74104615D01*
X38531342Y-74084615D01*
X37577742Y-74084615D01*
X37463442Y-74198915D01*
X35041000Y-74198915D01*
X35041000Y-71658915D01*
X37463442Y-71658915D01*
X37463442Y-71996257D01*
X37533046Y-72164298D01*
X37661659Y-72292910D01*
X37713462Y-72314368D01*
X37713462Y-73086262D01*
X37661659Y-73107720D01*
X37533046Y-73236332D01*
X37463442Y-73404373D01*
X37463442Y-73741715D01*
X37577742Y-73856015D01*
X38531342Y-73856015D01*
X38531342Y-73836015D01*
X38759942Y-73836015D01*
X38759942Y-73856015D01*
X39713542Y-73856015D01*
X39827842Y-73741715D01*
X39827842Y-73404373D01*
X39758238Y-73236332D01*
X39629625Y-73107720D01*
X39577822Y-73086262D01*
X39577822Y-72314368D01*
X39629625Y-72292910D01*
X39758238Y-72164298D01*
X39827842Y-71996257D01*
X39827842Y-71658915D01*
X39713542Y-71544615D01*
X38759942Y-71544615D01*
X38759942Y-71564615D01*
X38531342Y-71564615D01*
X38531342Y-71544615D01*
X37577742Y-71544615D01*
X37463442Y-71658915D01*
X35041000Y-71658915D01*
X35041000Y-70864373D01*
X37463442Y-70864373D01*
X37463442Y-71201715D01*
X37577742Y-71316015D01*
X38531342Y-71316015D01*
X38531342Y-70612415D01*
X38759942Y-70612415D01*
X38759942Y-71316015D01*
X39713542Y-71316015D01*
X39827842Y-71201715D01*
X39827842Y-70864373D01*
X39758238Y-70696332D01*
X39629625Y-70567720D01*
X39461585Y-70498115D01*
X38874242Y-70498115D01*
X38759942Y-70612415D01*
X38531342Y-70612415D01*
X38417042Y-70498115D01*
X37829699Y-70498115D01*
X37661659Y-70567720D01*
X37533046Y-70696332D01*
X37463442Y-70864373D01*
X35041000Y-70864373D01*
X35041000Y-69107652D01*
X37661478Y-69107652D01*
X37717430Y-69243066D01*
X37820944Y-69346761D01*
X37956260Y-69402950D01*
X38102779Y-69403077D01*
X38238193Y-69347125D01*
X38341888Y-69243611D01*
X38398077Y-69108295D01*
X38398147Y-69026753D01*
X56802579Y-69026753D01*
X56858531Y-69162167D01*
X56962045Y-69265862D01*
X57097361Y-69322051D01*
X57243880Y-69322178D01*
X57379294Y-69266226D01*
X57482989Y-69162712D01*
X57539178Y-69027396D01*
X57539305Y-68880877D01*
X57483353Y-68745463D01*
X57411209Y-68673192D01*
X57996352Y-68673192D01*
X58075457Y-68864640D01*
X58221804Y-69011243D01*
X58413114Y-69090682D01*
X58620261Y-69090863D01*
X58811709Y-69011758D01*
X58958312Y-68865411D01*
X59037751Y-68674101D01*
X59037932Y-68466954D01*
X58958827Y-68275506D01*
X58812480Y-68128903D01*
X58621170Y-68049464D01*
X58414023Y-68049283D01*
X58222575Y-68128388D01*
X58075972Y-68274735D01*
X57996533Y-68466045D01*
X57996352Y-68673192D01*
X57411209Y-68673192D01*
X57379839Y-68641768D01*
X57244523Y-68585579D01*
X57098004Y-68585452D01*
X56962590Y-68641404D01*
X56858895Y-68744918D01*
X56802706Y-68880234D01*
X56802579Y-69026753D01*
X38398147Y-69026753D01*
X38398204Y-68961776D01*
X38342252Y-68826362D01*
X38238738Y-68722667D01*
X38103422Y-68666478D01*
X37956903Y-68666351D01*
X37821489Y-68722303D01*
X37717794Y-68825817D01*
X37661605Y-68961133D01*
X37661478Y-69107652D01*
X35041000Y-69107652D01*
X35041000Y-67032853D01*
X37661478Y-67032853D01*
X37717430Y-67168267D01*
X37820944Y-67271962D01*
X37956260Y-67328151D01*
X38102779Y-67328278D01*
X38238193Y-67272326D01*
X38341888Y-67168812D01*
X38398077Y-67033496D01*
X38398204Y-66886977D01*
X38342252Y-66751563D01*
X38238738Y-66647868D01*
X38103422Y-66591679D01*
X37956903Y-66591552D01*
X37821489Y-66647504D01*
X37717794Y-66751018D01*
X37661605Y-66886334D01*
X37661478Y-67032853D01*
X35041000Y-67032853D01*
X35041000Y-65734913D01*
X37132819Y-65734913D01*
X37188771Y-65870327D01*
X37292285Y-65974022D01*
X37427601Y-66030211D01*
X37574120Y-66030338D01*
X37709534Y-65974386D01*
X37813229Y-65870872D01*
X37869418Y-65735556D01*
X37869545Y-65589037D01*
X37813593Y-65453623D01*
X37710079Y-65349928D01*
X37574763Y-65293739D01*
X37428244Y-65293612D01*
X37292830Y-65349564D01*
X37189135Y-65453078D01*
X37132946Y-65588394D01*
X37132819Y-65734913D01*
X35041000Y-65734913D01*
X35041000Y-64165193D01*
X37097259Y-64165193D01*
X37153211Y-64300607D01*
X37256725Y-64404302D01*
X37392041Y-64460491D01*
X37538560Y-64460618D01*
X37673974Y-64404666D01*
X37777669Y-64301152D01*
X37833858Y-64165836D01*
X37833985Y-64019317D01*
X37778033Y-63883903D01*
X37769479Y-63875334D01*
X46134552Y-63875334D01*
X46213657Y-64066782D01*
X46360004Y-64213385D01*
X46551314Y-64292824D01*
X46758461Y-64293005D01*
X46949909Y-64213900D01*
X47096512Y-64067553D01*
X47175951Y-63876243D01*
X47176132Y-63669096D01*
X47097027Y-63477648D01*
X46950680Y-63331045D01*
X46759370Y-63251606D01*
X46552223Y-63251425D01*
X46360775Y-63330530D01*
X46214172Y-63476877D01*
X46134733Y-63668187D01*
X46134552Y-63875334D01*
X37769479Y-63875334D01*
X37674519Y-63780208D01*
X37539203Y-63724019D01*
X37392684Y-63723892D01*
X37257270Y-63779844D01*
X37153575Y-63883358D01*
X37097386Y-64018674D01*
X37097259Y-64165193D01*
X35041000Y-64165193D01*
X35041000Y-63299053D01*
X40470379Y-63299053D01*
X40526331Y-63434467D01*
X40629845Y-63538162D01*
X40765161Y-63594351D01*
X40911680Y-63594478D01*
X41047094Y-63538526D01*
X41150789Y-63435012D01*
X41206978Y-63299696D01*
X41207077Y-63184753D01*
X43391379Y-63184753D01*
X43447331Y-63320167D01*
X43550845Y-63423862D01*
X43686161Y-63480051D01*
X43832680Y-63480178D01*
X43968094Y-63424226D01*
X44071789Y-63320712D01*
X44127978Y-63185396D01*
X44128105Y-63038877D01*
X44114915Y-63006953D01*
X60066479Y-63006953D01*
X60122431Y-63142367D01*
X60225945Y-63246062D01*
X60361261Y-63302251D01*
X60507780Y-63302378D01*
X60643194Y-63246426D01*
X60746889Y-63142912D01*
X60803078Y-63007596D01*
X60803205Y-62861077D01*
X60747253Y-62725663D01*
X60647255Y-62625491D01*
X60681294Y-62611426D01*
X60784989Y-62507912D01*
X60841178Y-62372596D01*
X60841305Y-62226077D01*
X60785353Y-62090663D01*
X60681839Y-61986968D01*
X60546523Y-61930779D01*
X60400004Y-61930652D01*
X60264590Y-61986604D01*
X60160895Y-62090118D01*
X60104706Y-62225434D01*
X60104579Y-62371953D01*
X60160531Y-62507367D01*
X60260529Y-62607539D01*
X60226490Y-62621604D01*
X60122795Y-62725118D01*
X60066606Y-62860434D01*
X60066479Y-63006953D01*
X44114915Y-63006953D01*
X44072153Y-62903463D01*
X43968639Y-62799768D01*
X43833323Y-62743579D01*
X43686804Y-62743452D01*
X43551390Y-62799404D01*
X43447695Y-62902918D01*
X43391506Y-63038234D01*
X43391379Y-63184753D01*
X41207077Y-63184753D01*
X41207105Y-63153177D01*
X41151153Y-63017763D01*
X41047639Y-62914068D01*
X40912323Y-62857879D01*
X40765804Y-62857752D01*
X40630390Y-62913704D01*
X40526695Y-63017218D01*
X40470506Y-63152534D01*
X40470379Y-63299053D01*
X35041000Y-63299053D01*
X35041000Y-62270353D01*
X37015979Y-62270353D01*
X37071931Y-62405767D01*
X37175445Y-62509462D01*
X37310761Y-62565651D01*
X37457280Y-62565778D01*
X37557536Y-62524353D01*
X40952979Y-62524353D01*
X41008931Y-62659767D01*
X41112445Y-62763462D01*
X41247761Y-62819651D01*
X41394280Y-62819778D01*
X41529694Y-62763826D01*
X41633389Y-62660312D01*
X41689578Y-62524996D01*
X41689705Y-62378477D01*
X41662748Y-62313234D01*
X56523152Y-62313234D01*
X56602257Y-62504682D01*
X56748604Y-62651285D01*
X56939914Y-62730724D01*
X57147061Y-62730905D01*
X57338509Y-62651800D01*
X57485112Y-62505453D01*
X57564551Y-62314143D01*
X57564732Y-62106996D01*
X57485627Y-61915548D01*
X57339280Y-61768945D01*
X57147970Y-61689506D01*
X56940823Y-61689325D01*
X56749375Y-61768430D01*
X56602772Y-61914777D01*
X56523333Y-62106087D01*
X56523152Y-62313234D01*
X41662748Y-62313234D01*
X41633753Y-62243063D01*
X41530239Y-62139368D01*
X41394923Y-62083179D01*
X41248404Y-62083052D01*
X41112990Y-62139004D01*
X41009295Y-62242518D01*
X40953106Y-62377834D01*
X40952979Y-62524353D01*
X37557536Y-62524353D01*
X37592694Y-62509826D01*
X37696389Y-62406312D01*
X37752578Y-62270996D01*
X37752705Y-62124477D01*
X37696753Y-61989063D01*
X37593239Y-61885368D01*
X37457923Y-61829179D01*
X37311404Y-61829052D01*
X37175990Y-61885004D01*
X37072295Y-61988518D01*
X37016106Y-62123834D01*
X37015979Y-62270353D01*
X35041000Y-62270353D01*
X35041000Y-61152753D01*
X41321279Y-61152753D01*
X41377231Y-61288167D01*
X41480745Y-61391862D01*
X41616061Y-61448051D01*
X41762580Y-61448178D01*
X41897994Y-61392226D01*
X42001689Y-61288712D01*
X42057878Y-61153396D01*
X42058005Y-61006877D01*
X42002053Y-60871463D01*
X41898539Y-60767768D01*
X41763223Y-60711579D01*
X41616704Y-60711452D01*
X41481290Y-60767404D01*
X41377595Y-60870918D01*
X41321406Y-61006234D01*
X41321279Y-61152753D01*
X35041000Y-61152753D01*
X35041000Y-60053983D01*
X36971618Y-60053983D01*
X37127821Y-60313948D01*
X37816241Y-60582205D01*
X38554917Y-60566596D01*
X39164863Y-60313948D01*
X39188918Y-60273913D01*
X51143459Y-60273913D01*
X51199411Y-60409327D01*
X51302925Y-60513022D01*
X51438241Y-60569211D01*
X51584760Y-60569338D01*
X51720174Y-60513386D01*
X51823869Y-60409872D01*
X51880058Y-60274556D01*
X51880185Y-60128037D01*
X51849587Y-60053983D01*
X56971618Y-60053983D01*
X57127821Y-60313948D01*
X57816241Y-60582205D01*
X58554917Y-60566596D01*
X59164863Y-60313948D01*
X59321066Y-60053983D01*
X58146342Y-58879260D01*
X56971618Y-60053983D01*
X51849587Y-60053983D01*
X51824233Y-59992623D01*
X51720719Y-59888928D01*
X51585403Y-59832739D01*
X51438884Y-59832612D01*
X51303470Y-59888564D01*
X51199775Y-59992078D01*
X51143586Y-60127394D01*
X51143459Y-60273913D01*
X39188918Y-60273913D01*
X39321066Y-60053983D01*
X38146342Y-58879260D01*
X36971618Y-60053983D01*
X35041000Y-60053983D01*
X35041000Y-58387514D01*
X36281752Y-58387514D01*
X36297361Y-59126190D01*
X36550009Y-59736136D01*
X36809974Y-59892339D01*
X37984697Y-58717615D01*
X38307987Y-58717615D01*
X39482710Y-59892339D01*
X39742675Y-59736136D01*
X39871618Y-59405233D01*
X42756379Y-59405233D01*
X42812331Y-59540647D01*
X42915845Y-59644342D01*
X43051161Y-59700531D01*
X43197680Y-59700658D01*
X43333094Y-59644706D01*
X43436789Y-59541192D01*
X43492978Y-59405876D01*
X43493105Y-59259357D01*
X43437153Y-59123943D01*
X43333639Y-59020248D01*
X43198323Y-58964059D01*
X43051804Y-58963932D01*
X42916390Y-59019884D01*
X42812695Y-59123398D01*
X42756506Y-59258714D01*
X42756379Y-59405233D01*
X39871618Y-59405233D01*
X40010932Y-59047716D01*
X39997447Y-58409553D01*
X49385779Y-58409553D01*
X49441731Y-58544967D01*
X49545245Y-58648662D01*
X49680561Y-58704851D01*
X49827080Y-58704978D01*
X49962494Y-58649026D01*
X50066189Y-58545512D01*
X50122378Y-58410196D01*
X50122397Y-58387514D01*
X56281752Y-58387514D01*
X56297361Y-59126190D01*
X56550009Y-59736136D01*
X56809974Y-59892339D01*
X57984697Y-58717615D01*
X58307987Y-58717615D01*
X59482710Y-59892339D01*
X59742675Y-59736136D01*
X60010932Y-59047716D01*
X59995323Y-58309040D01*
X59742675Y-57699094D01*
X59482710Y-57542891D01*
X58307987Y-58717615D01*
X57984697Y-58717615D01*
X56809974Y-57542891D01*
X56550009Y-57699094D01*
X56281752Y-58387514D01*
X50122397Y-58387514D01*
X50122505Y-58263677D01*
X50066553Y-58128263D01*
X49963039Y-58024568D01*
X49827723Y-57968379D01*
X49681204Y-57968252D01*
X49545790Y-58024204D01*
X49442095Y-58127718D01*
X49385906Y-58263034D01*
X49385779Y-58409553D01*
X39997447Y-58409553D01*
X39995323Y-58309040D01*
X39742675Y-57699094D01*
X39482710Y-57542891D01*
X38307987Y-58717615D01*
X37984697Y-58717615D01*
X36809974Y-57542891D01*
X36550009Y-57699094D01*
X36281752Y-58387514D01*
X35041000Y-58387514D01*
X35041000Y-57381247D01*
X36971618Y-57381247D01*
X38146342Y-58555970D01*
X39321066Y-57381247D01*
X56971618Y-57381247D01*
X58146342Y-58555970D01*
X59321066Y-57381247D01*
X59221628Y-57215753D01*
X60295079Y-57215753D01*
X60351031Y-57351167D01*
X60454545Y-57454862D01*
X60589861Y-57511051D01*
X60736380Y-57511178D01*
X60871794Y-57455226D01*
X60975489Y-57351712D01*
X61031678Y-57216396D01*
X61031805Y-57069877D01*
X60975853Y-56934463D01*
X60872339Y-56830768D01*
X60737023Y-56774579D01*
X60590504Y-56774452D01*
X60455090Y-56830404D01*
X60351395Y-56933918D01*
X60295206Y-57069234D01*
X60295079Y-57215753D01*
X59221628Y-57215753D01*
X59164863Y-57121282D01*
X58476443Y-56853025D01*
X57737767Y-56868634D01*
X57127821Y-57121282D01*
X56971618Y-57381247D01*
X39321066Y-57381247D01*
X39164863Y-57121282D01*
X38476443Y-56853025D01*
X37737767Y-56868634D01*
X37127821Y-57121282D01*
X36971618Y-57381247D01*
X35041000Y-57381247D01*
X35041000Y-55244713D01*
X38230099Y-55244713D01*
X38286051Y-55380127D01*
X38389565Y-55483822D01*
X38524881Y-55540011D01*
X38671400Y-55540138D01*
X38806814Y-55484186D01*
X38910509Y-55380672D01*
X38966698Y-55245356D01*
X38966825Y-55098837D01*
X38910873Y-54963423D01*
X38807359Y-54859728D01*
X38731320Y-54828153D01*
X41054579Y-54828153D01*
X41110531Y-54963567D01*
X41214045Y-55067262D01*
X41349361Y-55123451D01*
X41495880Y-55123578D01*
X41631294Y-55067626D01*
X41734989Y-54964112D01*
X41791178Y-54828796D01*
X41791189Y-54815453D01*
X56485079Y-54815453D01*
X56541031Y-54950867D01*
X56644545Y-55054562D01*
X56779861Y-55110751D01*
X56926380Y-55110878D01*
X57061794Y-55054926D01*
X57142069Y-54974791D01*
X60551619Y-54974791D01*
X60607571Y-55110205D01*
X60711085Y-55213900D01*
X60846401Y-55270089D01*
X60992920Y-55270216D01*
X61128334Y-55214264D01*
X61232029Y-55110750D01*
X61288218Y-54975434D01*
X61288345Y-54828915D01*
X61232393Y-54693501D01*
X61128879Y-54589806D01*
X60993563Y-54533617D01*
X60847044Y-54533490D01*
X60711630Y-54589442D01*
X60607935Y-54692956D01*
X60551746Y-54828272D01*
X60551619Y-54974791D01*
X57142069Y-54974791D01*
X57165489Y-54951412D01*
X57221678Y-54816096D01*
X57221805Y-54669577D01*
X57165853Y-54534163D01*
X57062339Y-54430468D01*
X56927023Y-54374279D01*
X56780504Y-54374152D01*
X56645090Y-54430104D01*
X56541395Y-54533618D01*
X56485206Y-54668934D01*
X56485079Y-54815453D01*
X41791189Y-54815453D01*
X41791305Y-54682277D01*
X41735353Y-54546863D01*
X41631839Y-54443168D01*
X41496523Y-54386979D01*
X41350004Y-54386852D01*
X41214590Y-54442804D01*
X41110895Y-54546318D01*
X41054706Y-54681634D01*
X41054579Y-54828153D01*
X38731320Y-54828153D01*
X38672043Y-54803539D01*
X38525524Y-54803412D01*
X38390110Y-54859364D01*
X38286415Y-54962878D01*
X38230226Y-55098194D01*
X38230099Y-55244713D01*
X35041000Y-55244713D01*
X35041000Y-54033915D01*
X45783203Y-54033915D01*
X45741006Y-54135534D01*
M02*
